# Blender 5.2.2 LTS
# www.blender.org
mtllib AFRICA.mtl
o Circle
v -0.245203 0.000000 -4.158921
v -0.228788 -0.037619 -4.193209
v -0.233596 -0.011018 -4.183166
v -0.423177 -0.037619 -4.323610
v -0.443482 -0.037619 -4.380561
v -0.498512 0.000000 -4.328846
v -0.442065 -0.037619 -4.348971
v -0.454270 -0.015899 -4.344620
v -0.463542 -0.011018 -4.352439
v -0.456504 -0.011018 -4.332698
v -0.404730 -0.037619 -4.508108
v -0.443431 0.000000 -4.510137
v -0.416065 -0.011018 -4.508702
v -0.447962 -0.037619 -4.732668
v -0.492359 -0.037619 -4.764607
v -0.485296 0.000000 -4.727599
v -0.463901 -0.037619 -4.757339
v -0.467837 -0.015900 -4.751868
v -0.490300 -0.011018 -4.753754
v -0.458907 -0.011018 -4.731170
v -0.758405 -0.037619 -4.728920
v -0.756124 0.000000 -4.691269
v -0.757737 -0.011018 -4.717892
v -1.113838 -0.037619 -4.733295
v -1.109396 0.000000 -4.695618
v -1.112537 -0.011018 -4.722260
v -1.477268 -0.037619 -4.641627
v -1.471552 0.000000 -4.604272
v -1.475593 -0.011018 -4.630686
v -1.747897 -0.037619 -4.626292
v -1.741541 0.000000 -4.588973
v -1.746036 -0.011018 -4.615362
v -1.975997 -0.037619 -4.560503
v -2.047699 -0.037619 -4.562366
v -2.013168 0.000000 -4.510631
v -2.011971 -0.037619 -4.556732
v -2.012199 -0.015899 -4.547930
v -2.027889 -0.011018 -4.543862
v -1.996742 -0.011018 -4.543053
v -0.943353 -0.037619 -0.383555
v -0.943147 0.000000 -0.457258
v -0.999585 -0.037619 -0.409855
v -0.949961 -0.011018 -0.416449
v -0.962488 -0.015899 -0.415906
v -0.970102 -0.011018 -0.425869
v -0.967739 -0.037619 -0.404680
v -0.409683 -0.037619 1.447633
v -0.378800 0.000000 1.420512
v -0.396360 -0.037619 1.383350
v -0.399348 -0.011018 1.439957
v -0.404489 -0.015900 1.415187
v -0.389927 -0.011018 1.394501
v -0.411765 -0.037619 1.413679
v 1.557722 -0.037619 4.621047
v 1.514197 0.000000 4.615863
v 1.497528 -0.037619 4.656401
v 1.542127 -0.011018 4.623217
v 1.528026 -0.015899 4.639408
v 1.507018 -0.011018 4.643837
v 1.530568 -0.037619 4.643735
v 2.312316 0.000000 3.548224
v 2.331214 -0.037619 3.581078
v 2.325679 -0.011018 3.571455
v 3.007194 0.000000 2.578684
v 3.030104 -0.037619 2.608927
v 3.023394 -0.011018 2.600069
v 3.334944 -0.037619 1.666537
v 3.328114 0.000000 1.709000
v 3.367034 -0.037619 1.727301
v 3.331012 -0.011018 1.679994
v 3.351113 -0.015900 1.696854
v 3.353702 -0.011018 1.722961
v 3.358532 -0.037619 1.692936
v 3.256269 -0.037619 1.306244
v 3.227872 0.000000 1.341478
v 3.255060 -0.037619 1.377653
v 3.249507 -0.011018 1.321536
v 3.255490 -0.015899 1.341945
v 3.248819 -0.011018 1.362141
v 3.260566 -0.037619 1.342032
v 3.190041 -0.037619 1.040251
v 3.129334 0.000000 1.069622
v 3.185005 -0.037619 1.107684
v 3.166416 -0.011018 1.058865
v 3.170311 -0.015899 1.072682
v 3.164407 -0.011018 1.085768
v 3.180710 -0.037619 1.073459
v 4.165771 0.000000 0.042809
v 4.193050 -0.037619 0.069775
v 4.185061 -0.011018 0.061877
v 4.795790 -0.037619 -1.380560
v 4.793892 0.000000 -1.342055
v 4.831745 -0.037619 -1.349364
v 4.795073 -0.011018 -1.369096
v 4.816556 -0.015900 -1.368176
v 4.820496 -0.011018 -1.347037
v 4.821838 -0.037619 -1.374264
v 3.791734 0.000000 -1.387954
v 3.819338 -0.037619 -1.413985
v 3.811254 -0.011018 -1.406361
v 3.118465 0.000000 -2.134024
v 3.152302 -0.037619 -2.150538
v 3.142391 -0.011018 -2.145701
v 2.720921 -0.037619 -2.806978
v 2.701968 0.000000 -2.749123
v 2.762832 -0.037619 -2.747706
v 2.718765 -0.011018 -2.780719
v 2.731669 -0.015899 -2.770124
v 2.737356 -0.011018 -2.754427
v 2.738533 -0.037619 -2.774978
v 2.485307 0.000000 -3.161826
v 2.516438 -0.037619 -3.183304
v 2.507320 -0.011018 -3.177013
v 2.490288 -0.037619 -3.481394
v 2.463891 0.000000 -3.510146
v 2.444154 -0.037619 -3.476472
v 2.482517 -0.011018 -3.490181
v 2.467667 -0.015900 -3.474751
v 2.449896 -0.011018 -3.486701
v 2.468561 -0.037619 -3.466370
v 2.536274 -0.037619 -3.555037
v 2.551282 -0.037619 -3.624242
v 2.517138 0.000000 -3.595417
v 2.548923 -0.037619 -3.588523
v 2.543992 -0.015899 -3.589593
v 2.541934 -0.011018 -3.610847
v 2.533315 -0.011018 -3.571100
v 1.952516 0.000000 -3.928535
v 1.956102 -0.037619 -3.965986
v 1.955052 -0.011018 -3.955017
v 1.005431 -0.037619 -4.177412
v 1.039999 0.000000 -4.148514
v 1.076597 -0.037619 -4.174794
v 1.020474 -0.011018 -4.170424
v 1.041013 -0.015899 -4.176066
v 1.061081 -0.011018 -4.168931
v 1.041199 -0.037619 -4.181128
v 0.697353 -0.037619 -4.084884
v 0.638684 -0.037619 -4.044019
v 0.683950 0.000000 -4.041579
v 0.665245 -0.037619 -4.068433
v 0.668150 -0.015899 -4.064263
v 0.655094 -0.011018 -4.047488
v 0.688410 -0.011018 -4.070693
v 0.514489 -0.037619 -3.879210
v 0.455332 -0.037619 -3.858204
v 0.506935 0.000000 -3.806678
v 0.487784 -0.037619 -3.860613
v 0.491850 -0.015899 -3.849164
v 0.483006 -0.011018 -3.840003
v 0.504490 -0.011018 -3.847633
v 0.242831 -0.037619 -3.910800
v 0.184518 -0.037619 -3.950499
v 0.183735 0.000000 -3.886673
v 0.210626 -0.037619 -3.926172
v 0.205390 -0.015899 -3.918481
v 0.190476 -0.011018 -3.923100
v 0.215155 -0.011018 -3.906299
v 0.103733 -0.037619 -4.064139
v 0.046142 -0.037619 -4.106374
v 0.058499 0.000000 -4.062842
v 0.077836 -0.037619 -4.089211
v 0.074834 -0.015899 -4.085116
v 0.054717 -0.011018 -4.092021
v 0.087466 -0.011018 -4.068005
v -0.052737 -0.037619 -4.138345
v -0.064095 0.000000 -4.102482
v -0.056064 -0.011018 -4.127841
v 2.519042 -0.037619 -3.868730
v 2.476720 -0.037619 -3.910045
v 2.480695 0.000000 -3.871783
v 2.504804 -0.037619 -3.896479
v 2.500195 -0.015900 -3.891757
v 2.477689 -0.011018 -3.898638
v 2.507615 -0.011018 -3.869424
v 1.533874 -0.037619 -3.999907
v 1.525479 0.000000 -3.962841
v 1.531415 -0.011018 -3.989051
v -0.984546 -0.037619 0.386816
v -0.964144 0.000000 0.350314
v -0.993481 -0.037619 0.320516
v -0.976953 -0.011018 0.375907
v -0.990002 -0.015900 0.353799
v -0.983271 -0.011018 0.329026
v -0.997697 -0.037619 0.354836
v 0.604971 0.000000 4.720274
v 0.607390 -0.037619 4.757817
v 0.606681 -0.011018 4.746821
v 2.153953 -0.037619 3.926788
v 2.115200 0.000000 3.947032
v 2.124247 -0.037619 3.989808
v 2.142357 -0.011018 3.937326
v 2.139882 -0.015899 3.958667
v 2.124995 -0.011018 3.974157
v 2.144421 -0.037619 3.960806
v 2.558808 0.000000 3.199910
v 2.596907 -0.037619 3.194195
v 2.585748 -0.011018 3.195869
v 3.291357 0.000000 1.831854
v 3.329267 -0.037619 1.840673
v 3.318163 -0.011018 1.838090
v 3.236364 -0.037619 1.431022
v 3.184167 0.000000 1.466240
v 3.235852 -0.037619 1.502205
v 3.217619 -0.011018 1.451207
v 3.222025 -0.015899 1.466513
v 3.217399 -0.011018 1.481753
v 3.231063 -0.037619 1.466577
v 3.227565 -0.037619 1.214446
v 3.192088 0.000000 1.227043
v 3.217174 -0.011018 1.218135
v 3.471814 -0.037619 0.557586
v 3.443644 0.000000 0.531224
v 3.463563 -0.011018 0.549865
v 4.797035 -0.037619 -0.845804
v 4.818864 -0.037619 -0.914809
v 4.780464 0.000000 -0.889001
v 4.812009 -0.037619 -0.879022
v 4.807094 -0.015899 -0.880577
v 4.807452 -0.011018 -0.901674
v 4.795253 -0.011018 -0.863112
v 3.986199 -0.037619 -1.240641
v 3.927107 -0.037619 -1.264734
v 3.932384 0.000000 -1.193164
v 3.953537 -0.037619 -1.245044
v 3.949087 -0.015899 -1.234130
v 3.936062 -0.011018 -1.233510
v 3.957965 -0.011018 -1.224580
v 3.338510 -0.037619 -1.806042
v 3.308960 0.000000 -1.781596
v 3.329854 -0.011018 -1.798882
v 2.963240 -0.037619 -2.582516
v 2.932379 0.000000 -2.559202
v 2.954201 -0.011018 -2.575688
v 2.633812 -0.037619 -3.045967
v 2.600796 0.000000 -3.026696
v 2.624142 -0.011018 -3.040323
v 2.260361 -0.037619 -3.651318
v 2.268513 -0.037619 -3.657333
v 2.076410 0.000000 -3.909142
v 2.255269 -0.037619 -3.666750
v 2.209723 -0.015899 -3.728474
v 2.166872 -0.011018 -3.777810
v 2.175221 -0.011018 -3.783969
v -0.837655 -0.037619 -0.204337
v -0.831137 -0.037619 -0.136485
v -0.777212 0.000000 -0.175904
v -0.827830 -0.037619 -0.171041
v -0.817650 -0.015899 -0.172019
v -0.811516 -0.011018 -0.158802
v -0.814144 -0.011018 -0.186162
v -0.305562 -0.037619 1.777186
v -0.319321 -0.037619 1.841085
v -0.251897 0.000000 1.822172
v -0.304897 -0.037619 1.810760
v -0.293908 -0.015899 1.813126
v -0.291414 -0.011018 1.826432
v -0.286158 -0.011018 1.802026
v 1.851761 -0.037619 4.240212
v 1.823945 0.000000 4.214683
v 1.843614 -0.011018 4.232734
v 2.542872 -0.037619 3.491646
v 2.580097 -0.037619 3.439473
v 2.541575 0.000000 3.451355
v 2.568930 -0.037619 3.470872
v 2.563148 -0.015900 3.466747
v 2.568013 -0.011018 3.442381
v 2.541691 -0.011018 3.479273
v 3.316708 -0.037619 2.326204
v 3.342324 -0.037619 2.262184
v 3.305380 0.000000 2.284536
v 3.337409 -0.037619 2.297352
v 3.329530 -0.015900 2.294199
v 3.329399 -0.011018 2.267889
v 3.311285 -0.011018 2.313157
v 3.304659 -0.037619 1.642764
v 3.263142 -0.037619 1.583857
v 3.242965 0.000000 1.642162
v 3.280241 -0.037619 1.615890
v 3.273170 -0.015899 1.620874
v 3.260443 -0.011018 1.610539
v 3.278622 -0.011018 1.636334
v -0.358471 -0.037619 1.284033
v -0.361600 -0.037619 1.343296
v -0.289316 0.000000 1.317399
v -0.350471 -0.037619 1.314170
v -0.337139 -0.015899 1.314873
v -0.331343 -0.011018 1.325241
v -0.330283 -0.011018 1.305174
v 0.953152 -0.037619 4.738008
v 0.949282 0.000000 4.700550
v 0.952019 -0.011018 4.727037
v 2.163775 -0.037619 3.742905
v 2.195861 -0.037619 3.682746
v 2.129153 0.000000 3.685803
v 2.174004 -0.037619 3.709725
v 2.164986 -0.015899 3.704915
v 2.167186 -0.011018 3.690504
v 2.154244 -0.011018 3.714770
v 2.503896 -0.037619 2.951658
v 2.523108 -0.037619 2.897905
v 2.443735 0.000000 2.899846
v 2.503944 -0.037619 2.921365
v 2.490616 -0.015899 2.916602
v 2.487280 -0.011018 2.905644
v 2.481090 -0.011018 2.922962
v 3.351891 -0.037619 1.798063
v 3.367034 -0.037619 1.727301
v 3.331285 0.000000 1.756652
v 3.363633 -0.037619 1.763575
v 3.358593 -0.015899 1.762496
v 3.356933 -0.011018 1.741459
v 3.348469 -0.011018 1.781012
v -0.076950 0.000000 3.643913
v -0.112926 -0.037619 3.656008
v -0.102389 -0.011018 3.652465
v -0.531578 -0.037619 2.633183
v -0.510168 0.000000 2.592728
v -0.544468 -0.037619 2.562421
v -0.527791 -0.011018 2.616539
v -0.537490 -0.015899 2.597705
v -0.535055 -0.011018 2.576660
v -0.542521 -0.037619 2.598621
v 0.230143 -0.037619 4.588731
v 0.240415 0.000000 4.543703
v 0.198862 -0.037619 4.523545
v 0.229461 -0.011018 4.571399
v 0.215259 -0.015899 4.555775
v 0.211956 -0.011018 4.534920
v 0.210617 -0.037619 4.558002
v -0.455418 -0.037619 1.993105
v -0.484924 -0.037619 2.058492
v -0.444547 0.000000 2.037361
v -0.474454 -0.037619 2.023865
v -0.469807 -0.015899 2.025963
v -0.472473 -0.011018 2.047013
v -0.455787 -0.011018 2.010036
v 0.138741 -0.037619 4.167278
v 0.174921 0.000000 4.155597
v 0.149338 -0.011018 4.163857
v -0.179307 -0.037619 3.313180
v -0.143406 0.000000 3.300697
v -0.168792 -0.011018 3.309524
v 0.370110 -0.037619 4.745870
v 0.432642 -0.037619 4.771108
v 0.410841 0.000000 4.735038
v 0.398123 -0.037619 4.766550
v 0.401091 -0.015900 4.759196
v 0.426924 -0.011018 4.758891
v 0.382707 -0.011018 4.741045
v -4.291684 0.000000 -1.764656
v -4.328258 -0.037619 -1.754909
v -4.317545 -0.011018 -1.757764
v -3.874222 0.000000 -3.318135
v -3.902920 -0.037619 -3.343628
v -3.894515 -0.011018 -3.336161
v -2.269675 0.000000 -0.506671
v -2.260663 -0.037619 -0.469384
v -2.263302 -0.011018 -0.480305
v -3.007781 0.000000 -3.911059
v -3.041753 -0.037619 -3.927436
v -3.031802 -0.011018 -3.922640
v -3.731176 0.000000 -0.828332
v -3.757674 -0.037619 -0.800530
v -3.749913 -0.011018 -0.808673
v -4.135883 0.000000 -2.452368
v -4.174543 -0.037619 -2.456625
v -4.163220 -0.011018 -2.455379
v -1.507301 -0.037619 -0.591938
v -1.496066 0.000000 -0.663397
v -1.559229 -0.037619 -0.628140
v -1.508887 -0.011018 -0.624699
v -1.521605 -0.015899 -0.626764
v -1.527942 -0.011018 -0.637983
v -1.528449 -0.037619 -0.616948
v -2.528562 0.000000 -4.400191
v -2.552214 -0.037619 -4.429892
v -2.545286 -0.011018 -4.421192
v -4.211407 -0.037619 -1.454583
v -4.177961 0.000000 -1.472370
v -4.201612 -0.011018 -1.459792
v -4.205127 -0.037619 -2.823172
v -4.218505 -0.037619 -2.753427
v -4.184875 0.000000 -2.783132
v -4.216870 -0.037619 -2.789269
v -4.211906 -0.015899 -2.788317
v -4.209397 -0.011018 -2.767138
v -4.201738 -0.011018 -2.807064
v -1.891150 -0.037619 -0.640694
v -1.898766 0.000000 -0.678628
v -1.893380 -0.011018 -0.651805
v -3.443462 -0.037619 -3.688738
v -3.399331 0.000000 -3.674836
v -3.375918 -0.037619 -3.714743
v -3.426075 -0.011018 -3.688016
v -3.409367 -0.015899 -3.700901
v -3.388332 -0.011018 -3.702549
v -3.411220 -0.037619 -3.705713
v -3.201091 -0.037619 -0.452761
v -3.131599 -0.037619 -0.434340
v -3.159099 0.000000 -0.470883
v -3.167522 -0.037619 -0.439109
v -3.166213 -0.015899 -0.444049
v -3.145036 -0.011018 -0.444826
v -3.184224 -0.011018 -0.455215
v -4.360888 -0.037619 -1.971014
v -4.322207 0.000000 -1.966810
v -4.349558 -0.011018 -1.969783
v -1.419123 -0.037619 -0.378017
v -1.367666 -0.037619 -0.349340
v -1.381397 0.000000 -0.385206
v -1.398239 -0.037619 -0.354986
v -1.395029 -0.015900 -0.360746
v -1.371562 -0.011018 -0.360070
v -1.407948 -0.011018 -0.380348
v -2.296219 -0.037619 -4.648245
v -2.357768 -0.037619 -4.633337
v -2.321254 0.000000 -4.617094
v -2.329173 -0.037619 -4.649788
v -2.327531 -0.015900 -4.643009
v -2.346875 -0.011018 -4.627760
v -2.303354 -0.011018 -4.638303
v -3.133086 -0.037619 -3.767814
v -3.189233 -0.037619 -3.731750
v -3.128847 0.000000 -3.699476
v -3.157270 -0.037619 -3.743726
v -3.151459 -0.015899 -3.734680
v -3.159747 -0.011018 -3.723372
v -3.137729 -0.011018 -3.737515
v -2.899412 -0.037619 -4.223175
v -2.945644 -0.037619 -4.168976
v -2.901508 0.000000 -4.178145
v -2.926342 -0.037619 -4.199329
v -2.922488 -0.015899 -4.196042
v -2.930815 -0.011018 -4.176441
v -2.904446 -0.011018 -4.207355
v -0.228788 -0.379158 -4.193209
v -0.245203 -0.416777 -4.158921
v -0.233596 -0.405759 -4.183166
v -0.423177 -0.379158 -4.323610
v -0.498512 -0.416777 -4.328846
v -0.443482 -0.379158 -4.380561
v -0.456504 -0.405759 -4.332698
v -0.454270 -0.400878 -4.344620
v -0.463542 -0.405759 -4.352439
v -0.442065 -0.379158 -4.348971
v -0.443431 -0.416777 -4.510137
v -0.404730 -0.379158 -4.508108
v -0.416065 -0.405759 -4.508702
v -0.447962 -0.379158 -4.732668
v -0.485296 -0.416777 -4.727599
v -0.492359 -0.379158 -4.764607
v -0.458907 -0.405759 -4.731170
v -0.467837 -0.400877 -4.751868
v -0.490300 -0.405759 -4.753754
v -0.463901 -0.379158 -4.757339
v -0.756124 -0.416777 -4.691269
v -0.758405 -0.379158 -4.728920
v -0.757737 -0.405759 -4.717892
v -1.109396 -0.416777 -4.695618
v -1.113838 -0.379158 -4.733295
v -1.112537 -0.405759 -4.722260
v -1.471552 -0.416777 -4.604272
v -1.477268 -0.379158 -4.641627
v -1.475593 -0.405759 -4.630686
v -1.741541 -0.416777 -4.588973
v -1.747897 -0.379158 -4.626292
v -1.746036 -0.405759 -4.615362
v -1.975997 -0.379158 -4.560503
v -2.013168 -0.416777 -4.510631
v -2.047699 -0.379158 -4.562366
v -1.996742 -0.405759 -4.543053
v -2.012199 -0.400878 -4.547930
v -2.027889 -0.405759 -4.543862
v -2.011971 -0.379158 -4.556732
v -0.943353 -0.379158 -0.383555
v -0.999585 -0.379158 -0.409855
v -0.943147 -0.416777 -0.457258
v -0.967739 -0.379158 -0.404680
v -0.962488 -0.400878 -0.415906
v -0.970102 -0.405759 -0.425869
v -0.949961 -0.405759 -0.416449
v -0.409683 -0.379158 1.447633
v -0.396360 -0.379158 1.383350
v -0.378800 -0.416777 1.420512
v -0.411765 -0.379158 1.413679
v -0.404489 -0.400877 1.415187
v -0.389927 -0.405759 1.394501
v -0.399348 -0.405759 1.439957
v 1.557722 -0.379158 4.621047
v 1.497528 -0.379158 4.656401
v 1.514197 -0.416777 4.615863
v 1.530569 -0.379158 4.643735
v 1.528027 -0.400878 4.639408
v 1.507018 -0.405759 4.643837
v 1.542127 -0.405759 4.623217
v 2.331214 -0.379158 3.581078
v 2.312316 -0.416777 3.548224
v 2.325679 -0.405759 3.571455
v 3.030104 -0.379158 2.608927
v 3.007194 -0.416777 2.578684
v 3.023394 -0.405759 2.600069
v 3.334944 -0.379158 1.666537
v 3.367034 -0.379158 1.727301
v 3.328114 -0.416777 1.709000
v 3.358532 -0.379158 1.692936
v 3.351113 -0.400877 1.696854
v 3.353702 -0.405759 1.722961
v 3.331012 -0.405759 1.679994
v 3.256269 -0.379158 1.306244
v 3.255060 -0.379158 1.377653
v 3.227872 -0.416777 1.341478
v 3.260566 -0.379158 1.342032
v 3.255490 -0.400878 1.341946
v 3.248819 -0.405759 1.362141
v 3.249507 -0.405759 1.321536
v 3.190041 -0.379158 1.040251
v 3.185005 -0.379158 1.107684
v 3.129334 -0.416777 1.069622
v 3.180710 -0.379158 1.073459
v 3.170311 -0.400878 1.072682
v 3.164407 -0.405759 1.085768
v 3.166416 -0.405759 1.058865
v 4.193050 -0.379158 0.069775
v 4.165771 -0.416777 0.042809
v 4.185061 -0.405759 0.061877
v 4.795790 -0.379158 -1.380560
v 4.831745 -0.379158 -1.349364
v 4.793892 -0.416777 -1.342055
v 4.821838 -0.379158 -1.374264
v 4.816556 -0.400877 -1.368176
v 4.820496 -0.405759 -1.347037
v 4.795073 -0.405759 -1.369096
v 3.819338 -0.379158 -1.413985
v 3.791734 -0.416777 -1.387954
v 3.811254 -0.405759 -1.406361
v 3.152302 -0.379158 -2.150538
v 3.118465 -0.416777 -2.134024
v 3.142391 -0.405759 -2.145701
v 2.720921 -0.379158 -2.806978
v 2.762832 -0.379158 -2.747706
v 2.701968 -0.416777 -2.749123
v 2.738533 -0.379158 -2.774978
v 2.731669 -0.400878 -2.770124
v 2.737356 -0.405759 -2.754427
v 2.718765 -0.405759 -2.780719
v 2.516438 -0.379158 -3.183304
v 2.485307 -0.416777 -3.161826
v 2.507320 -0.405759 -3.177013
v 2.490288 -0.379158 -3.481394
v 2.444154 -0.379158 -3.476472
v 2.463891 -0.416777 -3.510146
v 2.468561 -0.379158 -3.466370
v 2.467667 -0.400877 -3.474751
v 2.449896 -0.405759 -3.486701
v 2.482517 -0.405759 -3.490181
v 2.536274 -0.379158 -3.555037
v 2.517138 -0.416777 -3.595417
v 2.551282 -0.379158 -3.624242
v 2.533315 -0.405759 -3.571100
v 2.543992 -0.400878 -3.589593
v 2.541934 -0.405759 -3.610847
v 2.548923 -0.379158 -3.588523
v 1.956102 -0.379158 -3.965986
v 1.952516 -0.416777 -3.928535
v 1.955052 -0.405759 -3.955017
v 1.005431 -0.379158 -4.177412
v 1.076597 -0.379158 -4.174794
v 1.039999 -0.416777 -4.148514
v 1.041199 -0.379158 -4.181128
v 1.041013 -0.400878 -4.176066
v 1.061081 -0.405759 -4.168931
v 1.020474 -0.405759 -4.170424
v 0.697353 -0.379158 -4.084884
v 0.683950 -0.416777 -4.041579
v 0.638684 -0.379158 -4.044019
v 0.688410 -0.405759 -4.070693
v 0.668150 -0.400878 -4.064262
v 0.655094 -0.405759 -4.047488
v 0.665245 -0.379158 -4.068433
v 0.514489 -0.379158 -3.879210
v 0.506935 -0.416777 -3.806678
v 0.455332 -0.379158 -3.858204
v 0.504490 -0.405759 -3.847633
v 0.491850 -0.400878 -3.849164
v 0.483006 -0.405759 -3.840003
v 0.487784 -0.379158 -3.860613
v 0.242831 -0.379158 -3.910800
v 0.183735 -0.416777 -3.886673
v 0.184518 -0.379158 -3.950499
v 0.215155 -0.405759 -3.906299
v 0.205390 -0.400878 -3.918481
v 0.190476 -0.405759 -3.923100
v 0.210626 -0.379158 -3.926172
v 0.103733 -0.379158 -4.064139
v 0.058499 -0.416777 -4.062842
v 0.046142 -0.379158 -4.106374
v 0.087466 -0.405759 -4.068005
v 0.074834 -0.400878 -4.085116
v 0.054717 -0.405759 -4.092021
v 0.077836 -0.379158 -4.089211
v -0.064095 -0.416777 -4.102482
v -0.052737 -0.379158 -4.138345
v -0.056064 -0.405759 -4.127841
v 2.519042 -0.379158 -3.868730
v 2.480695 -0.416777 -3.871783
v 2.476720 -0.379158 -3.910045
v 2.507615 -0.405759 -3.869424
v 2.500195 -0.400877 -3.891757
v 2.477689 -0.405759 -3.898638
v 2.504804 -0.379158 -3.896479
v 1.525479 -0.416777 -3.962841
v 1.533874 -0.379158 -3.999907
v 1.531415 -0.405759 -3.989051
v -0.984546 -0.379158 0.386816
v -0.993481 -0.379158 0.320516
v -0.964144 -0.416777 0.350314
v -0.997697 -0.379158 0.354836
v -0.990002 -0.400877 0.353799
v -0.983271 -0.405759 0.329026
v -0.976953 -0.405759 0.375907
v 0.607390 -0.379158 4.757817
v 0.604971 -0.416777 4.720274
v 0.606681 -0.405759 4.746821
v 2.153953 -0.379158 3.926788
v 2.124247 -0.379158 3.989808
v 2.115200 -0.416777 3.947032
v 2.144421 -0.379158 3.960806
v 2.139882 -0.400878 3.958667
v 2.124995 -0.405759 3.974157
v 2.142357 -0.405759 3.937326
v 2.596907 -0.379158 3.194195
v 2.558808 -0.416777 3.199910
v 2.585748 -0.405759 3.195869
v 3.329267 -0.379158 1.840673
v 3.291357 -0.416777 1.831854
v 3.318163 -0.405759 1.838090
v 3.236364 -0.379158 1.431022
v 3.235852 -0.379158 1.502205
v 3.184167 -0.416777 1.466240
v 3.231063 -0.379158 1.466577
v 3.222025 -0.400878 1.466513
v 3.217399 -0.405759 1.481753
v 3.217619 -0.405759 1.451207
v 3.192088 -0.416777 1.227043
v 3.227565 -0.379158 1.214446
v 3.217174 -0.405759 1.218135
v 3.443644 -0.416777 0.531224
v 3.471814 -0.379158 0.557586
v 3.463563 -0.405759 0.549865
v 4.797035 -0.379158 -0.845804
v 4.780464 -0.416777 -0.889001
v 4.818864 -0.379158 -0.914809
v 4.795253 -0.405759 -0.863112
v 4.807094 -0.400878 -0.880577
v 4.807452 -0.405759 -0.901674
v 4.812009 -0.379158 -0.879022
v 3.986199 -0.379158 -1.240641
v 3.932384 -0.416777 -1.193164
v 3.927107 -0.379158 -1.264734
v 3.957965 -0.405759 -1.224580
v 3.949087 -0.400878 -1.234130
v 3.936062 -0.405759 -1.233510
v 3.953537 -0.379158 -1.245044
v 3.308960 -0.416777 -1.781596
v 3.338510 -0.379158 -1.806042
v 3.329854 -0.405759 -1.798882
v 2.932379 -0.416777 -2.559202
v 2.963240 -0.379158 -2.582516
v 2.954201 -0.405759 -2.575688
v 2.600796 -0.416777 -3.026696
v 2.633812 -0.379158 -3.045967
v 2.624142 -0.405759 -3.040323
v 2.260361 -0.379158 -3.651318
v 2.076410 -0.416777 -3.909142
v 2.268513 -0.379158 -3.657333
v 2.175221 -0.405759 -3.783969
v 2.209723 -0.400878 -3.728474
v 2.166872 -0.405759 -3.777810
v 2.255269 -0.379158 -3.666750
v -0.837655 -0.379158 -0.204337
v -0.777212 -0.416777 -0.175904
v -0.831137 -0.379158 -0.136485
v -0.814144 -0.405759 -0.186162
v -0.817650 -0.400878 -0.172019
v -0.811516 -0.405759 -0.158802
v -0.827830 -0.379158 -0.171041
v -0.305562 -0.379158 1.777186
v -0.251897 -0.416777 1.822172
v -0.319321 -0.379158 1.841085
v -0.286159 -0.405759 1.802026
v -0.293908 -0.400878 1.813126
v -0.291414 -0.405759 1.826432
v -0.304897 -0.379158 1.810760
v 1.823945 -0.416777 4.214683
v 1.851761 -0.379158 4.240212
v 1.843614 -0.405759 4.232734
v 2.542872 -0.379158 3.491646
v 2.541575 -0.416777 3.451355
v 2.580097 -0.379158 3.439473
v 2.541691 -0.405759 3.479273
v 2.563148 -0.400877 3.466747
v 2.568013 -0.405759 3.442381
v 2.568930 -0.379158 3.470872
v 3.316708 -0.379158 2.326204
v 3.305380 -0.416777 2.284536
v 3.342324 -0.379158 2.262184
v 3.311285 -0.405759 2.313157
v 3.329530 -0.400877 2.294199
v 3.329399 -0.405759 2.267889
v 3.337409 -0.379158 2.297352
v 3.304659 -0.379158 1.642764
v 3.242965 -0.416777 1.642162
v 3.263142 -0.379158 1.583857
v 3.278622 -0.405759 1.636334
v 3.273170 -0.400878 1.620874
v 3.260443 -0.405759 1.610539
v 3.280241 -0.379158 1.615890
v -0.358471 -0.379158 1.284033
v -0.289316 -0.416777 1.317399
v -0.361600 -0.379158 1.343296
v -0.330283 -0.405759 1.305174
v -0.337139 -0.400878 1.314873
v -0.331343 -0.405759 1.325241
v -0.350471 -0.379158 1.314170
v 0.949282 -0.416777 4.700550
v 0.953152 -0.379158 4.738008
v 0.952019 -0.405759 4.727037
v 2.163775 -0.379158 3.742905
v 2.129153 -0.416777 3.685803
v 2.195861 -0.379158 3.682746
v 2.154244 -0.405759 3.714770
v 2.164986 -0.400878 3.704915
v 2.167186 -0.405759 3.690504
v 2.174004 -0.379158 3.709725
v 2.503896 -0.379158 2.951658
v 2.443735 -0.416777 2.899846
v 2.523108 -0.379158 2.897905
v 2.481090 -0.405759 2.922962
v 2.490616 -0.400878 2.916602
v 2.487280 -0.405759 2.905644
v 2.503944 -0.379158 2.921365
v 3.351891 -0.379158 1.798063
v 3.331285 -0.416777 1.756652
v 3.367034 -0.379158 1.727301
v 3.348469 -0.405759 1.781012
v 3.358593 -0.400878 1.762496
v 3.356933 -0.405759 1.741459
v 3.363633 -0.379158 1.763575
v -0.112926 -0.379158 3.656008
v -0.076950 -0.416777 3.643913
v -0.102389 -0.405759 3.652465
v -0.531578 -0.379158 2.633183
v -0.544468 -0.379158 2.562421
v -0.510168 -0.416777 2.592728
v -0.542521 -0.379158 2.598621
v -0.537490 -0.400878 2.597705
v -0.535055 -0.405759 2.576660
v -0.527791 -0.405759 2.616539
v 0.230143 -0.379158 4.588731
v 0.198862 -0.379158 4.523545
v 0.240415 -0.416777 4.543703
v 0.210617 -0.379158 4.558002
v 0.215258 -0.400878 4.555776
v 0.211956 -0.405759 4.534920
v 0.229461 -0.405759 4.571399
v -0.455418 -0.379158 1.993105
v -0.444547 -0.416777 2.037361
v -0.484924 -0.379158 2.058492
v -0.455787 -0.405759 2.010036
v -0.469807 -0.400878 2.025963
v -0.472473 -0.405759 2.047013
v -0.474454 -0.379158 2.023865
v 0.174921 -0.416777 4.155597
v 0.138741 -0.379158 4.167278
v 0.149338 -0.405759 4.163857
v -0.143406 -0.416777 3.300697
v -0.179307 -0.379158 3.313180
v -0.168792 -0.405759 3.309524
v 0.370110 -0.379158 4.745870
v 0.410841 -0.416777 4.735038
v 0.432642 -0.379158 4.771108
v 0.382707 -0.405759 4.741045
v 0.401091 -0.400877 4.759196
v 0.426924 -0.405759 4.758891
v 0.398123 -0.379158 4.766550
v -4.328258 -0.379158 -1.754909
v -4.291684 -0.416777 -1.764656
v -4.317545 -0.405759 -1.757764
v -3.902920 -0.379158 -3.343628
v -3.874222 -0.416777 -3.318135
v -3.894515 -0.405759 -3.336161
v -2.260663 -0.379158 -0.469384
v -2.269675 -0.416777 -0.506671
v -2.263302 -0.405759 -0.480305
v -3.041753 -0.379158 -3.927436
v -3.007781 -0.416777 -3.911059
v -3.031802 -0.405759 -3.922640
v -3.757674 -0.379158 -0.800530
v -3.731176 -0.416777 -0.828332
v -3.749913 -0.405759 -0.808673
v -4.174543 -0.379158 -2.456625
v -4.135883 -0.416777 -2.452368
v -4.163220 -0.405759 -2.455379
v -1.507301 -0.379158 -0.591938
v -1.559229 -0.379158 -0.628140
v -1.496066 -0.416777 -0.663397
v -1.528448 -0.379158 -0.616948
v -1.521605 -0.400878 -0.626764
v -1.527942 -0.405759 -0.637983
v -1.508887 -0.405759 -0.624699
v -2.552214 -0.379158 -4.429892
v -2.528562 -0.416777 -4.400191
v -2.545286 -0.405759 -4.421192
v -4.177961 -0.416777 -1.472370
v -4.211407 -0.379158 -1.454583
v -4.201612 -0.405759 -1.459792
v -4.205127 -0.379158 -2.823172
v -4.184875 -0.416777 -2.783132
v -4.218505 -0.379158 -2.753427
v -4.201738 -0.405759 -2.807064
v -4.211906 -0.400878 -2.788317
v -4.209397 -0.405759 -2.767138
v -4.216870 -0.379158 -2.789269
v -1.898766 -0.416777 -0.678628
v -1.891150 -0.379158 -0.640694
v -1.893380 -0.405759 -0.651805
v -3.443461 -0.379158 -3.688738
v -3.375918 -0.379158 -3.714743
v -3.399331 -0.416777 -3.674836
v -3.411219 -0.379158 -3.705713
v -3.409367 -0.400878 -3.700901
v -3.388332 -0.405759 -3.702549
v -3.426075 -0.405759 -3.688016
v -3.201091 -0.379158 -0.452761
v -3.159099 -0.416777 -0.470883
v -3.131599 -0.379158 -0.434340
v -3.184224 -0.405759 -0.455215
v -3.166213 -0.400878 -0.444049
v -3.145036 -0.405759 -0.444826
v -3.167522 -0.379158 -0.439109
v -4.322207 -0.416777 -1.966810
v -4.360888 -0.379158 -1.971014
v -4.349558 -0.405759 -1.969783
v -1.419123 -0.379158 -0.378017
v -1.381397 -0.416777 -0.385206
v -1.367666 -0.379158 -0.349340
v -1.407948 -0.405759 -0.380348
v -1.395029 -0.400877 -0.360746
v -1.371562 -0.405759 -0.360070
v -1.398239 -0.379158 -0.354986
v -2.296219 -0.379158 -4.648245
v -2.321254 -0.416777 -4.617094
v -2.357768 -0.379158 -4.633337
v -2.303353 -0.405759 -4.638303
v -2.327531 -0.400877 -4.643009
v -2.346874 -0.405759 -4.627760
v -2.329173 -0.379158 -4.649788
v -3.133086 -0.379158 -3.767814
v -3.128847 -0.416777 -3.699476
v -3.189233 -0.379158 -3.731750
v -3.137729 -0.405759 -3.737515
v -3.151459 -0.400878 -3.734680
v -3.159747 -0.405759 -3.723372
v -3.157270 -0.379158 -3.743726
v -2.899412 -0.379158 -4.223175
v -2.901508 -0.416777 -4.178145
v -2.945644 -0.379158 -4.168976
v -2.904446 -0.405759 -4.207355
v -2.922488 -0.400878 -4.196042
v -2.930815 -0.405759 -4.176441
v -2.926342 -0.379158 -4.199329
vn 0.6895 0.6116 -0.3880
vn 0.7794 0.6116 -0.1357
vn 0.3020 0.9472 -0.1077
vn 0.8156 0.3206 -0.4816
vn 0.1973 0.3206 -0.9264
vn 0.2742 0.8829 -0.3812
vn -0.0255 0.4687 -0.8830
vn 0.0713 0.4687 -0.8805
vn 0.0102 0.9200 -0.3919
vn -0.4499 0.5952 0.6658
vn -0.1393 0.9444 0.2979
vn -0.2226 0.5952 0.7721
vn -0.9325 0.3508 0.0855
vn -0.5075 0.8552 -0.1052
vn -0.8217 0.3508 -0.4491
vn 0.6425 0.2731 0.7160
vn 0.2548 0.8642 0.4339
vn 0.3124 0.2731 0.9098
vn 0.6706 0.3855 -0.6338
vn 0.4612 0.8532 -0.2436
vn 0.9016 0.3855 -0.1964
vn 0.9485 0.2794 -0.1492
vn 0.4988 0.8667 0.0085
vn 0.9429 0.2794 0.1813
vn 0.8337 0.5311 0.1515
vn 0.3599 0.9326 0.0269
vn 0.8469 0.5311 -0.0260
vn 0.1759 0.3553 -0.9180
vn 0.2738 0.9086 -0.3155
vn 0.8841 0.3553 -0.3036
vn 0.7489 0.4519 -0.4847
vn 0.3270 0.9163 -0.2312
vn 0.7066 0.4519 -0.5445
vn 0.5667 0.3642 0.7390
vn 0.0433 0.9131 0.4055
vn -0.3981 0.3642 0.8420
vn 0.8862 0.2765 0.3717
vn 0.9606 0.2765 0.0288
vn 0.4894 0.8656 0.1061
vn -0.1339 0.2783 -0.9511
vn 0.0184 0.8663 -0.4992
vn 0.2034 0.2784 -0.9387
vn -0.4062 0.2798 -0.8699
vn -0.6752 0.2798 -0.6826
vn -0.2850 0.8669 -0.4091
vn -0.3822 0.5879 -0.7129
vn -0.1530 0.5879 -0.7943
vn -0.1113 0.9431 -0.3134
vn 0.4383 0.4888 -0.7543
vn 0.5410 0.4889 -0.6843
vn 0.2149 0.9242 -0.3157
vn 0.6927 0.2794 -0.6650
vn 0.4260 0.2794 -0.8605
vn 0.2950 0.8667 -0.4023
vn 0.8584 0.3184 -0.4022
vn 0.3815 0.3184 -0.8678
vn 0.3457 0.8689 -0.3541
vn -0.8510 0.3631 0.3795
vn -0.5157 0.8539 0.0695
vn -0.9211 0.3631 -0.1407
vn 0.9350 0.2728 0.2268
vn 0.4554 0.8640 0.2147
vn 0.7700 0.2728 0.5768
vn 0.8761 0.4782 0.0613
vn 0.3872 0.9220 0.0028
vn 0.8769 0.4782 -0.0487
vn 0.8582 0.2855 0.4266
vn 0.9474 0.2855 0.1446
vn 0.4717 0.8691 0.1492
vn 0.1984 0.5767 -0.7925
vn 0.4122 0.5767 -0.7053
vn 0.1277 0.9411 -0.3132
vn -0.7319 0.3565 0.5807
vn 0.7707 0.3566 -0.5281
vn -0.0419 -0.9975 -0.0568
vn -0.8356 0.5238 0.1652
vn -0.8518 0.5238 -0.0031
vn -0.3628 0.9312 0.0348
vn -0.8262 0.5590 -0.0700
vn -0.7818 0.5590 -0.2763
vn -0.3392 0.9379 -0.0730
vn 0.5631 0.3385 0.7539
vn 0.8960 0.3385 0.2872
vn 0.4188 0.8575 0.2988
vn 0.7333 0.3888 0.5577
vn 0.9156 0.3888 0.1021
vn 0.4842 0.8532 0.1938
vn 0.6986 0.4623 -0.5462
vn 0.7493 0.4623 -0.4742
vn 0.3231 0.9186 -0.2277
vn -0.7764 0.6225 0.0986
vn -0.7617 0.6225 -0.1798
vn -0.3147 0.9491 -0.0166
vn 0.7877 0.5236 0.3245
vn 0.7083 0.5236 0.4734
vn 0.3217 0.9312 0.1716
vn 0.7570 0.6437 0.1120
vn 0.6565 0.6437 0.3932
vn 0.2865 0.9526 0.1024
vn 0.8950 0.2854 0.3429
vn 0.9569 0.2854 0.0534
vn 0.4838 0.8690 0.1035
vn -0.9032 0.2823 0.3234
vn -0.4888 0.8678 0.0890
vn -0.9592 0.2823 0.0159
vn -0.7891 0.2849 0.5442
vn -0.4463 0.8689 0.2142
vn -0.9182 0.2849 0.2751
vn -0.7968 0.2811 -0.5348
vn -0.9282 0.2811 -0.2437
vn -0.4536 0.8674 -0.2047
vn -0.5734 0.3690 0.7315
vn -0.0950 0.3690 0.9245
vn -0.1950 0.8536 0.4831
vn -0.5572 0.5823 0.5920
vn -0.1918 0.9421 0.2751
vn -0.3627 0.5823 0.7276
vn -0.8959 0.2774 -0.3471
vn -0.9607 0.2774 -0.0091
vn -0.4913 0.8659 -0.0942
vn -0.4782 0.2855 -0.8306
vn -0.1778 0.8691 -0.4617
vn -0.2023 0.2855 -0.9368
vn -0.3942 0.2821 0.8747
vn -0.0909 0.2821 0.9551
vn -0.1273 0.8678 0.4804
vn -0.7248 0.3181 0.6111
vn -0.1385 0.3181 0.9379
vn -0.2404 0.8696 0.4313
vn 0.0743 0.3336 -0.9398
vn -0.4961 0.3337 -0.8016
vn -0.1206 0.8589 -0.4978
vn -0.5317 0.5425 -0.6504
vn -0.3704 0.5424 -0.7540
vn -0.1920 0.9348 -0.2989
vn -0.6101 0.2784 -0.7418
vn -0.8287 0.2784 -0.4855
vn -0.3800 0.8663 -0.3242
vn 0.6895 -0.6116 -0.3880
vn 0.3020 -0.9472 -0.1077
vn 0.7794 -0.6116 -0.1357
vn 0.8156 -0.3206 -0.4816
vn 0.2742 -0.8829 -0.3812
vn 0.1973 -0.3206 -0.9264
vn -0.0255 -0.4687 -0.8830
vn 0.0102 -0.9200 -0.3919
vn 0.0713 -0.4687 -0.8805
vn -0.4499 -0.5952 0.6658
vn -0.2226 -0.5952 0.7721
vn -0.1393 -0.9444 0.2979
vn -0.9325 -0.3508 0.0855
vn -0.8217 -0.3508 -0.4491
vn -0.5075 -0.8552 -0.1052
vn 0.6425 -0.2731 0.7160
vn 0.3124 -0.2731 0.9098
vn 0.2548 -0.8642 0.4339
vn 0.6706 -0.3855 -0.6338
vn 0.9016 -0.3855 -0.1965
vn 0.4612 -0.8532 -0.2436
vn 0.9485 -0.2794 -0.1492
vn 0.9429 -0.2794 0.1813
vn 0.4988 -0.8667 0.0085
vn 0.8337 -0.5311 0.1515
vn 0.8469 -0.5311 -0.0260
vn 0.3598 -0.9326 0.0269
vn 0.1759 -0.3553 -0.9181
vn 0.8841 -0.3553 -0.3036
vn 0.2738 -0.9086 -0.3155
vn 0.7489 -0.4519 -0.4847
vn 0.7066 -0.4519 -0.5445
vn 0.3270 -0.9163 -0.2312
vn 0.5667 -0.3642 0.7390
vn -0.3981 -0.3642 0.8420
vn 0.0433 -0.9131 0.4055
vn 0.8862 -0.2765 0.3717
vn 0.4894 -0.8656 0.1061
vn 0.9606 -0.2765 0.0288
vn -0.1339 -0.2783 -0.9511
vn 0.2034 -0.2784 -0.9387
vn 0.0184 -0.8663 -0.4992
vn -0.4062 -0.2798 -0.8699
vn -0.2850 -0.8669 -0.4091
vn -0.6752 -0.2798 -0.6826
vn -0.3822 -0.5879 -0.7129
vn -0.1113 -0.9431 -0.3134
vn -0.1530 -0.5879 -0.7943
vn 0.4383 -0.4888 -0.7543
vn 0.2149 -0.9242 -0.3157
vn 0.5411 -0.4889 -0.6843
vn 0.6926 -0.2794 -0.6650
vn 0.2950 -0.8667 -0.4023
vn 0.4260 -0.2794 -0.8605
vn 0.8584 -0.3184 -0.4022
vn 0.3457 -0.8689 -0.3541
vn 0.3815 -0.3184 -0.8678
vn -0.8510 -0.3631 0.3795
vn -0.9211 -0.3631 -0.1407
vn -0.5157 -0.8539 0.0695
vn 0.9350 -0.2728 0.2268
vn 0.7700 -0.2728 0.5768
vn 0.4554 -0.8640 0.2147
vn 0.8761 -0.4782 0.0613
vn 0.8769 -0.4782 -0.0487
vn 0.3872 -0.9220 0.0028
vn 0.8582 -0.2855 0.4266
vn 0.4717 -0.8691 0.1492
vn 0.9474 -0.2855 0.1447
vn 0.1984 -0.5767 -0.7925
vn 0.1277 -0.9411 -0.3132
vn 0.4123 -0.5767 -0.7053
vn -0.7319 -0.3564 0.5807
vn -0.0419 0.9975 -0.0568
vn 0.7707 -0.3566 -0.5281
vn -0.8356 -0.5238 0.1652
vn -0.3628 -0.9312 0.0348
vn -0.8518 -0.5238 -0.0031
vn -0.8262 -0.5590 -0.0700
vn -0.3392 -0.9379 -0.0730
vn -0.7818 -0.5590 -0.2763
vn 0.5631 -0.3385 0.7539
vn 0.4188 -0.8575 0.2988
vn 0.8960 -0.3385 0.2872
vn 0.7334 -0.3888 0.5577
vn 0.4842 -0.8532 0.1938
vn 0.9156 -0.3888 0.1021
vn 0.6986 -0.4623 -0.5462
vn 0.3231 -0.9186 -0.2277
vn 0.7493 -0.4623 -0.4742
vn -0.7764 -0.6225 0.0986
vn -0.3147 -0.9491 -0.0166
vn -0.7617 -0.6225 -0.1798
vn 0.7877 -0.5236 0.3245
vn 0.3217 -0.9312 0.1716
vn 0.7083 -0.5236 0.4734
vn 0.7570 -0.6437 0.1120
vn 0.2865 -0.9526 0.1024
vn 0.6565 -0.6437 0.3932
vn 0.8950 -0.2854 0.3429
vn 0.4838 -0.8690 0.1035
vn 0.9569 -0.2854 0.0534
vn -0.9032 -0.2823 0.3234
vn -0.9592 -0.2823 0.0159
vn -0.4888 -0.8678 0.0890
vn -0.7891 -0.2849 0.5442
vn -0.9182 -0.2849 0.2751
vn -0.4463 -0.8688 0.2142
vn -0.7968 -0.2811 -0.5348
vn -0.4536 -0.8674 -0.2047
vn -0.9282 -0.2811 -0.2437
vn -0.5734 -0.3690 0.7315
vn -0.1950 -0.8536 0.4831
vn -0.0950 -0.3691 0.9245
vn -0.5572 -0.5823 0.5920
vn -0.3627 -0.5823 0.7276
vn -0.1918 -0.9421 0.2751
vn -0.8959 -0.2774 -0.3471
vn -0.4913 -0.8659 -0.0942
vn -0.9607 -0.2774 -0.0090
vn -0.4782 -0.2855 -0.8306
vn -0.2023 -0.2855 -0.9368
vn -0.1778 -0.8691 -0.4617
vn -0.3942 -0.2821 0.8747
vn -0.1273 -0.8678 0.4804
vn -0.0909 -0.2821 0.9551
vn -0.7248 -0.3181 0.6111
vn -0.2404 -0.8696 0.4313
vn -0.1385 -0.3181 0.9379
vn 0.0743 -0.3337 -0.9398
vn -0.1206 -0.8589 -0.4978
vn -0.4961 -0.3336 -0.8016
vn -0.5317 -0.5425 -0.6504
vn -0.1920 -0.9348 -0.2989
vn -0.3704 -0.5424 -0.7540
vn -0.6101 -0.2784 -0.7418
vn -0.3800 -0.8663 -0.3242
vn -0.8287 -0.2784 -0.4856
vn 0.2132 0.9239 -0.3178
vn 0.5147 0.3827 -0.7672
vn 0.3662 0.9239 0.1112
vn 0.8840 0.3827 0.2686
vn 0.3759 0.9238 -0.0724
vn 0.9071 0.3829 -0.1747
vn -0.0509 0.9238 -0.3794
vn -0.1228 0.3829 -0.9156
vn 0.0047 0.9239 -0.3826
vn 0.0114 0.3827 -0.9238
vn -0.0936 0.9239 -0.3711
vn -0.2260 0.3827 -0.8958
vn -0.0216 0.9239 -0.3821
vn -0.0523 0.3827 -0.9224
vn -0.1060 0.9239 -0.3677
vn -0.2560 0.3827 -0.8877
vn 0.1260 0.9221 -0.3659
vn 0.2991 0.3935 -0.8693
vn -0.3296 0.9239 0.1944
vn -0.7958 0.3827 0.4693
vn -0.3718 0.9209 0.1169
vn -0.8743 0.4001 0.2747
vn 0.3029 0.9239 0.2339
vn 0.7313 0.3827 0.5646
vn 0.1516 0.9217 0.3571
vn 0.3591 0.3950 0.8456
vn 0.2789 0.9182 0.2813
vn 0.6414 0.4126 0.6468
vn 0.2472 0.9188 -0.3077
vn 0.5746 0.4167 -0.7044
vn 0.3652 0.9239 -0.1142
vn 0.8818 0.3827 -0.2757
vn 0.3305 0.9239 0.1929
vn 0.7979 0.3827 0.4658
vn 0.3194 0.9239 0.2107
vn 0.7712 0.3827 0.5087
vn -0.0653 0.9235 -0.3780
vn -0.1571 0.3850 -0.9094
vn 0.2418 0.9239 -0.2966
vn 0.5838 0.3827 -0.7160
vn 0.3506 0.9239 -0.1534
vn 0.8464 0.3827 -0.3704
vn 0.3595 0.9239 -0.1311
vn 0.8680 0.3827 -0.3164
vn 0.3357 0.9239 -0.1837
vn 0.8105 0.3827 -0.4435
vn 0.3254 0.9234 0.2037
vn 0.7817 0.3863 0.4895
vn 0.3807 0.9233 -0.0504
vn 0.9145 0.3860 -0.1210
vn 0.0306 0.9239 -0.3815
vn 0.0740 0.3827 -0.9209
vn -0.1101 0.9239 -0.3665
vn -0.2657 0.3827 -0.8848
vn -0.3056 0.9239 -0.2303
vn -0.7378 0.3827 -0.5560
vn 0.0919 0.9239 -0.3715
vn 0.2220 0.3827 -0.8968
vn 0.3119 0.9239 -0.2217
vn 0.7530 0.3827 -0.5353
vn 0.1177 0.9239 -0.3641
vn 0.2842 0.3827 -0.8791
vn 0.1139 0.9239 -0.3654
vn 0.2749 0.3827 -0.8820
vn 0.0411 0.9233 -0.3818
vn 0.0988 0.3859 -0.9172
vn 0.1367 0.9239 -0.3574
vn 0.3300 0.3827 -0.8629
vn -0.3214 0.9201 0.2240
vn -0.7505 0.4041 0.5229
vn 0.0219 0.9239 0.3820
vn 0.0528 0.3827 0.9224
vn 0.3821 0.9239 0.0204
vn 0.9226 0.3827 0.0493
vn 0.3573 0.9239 -0.1370
vn 0.8626 0.3827 -0.3308
vn 0.3380 0.9239 0.1795
vn 0.8160 0.3827 0.4333
vn 0.3612 0.9239 0.1265
vn 0.8719 0.3827 0.3054
vn 0.3555 0.9239 -0.1417
vn 0.8582 0.3827 -0.3421
vn 0.2144 0.9239 0.3170
vn 0.5176 0.3827 0.7653
vn 0.3835 0.9235 0.0113
vn 0.9225 0.3850 0.0272
vn 0.3103 0.9239 -0.2240
vn 0.7490 0.3827 -0.5408
vn 0.3367 0.9239 -0.1820
vn 0.8127 0.3827 -0.4393
vn 0.2434 0.9239 -0.2953
vn 0.5876 0.3827 -0.7129
vn 0.2909 0.9239 -0.2486
vn 0.7023 0.3827 -0.6002
vn -0.2753 0.9234 0.2675
vn -0.6613 0.3869 0.6427
vn -0.3692 0.9201 -0.1306
vn -0.8623 0.4044 -0.3049
vn -0.2851 0.9239 -0.2553
vn -0.6883 0.3827 -0.6162
vn 0.2589 0.9239 0.2818
vn 0.6251 0.3827 0.6803
vn 0.3871 0.9216 0.0272
vn 0.9165 0.3949 0.0644
vn 0.3958 0.9183 -0.0113
vn 0.9105 0.4128 -0.0260
vn 0.3629 0.9239 -0.1213
vn 0.8762 0.3827 -0.2929
vn -0.2952 0.9212 -0.2536
vn -0.6960 0.4029 -0.5943
vn 0.0567 0.9239 0.3785
vn 0.1370 0.3827 0.9137
vn 0.2298 0.9239 0.3060
vn 0.5549 0.3827 0.7387
vn 0.1895 0.9239 0.3325
vn 0.4575 0.3827 0.8027
vn 0.3940 0.9183 -0.0381
vn 0.8930 0.4221 -0.1560
vn -0.3433 0.9239 0.1690
vn -0.8289 0.3827 0.4080
vn -0.3398 0.9239 0.1760
vn -0.8203 0.3827 0.4250
vn -0.2924 0.9196 0.2622
vn -0.6801 0.4064 0.6102
vn -0.3800 0.9239 -0.0449
vn -0.9175 0.3827 -0.1084
vn -0.3773 0.9239 0.0637
vn -0.9110 0.3827 0.1537
vn -0.3757 0.9239 0.0727
vn -0.9070 0.3827 0.1756
vn 0.0281 0.9195 0.3921
vn 0.0652 0.4057 0.9117
vn -0.3566 0.9239 0.1388
vn -0.8610 0.3827 0.3350
vn -0.3309 0.9239 -0.1922
vn -0.7990 0.3827 -0.4639
vn 0.1610 0.9239 0.3472
vn 0.3886 0.3827 0.8382
vn -0.3322 0.9239 -0.1901
vn -0.8019 0.3827 -0.4588
vn -0.2028 0.9239 0.3245
vn -0.4896 0.3827 0.7835
vn -0.3573 0.9239 -0.1371
vn -0.8626 0.3827 -0.3310
vn -0.3549 0.9234 0.1464
vn -0.8528 0.3858 0.3519
vn -0.1958 0.9239 -0.3288
vn -0.4726 0.3827 -0.7938
vn -0.3144 0.9239 0.2181
vn -0.7591 0.3827 0.5266
vn -0.3786 0.9239 0.0561
vn -0.9139 0.3827 0.1354
vn -0.0145 0.9239 0.3824
vn -0.0349 0.3827 0.9232
vn -0.2298 0.9239 -0.3060
vn -0.5549 0.3827 -0.7387
vn 0.0154 0.9239 0.3824
vn 0.0371 0.3827 0.9231
vn -0.3784 0.9239 0.0571
vn -0.9135 0.3827 0.1379
vn 0.0622 0.9234 0.3788
vn 0.1494 0.3858 0.9104
vn -0.2795 0.9220 -0.2678
vn -0.6639 0.3931 -0.6361
vn -0.0347 0.9239 -0.3811
vn -0.0838 0.3827 -0.9201
vn -0.3556 0.9239 -0.1415
vn -0.8584 0.3827 -0.3416
vn 0.5147 -0.3827 -0.7672
vn 0.2132 -0.9239 -0.3178
vn 0.8840 -0.3827 0.2686
vn 0.3662 -0.9239 0.1112
vn 0.9071 -0.3829 -0.1747
vn 0.3759 -0.9238 -0.0724
vn -0.1228 -0.3829 -0.9156
vn -0.0509 -0.9238 -0.3794
vn 0.0114 -0.3827 -0.9238
vn 0.0047 -0.9239 -0.3827
vn -0.2260 -0.3827 -0.8958
vn -0.0936 -0.9239 -0.3711
vn -0.0523 -0.3827 -0.9224
vn -0.0217 -0.9239 -0.3821
vn -0.2560 -0.3827 -0.8877
vn -0.1060 -0.9239 -0.3677
vn 0.2991 -0.3935 -0.8693
vn 0.1260 -0.9221 -0.3659
vn -0.7958 -0.3827 0.4693
vn -0.3296 -0.9239 0.1944
vn -0.8743 -0.4001 0.2747
vn -0.3718 -0.9209 0.1169
vn 0.7313 -0.3827 0.5646
vn 0.3029 -0.9239 0.2339
vn 0.3591 -0.3949 0.8456
vn 0.1516 -0.9217 0.3571
vn 0.6414 -0.4126 0.6468
vn 0.2789 -0.9182 0.2813
vn 0.5746 -0.4167 -0.7044
vn 0.2472 -0.9188 -0.3077
vn 0.8818 -0.3827 -0.2757
vn 0.3652 -0.9239 -0.1142
vn 0.7979 -0.3827 0.4658
vn 0.3305 -0.9239 0.1929
vn 0.7712 -0.3827 0.5087
vn 0.3194 -0.9239 0.2107
vn -0.1571 -0.3850 -0.9094
vn -0.0653 -0.9235 -0.3780
vn 0.5838 -0.3827 -0.7160
vn 0.2418 -0.9239 -0.2966
vn 0.8464 -0.3827 -0.3704
vn 0.3506 -0.9239 -0.1534
vn 0.8680 -0.3827 -0.3164
vn 0.3595 -0.9239 -0.1310
vn 0.8105 -0.3827 -0.4435
vn 0.3357 -0.9239 -0.1837
vn 0.7817 -0.3863 0.4895
vn 0.3254 -0.9234 0.2037
vn 0.9145 -0.3860 -0.1210
vn 0.3807 -0.9233 -0.0504
vn 0.0740 -0.3827 -0.9209
vn 0.0306 -0.9239 -0.3815
vn -0.2657 -0.3827 -0.8848
vn -0.1101 -0.9239 -0.3665
vn -0.7378 -0.3827 -0.5560
vn -0.3056 -0.9239 -0.2303
vn 0.2220 -0.3827 -0.8968
vn 0.0919 -0.9239 -0.3715
vn 0.7530 -0.3827 -0.5353
vn 0.3119 -0.9239 -0.2217
vn 0.2842 -0.3827 -0.8791
vn 0.1177 -0.9239 -0.3641
vn 0.2749 -0.3827 -0.8820
vn 0.1139 -0.9239 -0.3654
vn 0.0988 -0.3859 -0.9172
vn 0.0411 -0.9233 -0.3818
vn 0.3300 -0.3827 -0.8629
vn 0.1367 -0.9239 -0.3574
vn -0.7505 -0.4041 0.5229
vn -0.3214 -0.9201 0.2240
vn 0.0528 -0.3827 0.9224
vn 0.0219 -0.9239 0.3820
vn 0.9226 -0.3827 0.0493
vn 0.3821 -0.9239 0.0204
vn 0.8626 -0.3827 -0.3308
vn 0.3573 -0.9239 -0.1370
vn 0.8160 -0.3827 0.4333
vn 0.3380 -0.9239 0.1795
vn 0.8719 -0.3827 0.3054
vn 0.3612 -0.9239 0.1265
vn 0.8582 -0.3827 -0.3421
vn 0.3555 -0.9239 -0.1417
vn 0.5176 -0.3827 0.7653
vn 0.2144 -0.9239 0.3170
vn 0.9225 -0.3850 0.0272
vn 0.3835 -0.9235 0.0113
vn 0.7490 -0.3827 -0.5408
vn 0.3103 -0.9239 -0.2240
vn 0.8127 -0.3827 -0.4393
vn 0.3367 -0.9239 -0.1820
vn 0.5876 -0.3827 -0.7129
vn 0.2434 -0.9239 -0.2953
vn 0.7023 -0.3827 -0.6002
vn 0.2909 -0.9239 -0.2486
vn -0.6613 -0.3869 0.6427
vn -0.2753 -0.9234 0.2675
vn -0.8623 -0.4044 -0.3049
vn -0.3692 -0.9201 -0.1306
vn -0.6883 -0.3827 -0.6162
vn -0.2851 -0.9239 -0.2553
vn 0.6251 -0.3827 0.6803
vn 0.2589 -0.9239 0.2818
vn 0.9165 -0.3949 0.0644
vn 0.3871 -0.9216 0.0272
vn 0.9105 -0.4128 -0.0260
vn 0.3958 -0.9183 -0.0113
vn 0.8762 -0.3827 -0.2929
vn 0.3629 -0.9239 -0.1213
vn -0.6960 -0.4029 -0.5943
vn -0.2952 -0.9212 -0.2536
vn 0.1370 -0.3827 0.9137
vn 0.0567 -0.9239 0.3785
vn 0.5549 -0.3827 0.7387
vn 0.2298 -0.9239 0.3060
vn 0.4575 -0.3827 0.8027
vn 0.1895 -0.9239 0.3325
vn 0.8930 -0.4221 -0.1560
vn 0.3940 -0.9183 -0.0381
vn -0.8289 -0.3827 0.4080
vn -0.3433 -0.9239 0.1690
vn -0.8203 -0.3827 0.4250
vn -0.3398 -0.9239 0.1760
vn -0.6801 -0.4064 0.6102
vn -0.2924 -0.9197 0.2622
vn -0.9175 -0.3827 -0.1084
vn -0.3800 -0.9239 -0.0449
vn -0.9110 -0.3827 0.1537
vn -0.3773 -0.9239 0.0637
vn -0.9070 -0.3827 0.1756
vn -0.3757 -0.9239 0.0727
vn 0.0652 -0.4056 0.9117
vn 0.0281 -0.9195 0.3921
vn -0.8610 -0.3827 0.3350
vn -0.3566 -0.9239 0.1388
vn -0.7990 -0.3827 -0.4639
vn -0.3309 -0.9239 -0.1922
vn 0.3886 -0.3827 0.8382
vn 0.1610 -0.9239 0.3472
vn -0.8019 -0.3827 -0.4588
vn -0.3322 -0.9239 -0.1901
vn -0.4896 -0.3827 0.7835
vn -0.2028 -0.9239 0.3245
vn -0.8626 -0.3827 -0.3310
vn -0.3573 -0.9239 -0.1371
vn -0.8528 -0.3858 0.3519
vn -0.3549 -0.9234 0.1464
vn -0.4726 -0.3827 -0.7938
vn -0.1958 -0.9239 -0.3288
vn -0.7591 -0.3827 0.5266
vn -0.3144 -0.9239 0.2181
vn -0.9139 -0.3827 0.1354
vn -0.3786 -0.9239 0.0561
vn -0.0349 -0.3827 0.9232
vn -0.0145 -0.9239 0.3824
vn -0.5549 -0.3827 -0.7387
vn -0.2298 -0.9239 -0.3060
vn 0.0371 -0.3827 0.9231
vn 0.0154 -0.9239 0.3824
vn -0.9135 -0.3827 0.1379
vn -0.3784 -0.9239 0.0571
vn 0.1494 -0.3858 0.9104
vn 0.0622 -0.9234 0.3788
vn -0.6639 -0.3931 -0.6361
vn -0.2795 -0.9220 -0.2678
vn -0.0838 -0.3827 -0.9201
vn -0.0347 -0.9239 -0.3811
vn -0.8584 -0.3827 -0.3416
vn -0.3556 -0.9239 -0.1415
vn 0.8020 -0.0000 -0.5973
vn 0.9990 -0.0000 -0.0448
vn 0.8399 -0.0000 -0.5427
vn 0.2475 -0.0000 -0.9689
vn -0.1043 -0.0000 -0.9945
vn 0.1558 -0.0000 -0.9878
vn -0.1604 -0.0000 0.9871
vn -0.6548 -0.0000 0.7558
vn -0.8916 -0.0000 -0.4529
vn -0.9981 -0.0000 0.0612
vn 0.3579 -0.0000 0.9337
vn 0.6412 -0.0000 0.7674
vn 0.9707 -0.0000 -0.2401
vn 0.7457 -0.0000 -0.6663
vn 0.9883 -0.0000 0.1528
vn 0.9929 -0.0000 -0.1192
vn 0.9922 -0.0000 -0.1245
vn 0.9627 -0.0000 0.2705
vn 0.9292 -0.0000 -0.3697
vn 0.2350 -0.0000 -0.9720
vn 0.7466 -0.0000 -0.6653
vn 0.8761 -0.0000 -0.4822
vn -0.3824 -0.0000 0.9240
vn 0.5688 -0.0000 0.8225
vn 0.9355 -0.0000 0.3534
vn 0.9978 -0.0000 0.0659
vn 0.1761 -0.0000 -0.9844
vn -0.1033 -0.0000 -0.9946
vn -0.4560 -0.0000 -0.8900
vn -0.6767 -0.0000 -0.7362
vn -0.5715 -0.0000 -0.8206
vn -0.0740 -0.0000 -0.9973
vn 0.4307 -0.0000 -0.9025
vn 0.6817 -0.0000 -0.7316
vn 0.6956 -0.0000 -0.7185
vn 0.4762 -0.0000 -0.8793
vn 0.8897 -0.0000 -0.4565
vn 0.4350 -0.0000 -0.9005
vn -0.9925 -0.0000 -0.1219
vn -0.9248 -0.0000 0.3803
vn 0.8209 -0.0000 0.5710
vn 0.9629 -0.0000 0.2698
vn 0.9911 -0.0000 -0.1332
vn 0.9891 -0.0000 0.1475
vn 0.9116 -0.0000 0.4110
vn 0.9821 -0.0000 0.1881
vn 0.1336 -0.0000 -0.9910
vn 0.5974 -0.0000 -0.8019
vn 0.9496 -0.0000 -0.3134
vn -0.5795 -0.0000 0.8150
vn -0.9591 -0.0000 0.2830
vn -0.9955 -0.0000 -0.0953
vn -0.9998 -0.0000 0.0198
vn -0.9031 -0.0000 -0.4295
vn 0.6234 -0.0000 0.7819
vn 0.9422 -0.0000 0.3351
vn 0.8125 -0.0000 0.5830
vn 0.9904 -0.0000 0.1384
vn 0.7401 -0.0000 -0.6725
vn 0.8822 -0.0000 -0.4709
vn -0.9665 -0.0000 0.2566
vn -0.9341 -0.0000 -0.3569
vn 0.9556 -0.0000 0.2946
vn 0.7770 -0.0000 0.6295
vn 1.0000 -0.0000 0.0016
vn 0.7744 -0.0000 0.6326
vn 0.9466 -0.0000 0.3223
vn 0.9956 -0.0000 0.0933
vn -0.9986 -0.0000 0.0537
vn -0.9534 -0.0000 0.3019
vn -0.9464 -0.0000 0.3229
vn -0.8440 -0.0000 0.5363
vn -0.8503 -0.0000 -0.5262
vn -0.9572 -0.0000 -0.2894
vn -0.5939 -0.0000 0.8045
vn -0.1309 -0.0000 0.9914
vn -0.3417 -0.0000 0.9398
vn -0.7636 -0.0000 0.6457
vn -0.9449 -0.0000 -0.3273
vn -0.9990 -0.0000 -0.0456
vn -0.2478 -0.0000 -0.9688
vn -0.4659 -0.0000 -0.8849
vn -0.3767 -0.0000 0.9263
vn -0.1316 -0.0000 0.9913
vn -0.7408 -0.0000 0.6717
vn -0.1816 -0.0000 0.9834
vn 0.0468 -0.0000 -0.9989
vn -0.4987 -0.0000 -0.8668
vn -0.7057 -0.0000 -0.7085
vn -0.3509 -0.0000 -0.9364
vn -0.6629 -0.0000 -0.7487
vn -0.8438 -0.0000 -0.5366
vn 0.5571 -0.0000 -0.8305
vn -0.0000 1.0000 -0.0000
vn 0.2975 -0.0000 -0.9547
vn 0.9568 -0.0000 0.2907
vn 0.9820 -0.0000 -0.1890
vn -0.1330 -0.0000 -0.9911
vn 0.0123 -0.0000 -0.9999
vn -0.2446 -0.0000 -0.9696
vn -0.0566 -0.0000 -0.9984
vn -0.2771 -0.0000 -0.9608
vn 0.3266 -0.0000 -0.9452
vn -0.8614 -0.0000 0.5080
vn 0.1622 -0.0000 0.9868
vn -0.9535 -0.0000 0.3013
vn -0.7553 -0.0000 -0.6554
vn 0.7915 -0.0000 0.6111
vn 0.1483 -0.0000 0.9889
vn 0.3892 -0.0000 0.9211
vn 0.6006 -0.0000 0.7996
vn 0.7023 -0.0000 0.7119
vn 0.4952 -0.0000 0.8688
vn 0.6175 -0.0000 -0.7866
vn 0.9544 -0.0000 -0.2984
vn 0.9438 -0.0000 0.3306
vn 0.8636 -0.0000 0.5042
vn 0.9289 -0.0000 -0.3703
vn 0.8347 -0.0000 0.5507
vn 0.5602 -0.0000 0.8283
vn -0.1703 -0.0000 -0.9854
vn 0.9996 -0.0000 0.0296
vn 0.6319 -0.0000 -0.7750
vn 0.8107 -0.0000 -0.5854
vn 0.9161 -0.0000 -0.4009
vn 0.8797 -0.0000 -0.4755
vn 0.9395 -0.0000 -0.3425
vn 0.6360 -0.0000 -0.7716
vn 0.8773 -0.0000 -0.4800
vn 0.7602 -0.0000 -0.6497
vn 0.8482 -0.0000 0.5297
vn -0.7174 -0.0000 0.6967
vn 0.9914 -0.0000 -0.1307
vn 0.0801 -0.0000 -0.9968
vn 0.1068 -0.0000 -0.9943
vn -0.2876 -0.0000 -0.9577
vn 0.3572 -0.0000 -0.9340
vn -0.7986 -0.0000 -0.6018
vn 0.2403 -0.0000 -0.9707
vn 0.8150 -0.0000 -0.5794
vn 0.3077 -0.0000 -0.9515
vn -0.8201 -0.0000 0.5722
vn -0.9423 -0.0000 -0.3347
vn 0.0572 -0.0000 0.9984
vn 0.0758 -0.0000 0.9971
vn 0.9986 -0.0000 0.0533
vn 0.6766 -0.0000 0.7363
vn 0.9337 -0.0000 -0.3581
vn 0.9977 -0.0000 0.0684
vn 0.8832 -0.0000 0.4690
vn 0.9995 -0.0000 -0.0310
vn 0.9484 -0.0000 -0.3170
vn -0.7450 -0.0000 -0.6670
vn -0.8972 -0.0000 0.4416
vn -0.9818 -0.0000 0.1901
vn -0.8879 -0.0000 0.4600
vn -0.9931 -0.0000 -0.1173
vn -0.7467 -0.0000 0.6651
vn -0.9861 -0.0000 0.1664
vn -0.9319 -0.0000 0.3626
vn -0.9888 -0.0000 0.1493
vn -0.8648 -0.0000 -0.5021
vn -0.6006 -0.0000 -0.7996
vn 0.4206 -0.0000 0.9072
vn 0.0402 -0.0000 0.9992
vn -0.8680 -0.0000 -0.4966
vn -0.9291 -0.0000 -0.3697
vn -0.5299 -0.0000 0.8481
vn -0.8216 -0.0000 0.5700
vn -0.9336 -0.0000 -0.3583
vn -0.9892 -0.0000 0.1465
vn -0.9245 -0.0000 0.3811
vn -0.0378 -0.0000 0.9993
vn -0.5116 -0.0000 -0.8592
vn -0.7229 -0.0000 -0.6909
vn -0.0907 -0.0000 -0.9959
vn -0.0000 -1.0000 -0.0000
vt 0.000000 0.000000
s 0
f 4/1/1 7/1/1 8/1/1 10/1/1
f 5/1/2 9/1/2 8/1/2 7/1/2
f 6/1/3 10/1/3 8/1/3 9/1/3
f 14/1/4 17/1/4 18/1/4 20/1/4
f 15/1/5 19/1/5 18/1/5 17/1/5
f 16/1/6 20/1/6 18/1/6 19/1/6
f 33/1/7 36/1/7 37/1/7 39/1/7
f 34/1/8 38/1/8 37/1/8 36/1/8
f 35/1/9 39/1/9 37/1/9 38/1/9
f 40/1/10 43/1/10 44/1/10 46/1/10
f 41/1/11 45/1/11 44/1/11 43/1/11
f 42/1/12 46/1/12 44/1/12 45/1/12
f 47/1/13 50/1/13 51/1/13 53/1/13
f 48/1/14 52/1/14 51/1/14 50/1/14
f 49/1/15 53/1/15 51/1/15 52/1/15
f 54/1/16 57/1/16 58/1/16 60/1/16
f 55/1/17 59/1/17 58/1/17 57/1/17
f 56/1/18 60/1/18 58/1/18 59/1/18
f 67/1/19 70/1/19 71/1/19 73/1/19
f 68/1/20 72/1/20 71/1/20 70/1/20
f 69/1/21 73/1/21 71/1/21 72/1/21
f 74/1/22 77/1/22 78/1/22 80/1/22
f 75/1/23 79/1/23 78/1/23 77/1/23
f 76/1/24 80/1/24 78/1/24 79/1/24
f 81/1/25 84/1/25 85/1/25 87/1/25
f 82/1/26 86/1/26 85/1/26 84/1/26
f 83/1/27 87/1/27 85/1/27 86/1/27
f 91/1/28 94/1/28 95/1/28 97/1/28
f 92/1/29 96/1/29 95/1/29 94/1/29
f 93/1/30 97/1/30 95/1/30 96/1/30
f 104/1/31 107/1/31 108/1/31 110/1/31
f 105/1/32 109/1/32 108/1/32 107/1/32
f 106/1/33 110/1/33 108/1/33 109/1/33
f 114/1/34 117/1/34 118/1/34 120/1/34
f 115/1/35 119/1/35 118/1/35 117/1/35
f 116/1/36 120/1/36 118/1/36 119/1/36
f 121/1/37 124/1/37 125/1/37 127/1/37
f 122/1/38 126/1/38 125/1/38 124/1/38
f 123/1/39 127/1/39 125/1/39 126/1/39
f 131/1/40 134/1/40 135/1/40 137/1/40
f 132/1/41 136/1/41 135/1/41 134/1/41
f 133/1/42 137/1/42 135/1/42 136/1/42
f 138/1/43 141/1/43 142/1/43 144/1/43
f 139/1/44 143/1/44 142/1/44 141/1/44
f 140/1/45 144/1/45 142/1/45 143/1/45
f 145/1/46 148/1/46 149/1/46 151/1/46
f 146/1/47 150/1/47 149/1/47 148/1/47
f 147/1/48 151/1/48 149/1/48 150/1/48
f 152/1/49 155/1/49 156/1/49 158/1/49
f 153/1/50 157/1/50 156/1/50 155/1/50
f 154/1/51 158/1/51 156/1/51 157/1/51
f 159/1/52 162/1/52 163/1/52 165/1/52
f 160/1/53 164/1/53 163/1/53 162/1/53
f 161/1/54 165/1/54 163/1/54 164/1/54
f 169/1/55 172/1/55 173/1/55 175/1/55
f 170/1/56 174/1/56 173/1/56 172/1/56
f 171/1/57 175/1/57 173/1/57 174/1/57
f 179/1/58 182/1/58 183/1/58 185/1/58
f 180/1/59 184/1/59 183/1/59 182/1/59
f 181/1/60 185/1/60 183/1/60 184/1/60
f 189/1/61 192/1/61 193/1/61 195/1/61
f 190/1/62 194/1/62 193/1/62 192/1/62
f 191/1/63 195/1/63 193/1/63 194/1/63
f 202/1/64 205/1/64 206/1/64 208/1/64
f 203/1/65 207/1/65 206/1/65 205/1/65
f 204/1/66 208/1/66 206/1/66 207/1/66
f 215/1/67 218/1/67 219/1/67 221/1/67
f 216/1/68 220/1/68 219/1/68 218/1/68
f 217/1/69 221/1/69 219/1/69 220/1/69
f 222/1/70 225/1/70 226/1/70 228/1/70
f 223/1/71 227/1/71 226/1/71 225/1/71
f 224/1/72 228/1/72 226/1/72 227/1/72
f 238/1/73 241/1/73 242/1/73 244/1/73
f 239/1/74 243/1/74 242/1/74 241/1/74
f 240/1/75 244/1/75 242/1/75 243/1/75
f 245/1/76 248/1/76 249/1/76 251/1/76
f 246/1/77 250/1/77 249/1/77 248/1/77
f 247/1/78 251/1/78 249/1/78 250/1/78
f 252/1/79 255/1/79 256/1/79 258/1/79
f 253/1/80 257/1/80 256/1/80 255/1/80
f 254/1/81 258/1/81 256/1/81 257/1/81
f 262/1/82 265/1/82 266/1/82 268/1/82
f 263/1/83 267/1/83 266/1/83 265/1/83
f 264/1/84 268/1/84 266/1/84 267/1/84
f 269/1/85 272/1/85 273/1/85 275/1/85
f 270/1/86 274/1/86 273/1/86 272/1/86
f 271/1/87 275/1/87 273/1/87 274/1/87
f 276/1/88 279/1/88 280/1/88 282/1/88
f 277/1/89 281/1/89 280/1/89 279/1/89
f 278/1/90 282/1/90 280/1/90 281/1/90
f 283/1/91 286/1/91 287/1/91 289/1/91
f 284/1/92 288/1/92 287/1/92 286/1/92
f 285/1/93 289/1/93 287/1/93 288/1/93
f 293/1/94 296/1/94 297/1/94 299/1/94
f 294/1/95 298/1/95 297/1/95 296/1/95
f 295/1/96 299/1/96 297/1/96 298/1/96
f 300/1/97 303/1/97 304/1/97 306/1/97
f 301/1/98 305/1/98 304/1/98 303/1/98
f 302/1/99 306/1/99 304/1/99 305/1/99
f 307/1/100 310/1/100 311/1/100 313/1/100
f 308/1/101 312/1/101 311/1/101 310/1/101
f 309/1/102 313/1/102 311/1/102 312/1/102
f 317/1/103 320/1/103 321/1/103 323/1/103
f 318/1/104 322/1/104 321/1/104 320/1/104
f 319/1/105 323/1/105 321/1/105 322/1/105
f 324/1/106 327/1/106 328/1/106 330/1/106
f 325/1/107 329/1/107 328/1/107 327/1/107
f 326/1/108 330/1/108 328/1/108 329/1/108
f 331/1/109 334/1/109 335/1/109 337/1/109
f 332/1/110 336/1/110 335/1/110 334/1/110
f 333/1/111 337/1/111 335/1/111 336/1/111
f 344/1/112 347/1/112 348/1/112 350/1/112
f 345/1/113 349/1/113 348/1/113 347/1/113
f 346/1/114 350/1/114 348/1/114 349/1/114
f 369/1/115 372/1/115 373/1/115 375/1/115
f 370/1/116 374/1/116 373/1/116 372/1/116
f 371/1/117 375/1/117 373/1/117 374/1/117
f 382/1/118 385/1/118 386/1/118 388/1/118
f 383/1/119 387/1/119 386/1/119 385/1/119
f 384/1/120 388/1/120 386/1/120 387/1/120
f 392/1/121 395/1/121 396/1/121 398/1/121
f 393/1/122 397/1/122 396/1/122 395/1/122
f 394/1/123 398/1/123 396/1/123 397/1/123
f 399/1/124 402/1/124 403/1/124 405/1/124
f 400/1/125 404/1/125 403/1/125 402/1/125
f 401/1/126 405/1/126 403/1/126 404/1/126
f 409/1/127 412/1/127 413/1/127 415/1/127
f 410/1/128 414/1/128 413/1/128 412/1/128
f 411/1/129 415/1/129 413/1/129 414/1/129
f 416/1/130 419/1/130 420/1/130 422/1/130
f 417/1/131 421/1/131 420/1/131 419/1/131
f 418/1/132 422/1/132 420/1/132 421/1/132
f 423/1/133 426/1/133 427/1/133 429/1/133
f 424/1/134 428/1/134 427/1/134 426/1/134
f 425/1/135 429/1/135 427/1/135 428/1/135
f 430/1/136 433/1/136 434/1/136 436/1/136
f 431/1/137 435/1/137 434/1/137 433/1/137
f 432/1/138 436/1/138 434/1/138 435/1/138
f 440/1/139 443/1/139 444/1/139 446/1/139
f 441/1/140 445/1/140 444/1/140 443/1/140
f 442/1/141 446/1/141 444/1/141 445/1/141
f 450/1/142 453/1/142 454/1/142 456/1/142
f 451/1/143 455/1/143 454/1/143 453/1/143
f 452/1/144 456/1/144 454/1/144 455/1/144
f 469/1/145 472/1/145 473/1/145 475/1/145
f 470/1/146 474/1/146 473/1/146 472/1/146
f 471/1/147 475/1/147 473/1/147 474/1/147
f 476/1/148 479/1/148 480/1/148 482/1/148
f 477/1/149 481/1/149 480/1/149 479/1/149
f 478/1/150 482/1/150 480/1/150 481/1/150
f 483/1/151 486/1/151 487/1/151 489/1/151
f 484/1/152 488/1/152 487/1/152 486/1/152
f 485/1/153 489/1/153 487/1/153 488/1/153
f 490/1/154 493/1/154 494/1/154 496/1/154
f 491/1/155 495/1/155 494/1/155 493/1/155
f 492/1/156 496/1/156 494/1/156 495/1/156
f 503/1/157 506/1/157 507/1/157 509/1/157
f 504/1/158 508/1/158 507/1/158 506/1/158
f 505/1/159 509/1/159 507/1/159 508/1/159
f 510/1/160 513/1/160 514/1/160 516/1/160
f 511/1/161 515/1/161 514/1/161 513/1/161
f 512/1/162 516/1/162 514/1/162 515/1/162
f 517/1/163 520/1/163 521/1/163 523/1/163
f 518/1/164 522/1/164 521/1/164 520/1/164
f 519/1/165 523/1/165 521/1/165 522/1/165
f 527/1/166 530/1/166 531/1/166 533/1/166
f 528/1/167 532/1/167 531/1/167 530/1/167
f 529/1/168 533/1/168 531/1/168 532/1/168
f 540/1/169 543/1/169 544/1/169 546/1/169
f 541/1/170 545/1/170 544/1/170 543/1/170
f 542/1/171 546/1/171 544/1/171 545/1/171
f 550/1/172 553/1/172 554/1/172 556/1/172
f 551/1/173 555/1/173 554/1/173 553/1/173
f 552/1/174 556/1/174 554/1/174 555/1/174
f 557/1/175 560/1/175 561/1/175 563/1/175
f 558/1/176 562/1/176 561/1/176 560/1/176
f 559/1/177 563/1/177 561/1/177 562/1/177
f 567/1/178 570/1/178 571/1/178 573/1/178
f 568/1/179 572/1/179 571/1/179 570/1/179
f 569/1/180 573/1/180 571/1/180 572/1/180
f 574/1/181 577/1/181 578/1/181 580/1/181
f 575/1/182 579/1/182 578/1/182 577/1/182
f 576/1/183 580/1/183 578/1/183 579/1/183
f 581/1/184 584/1/184 585/1/184 587/1/184
f 582/1/185 586/1/185 585/1/185 584/1/185
f 583/1/186 587/1/186 585/1/186 586/1/186
f 588/1/187 591/1/187 592/1/187 594/1/187
f 589/1/188 593/1/188 592/1/188 591/1/188
f 590/1/189 594/1/189 592/1/189 593/1/189
f 595/1/190 598/1/190 599/1/190 601/1/190
f 596/1/191 600/1/191 599/1/191 598/1/191
f 597/1/192 601/1/192 599/1/192 600/1/192
f 605/1/193 608/1/193 609/1/193 611/1/193
f 606/1/194 610/1/194 609/1/194 608/1/194
f 607/1/195 611/1/195 609/1/195 610/1/195
f 615/1/196 618/1/196 619/1/196 621/1/196
f 616/1/197 620/1/197 619/1/197 618/1/197
f 617/1/198 621/1/198 619/1/198 620/1/198
f 625/1/199 628/1/199 629/1/199 631/1/199
f 626/1/200 630/1/200 629/1/200 628/1/200
f 627/1/201 631/1/201 629/1/201 630/1/201
f 638/1/202 641/1/202 642/1/202 644/1/202
f 639/1/203 643/1/203 642/1/203 641/1/203
f 640/1/204 644/1/204 642/1/204 643/1/204
f 651/1/205 654/1/205 655/1/205 657/1/205
f 652/1/206 656/1/206 655/1/206 654/1/206
f 653/1/207 657/1/207 655/1/207 656/1/207
f 658/1/208 661/1/208 662/1/208 664/1/208
f 659/1/209 663/1/209 662/1/209 661/1/209
f 660/1/210 664/1/210 662/1/210 663/1/210
f 674/1/211 677/1/211 678/1/211 680/1/211
f 675/1/212 679/1/212 678/1/212 677/1/212
f 676/1/213 680/1/213 678/1/213 679/1/213
f 681/1/214 684/1/214 685/1/214 687/1/214
f 682/1/215 686/1/215 685/1/215 684/1/215
f 683/1/216 687/1/216 685/1/216 686/1/216
f 688/1/217 691/1/217 692/1/217 694/1/217
f 689/1/218 693/1/218 692/1/218 691/1/218
f 690/1/219 694/1/219 692/1/219 693/1/219
f 698/1/220 701/1/220 702/1/220 704/1/220
f 699/1/221 703/1/221 702/1/221 701/1/221
f 700/1/222 704/1/222 702/1/222 703/1/222
f 705/1/223 708/1/223 709/1/223 711/1/223
f 706/1/224 710/1/224 709/1/224 708/1/224
f 707/1/225 711/1/225 709/1/225 710/1/225
f 712/1/226 715/1/226 716/1/226 718/1/226
f 713/1/227 717/1/227 716/1/227 715/1/227
f 714/1/228 718/1/228 716/1/228 717/1/228
f 719/1/229 722/1/229 723/1/229 725/1/229
f 720/1/230 724/1/230 723/1/230 722/1/230
f 721/1/231 725/1/231 723/1/231 724/1/231
f 729/1/232 732/1/232 733/1/232 735/1/232
f 730/1/233 734/1/233 733/1/233 732/1/233
f 731/1/234 735/1/234 733/1/234 734/1/234
f 736/1/235 739/1/235 740/1/235 742/1/235
f 737/1/236 741/1/236 740/1/236 739/1/236
f 738/1/237 742/1/237 740/1/237 741/1/237
f 743/1/238 746/1/238 747/1/238 749/1/238
f 744/1/239 748/1/239 747/1/239 746/1/239
f 745/1/240 749/1/240 747/1/240 748/1/240
f 753/1/241 756/1/241 757/1/241 759/1/241
f 754/1/242 758/1/242 757/1/242 756/1/242
f 755/1/243 759/1/243 757/1/243 758/1/243
f 760/1/244 763/1/244 764/1/244 766/1/244
f 761/1/245 765/1/245 764/1/245 763/1/245
f 762/1/246 766/1/246 764/1/246 765/1/246
f 767/1/247 770/1/247 771/1/247 773/1/247
f 768/1/248 772/1/248 771/1/248 770/1/248
f 769/1/249 773/1/249 771/1/249 772/1/249
f 780/1/250 783/1/250 784/1/250 786/1/250
f 781/1/251 785/1/251 784/1/251 783/1/251
f 782/1/252 786/1/252 784/1/252 785/1/252
f 805/1/253 808/1/253 809/1/253 811/1/253
f 806/1/254 810/1/254 809/1/254 808/1/254
f 807/1/255 811/1/255 809/1/255 810/1/255
f 818/1/256 821/1/256 822/1/256 824/1/256
f 819/1/257 823/1/257 822/1/257 821/1/257
f 820/1/258 824/1/258 822/1/258 823/1/258
f 828/1/259 831/1/259 832/1/259 834/1/259
f 829/1/260 833/1/260 832/1/260 831/1/260
f 830/1/261 834/1/261 832/1/261 833/1/261
f 835/1/262 838/1/262 839/1/262 841/1/262
f 836/1/263 840/1/263 839/1/263 838/1/263
f 837/1/264 841/1/264 839/1/264 840/1/264
f 845/1/265 848/1/265 849/1/265 851/1/265
f 846/1/266 850/1/266 849/1/266 848/1/266
f 847/1/267 851/1/267 849/1/267 850/1/267
f 852/1/268 855/1/268 856/1/268 858/1/268
f 853/1/269 857/1/269 856/1/269 855/1/269
f 854/1/270 858/1/270 856/1/270 857/1/270
f 859/1/271 862/1/271 863/1/271 865/1/271
f 860/1/272 864/1/272 863/1/272 862/1/272
f 861/1/273 865/1/273 863/1/273 864/1/273
f 866/1/274 869/1/274 870/1/274 872/1/274
f 867/1/275 871/1/275 870/1/275 869/1/275
f 868/1/276 872/1/276 870/1/276 871/1/276
f 6/1/277 1/1/277 3/1/277 10/1/277
f 10/1/278 3/1/278 2/1/278 4/1/278
f 12/1/279 6/1/279 9/1/279 13/1/279
f 13/1/280 9/1/280 5/1/280 11/1/280
f 16/1/281 12/1/281 13/1/281 20/1/281
f 20/1/282 13/1/282 11/1/282 14/1/282
f 22/1/283 16/1/283 19/1/283 23/1/283
f 23/1/284 19/1/284 15/1/284 21/1/284
f 25/1/285 22/1/285 23/1/285 26/1/285
f 26/1/286 23/1/286 21/1/286 24/1/286
f 28/1/287 25/1/287 26/1/287 29/1/287
f 29/1/288 26/1/288 24/1/288 27/1/288
f 31/1/289 28/1/289 29/1/289 32/1/289
f 32/1/290 29/1/290 27/1/290 30/1/290
f 35/1/291 31/1/291 32/1/291 39/1/291
f 39/1/292 32/1/292 30/1/292 33/1/292
f 418/1/293 35/1/293 38/1/293 422/1/293
f 422/1/294 38/1/294 34/1/294 416/1/294
f 247/1/295 41/1/295 43/1/295 251/1/295
f 251/1/296 43/1/296 40/1/296 245/1/296
f 254/1/297 48/1/297 50/1/297 258/1/297
f 258/1/298 50/1/298 47/1/298 252/1/298
f 260/1/299 55/1/299 57/1/299 261/1/299
f 261/1/300 57/1/300 54/1/300 259/1/300
f 264/1/301 61/1/301 63/1/301 268/1/301
f 268/1/302 63/1/302 62/1/302 262/1/302
f 271/1/303 64/1/303 66/1/303 275/1/303
f 275/1/304 66/1/304 65/1/304 269/1/304
f 278/1/305 68/1/305 70/1/305 282/1/305
f 282/1/306 70/1/306 67/1/306 276/1/306
f 210/1/307 75/1/307 77/1/307 211/1/307
f 211/1/308 77/1/308 74/1/308 209/1/308
f 213/1/309 82/1/309 84/1/309 214/1/309
f 214/1/310 84/1/310 81/1/310 212/1/310
f 217/1/311 88/1/311 90/1/311 221/1/311
f 221/1/312 90/1/312 89/1/312 215/1/312
f 224/1/313 92/1/313 94/1/313 228/1/313
f 228/1/314 94/1/314 91/1/314 222/1/314
f 230/1/315 98/1/315 100/1/315 231/1/315
f 231/1/316 100/1/316 99/1/316 229/1/316
f 233/1/317 101/1/317 103/1/317 234/1/317
f 234/1/318 103/1/318 102/1/318 232/1/318
f 236/1/319 105/1/319 107/1/319 237/1/319
f 237/1/320 107/1/320 104/1/320 235/1/320
f 240/1/321 111/1/321 113/1/321 244/1/321
f 244/1/322 113/1/322 112/1/322 238/1/322
f 123/1/323 115/1/323 117/1/323 127/1/323
f 127/1/324 117/1/324 114/1/324 121/1/324
f 171/1/325 123/1/325 126/1/325 175/1/325
f 175/1/326 126/1/326 122/1/326 169/1/326
f 177/1/327 128/1/327 130/1/327 178/1/327
f 178/1/328 130/1/328 129/1/328 176/1/328
f 140/1/329 132/1/329 134/1/329 144/1/329
f 144/1/330 134/1/330 131/1/330 138/1/330
f 147/1/331 140/1/331 143/1/331 151/1/331
f 151/1/332 143/1/332 139/1/332 145/1/332
f 154/1/333 147/1/333 150/1/333 158/1/333
f 158/1/334 150/1/334 146/1/334 152/1/334
f 161/1/335 154/1/335 157/1/335 165/1/335
f 165/1/336 157/1/336 153/1/336 159/1/336
f 167/1/337 161/1/337 164/1/337 168/1/337
f 168/1/338 164/1/338 160/1/338 166/1/338
f 1/1/339 167/1/339 168/1/339 3/1/339
f 3/1/340 168/1/340 166/1/340 2/1/340
f 128/1/341 171/1/341 174/1/341 130/1/341
f 130/1/342 174/1/342 170/1/342 129/1/342
f 132/1/343 177/1/343 178/1/343 136/1/343
f 136/1/344 178/1/344 176/1/344 133/1/344
f 285/1/345 180/1/345 182/1/345 289/1/345
f 289/1/346 182/1/346 179/1/346 283/1/346
f 291/1/347 186/1/347 188/1/347 292/1/347
f 292/1/348 188/1/348 187/1/348 290/1/348
f 295/1/349 190/1/349 192/1/349 299/1/349
f 299/1/350 192/1/350 189/1/350 293/1/350
f 302/1/351 196/1/351 198/1/351 306/1/351
f 306/1/352 198/1/352 197/1/352 300/1/352
f 309/1/353 199/1/353 201/1/353 313/1/353
f 313/1/354 201/1/354 200/1/354 307/1/354
f 75/1/355 203/1/355 205/1/355 79/1/355
f 79/1/356 205/1/356 202/1/356 76/1/356
f 82/1/357 210/1/357 211/1/357 86/1/357
f 86/1/358 211/1/358 209/1/358 83/1/358
f 88/1/359 213/1/359 214/1/359 90/1/359
f 90/1/360 214/1/360 212/1/360 89/1/360
f 92/1/361 217/1/361 220/1/361 96/1/361
f 96/1/362 220/1/362 216/1/362 93/1/362
f 98/1/363 224/1/363 227/1/363 100/1/363
f 100/1/364 227/1/364 223/1/364 99/1/364
f 101/1/365 230/1/365 231/1/365 103/1/365
f 103/1/366 231/1/366 229/1/366 102/1/366
f 105/1/367 233/1/367 234/1/367 109/1/367
f 109/1/368 234/1/368 232/1/368 106/1/368
f 111/1/369 236/1/369 237/1/369 113/1/369
f 113/1/370 237/1/370 235/1/370 112/1/370
f 115/1/371 240/1/371 243/1/371 119/1/371
f 119/1/372 243/1/372 239/1/372 116/1/372
f 180/1/373 247/1/373 250/1/373 184/1/373
f 184/1/374 250/1/374 246/1/374 181/1/374
f 333/1/375 254/1/375 257/1/375 337/1/375
f 337/1/376 257/1/376 253/1/376 331/1/376
f 190/1/377 260/1/377 261/1/377 194/1/377
f 194/1/378 261/1/378 259/1/378 191/1/378
f 196/1/379 264/1/379 267/1/379 198/1/379
f 198/1/380 267/1/380 263/1/380 197/1/380
f 199/1/381 271/1/381 274/1/381 201/1/381
f 201/1/382 274/1/382 270/1/382 200/1/382
f 203/1/383 278/1/383 281/1/383 207/1/383
f 207/1/384 281/1/384 277/1/384 204/1/384
f 48/1/385 285/1/385 288/1/385 52/1/385
f 52/1/386 288/1/386 284/1/386 49/1/386
f 55/1/387 291/1/387 292/1/387 59/1/387
f 59/1/388 292/1/388 290/1/388 56/1/388
f 61/1/389 295/1/389 298/1/389 63/1/389
f 63/1/390 298/1/390 294/1/390 62/1/390
f 64/1/391 302/1/391 305/1/391 66/1/391
f 66/1/392 305/1/392 301/1/392 65/1/392
f 68/1/393 309/1/393 312/1/393 72/1/393
f 72/1/394 312/1/394 308/1/394 69/1/394
f 339/1/395 314/1/395 316/1/395 340/1/395
f 340/1/396 316/1/396 315/1/396 338/1/396
f 342/1/397 318/1/397 320/1/397 343/1/397
f 343/1/398 320/1/398 317/1/398 341/1/398
f 346/1/399 325/1/399 327/1/399 350/1/399
f 350/1/400 327/1/400 324/1/400 344/1/400
f 318/1/401 333/1/401 336/1/401 322/1/401
f 322/1/402 336/1/402 332/1/402 319/1/402
f 325/1/403 339/1/403 340/1/403 329/1/403
f 329/1/404 340/1/404 338/1/404 326/1/404
f 314/1/405 342/1/405 343/1/405 316/1/405
f 316/1/406 343/1/406 341/1/406 315/1/406
f 186/1/407 346/1/407 349/1/407 188/1/407
f 188/1/408 349/1/408 345/1/408 187/1/408
f 380/1/409 351/1/409 353/1/409 381/1/409
f 381/1/410 353/1/410 352/1/410 379/1/410
f 384/1/411 354/1/411 356/1/411 388/1/411
f 388/1/412 356/1/412 355/1/412 382/1/412
f 390/1/413 357/1/413 359/1/413 391/1/413
f 391/1/414 359/1/414 358/1/414 389/1/414
f 425/1/415 360/1/415 362/1/415 429/1/415
f 429/1/416 362/1/416 361/1/416 423/1/416
f 401/1/417 363/1/417 365/1/417 405/1/417
f 405/1/418 365/1/418 364/1/418 399/1/418
f 407/1/419 366/1/419 368/1/419 408/1/419
f 408/1/420 368/1/420 367/1/420 406/1/420
f 411/1/421 370/1/421 372/1/421 415/1/421
f 415/1/422 372/1/422 369/1/422 409/1/422
f 432/1/423 376/1/423 378/1/423 436/1/423
f 436/1/424 378/1/424 377/1/424 430/1/424
f 363/1/425 380/1/425 381/1/425 365/1/425
f 365/1/426 381/1/426 379/1/426 364/1/426
f 366/1/427 384/1/427 387/1/427 368/1/427
f 368/1/428 387/1/428 383/1/428 367/1/428
f 370/1/429 390/1/429 391/1/429 374/1/429
f 374/1/430 391/1/430 389/1/430 371/1/430
f 354/1/431 393/1/431 395/1/431 356/1/431
f 356/1/432 395/1/432 392/1/432 355/1/432
f 357/1/433 401/1/433 404/1/433 359/1/433
f 359/1/434 404/1/434 400/1/434 358/1/434
f 351/1/435 407/1/435 408/1/435 353/1/435
f 353/1/436 408/1/436 406/1/436 352/1/436
f 41/1/437 411/1/437 414/1/437 45/1/437
f 45/1/438 414/1/438 410/1/438 42/1/438
f 376/1/439 418/1/439 421/1/439 378/1/439
f 378/1/440 421/1/440 417/1/440 377/1/440
f 393/1/441 425/1/441 428/1/441 397/1/441
f 397/1/442 428/1/442 424/1/442 394/1/442
f 360/1/443 432/1/443 435/1/443 362/1/443
f 362/1/444 435/1/444 431/1/444 361/1/444
f 440/1/445 437/1/445 439/1/445 443/1/445
f 443/1/446 439/1/446 438/1/446 441/1/446
f 448/1/447 442/1/447 445/1/447 449/1/447
f 449/1/448 445/1/448 441/1/448 447/1/448
f 450/1/449 448/1/449 449/1/449 453/1/449
f 453/1/450 449/1/450 447/1/450 451/1/450
f 458/1/451 452/1/451 455/1/451 459/1/451
f 459/1/452 455/1/452 451/1/452 457/1/452
f 461/1/453 458/1/453 459/1/453 462/1/453
f 462/1/454 459/1/454 457/1/454 460/1/454
f 464/1/455 461/1/455 462/1/455 465/1/455
f 465/1/456 462/1/456 460/1/456 463/1/456
f 467/1/457 464/1/457 465/1/457 468/1/457
f 468/1/458 465/1/458 463/1/458 466/1/458
f 469/1/459 467/1/459 468/1/459 472/1/459
f 472/1/460 468/1/460 466/1/460 470/1/460
f 852/1/461 471/1/461 474/1/461 855/1/461
f 855/1/462 474/1/462 470/1/462 853/1/462
f 681/1/463 476/1/463 482/1/463 684/1/463
f 684/1/464 482/1/464 478/1/464 682/1/464
f 688/1/465 483/1/465 489/1/465 691/1/465
f 691/1/466 489/1/466 485/1/466 689/1/466
f 696/1/467 490/1/467 496/1/467 697/1/467
f 697/1/468 496/1/468 492/1/468 695/1/468
f 698/1/469 497/1/469 499/1/469 701/1/469
f 701/1/470 499/1/470 498/1/470 699/1/470
f 705/1/471 500/1/471 502/1/471 708/1/471
f 708/1/472 502/1/472 501/1/472 706/1/472
f 712/1/473 503/1/473 509/1/473 715/1/473
f 715/1/474 509/1/474 505/1/474 713/1/474
f 646/1/475 510/1/475 516/1/475 647/1/475
f 647/1/476 516/1/476 512/1/476 645/1/476
f 649/1/477 517/1/477 523/1/477 650/1/477
f 650/1/478 523/1/478 519/1/478 648/1/478
f 651/1/479 524/1/479 526/1/479 654/1/479
f 654/1/480 526/1/480 525/1/480 652/1/480
f 658/1/481 527/1/481 533/1/481 661/1/481
f 661/1/482 533/1/482 529/1/482 659/1/482
f 666/1/483 534/1/483 536/1/483 667/1/483
f 667/1/484 536/1/484 535/1/484 665/1/484
f 669/1/485 537/1/485 539/1/485 670/1/485
f 670/1/486 539/1/486 538/1/486 668/1/486
f 672/1/487 540/1/487 546/1/487 673/1/487
f 673/1/488 546/1/488 542/1/488 671/1/488
f 674/1/489 547/1/489 549/1/489 677/1/489
f 677/1/490 549/1/490 548/1/490 675/1/490
f 557/1/491 550/1/491 556/1/491 560/1/491
f 560/1/492 556/1/492 552/1/492 558/1/492
f 605/1/493 559/1/493 562/1/493 608/1/493
f 608/1/494 562/1/494 558/1/494 606/1/494
f 613/1/495 564/1/495 566/1/495 614/1/495
f 614/1/496 566/1/496 565/1/496 612/1/496
f 574/1/497 567/1/497 573/1/497 577/1/497
f 577/1/498 573/1/498 569/1/498 575/1/498
f 581/1/499 576/1/499 579/1/499 584/1/499
f 584/1/500 579/1/500 575/1/500 582/1/500
f 588/1/501 583/1/501 586/1/501 591/1/501
f 591/1/502 586/1/502 582/1/502 589/1/502
f 595/1/503 590/1/503 593/1/503 598/1/503
f 598/1/504 593/1/504 589/1/504 596/1/504
f 603/1/505 597/1/505 600/1/505 604/1/505
f 604/1/506 600/1/506 596/1/506 602/1/506
f 437/1/507 603/1/507 604/1/507 439/1/507
f 439/1/508 604/1/508 602/1/508 438/1/508
f 564/1/509 607/1/509 610/1/509 566/1/509
f 566/1/510 610/1/510 606/1/510 565/1/510
f 568/1/511 613/1/511 614/1/511 572/1/511
f 572/1/512 614/1/512 612/1/512 569/1/512
f 719/1/513 615/1/513 621/1/513 722/1/513
f 722/1/514 621/1/514 617/1/514 720/1/514
f 727/1/515 622/1/515 624/1/515 728/1/515
f 728/1/516 624/1/516 623/1/516 726/1/516
f 729/1/517 625/1/517 631/1/517 732/1/517
f 732/1/518 631/1/518 627/1/518 730/1/518
f 736/1/519 632/1/519 634/1/519 739/1/519
f 739/1/520 634/1/520 633/1/520 737/1/520
f 743/1/521 635/1/521 637/1/521 746/1/521
f 746/1/522 637/1/522 636/1/522 744/1/522
f 511/1/523 638/1/523 644/1/523 515/1/523
f 515/1/524 644/1/524 640/1/524 512/1/524
f 518/1/525 646/1/525 647/1/525 522/1/525
f 522/1/526 647/1/526 645/1/526 519/1/526
f 524/1/527 649/1/527 650/1/527 526/1/527
f 526/1/528 650/1/528 648/1/528 525/1/528
f 528/1/529 653/1/529 656/1/529 532/1/529
f 532/1/530 656/1/530 652/1/530 529/1/530
f 534/1/531 660/1/531 663/1/531 536/1/531
f 536/1/532 663/1/532 659/1/532 535/1/532
f 537/1/533 666/1/533 667/1/533 539/1/533
f 539/1/534 667/1/534 665/1/534 538/1/534
f 541/1/535 669/1/535 670/1/535 545/1/535
f 545/1/536 670/1/536 668/1/536 542/1/536
f 547/1/537 672/1/537 673/1/537 549/1/537
f 549/1/538 673/1/538 671/1/538 548/1/538
f 551/1/539 676/1/539 679/1/539 555/1/539
f 555/1/540 679/1/540 675/1/540 552/1/540
f 616/1/541 683/1/541 686/1/541 620/1/541
f 620/1/542 686/1/542 682/1/542 617/1/542
f 767/1/543 690/1/543 693/1/543 770/1/543
f 770/1/544 693/1/544 689/1/544 768/1/544
f 626/1/545 696/1/545 697/1/545 630/1/545
f 630/1/546 697/1/546 695/1/546 627/1/546
f 632/1/547 700/1/547 703/1/547 634/1/547
f 634/1/548 703/1/548 699/1/548 633/1/548
f 635/1/549 707/1/549 710/1/549 637/1/549
f 637/1/550 710/1/550 706/1/550 636/1/550
f 639/1/551 714/1/551 717/1/551 643/1/551
f 643/1/552 717/1/552 713/1/552 640/1/552
f 484/1/553 721/1/553 724/1/553 488/1/553
f 488/1/554 724/1/554 720/1/554 485/1/554
f 491/1/555 727/1/555 728/1/555 495/1/555
f 495/1/556 728/1/556 726/1/556 492/1/556
f 497/1/557 731/1/557 734/1/557 499/1/557
f 499/1/558 734/1/558 730/1/558 498/1/558
f 500/1/559 738/1/559 741/1/559 502/1/559
f 502/1/560 741/1/560 737/1/560 501/1/560
f 504/1/561 745/1/561 748/1/561 508/1/561
f 508/1/562 748/1/562 744/1/562 505/1/562
f 775/1/563 750/1/563 752/1/563 776/1/563
f 776/1/564 752/1/564 751/1/564 774/1/564
f 778/1/565 753/1/565 759/1/565 779/1/565
f 779/1/566 759/1/566 755/1/566 777/1/566
f 780/1/567 760/1/567 766/1/567 783/1/567
f 783/1/568 766/1/568 762/1/568 781/1/568
f 754/1/569 769/1/569 772/1/569 758/1/569
f 758/1/570 772/1/570 768/1/570 755/1/570
f 761/1/571 775/1/571 776/1/571 765/1/571
f 765/1/572 776/1/572 774/1/572 762/1/572
f 750/1/573 778/1/573 779/1/573 752/1/573
f 752/1/574 779/1/574 777/1/574 751/1/574
f 622/1/575 782/1/575 785/1/575 624/1/575
f 624/1/576 785/1/576 781/1/576 623/1/576
f 816/1/577 787/1/577 789/1/577 817/1/577
f 817/1/578 789/1/578 788/1/578 815/1/578
f 818/1/579 790/1/579 792/1/579 821/1/579
f 821/1/580 792/1/580 791/1/580 819/1/580
f 826/1/581 793/1/581 795/1/581 827/1/581
f 827/1/582 795/1/582 794/1/582 825/1/582
f 859/1/583 796/1/583 798/1/583 862/1/583
f 862/1/584 798/1/584 797/1/584 860/1/584
f 835/1/585 799/1/585 801/1/585 838/1/585
f 838/1/586 801/1/586 800/1/586 836/1/586
f 843/1/587 802/1/587 804/1/587 844/1/587
f 844/1/588 804/1/588 803/1/588 842/1/588
f 845/1/589 805/1/589 811/1/589 848/1/589
f 848/1/590 811/1/590 807/1/590 846/1/590
f 866/1/591 812/1/591 814/1/591 869/1/591
f 869/1/592 814/1/592 813/1/592 867/1/592
f 799/1/593 816/1/593 817/1/593 801/1/593
f 801/1/594 817/1/594 815/1/594 800/1/594
f 802/1/595 820/1/595 823/1/595 804/1/595
f 804/1/596 823/1/596 819/1/596 803/1/596
f 806/1/597 826/1/597 827/1/597 810/1/597
f 810/1/598 827/1/598 825/1/598 807/1/598
f 790/1/599 828/1/599 834/1/599 792/1/599
f 792/1/600 834/1/600 830/1/600 791/1/600
f 793/1/601 837/1/601 840/1/601 795/1/601
f 795/1/602 840/1/602 836/1/602 794/1/602
f 787/1/603 843/1/603 844/1/603 789/1/603
f 789/1/604 844/1/604 842/1/604 788/1/604
f 477/1/605 847/1/605 850/1/605 481/1/605
f 481/1/606 850/1/606 846/1/606 478/1/606
f 812/1/607 854/1/607 857/1/607 814/1/607
f 814/1/608 857/1/608 853/1/608 813/1/608
f 829/1/609 861/1/609 864/1/609 833/1/609
f 833/1/610 864/1/610 860/1/610 830/1/610
f 796/1/611 868/1/611 871/1/611 798/1/611
f 798/1/612 871/1/612 867/1/612 797/1/612
f 4/1/613 440/1/613 446/1/613 7/1/613
f 7/1/614 446/1/614 442/1/614 5/1/614
f 14/1/615 450/1/615 456/1/615 17/1/615
f 17/1/616 456/1/616 452/1/616 15/1/616
f 33/1/617 469/1/617 475/1/617 36/1/617
f 36/1/618 475/1/618 471/1/618 34/1/618
f 42/1/619 477/1/619 479/1/619 46/1/619
f 46/1/620 479/1/620 476/1/620 40/1/620
f 49/1/621 484/1/621 486/1/621 53/1/621
f 53/1/622 486/1/622 483/1/622 47/1/622
f 56/1/623 491/1/623 493/1/623 60/1/623
f 60/1/624 493/1/624 490/1/624 54/1/624
f 69/1/625 504/1/625 506/1/625 73/1/625
f 73/1/626 506/1/626 503/1/626 67/1/626
f 76/1/627 511/1/627 513/1/627 80/1/627
f 80/1/628 513/1/628 510/1/628 74/1/628
f 83/1/629 518/1/629 520/1/629 87/1/629
f 87/1/630 520/1/630 517/1/630 81/1/630
f 93/1/631 528/1/631 530/1/631 97/1/631
f 97/1/632 530/1/632 527/1/632 91/1/632
f 106/1/633 541/1/633 543/1/633 110/1/633
f 110/1/634 543/1/634 540/1/634 104/1/634
f 116/1/635 551/1/635 553/1/635 120/1/635
f 120/1/636 553/1/636 550/1/636 114/1/636
f 121/1/637 557/1/637 563/1/637 124/1/637
f 124/1/638 563/1/638 559/1/638 122/1/638
f 133/1/639 568/1/639 570/1/639 137/1/639
f 137/1/640 570/1/640 567/1/640 131/1/640
f 138/1/641 574/1/641 580/1/641 141/1/641
f 141/1/642 580/1/642 576/1/642 139/1/642
f 145/1/643 581/1/643 587/1/643 148/1/643
f 148/1/644 587/1/644 583/1/644 146/1/644
f 152/1/645 588/1/645 594/1/645 155/1/645
f 155/1/646 594/1/646 590/1/646 153/1/646
f 159/1/647 595/1/647 601/1/647 162/1/647
f 162/1/648 601/1/648 597/1/648 160/1/648
f 169/1/649 605/1/649 611/1/649 172/1/649
f 172/1/650 611/1/650 607/1/650 170/1/650
f 181/1/651 616/1/651 618/1/651 185/1/651
f 185/1/652 618/1/652 615/1/652 179/1/652
f 191/1/653 626/1/653 628/1/653 195/1/653
f 195/1/654 628/1/654 625/1/654 189/1/654
f 204/1/655 639/1/655 641/1/655 208/1/655
f 208/1/656 641/1/656 638/1/656 202/1/656
f 215/1/657 651/1/657 657/1/657 218/1/657
f 218/1/658 657/1/658 653/1/658 216/1/658
f 222/1/659 658/1/659 664/1/659 225/1/659
f 225/1/660 664/1/660 660/1/660 223/1/660
f 238/1/661 674/1/661 680/1/661 241/1/661
f 241/1/662 680/1/662 676/1/662 239/1/662
f 245/1/663 681/1/663 687/1/663 248/1/663
f 248/1/664 687/1/664 683/1/664 246/1/664
f 252/1/665 688/1/665 694/1/665 255/1/665
f 255/1/666 694/1/666 690/1/666 253/1/666
f 262/1/667 698/1/667 704/1/667 265/1/667
f 265/1/668 704/1/668 700/1/668 263/1/668
f 269/1/669 705/1/669 711/1/669 272/1/669
f 272/1/670 711/1/670 707/1/670 270/1/670
f 276/1/671 712/1/671 718/1/671 279/1/671
f 279/1/672 718/1/672 714/1/672 277/1/672
f 283/1/673 719/1/673 725/1/673 286/1/673
f 286/1/674 725/1/674 721/1/674 284/1/674
f 293/1/675 729/1/675 735/1/675 296/1/675
f 296/1/676 735/1/676 731/1/676 294/1/676
f 300/1/677 736/1/677 742/1/677 303/1/677
f 303/1/678 742/1/678 738/1/678 301/1/678
f 307/1/679 743/1/679 749/1/679 310/1/679
f 310/1/680 749/1/680 745/1/680 308/1/680
f 319/1/681 754/1/681 756/1/681 323/1/681
f 323/1/682 756/1/682 753/1/682 317/1/682
f 326/1/683 761/1/683 763/1/683 330/1/683
f 330/1/684 763/1/684 760/1/684 324/1/684
f 331/1/685 767/1/685 773/1/685 334/1/685
f 334/1/686 773/1/686 769/1/686 332/1/686
f 344/1/687 780/1/687 786/1/687 347/1/687
f 347/1/688 786/1/688 782/1/688 345/1/688
f 371/1/689 806/1/689 808/1/689 375/1/689
f 375/1/690 808/1/690 805/1/690 369/1/690
f 382/1/691 818/1/691 824/1/691 385/1/691
f 385/1/692 824/1/692 820/1/692 383/1/692
f 394/1/693 829/1/693 831/1/693 398/1/693
f 398/1/694 831/1/694 828/1/694 392/1/694
f 399/1/695 835/1/695 841/1/695 402/1/695
f 402/1/696 841/1/696 837/1/696 400/1/696
f 409/1/697 845/1/697 851/1/697 412/1/697
f 412/1/698 851/1/698 847/1/698 410/1/698
f 416/1/699 852/1/699 858/1/699 419/1/699
f 419/1/700 858/1/700 854/1/700 417/1/700
f 423/1/701 859/1/701 865/1/701 426/1/701
f 426/1/702 865/1/702 861/1/702 424/1/702
f 430/1/703 866/1/703 872/1/703 433/1/703
f 433/1/704 872/1/704 868/1/704 431/1/704
f 4/1/705 2/1/705 437/1/705 440/1/705
f 6/1/706 12/1/706 16/1/706 22/1/706 25/1/706 28/1/706 31/1/706 35/1/706 418/1/706 376/1/706 432/1/706 360/1/706 425/1/706 393/1/706 354/1/706 384/1/706 366/1/706 407/1/706 351/1/706 380/1/706 363/1/706 401/1/706 357/1/706 390/1/706 370/1/706 411/1/706 41/1/706 247/1/706 180/1/706 285/1/706 48/1/706 254/1/706 333/1/706 318/1/706 342/1/706 314/1/706 339/1/706 325/1/706 346/1/706 186/1/706 291/1/706 55/1/706 260/1/706 190/1/706 295/1/706 61/1/706 264/1/706 196/1/706 302/1/706 64/1/706 271/1/706 199/1/706 309/1/706 68/1/706 278/1/706 203/1/706 75/1/706 210/1/706 82/1/706 213/1/706 88/1/706 217/1/706 92/1/706 224/1/706 98/1/706 230/1/706 101/1/706 233/1/706 105/1/706 236/1/706 111/1/706 240/1/706 115/1/706 123/1/706 171/1/706 128/1/706 177/1/706 132/1/706 140/1/706 147/1/706 154/1/706 161/1/706 167/1/706 1/1/706
f 2/1/707 166/1/707 603/1/707 437/1/707
f 11/1/708 5/1/708 442/1/708 448/1/708
f 14/1/709 11/1/709 448/1/709 450/1/709
f 21/1/710 15/1/710 452/1/710 458/1/710
f 24/1/711 21/1/711 458/1/711 461/1/711
f 27/1/712 24/1/712 461/1/712 464/1/712
f 30/1/713 27/1/713 464/1/713 467/1/713
f 33/1/714 30/1/714 467/1/714 469/1/714
f 416/1/715 34/1/715 471/1/715 852/1/715
f 245/1/716 40/1/716 476/1/716 681/1/716
f 42/1/717 410/1/717 847/1/717 477/1/717
f 252/1/718 47/1/718 483/1/718 688/1/718
f 49/1/719 284/1/719 721/1/719 484/1/719
f 259/1/720 54/1/720 490/1/720 696/1/720
f 56/1/721 290/1/721 727/1/721 491/1/721
f 262/1/722 62/1/722 497/1/722 698/1/722
f 62/1/723 294/1/723 731/1/723 497/1/723
f 269/1/724 65/1/724 500/1/724 705/1/724
f 65/1/725 301/1/725 738/1/725 500/1/725
f 276/1/726 67/1/726 503/1/726 712/1/726
f 69/1/706 308/1/706 745/1/706 504/1/706
f 209/1/727 74/1/727 510/1/727 646/1/727
f 76/1/728 202/1/728 638/1/728 511/1/728
f 212/1/729 81/1/729 517/1/729 649/1/729
f 83/1/730 209/1/730 646/1/730 518/1/730
f 215/1/731 89/1/731 524/1/731 651/1/731
f 89/1/732 212/1/732 649/1/732 524/1/732
f 222/1/733 91/1/733 527/1/733 658/1/733
f 93/1/734 216/1/734 653/1/734 528/1/734
f 229/1/735 99/1/735 534/1/735 666/1/735
f 99/1/736 223/1/736 660/1/736 534/1/736
f 232/1/737 102/1/737 537/1/737 669/1/737
f 102/1/738 229/1/738 666/1/738 537/1/738
f 235/1/739 104/1/739 540/1/739 672/1/739
f 106/1/740 232/1/740 669/1/740 541/1/740
f 238/1/741 112/1/741 547/1/741 674/1/741
f 112/1/742 235/1/742 672/1/742 547/1/742
f 121/1/743 114/1/743 550/1/743 557/1/743
f 116/1/744 239/1/744 676/1/744 551/1/744
f 169/1/745 122/1/745 559/1/745 605/1/745
f 176/1/746 129/1/746 564/1/746 613/1/746
f 129/1/747 170/1/747 607/1/747 564/1/747
f 138/1/748 131/1/748 567/1/748 574/1/748
f 133/1/749 176/1/749 613/1/749 568/1/749
f 145/1/750 139/1/750 576/1/750 581/1/750
f 152/1/751 146/1/751 583/1/751 588/1/751
f 159/1/752 153/1/752 590/1/752 595/1/752
f 166/1/753 160/1/753 597/1/753 603/1/753
f 283/1/754 179/1/754 615/1/754 719/1/754
f 181/1/755 246/1/755 683/1/755 616/1/755
f 290/1/756 187/1/756 622/1/756 727/1/756
f 187/1/757 345/1/757 782/1/757 622/1/757
f 293/1/758 189/1/758 625/1/758 729/1/758
f 191/1/759 259/1/759 696/1/759 626/1/759
f 300/1/760 197/1/760 632/1/760 736/1/760
f 197/1/761 263/1/761 700/1/761 632/1/761
f 307/1/762 200/1/762 635/1/762 743/1/762
f 200/1/763 270/1/763 707/1/763 635/1/763
f 204/1/764 277/1/764 714/1/764 639/1/764
f 331/1/765 253/1/765 690/1/765 767/1/765
f 338/1/766 315/1/766 750/1/766 775/1/766
f 315/1/767 341/1/767 778/1/767 750/1/767
f 341/1/768 317/1/768 753/1/768 778/1/768
f 319/1/769 332/1/769 769/1/769 754/1/769
f 344/1/770 324/1/770 760/1/770 780/1/770
f 326/1/771 338/1/771 775/1/771 761/1/771
f 379/1/772 352/1/772 787/1/772 816/1/772
f 352/1/773 406/1/773 843/1/773 787/1/773
f 382/1/774 355/1/774 790/1/774 818/1/774
f 355/1/775 392/1/775 828/1/775 790/1/775
f 389/1/776 358/1/776 793/1/776 826/1/776
f 358/1/777 400/1/777 837/1/777 793/1/777
f 423/1/778 361/1/778 796/1/778 859/1/778
f 361/1/779 431/1/779 868/1/779 796/1/779
f 399/1/780 364/1/780 799/1/780 835/1/780
f 364/1/781 379/1/781 816/1/781 799/1/781
f 406/1/782 367/1/782 802/1/782 843/1/782
f 367/1/783 383/1/783 820/1/783 802/1/783
f 409/1/784 369/1/784 805/1/784 845/1/784
f 371/1/785 389/1/785 826/1/785 806/1/785
f 430/1/786 377/1/786 812/1/786 866/1/786
f 377/1/787 417/1/787 854/1/787 812/1/787
f 394/1/788 424/1/788 861/1/788 829/1/788
f 441/1/789 438/1/789 602/1/789 596/1/789 589/1/789 582/1/789 575/1/789 569/1/789 612/1/789 565/1/789 606/1/789 558/1/789 552/1/789 675/1/789 548/1/789 671/1/789 542/1/789 668/1/789 538/1/789 665/1/789 535/1/789 659/1/789 529/1/789 652/1/789 525/1/789 648/1/789 519/1/789 645/1/789 512/1/789 640/1/789 713/1/789 505/1/789 744/1/789 636/1/789 706/1/789 501/1/789 737/1/789 633/1/789 699/1/789 498/1/789 730/1/789 627/1/789 695/1/789 492/1/789 726/1/789 623/1/789 781/1/789 762/1/789 774/1/789 751/1/789 777/1/789 755/1/789 768/1/789 689/1/789 485/1/789 720/1/789 617/1/789 682/1/789 478/1/789 846/1/789 807/1/789 825/1/789 794/1/789 836/1/789 800/1/789 815/1/789 788/1/789 842/1/789 803/1/789 819/1/789 791/1/789 830/1/789 860/1/789 797/1/789 867/1/789 813/1/789 853/1/789 470/1/789 466/1/789 463/1/789 460/1/789 457/1/789 451/1/789 447/1/789
