mtllib BotonStart.mtl
o BotonStart
v -0.00000 0.00000 -0.12500
v -1.85000 0.40000 -0.12500
v -1.84148 0.46470 -0.12500
v -1.81651 0.52500 -0.12500
v -1.77678 0.57678 -0.12500
v -1.72500 0.61651 -0.12500
v -1.66470 0.64148 -0.12500
v -1.60000 0.65000 -0.12500
v 1.60000 0.65000 -0.12500
v 1.66470 0.64148 -0.12500
v 1.72500 0.61651 -0.12500
v 1.77678 0.57678 -0.12500
v 1.81651 0.52500 -0.12500
v 1.84148 0.46470 -0.12500
v 1.85000 0.40000 -0.12500
v 1.85000 -0.40000 -0.12500
v 1.84148 -0.46470 -0.12500
v 1.81651 -0.52500 -0.12500
v 1.77678 -0.57678 -0.12500
v 1.72500 -0.61651 -0.12500
v 1.66470 -0.64148 -0.12500
v 1.60000 -0.65000 -0.12500
v -1.60000 -0.65000 -0.12500
v -1.66470 -0.64148 -0.12500
v -1.72500 -0.61651 -0.12500
v -1.77678 -0.57678 -0.12500
v -1.81651 -0.52500 -0.12500
v -1.84148 -0.46470 -0.12500
v -1.85000 -0.40000 -0.12500
v -0.00000 0.00000 0.12500
v -1.85000 0.40000 0.12500
v -1.84148 0.46470 0.12500
v -1.81651 0.52500 0.12500
v -1.77678 0.57678 0.12500
v -1.72500 0.61651 0.12500
v -1.66470 0.64148 0.12500
v -1.60000 0.65000 0.12500
v 1.60000 0.65000 0.12500
v 1.66470 0.64148 0.12500
v 1.72500 0.61651 0.12500
v 1.77678 0.57678 0.12500
v 1.81651 0.52500 0.12500
v 1.84148 0.46470 0.12500
v 1.85000 0.40000 0.12500
v 1.85000 -0.40000 0.12500
v 1.84148 -0.46470 0.12500
v 1.81651 -0.52500 0.12500
v 1.77678 -0.57678 0.12500
v 1.72500 -0.61651 0.12500
v 1.66470 -0.64148 0.12500
v 1.60000 -0.65000 0.12500
v -1.60000 -0.65000 0.12500
v -1.66470 -0.64148 0.12500
v -1.72500 -0.61651 0.12500
v -1.77678 -0.57678 0.12500
v -1.81651 -0.52500 0.12500
v -1.84148 -0.46470 0.12500
v -1.85000 -0.40000 0.12500
v -1.85000 0.40000 -0.12500
v -1.84148 0.46470 -0.12500
v -1.84148 0.46470 0.12500
v -1.85000 0.40000 0.12500
v -1.84148 0.46470 -0.12500
v -1.81651 0.52500 -0.12500
v -1.81651 0.52500 0.12500
v -1.84148 0.46470 0.12500
v -1.81651 0.52500 -0.12500
v -1.77678 0.57678 -0.12500
v -1.77678 0.57678 0.12500
v -1.81651 0.52500 0.12500
v -1.77678 0.57678 -0.12500
v -1.72500 0.61651 -0.12500
v -1.72500 0.61651 0.12500
v -1.77678 0.57678 0.12500
v -1.72500 0.61651 -0.12500
v -1.66470 0.64148 -0.12500
v -1.66470 0.64148 0.12500
v -1.72500 0.61651 0.12500
v -1.66470 0.64148 -0.12500
v -1.60000 0.65000 -0.12500
v -1.60000 0.65000 0.12500
v -1.66470 0.64148 0.12500
v -1.60000 0.65000 -0.12500
v 1.60000 0.65000 -0.12500
v 1.60000 0.65000 0.12500
v -1.60000 0.65000 0.12500
v 1.60000 0.65000 -0.12500
v 1.66470 0.64148 -0.12500
v 1.66470 0.64148 0.12500
v 1.60000 0.65000 0.12500
v 1.66470 0.64148 -0.12500
v 1.72500 0.61651 -0.12500
v 1.72500 0.61651 0.12500
v 1.66470 0.64148 0.12500
v 1.72500 0.61651 -0.12500
v 1.77678 0.57678 -0.12500
v 1.77678 0.57678 0.12500
v 1.72500 0.61651 0.12500
v 1.77678 0.57678 -0.12500
v 1.81651 0.52500 -0.12500
v 1.81651 0.52500 0.12500
v 1.77678 0.57678 0.12500
v 1.81651 0.52500 -0.12500
v 1.84148 0.46470 -0.12500
v 1.84148 0.46470 0.12500
v 1.81651 0.52500 0.12500
v 1.84148 0.46470 -0.12500
v 1.85000 0.40000 -0.12500
v 1.85000 0.40000 0.12500
v 1.84148 0.46470 0.12500
v 1.85000 0.40000 -0.12500
v 1.85000 -0.40000 -0.12500
v 1.85000 -0.40000 0.12500
v 1.85000 0.40000 0.12500
v 1.85000 -0.40000 -0.12500
v 1.84148 -0.46470 -0.12500
v 1.84148 -0.46470 0.12500
v 1.85000 -0.40000 0.12500
v 1.84148 -0.46470 -0.12500
v 1.81651 -0.52500 -0.12500
v 1.81651 -0.52500 0.12500
v 1.84148 -0.46470 0.12500
v 1.81651 -0.52500 -0.12500
v 1.77678 -0.57678 -0.12500
v 1.77678 -0.57678 0.12500
v 1.81651 -0.52500 0.12500
v 1.77678 -0.57678 -0.12500
v 1.72500 -0.61651 -0.12500
v 1.72500 -0.61651 0.12500
v 1.77678 -0.57678 0.12500
v 1.72500 -0.61651 -0.12500
v 1.66470 -0.64148 -0.12500
v 1.66470 -0.64148 0.12500
v 1.72500 -0.61651 0.12500
v 1.66470 -0.64148 -0.12500
v 1.60000 -0.65000 -0.12500
v 1.60000 -0.65000 0.12500
v 1.66470 -0.64148 0.12500
v 1.60000 -0.65000 -0.12500
v -1.60000 -0.65000 -0.12500
v -1.60000 -0.65000 0.12500
v 1.60000 -0.65000 0.12500
v -1.60000 -0.65000 -0.12500
v -1.66470 -0.64148 -0.12500
v -1.66470 -0.64148 0.12500
v -1.60000 -0.65000 0.12500
v -1.66470 -0.64148 -0.12500
v -1.72500 -0.61651 -0.12500
v -1.72500 -0.61651 0.12500
v -1.66470 -0.64148 0.12500
v -1.72500 -0.61651 -0.12500
v -1.77678 -0.57678 -0.12500
v -1.77678 -0.57678 0.12500
v -1.72500 -0.61651 0.12500
v -1.77678 -0.57678 -0.12500
v -1.81651 -0.52500 -0.12500
v -1.81651 -0.52500 0.12500
v -1.77678 -0.57678 0.12500
v -1.81651 -0.52500 -0.12500
v -1.84148 -0.46470 -0.12500
v -1.84148 -0.46470 0.12500
v -1.81651 -0.52500 0.12500
v -1.84148 -0.46470 -0.12500
v -1.85000 -0.40000 -0.12500
v -1.85000 -0.40000 0.12500
v -1.84148 -0.46470 0.12500
v -1.85000 -0.40000 -0.12500
v -1.85000 0.40000 -0.12500
v -1.85000 0.40000 0.12500
v -1.85000 -0.40000 0.12500
v 0.25000 -0.15000 -0.22500
v 0.25000 -0.05000 -0.22500
v 0.15000 -0.05000 -0.22500
v 0.15000 -0.15000 -0.22500
v 0.25000 -0.15000 -0.22500
v 0.25000 -0.05000 -0.22500
v 0.25000 -0.05000 -0.12500
v 0.25000 -0.15000 -0.12500
v 0.15000 -0.05000 -0.22500
v 0.15000 -0.15000 -0.22500
v 0.15000 -0.15000 -0.12500
v 0.15000 -0.05000 -0.12500
v -0.75000 0.05000 -0.22500
v -0.75000 0.15000 -0.22500
v -0.85000 0.15000 -0.22500
v -0.85000 0.05000 -0.22500
v -0.75000 0.05000 -0.22500
v -0.75000 0.15000 -0.22500
v -0.75000 0.15000 -0.12500
v -0.75000 0.05000 -0.12500
v -0.85000 0.15000 -0.22500
v -0.85000 0.05000 -0.22500
v -0.85000 0.05000 -0.12500
v -0.85000 0.15000 -0.12500
v -0.75000 0.05000 -0.22500
v -0.85000 0.05000 -0.22500
v -0.85000 0.05000 -0.12500
v -0.75000 0.05000 -0.12500
v 1.05000 0.25000 -0.22500
v 1.05000 0.35000 -0.22500
v 0.95000 0.35000 -0.22500
v 0.95000 0.25000 -0.22500
v 0.95000 0.35000 -0.22500
v 0.95000 0.25000 -0.22500
v 0.95000 0.25000 -0.12500
v 0.95000 0.35000 -0.12500
v 0.95000 0.35000 -0.22500
v 1.05000 0.35000 -0.22500
v 1.05000 0.35000 -0.12500
v 0.95000 0.35000 -0.12500
v 1.05000 0.25000 -0.22500
v 0.95000 0.25000 -0.22500
v 0.95000 0.25000 -0.12500
v 1.05000 0.25000 -0.12500
v 0.25000 0.15000 -0.22500
v 0.25000 0.25000 -0.22500
v 0.15000 0.25000 -0.22500
v 0.15000 0.15000 -0.22500
v 0.25000 0.15000 -0.22500
v 0.25000 0.25000 -0.22500
v 0.25000 0.25000 -0.12500
v 0.25000 0.15000 -0.12500
v 0.15000 0.25000 -0.22500
v 0.15000 0.15000 -0.22500
v 0.15000 0.15000 -0.12500
v 0.15000 0.25000 -0.12500
v 0.15000 0.25000 -0.22500
v 0.25000 0.25000 -0.22500
v 0.25000 0.25000 -0.12500
v 0.15000 0.25000 -0.12500
v -1.35000 0.25000 -0.22500
v -1.35000 0.35000 -0.22500
v -1.45000 0.35000 -0.22500
v -1.45000 0.25000 -0.22500
v -1.45000 0.35000 -0.22500
v -1.45000 0.25000 -0.22500
v -1.45000 0.25000 -0.12500
v -1.45000 0.35000 -0.12500
v -1.45000 0.35000 -0.22500
v -1.35000 0.35000 -0.22500
v -1.35000 0.35000 -0.12500
v -1.45000 0.35000 -0.12500
v -1.35000 0.25000 -0.22500
v -1.45000 0.25000 -0.22500
v -1.45000 0.25000 -0.12500
v -1.35000 0.25000 -0.12500
v 0.65000 0.25000 -0.22500
v 0.65000 0.35000 -0.22500
v 0.55000 0.35000 -0.22500
v 0.55000 0.25000 -0.22500
v 0.55000 0.35000 -0.22500
v 0.65000 0.35000 -0.22500
v 0.65000 0.35000 -0.12500
v 0.55000 0.35000 -0.12500
v -0.45000 0.25000 -0.22500
v -0.45000 0.35000 -0.22500
v -0.55000 0.35000 -0.22500
v -0.55000 0.25000 -0.22500
v -0.55000 0.35000 -0.22500
v -0.45000 0.35000 -0.22500
v -0.45000 0.35000 -0.12500
v -0.55000 0.35000 -0.12500
v -0.45000 0.25000 -0.22500
v -0.55000 0.25000 -0.22500
v -0.55000 0.25000 -0.12500
v -0.45000 0.25000 -0.12500
v 1.45000 0.05000 -0.22500
v 1.45000 0.15000 -0.22500
v 1.35000 0.15000 -0.22500
v 1.35000 0.05000 -0.22500
v 1.45000 0.05000 -0.22500
v 1.45000 0.15000 -0.22500
v 1.45000 0.15000 -0.12500
v 1.45000 0.05000 -0.12500
v 1.35000 0.15000 -0.22500
v 1.35000 0.05000 -0.22500
v 1.35000 0.05000 -0.12500
v 1.35000 0.15000 -0.12500
v 1.45000 0.05000 -0.22500
v 1.35000 0.05000 -0.22500
v 1.35000 0.05000 -0.12500
v 1.45000 0.05000 -0.12500
v 0.65000 -0.05000 -0.22500
v 0.65000 0.05000 -0.22500
v 0.55000 0.05000 -0.22500
v 0.55000 -0.05000 -0.22500
v 0.65000 -0.05000 -0.22500
v 0.65000 0.05000 -0.22500
v 0.65000 0.05000 -0.12500
v 0.65000 -0.05000 -0.12500
v 0.55000 0.05000 -0.22500
v 0.55000 -0.05000 -0.22500
v 0.55000 -0.05000 -0.12500
v 0.55000 0.05000 -0.12500
v 0.45000 0.25000 -0.22500
v 0.45000 0.35000 -0.22500
v 0.35000 0.35000 -0.22500
v 0.35000 0.25000 -0.22500
v 0.35000 0.35000 -0.22500
v 0.35000 0.25000 -0.22500
v 0.35000 0.25000 -0.12500
v 0.35000 0.35000 -0.12500
v 0.35000 0.35000 -0.22500
v 0.45000 0.35000 -0.22500
v 0.45000 0.35000 -0.12500
v 0.35000 0.35000 -0.12500
v 0.45000 0.25000 -0.22500
v 0.35000 0.25000 -0.22500
v 0.35000 0.25000 -0.12500
v 0.45000 0.25000 -0.12500
v -0.45000 -0.05000 -0.22500
v -0.45000 0.05000 -0.22500
v -0.55000 0.05000 -0.22500
v -0.55000 -0.05000 -0.22500
v -0.55000 0.05000 -0.22500
v -0.45000 0.05000 -0.22500
v -0.45000 0.05000 -0.12500
v -0.55000 0.05000 -0.12500
v -0.45000 -0.05000 -0.22500
v -0.55000 -0.05000 -0.22500
v -0.55000 -0.05000 -0.12500
v -0.45000 -0.05000 -0.12500
v 0.65000 -0.35000 -0.22500
v 0.65000 -0.25000 -0.22500
v 0.55000 -0.25000 -0.22500
v 0.55000 -0.35000 -0.22500
v 0.65000 -0.35000 -0.22500
v 0.65000 -0.25000 -0.22500
v 0.65000 -0.25000 -0.12500
v 0.65000 -0.35000 -0.12500
v 0.55000 -0.25000 -0.22500
v 0.55000 -0.35000 -0.22500
v 0.55000 -0.35000 -0.12500
v 0.55000 -0.25000 -0.12500
v 0.65000 -0.35000 -0.22500
v 0.55000 -0.35000 -0.22500
v 0.55000 -0.35000 -0.12500
v 0.65000 -0.35000 -0.12500
v 1.35000 0.25000 -0.22500
v 1.35000 0.35000 -0.22500
v 1.25000 0.35000 -0.22500
v 1.25000 0.25000 -0.22500
v 1.35000 0.25000 -0.22500
v 1.35000 0.35000 -0.22500
v 1.35000 0.35000 -0.12500
v 1.35000 0.25000 -0.12500
v 1.25000 0.35000 -0.22500
v 1.35000 0.35000 -0.22500
v 1.35000 0.35000 -0.12500
v 1.25000 0.35000 -0.12500
v 1.35000 0.25000 -0.22500
v 1.25000 0.25000 -0.22500
v 1.25000 0.25000 -0.12500
v 1.35000 0.25000 -0.12500
v 1.35000 -0.35000 -0.22500
v 1.35000 -0.25000 -0.22500
v 1.25000 -0.25000 -0.22500
v 1.25000 -0.35000 -0.22500
v 1.25000 -0.25000 -0.22500
v 1.35000 -0.25000 -0.22500
v 1.35000 -0.25000 -0.12500
v 1.25000 -0.25000 -0.12500
v 1.35000 -0.35000 -0.22500
v 1.25000 -0.35000 -0.22500
v 1.25000 -0.35000 -0.12500
v 1.35000 -0.35000 -0.12500
v 1.35000 -0.05000 -0.22500
v 1.35000 0.05000 -0.22500
v 1.25000 0.05000 -0.22500
v 1.25000 -0.05000 -0.22500
v 1.35000 -0.05000 -0.22500
v 1.35000 0.05000 -0.22500
v 1.35000 0.05000 -0.12500
v 1.35000 -0.05000 -0.12500
v 1.25000 0.05000 -0.22500
v 1.35000 0.05000 -0.22500
v 1.35000 0.05000 -0.12500
v 1.25000 0.05000 -0.12500
v 1.35000 -0.05000 -0.22500
v 1.25000 -0.05000 -0.22500
v 1.25000 -0.05000 -0.12500
v 1.35000 -0.05000 -0.12500
v -0.15000 -0.15000 -0.22500
v -0.15000 -0.05000 -0.22500
v -0.25000 -0.05000 -0.22500
v -0.25000 -0.15000 -0.22500
v -0.15000 -0.15000 -0.22500
v -0.15000 -0.05000 -0.22500
v -0.15000 -0.05000 -0.12500
v -0.15000 -0.15000 -0.12500
v -0.25000 -0.05000 -0.22500
v -0.25000 -0.15000 -0.22500
v -0.25000 -0.15000 -0.12500
v -0.25000 -0.05000 -0.12500
v -1.15000 0.05000 -0.22500
v -1.15000 0.15000 -0.22500
v -1.25000 0.15000 -0.22500
v -1.25000 0.05000 -0.22500
v -1.15000 0.05000 -0.22500
v -1.15000 0.15000 -0.22500
v -1.15000 0.15000 -0.12500
v -1.15000 0.05000 -0.12500
v -1.25000 0.15000 -0.22500
v -1.25000 0.05000 -0.22500
v -1.25000 0.05000 -0.12500
v -1.25000 0.15000 -0.12500
v -0.15000 0.15000 -0.22500
v -0.15000 0.25000 -0.22500
v -0.25000 0.25000 -0.22500
v -0.25000 0.15000 -0.22500
v -0.15000 0.15000 -0.22500
v -0.15000 0.25000 -0.22500
v -0.15000 0.25000 -0.12500
v -0.15000 0.15000 -0.12500
v -0.25000 0.25000 -0.22500
v -0.25000 0.15000 -0.22500
v -0.25000 0.15000 -0.12500
v -0.25000 0.25000 -0.12500
v -0.25000 0.25000 -0.22500
v -0.15000 0.25000 -0.22500
v -0.15000 0.25000 -0.12500
v -0.25000 0.25000 -0.12500
v -0.35000 -0.15000 -0.22500
v -0.35000 -0.05000 -0.22500
v -0.45000 -0.05000 -0.22500
v -0.45000 -0.15000 -0.22500
v -0.35000 -0.15000 -0.22500
v -0.35000 -0.05000 -0.22500
v -0.35000 -0.05000 -0.12500
v -0.35000 -0.15000 -0.12500
v -0.45000 -0.05000 -0.22500
v -0.45000 -0.15000 -0.22500
v -0.45000 -0.15000 -0.12500
v -0.45000 -0.05000 -0.12500
v -1.15000 -0.25000 -0.22500
v -1.15000 -0.15000 -0.22500
v -1.25000 -0.15000 -0.22500
v -1.25000 -0.25000 -0.22500
v -1.15000 -0.25000 -0.22500
v -1.15000 -0.15000 -0.22500
v -1.15000 -0.15000 -0.12500
v -1.15000 -0.25000 -0.12500
v -1.25000 -0.15000 -0.22500
v -1.25000 -0.25000 -0.22500
v -1.25000 -0.25000 -0.12500
v -1.25000 -0.15000 -0.12500
v -0.35000 0.15000 -0.22500
v -0.35000 0.25000 -0.22500
v -0.45000 0.25000 -0.22500
v -0.45000 0.15000 -0.22500
v -0.35000 0.15000 -0.22500
v -0.35000 0.25000 -0.22500
v -0.35000 0.25000 -0.12500
v -0.35000 0.15000 -0.12500
v -0.45000 0.25000 -0.22500
v -0.45000 0.15000 -0.22500
v -0.45000 0.15000 -0.12500
v -0.45000 0.25000 -0.12500
v -0.65000 0.25000 -0.22500
v -0.65000 0.35000 -0.22500
v -0.75000 0.35000 -0.22500
v -0.75000 0.25000 -0.22500
v -0.75000 0.35000 -0.22500
v -0.75000 0.25000 -0.22500
v -0.75000 0.25000 -0.12500
v -0.75000 0.35000 -0.12500
v -0.75000 0.35000 -0.22500
v -0.65000 0.35000 -0.22500
v -0.65000 0.35000 -0.12500
v -0.75000 0.35000 -0.12500
v -0.65000 0.25000 -0.22500
v -0.75000 0.25000 -0.22500
v -0.75000 0.25000 -0.12500
v -0.65000 0.25000 -0.12500
v -0.55000 -0.15000 -0.22500
v -0.55000 -0.05000 -0.22500
v -0.65000 -0.05000 -0.22500
v -0.65000 -0.15000 -0.22500
v -0.55000 -0.15000 -0.22500
v -0.55000 -0.05000 -0.22500
v -0.55000 -0.05000 -0.12500
v -0.55000 -0.15000 -0.12500
v -0.65000 -0.05000 -0.22500
v -0.65000 -0.15000 -0.22500
v -0.65000 -0.15000 -0.12500
v -0.65000 -0.05000 -0.12500
v -0.55000 -0.15000 -0.22500
v -0.65000 -0.15000 -0.22500
v -0.65000 -0.15000 -0.12500
v -0.55000 -0.15000 -0.12500
v -0.75000 0.15000 -0.22500
v -0.75000 0.25000 -0.22500
v -0.85000 0.25000 -0.22500
v -0.85000 0.15000 -0.22500
v -0.75000 0.15000 -0.22500
v -0.75000 0.25000 -0.22500
v -0.75000 0.25000 -0.12500
v -0.75000 0.15000 -0.12500
v -0.85000 0.25000 -0.22500
v -0.85000 0.15000 -0.22500
v -0.85000 0.15000 -0.12500
v -0.85000 0.25000 -0.12500
v -0.85000 0.25000 -0.22500
v -0.75000 0.25000 -0.22500
v -0.75000 0.25000 -0.12500
v -0.85000 0.25000 -0.12500
v -0.65000 -0.05000 -0.22500
v -0.65000 0.05000 -0.22500
v -0.75000 0.05000 -0.22500
v -0.75000 -0.05000 -0.22500
v -0.75000 0.05000 -0.22500
v -0.75000 -0.05000 -0.22500
v -0.75000 -0.05000 -0.12500
v -0.75000 0.05000 -0.12500
v -0.75000 0.05000 -0.22500
v -0.65000 0.05000 -0.22500
v -0.65000 0.05000 -0.12500
v -0.75000 0.05000 -0.12500
v -0.65000 -0.05000 -0.22500
v -0.75000 -0.05000 -0.22500
v -0.75000 -0.05000 -0.12500
v -0.65000 -0.05000 -0.12500
v 0.25000 -0.05000 -0.22500
v 0.25000 0.05000 -0.22500
v 0.15000 0.05000 -0.22500
v 0.15000 -0.05000 -0.22500
v 0.25000 -0.05000 -0.22500
v 0.25000 0.05000 -0.22500
v 0.25000 0.05000 -0.12500
v 0.25000 -0.05000 -0.12500
v 1.15000 0.25000 -0.22500
v 1.15000 0.35000 -0.22500
v 1.05000 0.35000 -0.22500
v 1.05000 0.25000 -0.22500
v 1.05000 0.35000 -0.22500
v 1.15000 0.35000 -0.22500
v 1.15000 0.35000 -0.12500
v 1.05000 0.35000 -0.12500
v 1.15000 0.25000 -0.22500
v 1.05000 0.25000 -0.22500
v 1.05000 0.25000 -0.12500
v 1.15000 0.25000 -0.12500
v 0.05000 0.25000 -0.22500
v 0.05000 0.35000 -0.22500
v -0.05000 0.35000 -0.22500
v -0.05000 0.25000 -0.22500
v -0.05000 0.35000 -0.22500
v 0.05000 0.35000 -0.22500
v 0.05000 0.35000 -0.12500
v -0.05000 0.35000 -0.12500
v 0.05000 0.25000 -0.22500
v -0.05000 0.25000 -0.22500
v -0.05000 0.25000 -0.12500
v 0.05000 0.25000 -0.12500
v 1.05000 -0.25000 -0.22500
v 1.05000 -0.15000 -0.22500
v 0.95000 -0.15000 -0.22500
v 0.95000 -0.25000 -0.22500
v 1.05000 -0.25000 -0.22500
v 1.05000 -0.15000 -0.22500
v 1.05000 -0.15000 -0.12500
v 1.05000 -0.25000 -0.12500
v 0.95000 -0.15000 -0.22500
v 0.95000 -0.25000 -0.22500
v 0.95000 -0.25000 -0.12500
v 0.95000 -0.15000 -0.12500
v 1.05000 -0.25000 -0.22500
v 0.95000 -0.25000 -0.22500
v 0.95000 -0.25000 -0.12500
v 1.05000 -0.25000 -0.12500
v 1.15000 -0.05000 -0.22500
v 1.15000 0.05000 -0.22500
v 1.05000 0.05000 -0.22500
v 1.05000 -0.05000 -0.22500
v 1.05000 0.05000 -0.22500
v 1.05000 -0.05000 -0.22500
v 1.05000 -0.05000 -0.12500
v 1.05000 0.05000 -0.12500
v 1.05000 0.05000 -0.22500
v 1.15000 0.05000 -0.22500
v 1.15000 0.05000 -0.12500
v 1.05000 0.05000 -0.12500
v 1.15000 -0.05000 -0.22500
v 1.05000 -0.05000 -0.22500
v 1.05000 -0.05000 -0.12500
v 1.15000 -0.05000 -0.12500
v 0.25000 -0.35000 -0.22500
v 0.25000 -0.25000 -0.22500
v 0.15000 -0.25000 -0.22500
v 0.15000 -0.35000 -0.22500
v 0.25000 -0.35000 -0.22500
v 0.25000 -0.25000 -0.22500
v 0.25000 -0.25000 -0.12500
v 0.25000 -0.35000 -0.12500
v 0.15000 -0.25000 -0.22500
v 0.15000 -0.35000 -0.22500
v 0.15000 -0.35000 -0.12500
v 0.15000 -0.25000 -0.12500
v 0.25000 -0.35000 -0.22500
v 0.15000 -0.35000 -0.22500
v 0.15000 -0.35000 -0.12500
v 0.25000 -0.35000 -0.12500
v 0.05000 -0.05000 -0.22500
v 0.05000 0.05000 -0.22500
v -0.05000 0.05000 -0.22500
v -0.05000 -0.05000 -0.22500
v -0.05000 0.05000 -0.22500
v 0.05000 0.05000 -0.22500
v 0.05000 0.05000 -0.12500
v -0.05000 0.05000 -0.12500
v 0.05000 -0.05000 -0.22500
v -0.05000 -0.05000 -0.22500
v -0.05000 -0.05000 -0.12500
v 0.05000 -0.05000 -0.12500
v -1.25000 0.25000 -0.22500
v -1.25000 0.35000 -0.22500
v -1.35000 0.35000 -0.22500
v -1.35000 0.25000 -0.22500
v -1.35000 0.35000 -0.22500
v -1.25000 0.35000 -0.22500
v -1.25000 0.35000 -0.12500
v -1.35000 0.35000 -0.12500
v -1.25000 0.25000 -0.22500
v -1.35000 0.25000 -0.22500
v -1.35000 0.25000 -0.12500
v -1.25000 0.25000 -0.12500
v 1.15000 -0.35000 -0.22500
v 1.15000 -0.25000 -0.22500
v 1.05000 -0.25000 -0.22500
v 1.05000 -0.35000 -0.22500
v 1.05000 -0.25000 -0.22500
v 1.05000 -0.35000 -0.22500
v 1.05000 -0.35000 -0.12500
v 1.05000 -0.25000 -0.12500
v 1.05000 -0.25000 -0.22500
v 1.15000 -0.25000 -0.22500
v 1.15000 -0.25000 -0.12500
v 1.05000 -0.25000 -0.12500
v 1.15000 -0.35000 -0.22500
v 1.05000 -0.35000 -0.22500
v 1.05000 -0.35000 -0.12500
v 1.15000 -0.35000 -0.12500
v 0.65000 0.05000 -0.22500
v 0.65000 0.15000 -0.22500
v 0.55000 0.15000 -0.22500
v 0.55000 0.05000 -0.22500
v 0.65000 0.05000 -0.22500
v 0.65000 0.15000 -0.22500
v 0.65000 0.15000 -0.12500
v 0.65000 0.05000 -0.12500
v 0.55000 0.15000 -0.22500
v 0.55000 0.05000 -0.22500
v 0.55000 0.05000 -0.12500
v 0.55000 0.15000 -0.12500
v 0.65000 -0.25000 -0.22500
v 0.65000 -0.15000 -0.22500
v 0.55000 -0.15000 -0.22500
v 0.55000 -0.25000 -0.22500
v 0.65000 -0.25000 -0.22500
v 0.65000 -0.15000 -0.22500
v 0.65000 -0.15000 -0.12500
v 0.65000 -0.25000 -0.12500
v 0.55000 -0.15000 -0.22500
v 0.55000 -0.25000 -0.22500
v 0.55000 -0.25000 -0.12500
v 0.55000 -0.15000 -0.12500
v 1.45000 0.15000 -0.22500
v 1.45000 0.25000 -0.22500
v 1.35000 0.25000 -0.22500
v 1.35000 0.15000 -0.22500
v 1.45000 0.15000 -0.22500
v 1.45000 0.25000 -0.22500
v 1.45000 0.25000 -0.12500
v 1.45000 0.15000 -0.12500
v 1.35000 0.25000 -0.22500
v 1.35000 0.15000 -0.22500
v 1.35000 0.15000 -0.12500
v 1.35000 0.25000 -0.12500
v 1.35000 0.25000 -0.22500
v 1.45000 0.25000 -0.22500
v 1.45000 0.25000 -0.12500
v 1.35000 0.25000 -0.12500
v -1.05000 0.25000 -0.22500
v -1.05000 0.35000 -0.22500
v -1.15000 0.35000 -0.22500
v -1.15000 0.25000 -0.22500
v -1.15000 0.35000 -0.22500
v -1.05000 0.35000 -0.22500
v -1.05000 0.35000 -0.12500
v -1.15000 0.35000 -0.12500
v -1.05000 0.25000 -0.22500
v -1.15000 0.25000 -0.22500
v -1.15000 0.25000 -0.12500
v -1.05000 0.25000 -0.12500
v -1.15000 0.15000 -0.22500
v -1.15000 0.25000 -0.22500
v -1.25000 0.25000 -0.22500
v -1.25000 0.15000 -0.22500
v -1.15000 0.15000 -0.22500
v -1.15000 0.25000 -0.22500
v -1.15000 0.25000 -0.12500
v -1.15000 0.15000 -0.12500
v -1.25000 0.25000 -0.22500
v -1.25000 0.15000 -0.22500
v -1.25000 0.15000 -0.12500
v -1.25000 0.25000 -0.12500
v -1.15000 -0.15000 -0.22500
v -1.15000 -0.05000 -0.22500
v -1.25000 -0.05000 -0.22500
v -1.25000 -0.15000 -0.22500
v -1.15000 -0.15000 -0.22500
v -1.15000 -0.05000 -0.22500
v -1.15000 -0.05000 -0.12500
v -1.15000 -0.15000 -0.12500
v -1.25000 -0.05000 -0.22500
v -1.25000 -0.15000 -0.22500
v -1.25000 -0.15000 -0.12500
v -1.25000 -0.05000 -0.12500
v -0.15000 -0.05000 -0.22500
v -0.15000 0.05000 -0.22500
v -0.25000 0.05000 -0.22500
v -0.25000 -0.05000 -0.22500
v -0.25000 0.05000 -0.22500
v -0.25000 -0.05000 -0.22500
v -0.25000 -0.05000 -0.12500
v -0.25000 0.05000 -0.12500
v 0.75000 0.25000 -0.22500
v 0.75000 0.35000 -0.22500
v 0.65000 0.35000 -0.22500
v 0.65000 0.25000 -0.22500
v 0.65000 0.35000 -0.22500
v 0.75000 0.35000 -0.22500
v 0.75000 0.35000 -0.12500
v 0.65000 0.35000 -0.12500
v 0.75000 0.25000 -0.22500
v 0.65000 0.25000 -0.22500
v 0.65000 0.25000 -0.12500
v 0.75000 0.25000 -0.12500
v -0.35000 0.25000 -0.22500
v -0.35000 0.35000 -0.22500
v -0.45000 0.35000 -0.22500
v -0.45000 0.25000 -0.22500
v -0.35000 0.25000 -0.22500
v -0.35000 0.35000 -0.22500
v -0.35000 0.35000 -0.12500
v -0.35000 0.25000 -0.12500
v -0.45000 0.35000 -0.22500
v -0.35000 0.35000 -0.22500
v -0.35000 0.35000 -0.12500
v -0.45000 0.35000 -0.12500
v -0.15000 -0.35000 -0.22500
v -0.15000 -0.25000 -0.22500
v -0.25000 -0.25000 -0.22500
v -0.25000 -0.35000 -0.22500
v -0.15000 -0.35000 -0.22500
v -0.15000 -0.25000 -0.22500
v -0.15000 -0.25000 -0.12500
v -0.15000 -0.35000 -0.12500
v -0.25000 -0.25000 -0.22500
v -0.25000 -0.35000 -0.22500
v -0.25000 -0.35000 -0.12500
v -0.25000 -0.25000 -0.12500
v -0.15000 -0.35000 -0.22500
v -0.25000 -0.35000 -0.22500
v -0.25000 -0.35000 -0.12500
v -0.15000 -0.35000 -0.12500
v -0.35000 -0.05000 -0.22500
v -0.35000 0.05000 -0.22500
v -0.45000 0.05000 -0.22500
v -0.45000 -0.05000 -0.22500
v -0.35000 -0.05000 -0.22500
v -0.35000 0.05000 -0.22500
v -0.35000 0.05000 -0.12500
v -0.35000 -0.05000 -0.12500
v -0.55000 0.25000 -0.22500
v -0.55000 0.35000 -0.22500
v -0.65000 0.35000 -0.22500
v -0.65000 0.25000 -0.22500
v -0.65000 0.35000 -0.22500
v -0.55000 0.35000 -0.22500
v -0.55000 0.35000 -0.12500
v -0.65000 0.35000 -0.12500
v -0.55000 0.25000 -0.22500
v -0.65000 0.25000 -0.22500
v -0.65000 0.25000 -0.12500
v -0.55000 0.25000 -0.12500
v -0.35000 -0.35000 -0.22500
v -0.35000 -0.25000 -0.22500
v -0.45000 -0.25000 -0.22500
v -0.45000 -0.35000 -0.22500
v -0.35000 -0.35000 -0.22500
v -0.35000 -0.25000 -0.22500
v -0.35000 -0.25000 -0.12500
v -0.35000 -0.35000 -0.12500
v -0.45000 -0.25000 -0.22500
v -0.45000 -0.35000 -0.22500
v -0.45000 -0.35000 -0.12500
v -0.45000 -0.25000 -0.12500
v -0.35000 -0.35000 -0.22500
v -0.45000 -0.35000 -0.22500
v -0.45000 -0.35000 -0.12500
v -0.35000 -0.35000 -0.12500
v -0.65000 -0.25000 -0.22500
v -0.65000 -0.15000 -0.22500
v -0.75000 -0.15000 -0.22500
v -0.75000 -0.25000 -0.22500
v -0.65000 -0.25000 -0.22500
v -0.65000 -0.15000 -0.22500
v -0.65000 -0.15000 -0.12500
v -0.65000 -0.25000 -0.12500
v -0.75000 -0.15000 -0.22500
v -0.75000 -0.25000 -0.22500
v -0.75000 -0.25000 -0.12500
v -0.75000 -0.15000 -0.12500
v -0.75000 -0.15000 -0.22500
v -0.65000 -0.15000 -0.22500
v -0.65000 -0.15000 -0.12500
v -0.75000 -0.15000 -0.12500
v -0.65000 -0.25000 -0.22500
v -0.75000 -0.25000 -0.22500
v -0.75000 -0.25000 -0.12500
v -0.65000 -0.25000 -0.12500
v 0.25000 0.05000 -0.22500
v 0.25000 0.15000 -0.22500
v 0.15000 0.15000 -0.22500
v 0.15000 0.05000 -0.22500
v 0.25000 0.05000 -0.22500
v 0.25000 0.15000 -0.22500
v 0.25000 0.15000 -0.12500
v 0.25000 0.05000 -0.12500
v 0.15000 0.15000 -0.22500
v 0.15000 0.05000 -0.22500
v 0.15000 0.05000 -0.12500
v 0.15000 0.15000 -0.12500
v -0.55000 -0.05000 -0.22500
v -0.55000 0.05000 -0.22500
v -0.65000 0.05000 -0.22500
v -0.65000 -0.05000 -0.22500
v -0.65000 0.05000 -0.22500
v -0.55000 0.05000 -0.22500
v -0.55000 0.05000 -0.12500
v -0.65000 0.05000 -0.12500
v -0.75000 -0.35000 -0.22500
v -0.75000 -0.25000 -0.22500
v -0.85000 -0.25000 -0.22500
v -0.85000 -0.35000 -0.22500
v -0.75000 -0.35000 -0.22500
v -0.75000 -0.25000 -0.22500
v -0.75000 -0.25000 -0.12500
v -0.75000 -0.35000 -0.12500
v -0.85000 -0.25000 -0.22500
v -0.85000 -0.35000 -0.22500
v -0.85000 -0.35000 -0.12500
v -0.85000 -0.25000 -0.12500
v -0.85000 -0.25000 -0.22500
v -0.75000 -0.25000 -0.22500
v -0.75000 -0.25000 -0.12500
v -0.85000 -0.25000 -0.12500
v -0.75000 -0.35000 -0.22500
v -0.85000 -0.35000 -0.22500
v -0.85000 -0.35000 -0.12500
v -0.75000 -0.35000 -0.12500
v 0.25000 -0.25000 -0.22500
v 0.25000 -0.15000 -0.22500
v 0.15000 -0.15000 -0.22500
v 0.15000 -0.25000 -0.22500
v 0.25000 -0.25000 -0.22500
v 0.25000 -0.15000 -0.22500
v 0.25000 -0.15000 -0.12500
v 0.25000 -0.25000 -0.12500
v 0.15000 -0.15000 -0.22500
v 0.15000 -0.25000 -0.22500
v 0.15000 -0.25000 -0.12500
v 0.15000 -0.15000 -0.12500
v 1.05000 -0.15000 -0.22500
v 1.05000 -0.05000 -0.22500
v 0.95000 -0.05000 -0.22500
v 0.95000 -0.15000 -0.22500
v 1.05000 -0.15000 -0.22500
v 1.05000 -0.05000 -0.22500
v 1.05000 -0.05000 -0.12500
v 1.05000 -0.15000 -0.12500
v 0.95000 -0.05000 -0.22500
v 0.95000 -0.15000 -0.22500
v 0.95000 -0.15000 -0.12500
v 0.95000 -0.05000 -0.12500
v 0.95000 -0.05000 -0.22500
v 1.05000 -0.05000 -0.22500
v 1.05000 -0.05000 -0.12500
v 0.95000 -0.05000 -0.12500
v 0.55000 0.25000 -0.22500
v 0.55000 0.35000 -0.22500
v 0.45000 0.35000 -0.22500
v 0.45000 0.25000 -0.22500
v 0.45000 0.35000 -0.22500
v 0.55000 0.35000 -0.22500
v 0.55000 0.35000 -0.12500
v 0.45000 0.35000 -0.12500
v 0.55000 0.25000 -0.22500
v 0.45000 0.25000 -0.22500
v 0.45000 0.25000 -0.12500
v 0.55000 0.25000 -0.12500
v 0.65000 -0.15000 -0.22500
v 0.65000 -0.05000 -0.22500
v 0.55000 -0.05000 -0.22500
v 0.55000 -0.15000 -0.22500
v 0.65000 -0.15000 -0.22500
v 0.65000 -0.05000 -0.22500
v 0.65000 -0.05000 -0.12500
v 0.65000 -0.15000 -0.12500
v 0.55000 -0.05000 -0.22500
v 0.55000 -0.15000 -0.22500
v 0.55000 -0.15000 -0.12500
v 0.55000 -0.05000 -0.12500
v 0.65000 0.15000 -0.22500
v 0.65000 0.25000 -0.22500
v 0.55000 0.25000 -0.22500
v 0.55000 0.15000 -0.22500
v 0.65000 0.15000 -0.22500
v 0.65000 0.25000 -0.22500
v 0.65000 0.25000 -0.12500
v 0.65000 0.15000 -0.12500
v 0.55000 0.25000 -0.22500
v 0.55000 0.15000 -0.22500
v 0.55000 0.15000 -0.12500
v 0.55000 0.25000 -0.12500
v 1.25000 0.25000 -0.22500
v 1.25000 0.35000 -0.22500
v 1.15000 0.35000 -0.22500
v 1.15000 0.25000 -0.22500
v 1.15000 0.35000 -0.22500
v 1.25000 0.35000 -0.22500
v 1.25000 0.35000 -0.12500
v 1.15000 0.35000 -0.12500
v 1.25000 0.25000 -0.22500
v 1.15000 0.25000 -0.22500
v 1.15000 0.25000 -0.12500
v 1.25000 0.25000 -0.12500
v 0.15000 0.25000 -0.22500
v 0.15000 0.35000 -0.22500
v 0.05000 0.35000 -0.22500
v 0.05000 0.25000 -0.22500
v 0.15000 0.25000 -0.22500
v 0.15000 0.35000 -0.22500
v 0.15000 0.35000 -0.12500
v 0.15000 0.25000 -0.12500
v 0.05000 0.35000 -0.22500
v 0.15000 0.35000 -0.22500
v 0.15000 0.35000 -0.12500
v 0.05000 0.35000 -0.12500
v 0.15000 0.25000 -0.22500
v 0.05000 0.25000 -0.22500
v 0.05000 0.25000 -0.12500
v 0.15000 0.25000 -0.12500
v -0.95000 0.25000 -0.22500
v -0.95000 0.35000 -0.22500
v -1.05000 0.35000 -0.22500
v -1.05000 0.25000 -0.22500
v -0.95000 0.25000 -0.22500
v -0.95000 0.35000 -0.22500
v -0.95000 0.35000 -0.12500
v -0.95000 0.25000 -0.12500
v -1.05000 0.35000 -0.22500
v -0.95000 0.35000 -0.22500
v -0.95000 0.35000 -0.12500
v -1.05000 0.35000 -0.12500
v -0.95000 0.25000 -0.22500
v -1.05000 0.25000 -0.22500
v -1.05000 0.25000 -0.12500
v -0.95000 0.25000 -0.12500
v 1.45000 -0.35000 -0.22500
v 1.45000 -0.25000 -0.22500
v 1.35000 -0.25000 -0.22500
v 1.35000 -0.35000 -0.22500
v 1.45000 -0.35000 -0.22500
v 1.45000 -0.25000 -0.22500
v 1.45000 -0.25000 -0.12500
v 1.45000 -0.35000 -0.12500
v 1.35000 -0.25000 -0.22500
v 1.45000 -0.25000 -0.22500
v 1.45000 -0.25000 -0.12500
v 1.35000 -0.25000 -0.12500
v 1.45000 -0.35000 -0.22500
v 1.35000 -0.35000 -0.22500
v 1.35000 -0.35000 -0.12500
v 1.45000 -0.35000 -0.12500
v 1.25000 -0.05000 -0.22500
v 1.25000 0.05000 -0.22500
v 1.15000 0.05000 -0.22500
v 1.15000 -0.05000 -0.22500
v 1.15000 0.05000 -0.22500
v 1.25000 0.05000 -0.22500
v 1.25000 0.05000 -0.12500
v 1.15000 0.05000 -0.12500
v 1.25000 -0.05000 -0.22500
v 1.15000 -0.05000 -0.22500
v 1.15000 -0.05000 -0.12500
v 1.25000 -0.05000 -0.12500
v 0.15000 -0.05000 -0.22500
v 0.15000 0.05000 -0.22500
v 0.05000 0.05000 -0.22500
v 0.05000 -0.05000 -0.22500
v 0.05000 0.05000 -0.22500
v 0.15000 0.05000 -0.22500
v 0.15000 0.05000 -0.12500
v 0.05000 0.05000 -0.12500
v 0.15000 -0.05000 -0.22500
v 0.05000 -0.05000 -0.22500
v 0.05000 -0.05000 -0.12500
v 0.15000 -0.05000 -0.12500
v -0.05000 0.25000 -0.22500
v -0.05000 0.35000 -0.22500
v -0.15000 0.35000 -0.22500
v -0.15000 0.25000 -0.22500
v -0.15000 0.35000 -0.22500
v -0.15000 0.25000 -0.22500
v -0.15000 0.25000 -0.12500
v -0.15000 0.35000 -0.12500
v -0.15000 0.35000 -0.22500
v -0.05000 0.35000 -0.22500
v -0.05000 0.35000 -0.12500
v -0.15000 0.35000 -0.12500
v -0.05000 0.25000 -0.22500
v -0.15000 0.25000 -0.22500
v -0.15000 0.25000 -0.12500
v -0.05000 0.25000 -0.12500
v -0.15000 0.05000 -0.22500
v -0.15000 0.15000 -0.22500
v -0.25000 0.15000 -0.22500
v -0.25000 0.05000 -0.22500
v -0.15000 0.05000 -0.22500
v -0.15000 0.15000 -0.22500
v -0.15000 0.15000 -0.12500
v -0.15000 0.05000 -0.12500
v -0.25000 0.15000 -0.22500
v -0.25000 0.05000 -0.22500
v -0.25000 0.05000 -0.12500
v -0.25000 0.15000 -0.12500
v 1.25000 -0.35000 -0.22500
v 1.25000 -0.25000 -0.22500
v 1.15000 -0.25000 -0.22500
v 1.15000 -0.35000 -0.22500
v 1.15000 -0.25000 -0.22500
v 1.25000 -0.25000 -0.22500
v 1.25000 -0.25000 -0.12500
v 1.15000 -0.25000 -0.12500
v 1.25000 -0.35000 -0.22500
v 1.15000 -0.35000 -0.22500
v 1.15000 -0.35000 -0.12500
v 1.25000 -0.35000 -0.12500
v -0.15000 -0.25000 -0.22500
v -0.15000 -0.15000 -0.22500
v -0.25000 -0.15000 -0.22500
v -0.25000 -0.25000 -0.22500
v -0.15000 -0.25000 -0.22500
v -0.15000 -0.15000 -0.22500
v -0.15000 -0.15000 -0.12500
v -0.15000 -0.25000 -0.12500
v -0.25000 -0.15000 -0.22500
v -0.25000 -0.25000 -0.22500
v -0.25000 -0.25000 -0.12500
v -0.25000 -0.15000 -0.12500
v -0.05000 -0.05000 -0.22500
v -0.05000 0.05000 -0.22500
v -0.15000 0.05000 -0.22500
v -0.15000 -0.05000 -0.22500
v -0.15000 0.05000 -0.22500
v -0.05000 0.05000 -0.22500
v -0.05000 0.05000 -0.12500
v -0.15000 0.05000 -0.12500
v -0.05000 -0.05000 -0.22500
v -0.15000 -0.05000 -0.22500
v -0.15000 -0.05000 -0.12500
v -0.05000 -0.05000 -0.12500
v 0.85000 0.25000 -0.22500
v 0.85000 0.35000 -0.22500
v 0.75000 0.35000 -0.22500
v 0.75000 0.25000 -0.22500
v 0.85000 0.25000 -0.22500
v 0.85000 0.35000 -0.22500
v 0.85000 0.35000 -0.12500
v 0.85000 0.25000 -0.12500
v 0.75000 0.35000 -0.22500
v 0.85000 0.35000 -0.22500
v 0.85000 0.35000 -0.12500
v 0.75000 0.35000 -0.12500
v 0.85000 0.25000 -0.22500
v 0.75000 0.25000 -0.22500
v 0.75000 0.25000 -0.12500
v 0.85000 0.25000 -0.12500
v -0.35000 0.05000 -0.22500
v -0.35000 0.15000 -0.22500
v -0.45000 0.15000 -0.22500
v -0.45000 0.05000 -0.22500
v -0.35000 0.05000 -0.22500
v -0.35000 0.15000 -0.22500
v -0.35000 0.15000 -0.12500
v -0.35000 0.05000 -0.12500
v -0.45000 0.15000 -0.22500
v -0.45000 0.05000 -0.22500
v -0.45000 0.05000 -0.12500
v -0.45000 0.15000 -0.12500
v -1.15000 0.25000 -0.22500
v -1.15000 0.35000 -0.22500
v -1.25000 0.35000 -0.22500
v -1.25000 0.25000 -0.22500
v -1.25000 0.35000 -0.22500
v -1.15000 0.35000 -0.22500
v -1.15000 0.35000 -0.12500
v -1.25000 0.35000 -0.12500
v -0.35000 -0.25000 -0.22500
v -0.35000 -0.15000 -0.22500
v -0.45000 -0.15000 -0.22500
v -0.45000 -0.25000 -0.22500
v -0.35000 -0.25000 -0.22500
v -0.35000 -0.15000 -0.22500
v -0.35000 -0.15000 -0.12500
v -0.35000 -0.25000 -0.12500
v -0.45000 -0.15000 -0.22500
v -0.45000 -0.25000 -0.22500
v -0.45000 -0.25000 -0.12500
v -0.45000 -0.15000 -0.12500
v -1.15000 -0.05000 -0.22500
v -1.15000 0.05000 -0.22500
v -1.25000 0.05000 -0.22500
v -1.25000 -0.05000 -0.22500
v -1.15000 -0.05000 -0.22500
v -1.15000 0.05000 -0.22500
v -1.15000 0.05000 -0.12500
v -1.15000 -0.05000 -0.12500
v -1.25000 0.05000 -0.22500
v -1.25000 -0.05000 -0.22500
v -1.25000 -0.05000 -0.12500
v -1.25000 0.05000 -0.12500
v -1.15000 -0.35000 -0.22500
v -1.15000 -0.25000 -0.22500
v -1.25000 -0.25000 -0.22500
v -1.25000 -0.35000 -0.22500
v -1.15000 -0.35000 -0.22500
v -1.15000 -0.25000 -0.22500
v -1.15000 -0.25000 -0.12500
v -1.15000 -0.35000 -0.12500
v -1.25000 -0.25000 -0.22500
v -1.25000 -0.35000 -0.22500
v -1.25000 -0.35000 -0.12500
v -1.25000 -0.25000 -0.12500
v -1.15000 -0.35000 -0.22500
v -1.25000 -0.35000 -0.22500
v -1.25000 -0.35000 -0.12500
v -1.15000 -0.35000 -0.12500
vn -0.00000 0.00000 -1.00000
vn -0.00000 0.00000 -1.00000
vn -0.00000 0.00000 -1.00000
vn -0.00000 0.00000 -1.00000
vn -0.00000 0.00000 -1.00000
vn -0.00000 0.00000 -1.00000
vn -0.00000 0.00000 -1.00000
vn -0.00000 0.00000 -1.00000
vn -0.00000 0.00000 -1.00000
vn -0.00000 0.00000 -1.00000
vn -0.00000 0.00000 -1.00000
vn -0.00000 0.00000 -1.00000
vn -0.00000 0.00000 -1.00000
vn -0.00000 0.00000 -1.00000
vn -0.00000 0.00000 -1.00000
vn -0.00000 0.00000 -1.00000
vn -0.00000 0.00000 -1.00000
vn -0.00000 0.00000 -1.00000
vn -0.00000 0.00000 -1.00000
vn -0.00000 0.00000 -1.00000
vn -0.00000 0.00000 -1.00000
vn -0.00000 0.00000 -1.00000
vn -0.00000 0.00000 -1.00000
vn -0.00000 0.00000 -1.00000
vn -0.00000 0.00000 -1.00000
vn -0.00000 0.00000 -1.00000
vn -0.00000 0.00000 -1.00000
vn -0.00000 0.00000 -1.00000
vn -0.00000 0.00000 -1.00000
vn -0.00000 0.00000 1.00000
vn -0.00000 0.00000 1.00000
vn -0.00000 0.00000 1.00000
vn -0.00000 0.00000 1.00000
vn -0.00000 0.00000 1.00000
vn -0.00000 0.00000 1.00000
vn -0.00000 0.00000 1.00000
vn -0.00000 0.00000 1.00000
vn -0.00000 0.00000 1.00000
vn -0.00000 0.00000 1.00000
vn -0.00000 0.00000 1.00000
vn -0.00000 0.00000 1.00000
vn -0.00000 0.00000 1.00000
vn -0.00000 0.00000 1.00000
vn -0.00000 0.00000 1.00000
vn -0.00000 0.00000 1.00000
vn -0.00000 0.00000 1.00000
vn -0.00000 0.00000 1.00000
vn -0.00000 0.00000 1.00000
vn -0.00000 0.00000 1.00000
vn -0.00000 0.00000 1.00000
vn -0.00000 0.00000 1.00000
vn -0.00000 0.00000 1.00000
vn -0.00000 0.00000 1.00000
vn -0.00000 0.00000 1.00000
vn -0.00000 0.00000 1.00000
vn -0.00000 0.00000 1.00000
vn -0.00000 0.00000 1.00000
vn -0.00000 0.00000 1.00000
vn -1.00000 0.00000 0.00000
vn -0.96593 0.25882 0.00000
vn -0.96593 0.25882 0.00000
vn -1.00000 0.00000 0.00000
vn -0.96593 0.25882 0.00000
vn -0.86603 0.50000 0.00000
vn -0.86603 0.50000 0.00000
vn -0.96593 0.25882 0.00000
vn -0.86603 0.50000 0.00000
vn -0.70711 0.70711 0.00000
vn -0.70711 0.70711 0.00000
vn -0.86603 0.50000 0.00000
vn -0.70711 0.70711 0.00000
vn -0.50000 0.86603 0.00000
vn -0.50000 0.86603 0.00000
vn -0.70711 0.70711 0.00000
vn -0.50000 0.86603 0.00000
vn -0.25882 0.96593 0.00000
vn -0.25882 0.96593 0.00000
vn -0.50000 0.86603 0.00000
vn -0.25882 0.96593 0.00000
vn -0.00000 1.00000 0.00000
vn -0.00000 1.00000 0.00000
vn -0.25882 0.96593 0.00000
vn -0.00000 1.00000 0.00000
vn -0.00000 1.00000 0.00000
vn -0.00000 1.00000 0.00000
vn -0.00000 1.00000 0.00000
vn -0.00000 1.00000 0.00000
vn 0.25882 0.96593 0.00000
vn 0.25882 0.96593 0.00000
vn -0.00000 1.00000 0.00000
vn 0.25882 0.96593 0.00000
vn 0.50000 0.86603 0.00000
vn 0.50000 0.86603 0.00000
vn 0.25882 0.96593 0.00000
vn 0.50000 0.86603 0.00000
vn 0.70711 0.70711 0.00000
vn 0.70711 0.70711 0.00000
vn 0.50000 0.86603 0.00000
vn 0.70711 0.70711 0.00000
vn 0.86603 0.50000 0.00000
vn 0.86603 0.50000 0.00000
vn 0.70711 0.70711 0.00000
vn 0.86603 0.50000 0.00000
vn 0.96593 0.25882 0.00000
vn 0.96593 0.25882 0.00000
vn 0.86603 0.50000 0.00000
vn 0.96593 0.25882 0.00000
vn 1.00000 0.00000 0.00000
vn 1.00000 0.00000 0.00000
vn 0.96593 0.25882 0.00000
vn 1.00000 0.00000 0.00000
vn 1.00000 0.00000 0.00000
vn 1.00000 0.00000 0.00000
vn 1.00000 0.00000 0.00000
vn 1.00000 0.00000 0.00000
vn 0.96593 -0.25882 0.00000
vn 0.96593 -0.25882 0.00000
vn 1.00000 0.00000 0.00000
vn 0.96593 -0.25882 0.00000
vn 0.86603 -0.50000 0.00000
vn 0.86603 -0.50000 0.00000
vn 0.96593 -0.25882 0.00000
vn 0.86603 -0.50000 0.00000
vn 0.70711 -0.70711 0.00000
vn 0.70711 -0.70711 0.00000
vn 0.86603 -0.50000 0.00000
vn 0.70711 -0.70711 0.00000
vn 0.50000 -0.86603 0.00000
vn 0.50000 -0.86603 0.00000
vn 0.70711 -0.70711 0.00000
vn 0.50000 -0.86603 0.00000
vn 0.25882 -0.96593 0.00000
vn 0.25882 -0.96593 0.00000
vn 0.50000 -0.86603 0.00000
vn 0.25882 -0.96593 0.00000
vn 0.00000 -1.00000 0.00000
vn 0.00000 -1.00000 0.00000
vn 0.25882 -0.96593 0.00000
vn 0.00000 -1.00000 0.00000
vn 0.00000 -1.00000 0.00000
vn 0.00000 -1.00000 0.00000
vn 0.00000 -1.00000 0.00000
vn 0.00000 -1.00000 0.00000
vn -0.25882 -0.96593 0.00000
vn -0.25882 -0.96593 0.00000
vn 0.00000 -1.00000 0.00000
vn -0.25882 -0.96593 0.00000
vn -0.50000 -0.86603 0.00000
vn -0.50000 -0.86603 0.00000
vn -0.25882 -0.96593 0.00000
vn -0.50000 -0.86603 0.00000
vn -0.70711 -0.70711 0.00000
vn -0.70711 -0.70711 0.00000
vn -0.50000 -0.86603 0.00000
vn -0.70711 -0.70711 0.00000
vn -0.86603 -0.50000 0.00000
vn -0.86603 -0.50000 0.00000
vn -0.70711 -0.70711 0.00000
vn -0.86603 -0.50000 0.00000
vn -0.96593 -0.25882 0.00000
vn -0.96593 -0.25882 0.00000
vn -0.86603 -0.50000 0.00000
vn -0.96593 -0.25882 0.00000
vn -1.00000 -0.00000 0.00000
vn -1.00000 -0.00000 0.00000
vn -0.96593 -0.25882 0.00000
vn -1.00000 -0.00000 0.00000
vn -1.00000 0.00000 0.00000
vn -1.00000 0.00000 0.00000
vn -1.00000 -0.00000 0.00000
vn -0.00000 0.00000 -1.00000
vn -0.00000 0.00000 -1.00000
vn -0.00000 0.00000 -1.00000
vn -0.00000 0.00000 -1.00000
vn 1.00000 0.00000 0.00000
vn 1.00000 0.00000 0.00000
vn 1.00000 0.00000 0.00000
vn 1.00000 0.00000 0.00000
vn -1.00000 0.00000 0.00000
vn -1.00000 0.00000 0.00000
vn -1.00000 0.00000 0.00000
vn -1.00000 0.00000 0.00000
vn -0.00000 0.00000 -1.00000
vn -0.00000 0.00000 -1.00000
vn -0.00000 0.00000 -1.00000
vn -0.00000 0.00000 -1.00000
vn 1.00000 0.00000 0.00000
vn 1.00000 0.00000 0.00000
vn 1.00000 0.00000 0.00000
vn 1.00000 0.00000 0.00000
vn -1.00000 0.00000 0.00000
vn -1.00000 0.00000 0.00000
vn -1.00000 0.00000 0.00000
vn -1.00000 0.00000 0.00000
vn -0.00000 -1.00000 0.00000
vn -0.00000 -1.00000 0.00000
vn -0.00000 -1.00000 0.00000
vn -0.00000 -1.00000 0.00000
vn -0.00000 0.00000 -1.00000
vn -0.00000 0.00000 -1.00000
vn -0.00000 0.00000 -1.00000
vn -0.00000 0.00000 -1.00000
vn -1.00000 0.00000 0.00000
vn -1.00000 0.00000 0.00000
vn -1.00000 0.00000 0.00000
vn -1.00000 0.00000 0.00000
vn -0.00000 1.00000 0.00000
vn -0.00000 1.00000 0.00000
vn -0.00000 1.00000 0.00000
vn -0.00000 1.00000 0.00000
vn -0.00000 -1.00000 0.00000
vn -0.00000 -1.00000 0.00000
vn -0.00000 -1.00000 0.00000
vn -0.00000 -1.00000 0.00000
vn -0.00000 0.00000 -1.00000
vn -0.00000 0.00000 -1.00000
vn -0.00000 0.00000 -1.00000
vn -0.00000 0.00000 -1.00000
vn 1.00000 0.00000 0.00000
vn 1.00000 0.00000 0.00000
vn 1.00000 0.00000 0.00000
vn 1.00000 0.00000 0.00000
vn -1.00000 0.00000 0.00000
vn -1.00000 0.00000 0.00000
vn -1.00000 0.00000 0.00000
vn -1.00000 0.00000 0.00000
vn -0.00000 1.00000 0.00000
vn -0.00000 1.00000 0.00000
vn -0.00000 1.00000 0.00000
vn -0.00000 1.00000 0.00000
vn -0.00000 0.00000 -1.00000
vn -0.00000 0.00000 -1.00000
vn -0.00000 0.00000 -1.00000
vn -0.00000 0.00000 -1.00000
vn -1.00000 0.00000 0.00000
vn -1.00000 0.00000 0.00000
vn -1.00000 0.00000 0.00000
vn -1.00000 0.00000 0.00000
vn -0.00000 1.00000 0.00000
vn -0.00000 1.00000 0.00000
vn -0.00000 1.00000 0.00000
vn -0.00000 1.00000 0.00000
vn -0.00000 -1.00000 0.00000
vn -0.00000 -1.00000 0.00000
vn -0.00000 -1.00000 0.00000
vn -0.00000 -1.00000 0.00000
vn -0.00000 0.00000 -1.00000
vn -0.00000 0.00000 -1.00000
vn -0.00000 0.00000 -1.00000
vn -0.00000 0.00000 -1.00000
vn -0.00000 1.00000 0.00000
vn -0.00000 1.00000 0.00000
vn -0.00000 1.00000 0.00000
vn -0.00000 1.00000 0.00000
vn -0.00000 0.00000 -1.00000
vn -0.00000 0.00000 -1.00000
vn -0.00000 0.00000 -1.00000
vn -0.00000 0.00000 -1.00000
vn -0.00000 1.00000 0.00000
vn -0.00000 1.00000 0.00000
vn -0.00000 1.00000 0.00000
vn -0.00000 1.00000 0.00000
vn -0.00000 -1.00000 0.00000
vn -0.00000 -1.00000 0.00000
vn -0.00000 -1.00000 0.00000
vn -0.00000 -1.00000 0.00000
vn -0.00000 0.00000 -1.00000
vn -0.00000 0.00000 -1.00000
vn -0.00000 0.00000 -1.00000
vn -0.00000 0.00000 -1.00000
vn 1.00000 0.00000 0.00000
vn 1.00000 0.00000 0.00000
vn 1.00000 0.00000 0.00000
vn 1.00000 0.00000 0.00000
vn -1.00000 0.00000 0.00000
vn -1.00000 0.00000 0.00000
vn -1.00000 0.00000 0.00000
vn -1.00000 0.00000 0.00000
vn -0.00000 -1.00000 0.00000
vn -0.00000 -1.00000 0.00000
vn -0.00000 -1.00000 0.00000
vn -0.00000 -1.00000 0.00000
vn -0.00000 0.00000 -1.00000
vn -0.00000 0.00000 -1.00000
vn -0.00000 0.00000 -1.00000
vn -0.00000 0.00000 -1.00000
vn 1.00000 0.00000 0.00000
vn 1.00000 0.00000 0.00000
vn 1.00000 0.00000 0.00000
vn 1.00000 0.00000 0.00000
vn -1.00000 0.00000 0.00000
vn -1.00000 0.00000 0.00000
vn -1.00000 0.00000 0.00000
vn -1.00000 0.00000 0.00000
vn -0.00000 0.00000 -1.00000
vn -0.00000 0.00000 -1.00000
vn -0.00000 0.00000 -1.00000
vn -0.00000 0.00000 -1.00000
vn -1.00000 0.00000 0.00000
vn -1.00000 0.00000 0.00000
vn -1.00000 0.00000 0.00000
vn -1.00000 0.00000 0.00000
vn -0.00000 1.00000 0.00000
vn -0.00000 1.00000 0.00000
vn -0.00000 1.00000 0.00000
vn -0.00000 1.00000 0.00000
vn -0.00000 -1.00000 0.00000
vn -0.00000 -1.00000 0.00000
vn -0.00000 -1.00000 0.00000
vn -0.00000 -1.00000 0.00000
vn -0.00000 0.00000 -1.00000
vn -0.00000 0.00000 -1.00000
vn -0.00000 0.00000 -1.00000
vn -0.00000 0.00000 -1.00000
vn -0.00000 1.00000 0.00000
vn -0.00000 1.00000 0.00000
vn -0.00000 1.00000 0.00000
vn -0.00000 1.00000 0.00000
vn -0.00000 -1.00000 0.00000
vn -0.00000 -1.00000 0.00000
vn -0.00000 -1.00000 0.00000
vn -0.00000 -1.00000 0.00000
vn -0.00000 0.00000 -1.00000
vn -0.00000 0.00000 -1.00000
vn -0.00000 0.00000 -1.00000
vn -0.00000 0.00000 -1.00000
vn 1.00000 0.00000 0.00000
vn 1.00000 0.00000 0.00000
vn 1.00000 0.00000 0.00000
vn 1.00000 0.00000 0.00000
vn -1.00000 0.00000 0.00000
vn -1.00000 0.00000 0.00000
vn -1.00000 0.00000 0.00000
vn -1.00000 0.00000 0.00000
vn -0.00000 -1.00000 0.00000
vn -0.00000 -1.00000 0.00000
vn -0.00000 -1.00000 0.00000
vn -0.00000 -1.00000 0.00000
vn -0.00000 0.00000 -1.00000
vn -0.00000 0.00000 -1.00000
vn -0.00000 0.00000 -1.00000
vn -0.00000 0.00000 -1.00000
vn 1.00000 0.00000 0.00000
vn 1.00000 0.00000 0.00000
vn 1.00000 0.00000 0.00000
vn 1.00000 0.00000 0.00000
vn -0.00000 1.00000 0.00000
vn -0.00000 1.00000 0.00000
vn -0.00000 1.00000 0.00000
vn -0.00000 1.00000 0.00000
vn -0.00000 -1.00000 0.00000
vn -0.00000 -1.00000 0.00000
vn -0.00000 -1.00000 0.00000
vn -0.00000 -1.00000 0.00000
vn -0.00000 0.00000 -1.00000
vn -0.00000 0.00000 -1.00000
vn -0.00000 0.00000 -1.00000
vn -0.00000 0.00000 -1.00000
vn -0.00000 1.00000 0.00000
vn -0.00000 1.00000 0.00000
vn -0.00000 1.00000 0.00000
vn -0.00000 1.00000 0.00000
vn -0.00000 -1.00000 0.00000
vn -0.00000 -1.00000 0.00000
vn -0.00000 -1.00000 0.00000
vn -0.00000 -1.00000 0.00000
vn -0.00000 0.00000 -1.00000
vn -0.00000 0.00000 -1.00000
vn -0.00000 0.00000 -1.00000
vn -0.00000 0.00000 -1.00000
vn 1.00000 0.00000 0.00000
vn 1.00000 0.00000 0.00000
vn 1.00000 0.00000 0.00000
vn 1.00000 0.00000 0.00000
vn -0.00000 1.00000 0.00000
vn -0.00000 1.00000 0.00000
vn -0.00000 1.00000 0.00000
vn -0.00000 1.00000 0.00000
vn -0.00000 -1.00000 0.00000
vn -0.00000 -1.00000 0.00000
vn -0.00000 -1.00000 0.00000
vn -0.00000 -1.00000 0.00000
vn -0.00000 0.00000 -1.00000
vn -0.00000 0.00000 -1.00000
vn -0.00000 0.00000 -1.00000
vn -0.00000 0.00000 -1.00000
vn 1.00000 0.00000 0.00000
vn 1.00000 0.00000 0.00000
vn 1.00000 0.00000 0.00000
vn 1.00000 0.00000 0.00000
vn -1.00000 0.00000 0.00000
vn -1.00000 0.00000 0.00000
vn -1.00000 0.00000 0.00000
vn -1.00000 0.00000 0.00000
vn -0.00000 0.00000 -1.00000
vn -0.00000 0.00000 -1.00000
vn -0.00000 0.00000 -1.00000
vn -0.00000 0.00000 -1.00000
vn 1.00000 0.00000 0.00000
vn 1.00000 0.00000 0.00000
vn 1.00000 0.00000 0.00000
vn 1.00000 0.00000 0.00000
vn -1.00000 0.00000 0.00000
vn -1.00000 0.00000 0.00000
vn -1.00000 0.00000 0.00000
vn -1.00000 0.00000 0.00000
vn -0.00000 0.00000 -1.00000
vn -0.00000 0.00000 -1.00000
vn -0.00000 0.00000 -1.00000
vn -0.00000 0.00000 -1.00000
vn 1.00000 0.00000 0.00000
vn 1.00000 0.00000 0.00000
vn 1.00000 0.00000 0.00000
vn 1.00000 0.00000 0.00000
vn -1.00000 0.00000 0.00000
vn -1.00000 0.00000 0.00000
vn -1.00000 0.00000 0.00000
vn -1.00000 0.00000 0.00000
vn -0.00000 1.00000 0.00000
vn -0.00000 1.00000 0.00000
vn -0.00000 1.00000 0.00000
vn -0.00000 1.00000 0.00000
vn -0.00000 0.00000 -1.00000
vn -0.00000 0.00000 -1.00000
vn -0.00000 0.00000 -1.00000
vn -0.00000 0.00000 -1.00000
vn 1.00000 0.00000 0.00000
vn 1.00000 0.00000 0.00000
vn 1.00000 0.00000 0.00000
vn 1.00000 0.00000 0.00000
vn -1.00000 0.00000 0.00000
vn -1.00000 0.00000 0.00000
vn -1.00000 0.00000 0.00000
vn -1.00000 0.00000 0.00000
vn -0.00000 0.00000 -1.00000
vn -0.00000 0.00000 -1.00000
vn -0.00000 0.00000 -1.00000
vn -0.00000 0.00000 -1.00000
vn 1.00000 0.00000 0.00000
vn 1.00000 0.00000 0.00000
vn 1.00000 0.00000 0.00000
vn 1.00000 0.00000 0.00000
vn -1.00000 0.00000 0.00000
vn -1.00000 0.00000 0.00000
vn -1.00000 0.00000 0.00000
vn -1.00000 0.00000 0.00000
vn -0.00000 0.00000 -1.00000
vn -0.00000 0.00000 -1.00000
vn -0.00000 0.00000 -1.00000
vn -0.00000 0.00000 -1.00000
vn 1.00000 0.00000 0.00000
vn 1.00000 0.00000 0.00000
vn 1.00000 0.00000 0.00000
vn 1.00000 0.00000 0.00000
vn -1.00000 0.00000 0.00000
vn -1.00000 0.00000 0.00000
vn -1.00000 0.00000 0.00000
vn -1.00000 0.00000 0.00000
vn -0.00000 0.00000 -1.00000
vn -0.00000 0.00000 -1.00000
vn -0.00000 0.00000 -1.00000
vn -0.00000 0.00000 -1.00000
vn -1.00000 0.00000 0.00000
vn -1.00000 0.00000 0.00000
vn -1.00000 0.00000 0.00000
vn -1.00000 0.00000 0.00000
vn -0.00000 1.00000 0.00000
vn -0.00000 1.00000 0.00000
vn -0.00000 1.00000 0.00000
vn -0.00000 1.00000 0.00000
vn -0.00000 -1.00000 0.00000
vn -0.00000 -1.00000 0.00000
vn -0.00000 -1.00000 0.00000
vn -0.00000 -1.00000 0.00000
vn -0.00000 0.00000 -1.00000
vn -0.00000 0.00000 -1.00000
vn -0.00000 0.00000 -1.00000
vn -0.00000 0.00000 -1.00000
vn 1.00000 0.00000 0.00000
vn 1.00000 0.00000 0.00000
vn 1.00000 0.00000 0.00000
vn 1.00000 0.00000 0.00000
vn -1.00000 0.00000 0.00000
vn -1.00000 0.00000 0.00000
vn -1.00000 0.00000 0.00000
vn -1.00000 0.00000 0.00000
vn -0.00000 -1.00000 0.00000
vn -0.00000 -1.00000 0.00000
vn -0.00000 -1.00000 0.00000
vn -0.00000 -1.00000 0.00000
vn -0.00000 0.00000 -1.00000
vn -0.00000 0.00000 -1.00000
vn -0.00000 0.00000 -1.00000
vn -0.00000 0.00000 -1.00000
vn 1.00000 0.00000 0.00000
vn 1.00000 0.00000 0.00000
vn 1.00000 0.00000 0.00000
vn 1.00000 0.00000 0.00000
vn -1.00000 0.00000 0.00000
vn -1.00000 0.00000 0.00000
vn -1.00000 0.00000 0.00000
vn -1.00000 0.00000 0.00000
vn -0.00000 1.00000 0.00000
vn -0.00000 1.00000 0.00000
vn -0.00000 1.00000 0.00000
vn -0.00000 1.00000 0.00000
vn -0.00000 0.00000 -1.00000
vn -0.00000 0.00000 -1.00000
vn -0.00000 0.00000 -1.00000
vn -0.00000 0.00000 -1.00000
vn -1.00000 0.00000 0.00000
vn -1.00000 0.00000 0.00000
vn -1.00000 0.00000 0.00000
vn -1.00000 0.00000 0.00000
vn -0.00000 1.00000 0.00000
vn -0.00000 1.00000 0.00000
vn -0.00000 1.00000 0.00000
vn -0.00000 1.00000 0.00000
vn -0.00000 -1.00000 0.00000
vn -0.00000 -1.00000 0.00000
vn -0.00000 -1.00000 0.00000
vn -0.00000 -1.00000 0.00000
vn -0.00000 0.00000 -1.00000
vn -0.00000 0.00000 -1.00000
vn -0.00000 0.00000 -1.00000
vn -0.00000 0.00000 -1.00000
vn 1.00000 0.00000 0.00000
vn 1.00000 0.00000 0.00000
vn 1.00000 0.00000 0.00000
vn 1.00000 0.00000 0.00000
vn -0.00000 0.00000 -1.00000
vn -0.00000 0.00000 -1.00000
vn -0.00000 0.00000 -1.00000
vn -0.00000 0.00000 -1.00000
vn -0.00000 1.00000 0.00000
vn -0.00000 1.00000 0.00000
vn -0.00000 1.00000 0.00000
vn -0.00000 1.00000 0.00000
vn -0.00000 -1.00000 0.00000
vn -0.00000 -1.00000 0.00000
vn -0.00000 -1.00000 0.00000
vn -0.00000 -1.00000 0.00000
vn -0.00000 0.00000 -1.00000
vn -0.00000 0.00000 -1.00000
vn -0.00000 0.00000 -1.00000
vn -0.00000 0.00000 -1.00000
vn -0.00000 1.00000 0.00000
vn -0.00000 1.00000 0.00000
vn -0.00000 1.00000 0.00000
vn -0.00000 1.00000 0.00000
vn -0.00000 -1.00000 0.00000
vn -0.00000 -1.00000 0.00000
vn -0.00000 -1.00000 0.00000
vn -0.00000 -1.00000 0.00000
vn -0.00000 0.00000 -1.00000
vn -0.00000 0.00000 -1.00000
vn -0.00000 0.00000 -1.00000
vn -0.00000 0.00000 -1.00000
vn 1.00000 0.00000 0.00000
vn 1.00000 0.00000 0.00000
vn 1.00000 0.00000 0.00000
vn 1.00000 0.00000 0.00000
vn -1.00000 0.00000 0.00000
vn -1.00000 0.00000 0.00000
vn -1.00000 0.00000 0.00000
vn -1.00000 0.00000 0.00000
vn -0.00000 -1.00000 0.00000
vn -0.00000 -1.00000 0.00000
vn -0.00000 -1.00000 0.00000
vn -0.00000 -1.00000 0.00000
vn -0.00000 0.00000 -1.00000
vn -0.00000 0.00000 -1.00000
vn -0.00000 0.00000 -1.00000
vn -0.00000 0.00000 -1.00000
vn -1.00000 0.00000 0.00000
vn -1.00000 0.00000 0.00000
vn -1.00000 0.00000 0.00000
vn -1.00000 0.00000 0.00000
vn -0.00000 1.00000 0.00000
vn -0.00000 1.00000 0.00000
vn -0.00000 1.00000 0.00000
vn -0.00000 1.00000 0.00000
vn -0.00000 -1.00000 0.00000
vn -0.00000 -1.00000 0.00000
vn -0.00000 -1.00000 0.00000
vn -0.00000 -1.00000 0.00000
vn -0.00000 0.00000 -1.00000
vn -0.00000 0.00000 -1.00000
vn -0.00000 0.00000 -1.00000
vn -0.00000 0.00000 -1.00000
vn 1.00000 0.00000 0.00000
vn 1.00000 0.00000 0.00000
vn 1.00000 0.00000 0.00000
vn 1.00000 0.00000 0.00000
vn -1.00000 0.00000 0.00000
vn -1.00000 0.00000 0.00000
vn -1.00000 0.00000 0.00000
vn -1.00000 0.00000 0.00000
vn -0.00000 -1.00000 0.00000
vn -0.00000 -1.00000 0.00000
vn -0.00000 -1.00000 0.00000
vn -0.00000 -1.00000 0.00000
vn -0.00000 0.00000 -1.00000
vn -0.00000 0.00000 -1.00000
vn -0.00000 0.00000 -1.00000
vn -0.00000 0.00000 -1.00000
vn -0.00000 1.00000 0.00000
vn -0.00000 1.00000 0.00000
vn -0.00000 1.00000 0.00000
vn -0.00000 1.00000 0.00000
vn -0.00000 -1.00000 0.00000
vn -0.00000 -1.00000 0.00000
vn -0.00000 -1.00000 0.00000
vn -0.00000 -1.00000 0.00000
vn -0.00000 0.00000 -1.00000
vn -0.00000 0.00000 -1.00000
vn -0.00000 0.00000 -1.00000
vn -0.00000 0.00000 -1.00000
vn -0.00000 1.00000 0.00000
vn -0.00000 1.00000 0.00000
vn -0.00000 1.00000 0.00000
vn -0.00000 1.00000 0.00000
vn -0.00000 -1.00000 0.00000
vn -0.00000 -1.00000 0.00000
vn -0.00000 -1.00000 0.00000
vn -0.00000 -1.00000 0.00000
vn -0.00000 0.00000 -1.00000
vn -0.00000 0.00000 -1.00000
vn -0.00000 0.00000 -1.00000
vn -0.00000 0.00000 -1.00000
vn -1.00000 0.00000 0.00000
vn -1.00000 0.00000 0.00000
vn -1.00000 0.00000 0.00000
vn -1.00000 0.00000 0.00000
vn -0.00000 1.00000 0.00000
vn -0.00000 1.00000 0.00000
vn -0.00000 1.00000 0.00000
vn -0.00000 1.00000 0.00000
vn -0.00000 -1.00000 0.00000
vn -0.00000 -1.00000 0.00000
vn -0.00000 -1.00000 0.00000
vn -0.00000 -1.00000 0.00000
vn -0.00000 0.00000 -1.00000
vn -0.00000 0.00000 -1.00000
vn -0.00000 0.00000 -1.00000
vn -0.00000 0.00000 -1.00000
vn 1.00000 0.00000 0.00000
vn 1.00000 0.00000 0.00000
vn 1.00000 0.00000 0.00000
vn 1.00000 0.00000 0.00000
vn -1.00000 0.00000 0.00000
vn -1.00000 0.00000 0.00000
vn -1.00000 0.00000 0.00000
vn -1.00000 0.00000 0.00000
vn -0.00000 0.00000 -1.00000
vn -0.00000 0.00000 -1.00000
vn -0.00000 0.00000 -1.00000
vn -0.00000 0.00000 -1.00000
vn 1.00000 0.00000 0.00000
vn 1.00000 0.00000 0.00000
vn 1.00000 0.00000 0.00000
vn 1.00000 0.00000 0.00000
vn -1.00000 0.00000 0.00000
vn -1.00000 0.00000 0.00000
vn -1.00000 0.00000 0.00000
vn -1.00000 0.00000 0.00000
vn -0.00000 0.00000 -1.00000
vn -0.00000 0.00000 -1.00000
vn -0.00000 0.00000 -1.00000
vn -0.00000 0.00000 -1.00000
vn 1.00000 0.00000 0.00000
vn 1.00000 0.00000 0.00000
vn 1.00000 0.00000 0.00000
vn 1.00000 0.00000 0.00000
vn -1.00000 0.00000 0.00000
vn -1.00000 0.00000 0.00000
vn -1.00000 0.00000 0.00000
vn -1.00000 0.00000 0.00000
vn -0.00000 1.00000 0.00000
vn -0.00000 1.00000 0.00000
vn -0.00000 1.00000 0.00000
vn -0.00000 1.00000 0.00000
vn -0.00000 0.00000 -1.00000
vn -0.00000 0.00000 -1.00000
vn -0.00000 0.00000 -1.00000
vn -0.00000 0.00000 -1.00000
vn -0.00000 1.00000 0.00000
vn -0.00000 1.00000 0.00000
vn -0.00000 1.00000 0.00000
vn -0.00000 1.00000 0.00000
vn -0.00000 -1.00000 0.00000
vn -0.00000 -1.00000 0.00000
vn -0.00000 -1.00000 0.00000
vn -0.00000 -1.00000 0.00000
vn -0.00000 0.00000 -1.00000
vn -0.00000 0.00000 -1.00000
vn -0.00000 0.00000 -1.00000
vn -0.00000 0.00000 -1.00000
vn 1.00000 0.00000 0.00000
vn 1.00000 0.00000 0.00000
vn 1.00000 0.00000 0.00000
vn 1.00000 0.00000 0.00000
vn -1.00000 0.00000 0.00000
vn -1.00000 0.00000 0.00000
vn -1.00000 0.00000 0.00000
vn -1.00000 0.00000 0.00000
vn -0.00000 0.00000 -1.00000
vn -0.00000 0.00000 -1.00000
vn -0.00000 0.00000 -1.00000
vn -0.00000 0.00000 -1.00000
vn 1.00000 0.00000 0.00000
vn 1.00000 0.00000 0.00000
vn 1.00000 0.00000 0.00000
vn 1.00000 0.00000 0.00000
vn -1.00000 0.00000 0.00000
vn -1.00000 0.00000 0.00000
vn -1.00000 0.00000 0.00000
vn -1.00000 0.00000 0.00000
vn -0.00000 0.00000 -1.00000
vn -0.00000 0.00000 -1.00000
vn -0.00000 0.00000 -1.00000
vn -0.00000 0.00000 -1.00000
vn -1.00000 0.00000 0.00000
vn -1.00000 0.00000 0.00000
vn -1.00000 0.00000 0.00000
vn -1.00000 0.00000 0.00000
vn -0.00000 0.00000 -1.00000
vn -0.00000 0.00000 -1.00000
vn -0.00000 0.00000 -1.00000
vn -0.00000 0.00000 -1.00000
vn -0.00000 1.00000 0.00000
vn -0.00000 1.00000 0.00000
vn -0.00000 1.00000 0.00000
vn -0.00000 1.00000 0.00000
vn -0.00000 -1.00000 0.00000
vn -0.00000 -1.00000 0.00000
vn -0.00000 -1.00000 0.00000
vn -0.00000 -1.00000 0.00000
vn -0.00000 0.00000 -1.00000
vn -0.00000 0.00000 -1.00000
vn -0.00000 0.00000 -1.00000
vn -0.00000 0.00000 -1.00000
vn 1.00000 0.00000 0.00000
vn 1.00000 0.00000 0.00000
vn 1.00000 0.00000 0.00000
vn 1.00000 0.00000 0.00000
vn -0.00000 1.00000 0.00000
vn -0.00000 1.00000 0.00000
vn -0.00000 1.00000 0.00000
vn -0.00000 1.00000 0.00000
vn -0.00000 0.00000 -1.00000
vn -0.00000 0.00000 -1.00000
vn -0.00000 0.00000 -1.00000
vn -0.00000 0.00000 -1.00000
vn 1.00000 0.00000 0.00000
vn 1.00000 0.00000 0.00000
vn 1.00000 0.00000 0.00000
vn 1.00000 0.00000 0.00000
vn -1.00000 0.00000 0.00000
vn -1.00000 0.00000 0.00000
vn -1.00000 0.00000 0.00000
vn -1.00000 0.00000 0.00000
vn -0.00000 -1.00000 0.00000
vn -0.00000 -1.00000 0.00000
vn -0.00000 -1.00000 0.00000
vn -0.00000 -1.00000 0.00000
vn -0.00000 0.00000 -1.00000
vn -0.00000 0.00000 -1.00000
vn -0.00000 0.00000 -1.00000
vn -0.00000 0.00000 -1.00000
vn 1.00000 0.00000 0.00000
vn 1.00000 0.00000 0.00000
vn 1.00000 0.00000 0.00000
vn 1.00000 0.00000 0.00000
vn -0.00000 0.00000 -1.00000
vn -0.00000 0.00000 -1.00000
vn -0.00000 0.00000 -1.00000
vn -0.00000 0.00000 -1.00000
vn -0.00000 1.00000 0.00000
vn -0.00000 1.00000 0.00000
vn -0.00000 1.00000 0.00000
vn -0.00000 1.00000 0.00000
vn -0.00000 -1.00000 0.00000
vn -0.00000 -1.00000 0.00000
vn -0.00000 -1.00000 0.00000
vn -0.00000 -1.00000 0.00000
vn -0.00000 0.00000 -1.00000
vn -0.00000 0.00000 -1.00000
vn -0.00000 0.00000 -1.00000
vn -0.00000 0.00000 -1.00000
vn 1.00000 0.00000 0.00000
vn 1.00000 0.00000 0.00000
vn 1.00000 0.00000 0.00000
vn 1.00000 0.00000 0.00000
vn -1.00000 0.00000 0.00000
vn -1.00000 0.00000 0.00000
vn -1.00000 0.00000 0.00000
vn -1.00000 0.00000 0.00000
vn -0.00000 -1.00000 0.00000
vn -0.00000 -1.00000 0.00000
vn -0.00000 -1.00000 0.00000
vn -0.00000 -1.00000 0.00000
vn -0.00000 0.00000 -1.00000
vn -0.00000 0.00000 -1.00000
vn -0.00000 0.00000 -1.00000
vn -0.00000 0.00000 -1.00000
vn 1.00000 0.00000 0.00000
vn 1.00000 0.00000 0.00000
vn 1.00000 0.00000 0.00000
vn 1.00000 0.00000 0.00000
vn -1.00000 0.00000 0.00000
vn -1.00000 0.00000 0.00000
vn -1.00000 0.00000 0.00000
vn -1.00000 0.00000 0.00000
vn -0.00000 1.00000 0.00000
vn -0.00000 1.00000 0.00000
vn -0.00000 1.00000 0.00000
vn -0.00000 1.00000 0.00000
vn -0.00000 -1.00000 0.00000
vn -0.00000 -1.00000 0.00000
vn -0.00000 -1.00000 0.00000
vn -0.00000 -1.00000 0.00000
vn -0.00000 0.00000 -1.00000
vn -0.00000 0.00000 -1.00000
vn -0.00000 0.00000 -1.00000
vn -0.00000 0.00000 -1.00000
vn 1.00000 0.00000 0.00000
vn 1.00000 0.00000 0.00000
vn 1.00000 0.00000 0.00000
vn 1.00000 0.00000 0.00000
vn -1.00000 0.00000 0.00000
vn -1.00000 0.00000 0.00000
vn -1.00000 0.00000 0.00000
vn -1.00000 0.00000 0.00000
vn -0.00000 0.00000 -1.00000
vn -0.00000 0.00000 -1.00000
vn -0.00000 0.00000 -1.00000
vn -0.00000 0.00000 -1.00000
vn -0.00000 1.00000 0.00000
vn -0.00000 1.00000 0.00000
vn -0.00000 1.00000 0.00000
vn -0.00000 1.00000 0.00000
vn -0.00000 0.00000 -1.00000
vn -0.00000 0.00000 -1.00000
vn -0.00000 0.00000 -1.00000
vn -0.00000 0.00000 -1.00000
vn 1.00000 0.00000 0.00000
vn 1.00000 0.00000 0.00000
vn 1.00000 0.00000 0.00000
vn 1.00000 0.00000 0.00000
vn -1.00000 0.00000 0.00000
vn -1.00000 0.00000 0.00000
vn -1.00000 0.00000 0.00000
vn -1.00000 0.00000 0.00000
vn -0.00000 1.00000 0.00000
vn -0.00000 1.00000 0.00000
vn -0.00000 1.00000 0.00000
vn -0.00000 1.00000 0.00000
vn -0.00000 -1.00000 0.00000
vn -0.00000 -1.00000 0.00000
vn -0.00000 -1.00000 0.00000
vn -0.00000 -1.00000 0.00000
vn -0.00000 0.00000 -1.00000
vn -0.00000 0.00000 -1.00000
vn -0.00000 0.00000 -1.00000
vn -0.00000 0.00000 -1.00000
vn 1.00000 0.00000 0.00000
vn 1.00000 0.00000 0.00000
vn 1.00000 0.00000 0.00000
vn 1.00000 0.00000 0.00000
vn -1.00000 0.00000 0.00000
vn -1.00000 0.00000 0.00000
vn -1.00000 0.00000 0.00000
vn -1.00000 0.00000 0.00000
vn -0.00000 0.00000 -1.00000
vn -0.00000 0.00000 -1.00000
vn -0.00000 0.00000 -1.00000
vn -0.00000 0.00000 -1.00000
vn 1.00000 0.00000 0.00000
vn 1.00000 0.00000 0.00000
vn 1.00000 0.00000 0.00000
vn 1.00000 0.00000 0.00000
vn -1.00000 0.00000 0.00000
vn -1.00000 0.00000 0.00000
vn -1.00000 0.00000 0.00000
vn -1.00000 0.00000 0.00000
vn -0.00000 1.00000 0.00000
vn -0.00000 1.00000 0.00000
vn -0.00000 1.00000 0.00000
vn -0.00000 1.00000 0.00000
vn -0.00000 0.00000 -1.00000
vn -0.00000 0.00000 -1.00000
vn -0.00000 0.00000 -1.00000
vn -0.00000 0.00000 -1.00000
vn -0.00000 1.00000 0.00000
vn -0.00000 1.00000 0.00000
vn -0.00000 1.00000 0.00000
vn -0.00000 1.00000 0.00000
vn -0.00000 -1.00000 0.00000
vn -0.00000 -1.00000 0.00000
vn -0.00000 -1.00000 0.00000
vn -0.00000 -1.00000 0.00000
vn -0.00000 0.00000 -1.00000
vn -0.00000 0.00000 -1.00000
vn -0.00000 0.00000 -1.00000
vn -0.00000 0.00000 -1.00000
vn 1.00000 0.00000 0.00000
vn 1.00000 0.00000 0.00000
vn 1.00000 0.00000 0.00000
vn 1.00000 0.00000 0.00000
vn -1.00000 0.00000 0.00000
vn -1.00000 0.00000 0.00000
vn -1.00000 0.00000 0.00000
vn -1.00000 0.00000 0.00000
vn -0.00000 0.00000 -1.00000
vn -0.00000 0.00000 -1.00000
vn -0.00000 0.00000 -1.00000
vn -0.00000 0.00000 -1.00000
vn 1.00000 0.00000 0.00000
vn 1.00000 0.00000 0.00000
vn 1.00000 0.00000 0.00000
vn 1.00000 0.00000 0.00000
vn -1.00000 0.00000 0.00000
vn -1.00000 0.00000 0.00000
vn -1.00000 0.00000 0.00000
vn -1.00000 0.00000 0.00000
vn -0.00000 0.00000 -1.00000
vn -0.00000 0.00000 -1.00000
vn -0.00000 0.00000 -1.00000
vn -0.00000 0.00000 -1.00000
vn -0.00000 1.00000 0.00000
vn -0.00000 1.00000 0.00000
vn -0.00000 1.00000 0.00000
vn -0.00000 1.00000 0.00000
vn -0.00000 -1.00000 0.00000
vn -0.00000 -1.00000 0.00000
vn -0.00000 -1.00000 0.00000
vn -0.00000 -1.00000 0.00000
vn -0.00000 0.00000 -1.00000
vn -0.00000 0.00000 -1.00000
vn -0.00000 0.00000 -1.00000
vn -0.00000 0.00000 -1.00000
vn 1.00000 0.00000 0.00000
vn 1.00000 0.00000 0.00000
vn 1.00000 0.00000 0.00000
vn 1.00000 0.00000 0.00000
vn -0.00000 1.00000 0.00000
vn -0.00000 1.00000 0.00000
vn -0.00000 1.00000 0.00000
vn -0.00000 1.00000 0.00000
vn -0.00000 -1.00000 0.00000
vn -0.00000 -1.00000 0.00000
vn -0.00000 -1.00000 0.00000
vn -0.00000 -1.00000 0.00000
vn -0.00000 0.00000 -1.00000
vn -0.00000 0.00000 -1.00000
vn -0.00000 0.00000 -1.00000
vn -0.00000 0.00000 -1.00000
vn 1.00000 0.00000 0.00000
vn 1.00000 0.00000 0.00000
vn 1.00000 0.00000 0.00000
vn 1.00000 0.00000 0.00000
vn -0.00000 1.00000 0.00000
vn -0.00000 1.00000 0.00000
vn -0.00000 1.00000 0.00000
vn -0.00000 1.00000 0.00000
vn -0.00000 -1.00000 0.00000
vn -0.00000 -1.00000 0.00000
vn -0.00000 -1.00000 0.00000
vn -0.00000 -1.00000 0.00000
vn -0.00000 0.00000 -1.00000
vn -0.00000 0.00000 -1.00000
vn -0.00000 0.00000 -1.00000
vn -0.00000 0.00000 -1.00000
vn 1.00000 0.00000 0.00000
vn 1.00000 0.00000 0.00000
vn 1.00000 0.00000 0.00000
vn 1.00000 0.00000 0.00000
vn -0.00000 1.00000 0.00000
vn -0.00000 1.00000 0.00000
vn -0.00000 1.00000 0.00000
vn -0.00000 1.00000 0.00000
vn -0.00000 -1.00000 0.00000
vn -0.00000 -1.00000 0.00000
vn -0.00000 -1.00000 0.00000
vn -0.00000 -1.00000 0.00000
vn -0.00000 0.00000 -1.00000
vn -0.00000 0.00000 -1.00000
vn -0.00000 0.00000 -1.00000
vn -0.00000 0.00000 -1.00000
vn -0.00000 1.00000 0.00000
vn -0.00000 1.00000 0.00000
vn -0.00000 1.00000 0.00000
vn -0.00000 1.00000 0.00000
vn -0.00000 -1.00000 0.00000
vn -0.00000 -1.00000 0.00000
vn -0.00000 -1.00000 0.00000
vn -0.00000 -1.00000 0.00000
vn -0.00000 0.00000 -1.00000
vn -0.00000 0.00000 -1.00000
vn -0.00000 0.00000 -1.00000
vn -0.00000 0.00000 -1.00000
vn -0.00000 1.00000 0.00000
vn -0.00000 1.00000 0.00000
vn -0.00000 1.00000 0.00000
vn -0.00000 1.00000 0.00000
vn -0.00000 -1.00000 0.00000
vn -0.00000 -1.00000 0.00000
vn -0.00000 -1.00000 0.00000
vn -0.00000 -1.00000 0.00000
vn -0.00000 0.00000 -1.00000
vn -0.00000 0.00000 -1.00000
vn -0.00000 0.00000 -1.00000
vn -0.00000 0.00000 -1.00000
vn -1.00000 0.00000 0.00000
vn -1.00000 0.00000 0.00000
vn -1.00000 0.00000 0.00000
vn -1.00000 0.00000 0.00000
vn -0.00000 1.00000 0.00000
vn -0.00000 1.00000 0.00000
vn -0.00000 1.00000 0.00000
vn -0.00000 1.00000 0.00000
vn -0.00000 -1.00000 0.00000
vn -0.00000 -1.00000 0.00000
vn -0.00000 -1.00000 0.00000
vn -0.00000 -1.00000 0.00000
vn -0.00000 0.00000 -1.00000
vn -0.00000 0.00000 -1.00000
vn -0.00000 0.00000 -1.00000
vn -0.00000 0.00000 -1.00000
vn 1.00000 0.00000 0.00000
vn 1.00000 0.00000 0.00000
vn 1.00000 0.00000 0.00000
vn 1.00000 0.00000 0.00000
vn -1.00000 0.00000 0.00000
vn -1.00000 0.00000 0.00000
vn -1.00000 0.00000 0.00000
vn -1.00000 0.00000 0.00000
vn -0.00000 0.00000 -1.00000
vn -0.00000 0.00000 -1.00000
vn -0.00000 0.00000 -1.00000
vn -0.00000 0.00000 -1.00000
vn -0.00000 1.00000 0.00000
vn -0.00000 1.00000 0.00000
vn -0.00000 1.00000 0.00000
vn -0.00000 1.00000 0.00000
vn -0.00000 -1.00000 0.00000
vn -0.00000 -1.00000 0.00000
vn -0.00000 -1.00000 0.00000
vn -0.00000 -1.00000 0.00000
vn -0.00000 0.00000 -1.00000
vn -0.00000 0.00000 -1.00000
vn -0.00000 0.00000 -1.00000
vn -0.00000 0.00000 -1.00000
vn 1.00000 0.00000 0.00000
vn 1.00000 0.00000 0.00000
vn 1.00000 0.00000 0.00000
vn 1.00000 0.00000 0.00000
vn -1.00000 0.00000 0.00000
vn -1.00000 0.00000 0.00000
vn -1.00000 0.00000 0.00000
vn -1.00000 0.00000 0.00000
vn -0.00000 0.00000 -1.00000
vn -0.00000 0.00000 -1.00000
vn -0.00000 0.00000 -1.00000
vn -0.00000 0.00000 -1.00000
vn -0.00000 1.00000 0.00000
vn -0.00000 1.00000 0.00000
vn -0.00000 1.00000 0.00000
vn -0.00000 1.00000 0.00000
vn -0.00000 -1.00000 0.00000
vn -0.00000 -1.00000 0.00000
vn -0.00000 -1.00000 0.00000
vn -0.00000 -1.00000 0.00000
vn -0.00000 0.00000 -1.00000
vn -0.00000 0.00000 -1.00000
vn -0.00000 0.00000 -1.00000
vn -0.00000 0.00000 -1.00000
vn 1.00000 0.00000 0.00000
vn 1.00000 0.00000 0.00000
vn 1.00000 0.00000 0.00000
vn 1.00000 0.00000 0.00000
vn -0.00000 1.00000 0.00000
vn -0.00000 1.00000 0.00000
vn -0.00000 1.00000 0.00000
vn -0.00000 1.00000 0.00000
vn -0.00000 -1.00000 0.00000
vn -0.00000 -1.00000 0.00000
vn -0.00000 -1.00000 0.00000
vn -0.00000 -1.00000 0.00000
vn -0.00000 0.00000 -1.00000
vn -0.00000 0.00000 -1.00000
vn -0.00000 0.00000 -1.00000
vn -0.00000 0.00000 -1.00000
vn 1.00000 0.00000 0.00000
vn 1.00000 0.00000 0.00000
vn 1.00000 0.00000 0.00000
vn 1.00000 0.00000 0.00000
vn -1.00000 0.00000 0.00000
vn -1.00000 0.00000 0.00000
vn -1.00000 0.00000 0.00000
vn -1.00000 0.00000 0.00000
vn -0.00000 0.00000 -1.00000
vn -0.00000 0.00000 -1.00000
vn -0.00000 0.00000 -1.00000
vn -0.00000 0.00000 -1.00000
vn -0.00000 1.00000 0.00000
vn -0.00000 1.00000 0.00000
vn -0.00000 1.00000 0.00000
vn -0.00000 1.00000 0.00000
vn -0.00000 0.00000 -1.00000
vn -0.00000 0.00000 -1.00000
vn -0.00000 0.00000 -1.00000
vn -0.00000 0.00000 -1.00000
vn 1.00000 0.00000 0.00000
vn 1.00000 0.00000 0.00000
vn 1.00000 0.00000 0.00000
vn 1.00000 0.00000 0.00000
vn -1.00000 0.00000 0.00000
vn -1.00000 0.00000 0.00000
vn -1.00000 0.00000 0.00000
vn -1.00000 0.00000 0.00000
vn -0.00000 0.00000 -1.00000
vn -0.00000 0.00000 -1.00000
vn -0.00000 0.00000 -1.00000
vn -0.00000 0.00000 -1.00000
vn 1.00000 0.00000 0.00000
vn 1.00000 0.00000 0.00000
vn 1.00000 0.00000 0.00000
vn 1.00000 0.00000 0.00000
vn -1.00000 0.00000 0.00000
vn -1.00000 0.00000 0.00000
vn -1.00000 0.00000 0.00000
vn -1.00000 0.00000 0.00000
vn -0.00000 0.00000 -1.00000
vn -0.00000 0.00000 -1.00000
vn -0.00000 0.00000 -1.00000
vn -0.00000 0.00000 -1.00000
vn 1.00000 0.00000 0.00000
vn 1.00000 0.00000 0.00000
vn 1.00000 0.00000 0.00000
vn 1.00000 0.00000 0.00000
vn -1.00000 0.00000 0.00000
vn -1.00000 0.00000 0.00000
vn -1.00000 0.00000 0.00000
vn -1.00000 0.00000 0.00000
vn -0.00000 -1.00000 0.00000
vn -0.00000 -1.00000 0.00000
vn -0.00000 -1.00000 0.00000
vn -0.00000 -1.00000 0.00000
usemtl PlacaBotonStart
s off
f 1//1 2//2 3//3
f 1//1 3//3 4//4
f 1//1 4//4 5//5
f 1//1 5//5 6//6
f 1//1 6//6 7//7
f 1//1 7//7 8//8
f 1//1 8//8 9//9
f 1//1 9//9 10//10
f 1//1 10//10 11//11
f 1//1 11//11 12//12
f 1//1 12//12 13//13
f 1//1 13//13 14//14
f 1//1 14//14 15//15
f 1//1 15//15 16//16
f 1//1 16//16 17//17
f 1//1 17//17 18//18
f 1//1 18//18 19//19
f 1//1 19//19 20//20
f 1//1 20//20 21//21
f 1//1 21//21 22//22
f 1//1 22//22 23//23
f 1//1 23//23 24//24
f 1//1 24//24 25//25
f 1//1 25//25 26//26
f 1//1 26//26 27//27
f 1//1 27//27 28//28
f 1//1 28//28 29//29
f 1//1 29//29 2//2
f 30//30 32//32 31//31
f 30//30 33//33 32//32
f 30//30 34//34 33//33
f 30//30 35//35 34//34
f 30//30 36//36 35//35
f 30//30 37//37 36//36
f 30//30 38//38 37//37
f 30//30 39//39 38//38
f 30//30 40//40 39//39
f 30//30 41//41 40//40
f 30//30 42//42 41//41
f 30//30 43//43 42//42
f 30//30 44//44 43//43
f 30//30 45//45 44//44
f 30//30 46//46 45//45
f 30//30 47//47 46//46
f 30//30 48//48 47//47
f 30//30 49//49 48//48
f 30//30 50//50 49//49
f 30//30 51//51 50//50
f 30//30 52//52 51//51
f 30//30 53//53 52//52
f 30//30 54//54 53//53
f 30//30 55//55 54//54
f 30//30 56//56 55//55
f 30//30 57//57 56//56
f 30//30 58//58 57//57
f 30//30 31//31 58//58
f 59//59 61//61 60//60
f 59//59 62//62 61//61
f 63//63 65//65 64//64
f 63//63 66//66 65//65
f 67//67 69//69 68//68
f 67//67 70//70 69//69
f 71//71 73//73 72//72
f 71//71 74//74 73//73
f 75//75 77//77 76//76
f 75//75 78//78 77//77
f 79//79 81//81 80//80
f 79//79 82//82 81//81
f 83//83 85//85 84//84
f 83//83 86//86 85//85
f 87//87 89//89 88//88
f 87//87 90//90 89//89
f 91//91 93//93 92//92
f 91//91 94//94 93//93
f 95//95 97//97 96//96
f 95//95 98//98 97//97
f 99//99 101//101 100//100
f 99//99 102//102 101//101
f 103//103 105//105 104//104
f 103//103 106//106 105//105
f 107//107 109//109 108//108
f 107//107 110//110 109//109
f 111//111 113//113 112//112
f 111//111 114//114 113//113
f 115//115 117//117 116//116
f 115//115 118//118 117//117
f 119//119 121//121 120//120
f 119//119 122//122 121//121
f 123//123 125//125 124//124
f 123//123 126//126 125//125
f 127//127 129//129 128//128
f 127//127 130//130 129//129
f 131//131 133//133 132//132
f 131//131 134//134 133//133
f 135//135 137//137 136//136
f 135//135 138//138 137//137
f 139//139 141//141 140//140
f 139//139 142//142 141//141
f 143//143 145//145 144//144
f 143//143 146//146 145//145
f 147//147 149//149 148//148
f 147//147 150//150 149//149
f 151//151 153//153 152//152
f 151//151 154//154 153//153
f 155//155 157//157 156//156
f 155//155 158//158 157//157
f 159//159 161//161 160//160
f 159//159 162//162 161//161
f 163//163 165//165 164//164
f 163//163 166//166 165//165
f 167//167 169//169 168//168
f 167//167 170//170 169//169
usemtl Letras
s off
f 171//171 173//173 172//172
f 171//171 174//174 173//173
f 175//175 176//176 177//177
f 175//175 177//177 178//178
f 179//179 180//180 181//181
f 179//179 181//181 182//182
f 183//183 185//185 184//184
f 183//183 186//186 185//185
f 187//187 188//188 189//189
f 187//187 189//189 190//190
f 191//191 192//192 193//193
f 191//191 193//193 194//194
f 195//195 197//197 196//196
f 195//195 198//198 197//197
f 199//199 201//201 200//200
f 199//199 202//202 201//201
f 203//203 204//204 205//205
f 203//203 205//205 206//206
f 207//207 209//209 208//208
f 207//207 210//210 209//209
f 211//211 213//213 212//212
f 211//211 214//214 213//213
f 215//215 217//217 216//216
f 215//215 218//218 217//217
f 219//219 220//220 221//221
f 219//219 221//221 222//222
f 223//223 224//224 225//225
f 223//223 225//225 226//226
f 227//227 229//229 228//228
f 227//227 230//230 229//229
f 231//231 233//233 232//232
f 231//231 234//234 233//233
f 235//235 236//236 237//237
f 235//235 237//237 238//238
f 239//239 241//241 240//240
f 239//239 242//242 241//241
f 243//243 245//245 244//244
f 243//243 246//246 245//245
f 247//247 249//249 248//248
f 247//247 250//250 249//249
f 251//251 253//253 252//252
f 251//251 254//254 253//253
f 255//255 257//257 256//256
f 255//255 258//258 257//257
f 259//259 261//261 260//260
f 259//259 262//262 261//261
f 263//263 265//265 264//264
f 263//263 266//266 265//265
f 267//267 269//269 268//268
f 267//267 270//270 269//269
f 271//271 272//272 273//273
f 271//271 273//273 274//274
f 275//275 276//276 277//277
f 275//275 277//277 278//278
f 279//279 281//281 280//280
f 279//279 282//282 281//281
f 283//283 285//285 284//284
f 283//283 286//286 285//285
f 287//287 288//288 289//289
f 287//287 289//289 290//290
f 291//291 292//292 293//293
f 291//291 293//293 294//294
f 295//295 297//297 296//296
f 295//295 298//298 297//297
f 299//299 300//300 301//301
f 299//299 301//301 302//302
f 303//303 305//305 304//304
f 303//303 306//306 305//305
f 307//307 309//309 308//308
f 307//307 310//310 309//309
f 311//311 313//313 312//312
f 311//311 314//314 313//313
f 315//315 317//317 316//316
f 315//315 318//318 317//317
f 319//319 321//321 320//320
f 319//319 322//322 321//321
f 323//323 325//325 324//324
f 323//323 326//326 325//325
f 327//327 328//328 329//329
f 327//327 329//329 330//330
f 331//331 332//332 333//333
f 331//331 333//333 334//334
f 335//335 337//337 336//336
f 335//335 338//338 337//337
f 339//339 341//341 340//340
f 339//339 342//342 341//341
f 343//343 344//344 345//345
f 343//343 345//345 346//346
f 347//347 349//349 348//348
f 347//347 350//350 349//349
f 351//351 353//353 352//352
f 351//351 354//354 353//353
f 355//355 357//357 356//356
f 355//355 358//358 357//357
f 359//359 361//361 360//360
f 359//359 362//362 361//361
f 363//363 365//365 364//364
f 363//363 366//366 365//365
f 367//367 369//369 368//368
f 367//367 370//370 369//369
f 371//371 372//372 373//373
f 371//371 373//373 374//374
f 375//375 377//377 376//376
f 375//375 378//378 377//377
f 379//379 381//381 380//380
f 379//379 382//382 381//381
f 383//383 385//385 384//384
f 383//383 386//386 385//385
f 387//387 388//388 389//389
f 387//387 389//389 390//390
f 391//391 392//392 393//393
f 391//391 393//393 394//394
f 395//395 397//397 396//396
f 395//395 398//398 397//397
f 399//399 400//400 401//401
f 399//399 401//401 402//402
f 403//403 404//404 405//405
f 403//403 405//405 406//406
f 407//407 409//409 408//408
f 407//407 410//410 409//409
f 411//411 412//412 413//413
f 411//411 413//413 414//414
f 415//415 416//416 417//417
f 415//415 417//417 418//418
f 419//419 421//421 420//420
f 419//419 422//422 421//421
f 423//423 425//425 424//424
f 423//423 426//426 425//425
f 427//427 428//428 429//429
f 427//427 429//429 430//430
f 431//431 432//432 433//433
f 431//431 433//433 434//434
f 435//435 437//437 436//436
f 435//435 438//438 437//437
f 439//439 440//440 441//441
f 439//439 441//441 442//442
f 443//443 444//444 445//445
f 443//443 445//445 446//446
f 447//447 449//449 448//448
f 447//447 450//450 449//449
f 451//451 452//452 453//453
f 451//451 453//453 454//454
f 455//455 456//456 457//457
f 455//455 457//457 458//458
f 459//459 461//461 460//460
f 459//459 462//462 461//461
f 463//463 464//464 465//465
f 463//463 465//465 466//466
f 467//467 469//469 468//468
f 467//467 470//470 469//469
f 471//471 473//473 472//472
f 471//471 474//474 473//473
f 475//475 477//477 476//476
f 475//475 478//478 477//477
f 479//479 480//480 481//481
f 479//479 481//481 482//482
f 483//483 484//484 485//485
f 483//483 485//485 486//486
f 487//487 489//489 488//488
f 487//487 490//490 489//489
f 491//491 493//493 492//492
f 491//491 494//494 493//493
f 495//495 496//496 497//497
f 495//495 497//497 498//498
f 499//499 500//500 501//501
f 499//499 501//501 502//502
f 503//503 505//505 504//504
f 503//503 506//506 505//505
f 507//507 509//509 508//508
f 507//507 510//510 509//509
f 511//511 512//512 513//513
f 511//511 513//513 514//514
f 515//515 517//517 516//516
f 515//515 518//518 517//517
f 519//519 521//521 520//520
f 519//519 522//522 521//521
f 523//523 525//525 524//524
f 523//523 526//526 525//525
f 527//527 528//528 529//529
f 527//527 529//529 530//530
f 531//531 533//533 532//532
f 531//531 534//534 533//533
f 535//535 537//537 536//536
f 535//535 538//538 537//537
f 539//539 541//541 540//540
f 539//539 542//542 541//541
f 543//543 545//545 544//544
f 543//543 546//546 545//545
f 547//547 549//549 548//548
f 547//547 550//550 549//549
f 551//551 553//553 552//552
f 551//551 554//554 553//553
f 555//555 557//557 556//556
f 555//555 558//558 557//557
f 559//559 560//560 561//561
f 559//559 561//561 562//562
f 563//563 564//564 565//565
f 563//563 565//565 566//566
f 567//567 569//569 568//568
f 567//567 570//570 569//569
f 571//571 573//573 572//572
f 571//571 574//574 573//573
f 575//575 576//576 577//577
f 575//575 577//577 578//578
f 579//579 581//581 580//580
f 579//579 582//582 581//581
f 583//583 585//585 584//584
f 583//583 586//586 585//585
f 587//587 589//589 588//588
f 587//587 590//590 589//589
f 591//591 592//592 593//593
f 591//591 593//593 594//594
f 595//595 596//596 597//597
f 595//595 597//597 598//598
f 599//599 601//601 600//600
f 599//599 602//602 601//601
f 603//603 605//605 604//604
f 603//603 606//606 605//605
f 607//607 609//609 608//608
f 607//607 610//610 609//609
f 611//611 613//613 612//612
f 611//611 614//614 613//613
f 615//615 617//617 616//616
f 615//615 618//618 617//617
f 619//619 621//621 620//620
f 619//619 622//622 621//621
f 623//623 625//625 624//624
f 623//623 626//626 625//625
f 627//627 629//629 628//628
f 627//627 630//630 629//629
f 631//631 632//632 633//633
f 631//631 633//633 634//634
f 635//635 637//637 636//636
f 635//635 638//638 637//637
f 639//639 641//641 640//640
f 639//639 642//642 641//641
f 643//643 645//645 644//644
f 643//643 646//646 645//645
f 647//647 648//648 649//649
f 647//647 649//649 650//650
f 651//651 652//652 653//653
f 651//651 653//653 654//654
f 655//655 657//657 656//656
f 655//655 658//658 657//657
f 659//659 660//660 661//661
f 659//659 661//661 662//662
f 663//663 664//664 665//665
f 663//663 665//665 666//666
f 667//667 669//669 668//668
f 667//667 670//670 669//669
f 671//671 672//672 673//673
f 671//671 673//673 674//674
f 675//675 676//676 677//677
f 675//675 677//677 678//678
f 679//679 681//681 680//680
f 679//679 682//682 681//681
f 683//683 685//685 684//684
f 683//683 686//686 685//685
f 687//687 689//689 688//688
f 687//687 690//690 689//689
f 691//691 693//693 692//692
f 691//691 694//694 693//693
f 695//695 697//697 696//696
f 695//695 698//698 697//697
f 699//699 700//700 701//701
f 699//699 701//701 702//702
f 703//703 704//704 705//705
f 703//703 705//705 706//706
f 707//707 709//709 708//708
f 707//707 710//710 709//709
f 711//711 712//712 713//713
f 711//711 713//713 714//714
f 715//715 716//716 717//717
f 715//715 717//717 718//718
f 719//719 721//721 720//720
f 719//719 722//722 721//721
f 723//723 724//724 725//725
f 723//723 725//725 726//726
f 727//727 729//729 728//728
f 727//727 730//730 729//729
f 731//731 733//733 732//732
f 731//731 734//734 733//733
f 735//735 737//737 736//736
f 735//735 738//738 737//737
f 739//739 741//741 740//740
f 739//739 742//742 741//741
f 743//743 744//744 745//745
f 743//743 745//745 746//746
f 747//747 749//749 748//748
f 747//747 750//750 749//749
f 751//751 753//753 752//752
f 751//751 754//754 753//753
f 755//755 756//756 757//757
f 755//755 757//757 758//758
f 759//759 760//760 761//761
f 759//759 761//761 762//762
f 763//763 765//765 764//764
f 763//763 766//766 765//765
f 767//767 769//769 768//768
f 767//767 770//770 769//769
f 771//771 772//772 773//773
f 771//771 773//773 774//774
f 775//775 777//777 776//776
f 775//775 778//778 777//777
f 779//779 781//781 780//780
f 779//779 782//782 781//781
f 783//783 785//785 784//784
f 783//783 786//786 785//785
f 787//787 789//789 788//788
f 787//787 790//790 789//789
f 791//791 792//792 793//793
f 791//791 793//793 794//794
f 795//795 796//796 797//797
f 795//795 797//797 798//798
f 799//799 801//801 800//800
f 799//799 802//802 801//801
f 803//803 805//805 804//804
f 803//803 806//806 805//805
f 807//807 808//808 809//809
f 807//807 809//809 810//810
f 811//811 812//812 813//813
f 811//811 813//813 814//814
f 815//815 817//817 816//816
f 815//815 818//818 817//817
f 819//819 821//821 820//820
f 819//819 822//822 821//821
f 823//823 825//825 824//824
f 823//823 826//826 825//825
f 827//827 828//828 829//829
f 827//827 829//829 830//830
f 831//831 832//832 833//833
f 831//831 833//833 834//834
f 835//835 837//837 836//836
f 835//835 838//838 837//837
f 839//839 841//841 840//840
f 839//839 842//842 841//841
f 843//843 845//845 844//844
f 843//843 846//846 845//845
f 847//847 848//848 849//849
f 847//847 849//849 850//850
f 851//851 852//852 853//853
f 851//851 853//853 854//854
f 855//855 857//857 856//856
f 855//855 858//858 857//857
f 859//859 861//861 860//860
f 859//859 862//862 861//861
f 863//863 865//865 864//864
f 863//863 866//866 865//865
f 867//867 868//868 869//869
f 867//867 869//869 870//870
f 871//871 872//872 873//873
f 871//871 873//873 874//874
f 875//875 877//877 876//876
f 875//875 878//878 877//877
f 879//879 880//880 881//881
f 879//879 881//881 882//882
f 883//883 884//884 885//885
f 883//883 885//885 886//886
f 887//887 889//889 888//888
f 887//887 890//890 889//889
f 891//891 893//893 892//892
f 891//891 894//894 893//893
f 895//895 897//897 896//896
f 895//895 898//898 897//897
f 899//899 901//901 900//900
f 899//899 902//902 901//901
f 903//903 905//905 904//904
f 903//903 906//906 905//905
f 907//907 908//908 909//909
f 907//907 909//909 910//910
f 911//911 912//912 913//913
f 911//911 913//913 914//914
f 915//915 917//917 916//916
f 915//915 918//918 917//917
f 919//919 920//920 921//921
f 919//919 921//921 922//922
f 923//923 924//924 925//925
f 923//923 925//925 926//926
f 927//927 929//929 928//928
f 927//927 930//930 929//929
f 931//931 933//933 932//932
f 931//931 934//934 933//933
f 935//935 937//937 936//936
f 935//935 938//938 937//937
f 939//939 941//941 940//940
f 939//939 942//942 941//941
f 943//943 944//944 945//945
f 943//943 945//945 946//946
f 947//947 949//949 948//948
f 947//947 950//950 949//949
f 951//951 953//953 952//952
f 951//951 954//954 953//953
f 955//955 957//957 956//956
f 955//955 958//958 957//957
f 959//959 960//960 961//961
f 959//959 961//961 962//962
f 963//963 965//965 964//964
f 963//963 966//966 965//965
f 967//967 969//969 968//968
f 967//967 970//970 969//969
f 971//971 973//973 972//972
f 971//971 974//974 973//973
f 975//975 976//976 977//977
f 975//975 977//977 978//978
f 979//979 981//981 980//980
f 979//979 982//982 981//981
f 983//983 985//985 984//984
f 983//983 986//986 985//985
f 987//987 989//989 988//988
f 987//987 990//990 989//989
f 991//991 993//993 992//992
f 991//991 994//994 993//993
f 995//995 997//997 996//996
f 995//995 998//998 997//997
f 999//999 1001//1001 1000//1000
f 999//999 1002//1002 1001//1001
f 1003//1003 1005//1005 1004//1004
f 1003//1003 1006//1006 1005//1005
f 1007//1007 1009//1009 1008//1008
f 1007//1007 1010//1010 1009//1009
f 1011//1011 1013//1013 1012//1012
f 1011//1011 1014//1014 1013//1013
f 1015//1015 1016//1016 1017//1017
f 1015//1015 1017//1017 1018//1018
f 1019//1019 1021//1021 1020//1020
f 1019//1019 1022//1022 1021//1021
f 1023//1023 1025//1025 1024//1024
f 1023//1023 1026//1026 1025//1025
f 1027//1027 1029//1029 1028//1028
f 1027//1027 1030//1030 1029//1029
f 1031//1031 1032//1032 1033//1033
f 1031//1031 1033//1033 1034//1034
f 1035//1035 1036//1036 1037//1037
f 1035//1035 1037//1037 1038//1038
f 1039//1039 1041//1041 1040//1040
f 1039//1039 1042//1042 1041//1041
f 1043//1043 1045//1045 1044//1044
f 1043//1043 1046//1046 1045//1045
f 1047//1047 1049//1049 1048//1048
f 1047//1047 1050//1050 1049//1049
f 1051//1051 1053//1053 1052//1052
f 1051//1051 1054//1054 1053//1053
f 1055//1055 1056//1056 1057//1057
f 1055//1055 1057//1057 1058//1058
f 1059//1059 1060//1060 1061//1061
f 1059//1059 1061//1061 1062//1062
f 1063//1063 1065//1065 1064//1064
f 1063//1063 1066//1066 1065//1065
f 1067//1067 1069//1069 1068//1068
f 1067//1067 1070//1070 1069//1069
f 1071//1071 1073//1073 1072//1072
f 1071//1071 1074//1074 1073//1073
f 1075//1075 1077//1077 1076//1076
f 1075//1075 1078//1078 1077//1077
f 1079//1079 1080//1080 1081//1081
f 1079//1079 1081//1081 1082//1082
f 1083//1083 1085//1085 1084//1084
f 1083//1083 1086//1086 1085//1085
f 1087//1087 1089//1089 1088//1088
f 1087//1087 1090//1090 1089//1089
f 1091//1091 1093//1093 1092//1092
f 1091//1091 1094//1094 1093//1093
f 1095//1095 1096//1096 1097//1097
f 1095//1095 1097//1097 1098//1098
f 1099//1099 1100//1100 1101//1101
f 1099//1099 1101//1101 1102//1102
f 1103//1103 1105//1105 1104//1104
f 1103//1103 1106//1106 1105//1105
f 1107//1107 1109//1109 1108//1108
f 1107//1107 1110//1110 1109//1109
f 1111//1111 1113//1113 1112//1112
f 1111//1111 1114//1114 1113//1113
f 1115//1115 1116//1116 1117//1117
f 1115//1115 1117//1117 1118//1118
f 1119//1119 1120//1120 1121//1121
f 1119//1119 1121//1121 1122//1122
f 1123//1123 1125//1125 1124//1124
f 1123//1123 1126//1126 1125//1125
f 1127//1127 1128//1128 1129//1129
f 1127//1127 1129//1129 1130//1130
f 1131//1131 1132//1132 1133//1133
f 1131//1131 1133//1133 1134//1134
f 1135//1135 1137//1137 1136//1136
f 1135//1135 1138//1138 1137//1137
f 1139//1139 1140//1140 1141//1141
f 1139//1139 1141//1141 1142//1142
f 1143//1143 1144//1144 1145//1145
f 1143//1143 1145//1145 1146//1146
f 1147//1147 1149//1149 1148//1148
f 1147//1147 1150//1150 1149//1149
