# Blender 4.0.1
# www.blender.org
mtllib EXIT.mtl
o Circle.001
v -1.338940 0.011227 0.134901
v -1.444525 0.011227 0.134677
v -1.445728 0.011227 0.373084
v -1.343777 0.011227 0.374551
v -1.341369 0.011227 0.492370
v -1.222127 0.011227 0.493480
v -1.217461 0.011227 0.611652
v -1.338395 0.011227 0.608212
v -1.337540 0.011227 0.743404
v -1.448370 0.011227 0.746175
v -1.444341 0.011227 0.987503
v -1.351931 0.011227 0.981882
v -1.337711 0.011227 0.749775
v -1.216517 0.011227 0.750754
v -1.216535 0.011227 0.615281
v -1.080038 0.011227 0.613328
v -1.080971 0.011227 0.745268
v -0.964292 0.011227 0.740489
v -0.959602 0.011227 0.981395
v -0.846806 0.011227 0.984671
v -0.850001 0.011227 0.726977
v -0.965502 0.011227 0.728609
v -0.969513 0.011227 0.607827
v -1.095503 0.011227 0.608103
v -1.098089 0.011227 0.500532
v -0.961250 0.011227 0.501058
v -0.843455 0.011227 0.137800
v -0.966723 0.011227 0.379665
v -1.090963 0.011227 0.489951
v -1.221619 0.011227 0.487062
v -1.221876 0.011227 0.374288
v -1.336725 0.011227 0.372560
v -0.956906 0.011227 0.135991
v -1.092579 0.011227 0.381191
v -0.964809 0.011227 0.381588
v -0.841675 0.011227 0.379849
v -1.907921 0.000953 0.261992
v -1.541992 0.000953 0.260761
v -1.541242 0.000953 0.148989
v -1.699326 0.000953 0.148874
v -2.011480 0.000953 0.150110
v -2.011433 0.000953 0.149995
v -2.006147 0.000953 0.990561
v -1.553491 0.000953 0.991114
v -1.553676 0.000953 0.887571
v -1.912802 0.000953 0.888934
v -1.912496 0.000953 0.622184
v -1.549184 0.000953 0.620463
v -1.549143 0.000953 0.524069
v -1.908592 0.000953 0.523792
v -0.583886 0.013166 0.144266
v -0.696554 0.013166 0.143333
v -0.694464 0.013166 0.990804
v -0.693981 0.013166 0.992460
v -0.583533 0.013166 0.991372
v -0.148964 0.016228 0.262526
v 0.075195 0.016228 0.258945
v 0.069791 0.016228 0.139760
v -0.512209 0.016228 0.145704
v -0.514134 0.016228 0.251475
v -0.273763 0.016228 0.258638
v -0.269235 0.016228 0.994856
v -0.149529 0.016228 0.991450
v -1.338940 -0.048773 0.134901
v -1.444525 -0.048773 0.134677
v -1.445728 -0.048773 0.373084
v -1.343777 -0.048773 0.374551
v -1.341369 -0.048773 0.492370
v -1.222127 -0.048773 0.493480
v -1.217461 -0.048773 0.611652
v -1.338395 -0.048773 0.608212
v -1.337540 -0.048773 0.743404
v -1.448370 -0.048773 0.746175
v -1.444341 -0.048773 0.987503
v -1.351931 -0.048773 0.981882
v -1.337711 -0.048773 0.749775
v -1.216517 -0.048773 0.750754
v -1.216535 -0.048773 0.615281
v -1.080038 -0.048773 0.613328
v -1.080971 -0.048773 0.745268
v -0.964292 -0.048773 0.740489
v -0.959602 -0.048773 0.981395
v -0.846806 -0.048773 0.984671
v -0.850001 -0.048773 0.726977
v -0.965502 -0.048773 0.728609
v -0.969513 -0.048773 0.607827
v -1.095503 -0.048773 0.608103
v -1.098089 -0.048773 0.500532
v -0.961250 -0.048773 0.501058
v -0.843455 -0.048773 0.137800
v -0.966723 -0.048773 0.379665
v -1.090963 -0.048773 0.489951
v -1.221619 -0.048773 0.487062
v -1.221876 -0.048773 0.374288
v -1.336725 -0.048773 0.372560
v -0.956906 -0.048773 0.135991
v -1.092579 -0.048773 0.381191
v -0.964809 -0.048773 0.381588
v -0.841675 -0.048773 0.379849
v -1.907921 -0.059047 0.261992
v -1.541992 -0.059047 0.260761
v -1.541242 -0.059047 0.148989
v -1.699326 -0.059047 0.148874
v -2.011480 -0.059047 0.150110
v -2.011433 -0.059047 0.149995
v -2.006147 -0.059047 0.990561
v -1.553491 -0.059047 0.991114
v -1.553676 -0.059047 0.887571
v -1.912802 -0.059047 0.888934
v -1.912496 -0.059047 0.622184
v -1.549184 -0.059047 0.620463
v -1.549143 -0.059047 0.524069
v -1.908592 -0.059047 0.523792
v -0.583886 -0.046834 0.144266
v -0.696554 -0.046834 0.143333
v -0.694464 -0.046834 0.990804
v -0.693981 -0.046834 0.992460
v -0.583533 -0.046834 0.991372
v -0.148964 -0.043772 0.262526
v 0.075195 -0.043772 0.258945
v 0.069791 -0.043772 0.139760
v -0.512209 -0.043772 0.145704
v -0.514134 -0.043772 0.251475
v -0.273763 -0.043772 0.258638
v -0.269235 -0.043772 0.994856
v -0.149529 -0.043772 0.991450
vn -0.0000 1.0000 -0.0000
vn -0.0000 -1.0000 -0.0000
vn 0.0021 -0.0000 -1.0000
vn -1.0000 -0.0000 -0.0050
vn -0.0144 -0.0000 0.9999
vn -0.9998 -0.0000 0.0204
vn -0.0093 -0.0000 1.0000
vn -0.9992 -0.0000 0.0395
vn 0.0284 -0.0000 -0.9996
vn -1.0000 -0.0000 0.0063
vn -0.0250 -0.0000 -0.9997
vn -0.9999 -0.0000 0.0167
vn 0.0607 -0.0000 0.9982
vn 0.9981 -0.0000 0.0611
vn -0.0081 -0.0000 1.0000
vn 1.0000 -0.0000 -0.0001
vn 0.0143 -0.0000 0.9999
vn -1.0000 -0.0000 -0.0071
vn 0.0409 -0.0000 0.9992
vn -0.9998 -0.0000 0.0195
vn -0.0290 -0.0000 0.9996
vn 0.9999 -0.0000 -0.0124
vn -0.0141 -0.0000 -0.9999
vn 0.9994 -0.0000 -0.0332
vn -0.0022 -0.0000 -1.0000
vn 0.9997 -0.0000 -0.0240
vn -0.0038 -0.0000 1.0000
vn 0.9996 -0.0000 -0.0298
vn 0.0159 -0.0000 -0.9999
vn -0.0121 -0.0000 -0.9999
vn 0.0221 -0.0000 -0.9998
vn 1.0000 -0.0000 -0.0023
vn 0.0150 -0.0000 -0.9999
vn 1.0000 -0.0000 -0.0093
vn -0.9992 -0.0000 -0.0403
vn -0.9999 -0.0000 0.0149
vn 0.0141 -0.0000 0.9999
vn 1.0000 -0.0000 -0.0074
vn 0.0034 -0.0000 1.0000
vn 1.0000 -0.0000 0.0067
vn 0.0007 -0.0000 -1.0000
vn -0.0040 -0.0000 -1.0000
vn 0.9252 -0.0000 0.3795
vn -0.0012 -0.0000 1.0000
vn 1.0000 -0.0000 -0.0018
vn -0.0038 -0.0000 -1.0000
vn 1.0000 -0.0000 0.0011
vn 0.0047 -0.0000 1.0000
vn 1.0000 -0.0000 0.0004
vn 0.0008 -0.0000 -1.0000
vn 1.0000 -0.0000 0.0026
vn 0.0083 -0.0000 -1.0000
vn -1.0000 -0.0000 0.0025
vn -0.9600 -0.0000 0.2800
vn 0.0099 -0.0000 1.0000
vn 1.0000 -0.0000 -0.0004
vn 0.0160 -0.0000 0.9999
vn 0.9990 -0.0000 -0.0453
vn -0.0102 -0.0000 -0.9999
vn -0.9998 -0.0000 -0.0182
vn -0.0298 -0.0000 0.9996
vn -1.0000 -0.0000 0.0062
vn 0.0284 -0.0000 0.9996
vn 1.0000 -0.0000 0.0008
vt 0.000000 0.000000
s 0
f 2/1/1 3/1/1 4/1/1 5/1/1 6/1/1 7/1/1 8/1/1 9/1/1 10/1/1 11/1/1 12/1/1 13/1/1 14/1/1 15/1/1 16/1/1 17/1/1 18/1/1 19/1/1 20/1/1 21/1/1 22/1/1 23/1/1 24/1/1 25/1/1 26/1/1 35/1/1 36/1/1 27/1/1 33/1/1 28/1/1 34/1/1 29/1/1 30/1/1 31/1/1 32/1/1 1/1/1
f 38/1/1 39/1/1 40/1/1 41/1/1 42/1/1 43/1/1 44/1/1 45/1/1 46/1/1 47/1/1 48/1/1 49/1/1 50/1/1 37/1/1
f 52/1/1 53/1/1 54/1/1 55/1/1 51/1/1
f 57/1/1 58/1/1 59/1/1 60/1/1 61/1/1 62/1/1 63/1/1 56/1/1
f 65/1/2 64/1/2 95/1/2 94/1/2 93/1/2 92/1/2 97/1/2 91/1/2 96/1/2 90/1/2 99/1/2 98/1/2 89/1/2 88/1/2 87/1/2 86/1/2 85/1/2 84/1/2 83/1/2 82/1/2 81/1/2 80/1/2 79/1/2 78/1/2 77/1/2 76/1/2 75/1/2 74/1/2 73/1/2 72/1/2 71/1/2 70/1/2 69/1/2 68/1/2 67/1/2 66/1/2
f 101/1/2 100/1/2 113/1/2 112/1/2 111/1/2 110/1/2 109/1/2 108/1/2 107/1/2 106/1/2 105/1/2 104/1/2 103/1/2 102/1/2
f 115/1/2 114/1/2 118/1/2 117/1/2 116/1/2
f 120/1/2 119/1/2 126/1/2 125/1/2 124/1/2 123/1/2 122/1/2 121/1/2
f 2/1/3 1/1/3 64/1/3 65/1/3
f 3/1/4 2/1/4 65/1/4 66/1/4
f 4/1/5 3/1/5 66/1/5 67/1/5
f 5/1/6 4/1/6 67/1/6 68/1/6
f 6/1/7 5/1/7 68/1/7 69/1/7
f 7/1/8 6/1/8 69/1/8 70/1/8
f 8/1/9 7/1/9 70/1/9 71/1/9
f 9/1/10 8/1/10 71/1/10 72/1/10
f 10/1/11 9/1/11 72/1/11 73/1/11
f 11/1/12 10/1/12 73/1/12 74/1/12
f 12/1/13 11/1/13 74/1/13 75/1/13
f 13/1/14 12/1/14 75/1/14 76/1/14
f 14/1/15 13/1/15 76/1/15 77/1/15
f 15/1/16 14/1/16 77/1/16 78/1/16
f 16/1/17 15/1/17 78/1/17 79/1/17
f 17/1/18 16/1/18 79/1/18 80/1/18
f 18/1/19 17/1/19 80/1/19 81/1/19
f 19/1/20 18/1/20 81/1/20 82/1/20
f 20/1/21 19/1/21 82/1/21 83/1/21
f 21/1/22 20/1/22 83/1/22 84/1/22
f 22/1/23 21/1/23 84/1/23 85/1/23
f 23/1/24 22/1/24 85/1/24 86/1/24
f 24/1/25 23/1/25 86/1/25 87/1/25
f 25/1/26 24/1/26 87/1/26 88/1/26
f 26/1/27 25/1/27 88/1/27 89/1/27
f 35/1/28 26/1/28 89/1/28 98/1/28
f 33/1/29 27/1/29 90/1/29 96/1/29
f 34/1/30 28/1/30 91/1/30 97/1/30
f 30/1/31 29/1/31 92/1/31 93/1/31
f 31/1/32 30/1/32 93/1/32 94/1/32
f 32/1/33 31/1/33 94/1/33 95/1/33
f 1/1/34 32/1/34 95/1/34 64/1/34
f 28/1/35 33/1/35 96/1/35 91/1/35
f 29/1/36 34/1/36 97/1/36 92/1/36
f 36/1/37 35/1/37 98/1/37 99/1/37
f 27/1/38 36/1/38 99/1/38 90/1/38
f 38/1/39 37/1/39 100/1/39 101/1/39
f 39/1/40 38/1/40 101/1/40 102/1/40
f 40/1/41 39/1/41 102/1/41 103/1/41
f 41/1/42 40/1/42 103/1/42 104/1/42
f 42/1/43 41/1/43 104/1/43 105/1/43
f 43/1/10 42/1/10 105/1/10 106/1/10
f 44/1/44 43/1/44 106/1/44 107/1/44
f 45/1/45 44/1/45 107/1/45 108/1/45
f 46/1/46 45/1/46 108/1/46 109/1/46
f 47/1/47 46/1/47 109/1/47 110/1/47
f 48/1/48 47/1/48 110/1/48 111/1/48
f 49/1/49 48/1/49 111/1/49 112/1/49
f 50/1/50 49/1/50 112/1/50 113/1/50
f 37/1/51 50/1/51 113/1/51 100/1/51
f 52/1/52 51/1/52 114/1/52 115/1/52
f 53/1/53 52/1/53 115/1/53 116/1/53
f 54/1/54 53/1/54 116/1/54 117/1/54
f 55/1/55 54/1/55 117/1/55 118/1/55
f 51/1/56 55/1/56 118/1/56 114/1/56
f 57/1/57 56/1/57 119/1/57 120/1/57
f 58/1/58 57/1/58 120/1/58 121/1/58
f 59/1/59 58/1/59 121/1/59 122/1/59
f 60/1/60 59/1/60 122/1/60 123/1/60
f 61/1/61 60/1/61 123/1/61 124/1/61
f 62/1/62 61/1/62 124/1/62 125/1/62
f 63/1/63 62/1/63 125/1/63 126/1/63
f 56/1/64 63/1/64 126/1/64 119/1/64
