# Blender 5.2.2 LTS
# www.blender.org
mtllib Untitled.mtl
o Circle
v -0.353516 0.386909 -2.215653
v -0.304975 0.464604 -2.139356
v -0.218438 0.386909 -2.165601
v -0.329720 0.441847 -2.193588
v -0.285386 0.431767 -2.192222
v -0.250866 0.441847 -2.164370
v -0.281784 0.386909 -2.201942
v -0.695370 0.386909 -2.205565
v -0.828542 0.386909 -2.257634
v -0.803778 0.464604 -2.124637
v -0.766543 0.386909 -2.219867
v -0.773930 0.431767 -2.200974
v -0.804901 0.441847 -2.202632
v -0.750048 0.441847 -2.181185
v -0.857331 0.386909 -2.285827
v -0.963228 0.386909 -2.281047
v -0.907705 0.464604 -2.226412
v -0.911343 0.386909 -2.307001
v -0.910673 0.431766 -2.292159
v -0.946963 0.441847 -2.264988
v -0.872082 0.441847 -2.268368
v -1.393606 0.386909 -1.775883
v -1.332530 0.464604 -1.727767
v -1.375717 0.441847 -1.761790
v -1.563551 0.386909 -1.542272
v -1.615108 0.386909 -1.401968
v -1.533445 0.464604 -1.451584
v -1.597584 0.386909 -1.475154
v -1.587589 0.431767 -1.471481
v -1.590322 0.441847 -1.427988
v -1.561510 0.441847 -1.506395
v -1.636801 0.386909 -1.114742
v -1.597397 0.386909 -0.974113
v -1.563051 0.464604 -1.059571
v -1.627683 0.386909 -1.041462
v -1.617657 0.431767 -1.044271
v -1.593304 0.441847 -1.007469
v -1.615971 0.441847 -1.088369
v -1.226117 0.386909 -0.455987
v -1.172285 0.464604 -0.514252
v -1.210350 0.441847 -0.473052
v -0.957345 0.386909 -0.293880
v -0.908095 0.464604 -0.354909
v -0.942920 0.441847 -0.311755
v -0.882399 0.386909 -0.214320
v -0.833701 0.386909 -0.080205
v -0.749589 0.464604 -0.186644
v -0.846069 0.386909 -0.151613
v -0.826890 0.431767 -0.158576
v -0.807709 0.441847 -0.134372
v -0.827707 0.441847 -0.189448
v -0.901000 0.386909 1.060168
v -0.823314 0.464604 1.062619
v -0.878246 0.441847 1.060886
v -0.904631 0.386909 1.939040
v -0.843314 0.386909 2.064034
v -0.827098 0.464604 1.978543
v -0.890097 0.386909 2.009447
v -0.875406 0.431766 2.002241
v -0.835273 0.441847 2.037380
v -0.878631 0.441847 1.948996
v -0.636743 0.386909 2.222550
v -0.500735 0.386909 2.247360
v -0.559433 0.464604 2.183940
v -0.571985 0.386909 2.252747
v -0.569102 0.431766 2.236947
v -0.517318 0.441847 2.225446
v -0.613490 0.441847 2.207903
v -0.450394 0.386909 2.232136
v -0.427452 0.386909 2.151407
v -0.514401 0.464604 2.170322
v -0.410264 0.386909 2.199916
v -0.431851 0.431766 2.193782
v -0.455524 0.441847 2.156207
v -0.471746 0.441847 2.213291
v -0.449708 0.386909 2.126204
v -0.493378 0.386909 1.990657
v -0.581829 0.464604 2.093962
v -0.483800 0.386909 2.062380
v -0.503321 0.431767 2.068669
v -0.521593 0.441847 2.043916
v -0.503706 0.441847 2.099432
v -0.474719 0.386909 1.804706
v -0.551168 0.464604 1.788391
v -0.497110 0.441847 1.799927
v -0.359249 0.386909 1.456843
v -0.429027 0.464604 1.420432
v -0.379687 0.441847 1.446179
v -0.146041 0.386909 1.171320
v -0.200265 0.464604 1.114080
v -0.161923 0.441847 1.154555
v 0.045383 0.386909 1.043892
v -0.011476 0.464604 0.988406
v 0.028729 0.441847 1.027640
v 0.174524 0.386909 0.839215
v 0.117163 0.464604 0.784525
v 0.157724 0.441847 0.823197
v 0.296925 0.386909 0.753569
v 0.245069 0.464604 0.695027
v 0.281737 0.441847 0.736422
v 0.539585 0.386909 0.483241
v 0.468249 0.464604 0.446400
v 0.518691 0.441847 0.472450
v 0.578434 0.386909 0.311050
v 0.661883 0.386909 0.194834
v 0.526989 0.464604 0.186042
v 0.609958 0.386909 0.245618
v 0.593507 0.431767 0.233805
v 0.602808 0.441847 0.204179
v 0.568408 0.441847 0.252087
v 0.829778 0.386909 0.092538
v 0.805561 0.464604 0.016312
v 0.822685 0.441847 0.070212
v 1.017398 0.386909 0.079758
v 0.994960 0.464604 0.003411
v 1.010826 0.441847 0.057396
v 1.017398 0.386909 0.079758
v 1.121731 0.386909 -0.026442
v 1.027596 0.464604 -0.014573
v 1.076142 0.386909 0.033120
v 1.068589 0.431767 0.025699
v 1.088892 0.441847 -0.012992
v 1.030263 0.441847 0.046685
v 1.343462 0.386909 -0.596042
v 1.218439 0.464604 -0.577793
v 1.273304 0.386909 -0.463979
v 1.292574 0.441847 -0.575791
v 1.285165 0.431767 -0.542345
v 1.261599 0.441847 -0.517482
v 1.300659 0.386909 -0.534114
v 1.454953 0.386909 -1.110944
v 1.441676 0.464604 -1.018259
v 1.528330 0.386909 -0.982790
v 1.459097 0.441847 -1.076546
v 1.491225 0.431767 -1.046629
v 1.500762 0.441847 -1.003777
v 1.500333 0.386909 -1.051844
v 1.271250 0.386909 -1.276780
v 1.229450 0.464604 -1.209844
v 1.259007 0.441847 -1.257175
v 0.873877 0.464604 -1.352737
v 0.900166 0.386909 -1.425906
v 0.892466 0.441847 -1.404475
v 0.664427 0.386909 -1.500834
v 0.559313 0.386909 -1.595582
v 0.533261 0.464604 -1.460999
v 0.602970 0.386909 -1.538333
v 0.589012 0.431767 -1.522849
v 0.561036 0.441847 -1.534725
v 0.603718 0.441847 -1.496252
v 0.481448 0.386909 -1.774060
v 0.374215 0.386909 -1.860624
v 0.395351 0.464604 -1.777107
v 0.439228 0.386909 -1.831460
v 0.429220 0.431766 -1.819063
v 0.378349 0.441847 -1.833614
v 0.454173 0.441847 -1.772404
v 0.118991 0.386909 -1.912067
v -0.014589 0.386909 -1.979763
v 0.006384 0.464604 -1.855506
v 0.048319 0.386909 -1.938253
v 0.040433 0.431767 -1.922693
v 0.006738 0.441847 -1.929526
v 0.065867 0.441847 -1.899561
v 1.085708 0.386909 -1.351343
v 1.056737 0.464604 -1.279251
v 1.077223 0.441847 -1.330228
v 1.218111 0.386909 -0.208917
v 1.144429 0.464604 -0.235773
v 1.196530 0.441847 -0.216783
v 1.507479 0.386909 -0.767389
v 1.545499 0.386909 -0.899607
v 1.476866 0.464604 -0.847768
v 1.543957 0.386909 -0.828475
v 1.528710 0.431766 -0.832860
v 1.522310 0.441847 -0.885311
v 1.495425 0.441847 -0.791819
v -0.353516 0.344478 -2.215653
v -0.218438 0.344478 -2.165601
v -0.304975 0.266782 -2.139356
v -0.281784 0.344478 -2.201942
v -0.285386 0.299620 -2.192222
v -0.250866 0.289539 -2.164370
v -0.329720 0.289539 -2.193588
v -0.695370 0.344478 -2.205565
v -0.803778 0.266782 -2.124637
v -0.828542 0.344478 -2.257634
v -0.750048 0.289539 -2.181185
v -0.773930 0.299620 -2.200974
v -0.804901 0.289539 -2.202632
v -0.766543 0.344478 -2.219867
v -0.857331 0.344478 -2.285827
v -0.907705 0.266782 -2.226412
v -0.963227 0.344478 -2.281047
v -0.872082 0.289539 -2.268368
v -0.910673 0.299620 -2.292159
v -0.946963 0.289539 -2.264988
v -0.911343 0.344478 -2.307001
v -1.332530 0.266782 -1.727767
v -1.393606 0.344478 -1.775883
v -1.375717 0.289539 -1.761790
v -1.563551 0.344478 -1.542272
v -1.533445 0.266782 -1.451584
v -1.615108 0.344478 -1.401968
v -1.561510 0.289539 -1.506395
v -1.587589 0.299620 -1.471481
v -1.590322 0.289539 -1.427988
v -1.597584 0.344478 -1.475154
v -1.636801 0.344478 -1.114742
v -1.563051 0.266782 -1.059571
v -1.597397 0.344478 -0.974113
v -1.615971 0.289539 -1.088369
v -1.617657 0.299620 -1.044271
v -1.593304 0.289539 -1.007469
v -1.627683 0.344478 -1.041462
v -1.172285 0.266782 -0.514252
v -1.226117 0.344478 -0.455987
v -1.210350 0.289539 -0.473052
v -0.908095 0.266782 -0.354909
v -0.957345 0.344478 -0.293880
v -0.942920 0.289539 -0.311755
v -0.882399 0.344478 -0.214320
v -0.749589 0.266782 -0.186644
v -0.833701 0.344478 -0.080205
v -0.827707 0.289539 -0.189448
v -0.826890 0.299620 -0.158576
v -0.807709 0.289539 -0.134373
v -0.846069 0.344478 -0.151613
v -0.823314 0.266782 1.062619
v -0.901000 0.344478 1.060168
v -0.878246 0.289539 1.060886
v -0.904631 0.344478 1.939040
v -0.827099 0.266782 1.978543
v -0.843314 0.344478 2.064034
v -0.878631 0.289539 1.948996
v -0.875406 0.299620 2.002241
v -0.835273 0.289539 2.037380
v -0.890096 0.344478 2.009447
v -0.636743 0.344478 2.222550
v -0.559433 0.266782 2.183940
v -0.500735 0.344478 2.247360
v -0.613490 0.289539 2.207903
v -0.569102 0.299620 2.236947
v -0.517318 0.289539 2.225446
v -0.571984 0.344478 2.252747
v -0.450394 0.344478 2.232136
v -0.514401 0.266782 2.170322
v -0.427452 0.344478 2.151407
v -0.471746 0.289539 2.213291
v -0.431851 0.299620 2.193781
v -0.455524 0.289539 2.156207
v -0.410264 0.344478 2.199916
v -0.449708 0.344478 2.126204
v -0.581829 0.266782 2.093962
v -0.493378 0.344478 1.990657
v -0.503706 0.289539 2.099432
v -0.503321 0.299620 2.068669
v -0.521593 0.289539 2.043916
v -0.483800 0.344478 2.062380
v -0.551168 0.266782 1.788391
v -0.474719 0.344478 1.804706
v -0.497110 0.289539 1.799927
v -0.429027 0.266782 1.420432
v -0.359249 0.344478 1.456843
v -0.379687 0.289539 1.446179
v -0.200265 0.266782 1.114080
v -0.146041 0.344478 1.171320
v -0.161923 0.289539 1.154555
v -0.011476 0.266782 0.988406
v 0.045383 0.344478 1.043892
v 0.028729 0.289539 1.027640
v 0.117163 0.266782 0.784525
v 0.174524 0.344478 0.839215
v 0.157724 0.289539 0.823197
v 0.245069 0.266782 0.695027
v 0.296925 0.344478 0.753569
v 0.281737 0.289539 0.736422
v 0.468249 0.266782 0.446400
v 0.539585 0.344478 0.483241
v 0.518691 0.289539 0.472450
v 0.578434 0.344478 0.311050
v 0.526989 0.266782 0.186042
v 0.661883 0.344478 0.194834
v 0.568408 0.289539 0.252087
v 0.593507 0.299620 0.233805
v 0.602808 0.289539 0.204179
v 0.609958 0.344478 0.245618
v 0.805561 0.266782 0.016312
v 0.829778 0.344478 0.092538
v 0.822685 0.289539 0.070212
v 0.994960 0.266782 0.003411
v 1.017398 0.344478 0.079758
v 1.010826 0.289539 0.057396
v 1.017398 0.344478 0.079758
v 1.027596 0.266782 -0.014573
v 1.121731 0.344478 -0.026442
v 1.030263 0.289539 0.046685
v 1.068589 0.299620 0.025699
v 1.088892 0.289539 -0.012992
v 1.076142 0.344478 0.033120
v 1.343462 0.344478 -0.596042
v 1.273304 0.344478 -0.463979
v 1.218439 0.266782 -0.577793
v 1.300659 0.344478 -0.534114
v 1.285165 0.299620 -0.542345
v 1.261599 0.289539 -0.517482
v 1.292574 0.289539 -0.575791
v 1.454953 0.344478 -1.110944
v 1.528330 0.344478 -0.982790
v 1.441676 0.266782 -1.018259
v 1.500333 0.344478 -1.051844
v 1.491225 0.299620 -1.046629
v 1.500762 0.289539 -1.003777
v 1.459097 0.289539 -1.076546
v 1.229450 0.266782 -1.209844
v 1.271250 0.344478 -1.276780
v 1.259007 0.289539 -1.257175
v 0.900166 0.344478 -1.425906
v 0.873877 0.266782 -1.352737
v 0.892466 0.289539 -1.404475
v 0.664427 0.344478 -1.500834
v 0.533261 0.266782 -1.460999
v 0.559313 0.344478 -1.595582
v 0.603718 0.289539 -1.496252
v 0.589012 0.299620 -1.522849
v 0.561036 0.289539 -1.534725
v 0.602970 0.344478 -1.538333
v 0.481448 0.344478 -1.774060
v 0.395351 0.266782 -1.777107
v 0.374215 0.344478 -1.860624
v 0.454173 0.289539 -1.772404
v 0.429220 0.299620 -1.819063
v 0.378349 0.289539 -1.833614
v 0.439228 0.344478 -1.831460
v 0.118991 0.344478 -1.912067
v 0.006384 0.266782 -1.855506
v -0.014589 0.344478 -1.979763
v 0.065867 0.289539 -1.899561
v 0.040433 0.299620 -1.922693
v 0.006738 0.289539 -1.929526
v 0.048319 0.344478 -1.938253
v 1.056737 0.266782 -1.279251
v 1.085708 0.344478 -1.351343
v 1.077223 0.289539 -1.330228
v 1.144429 0.266782 -0.235773
v 1.218111 0.344478 -0.208917
v 1.196530 0.289539 -0.216783
v 1.507479 0.344478 -0.767389
v 1.476866 0.266782 -0.847768
v 1.545499 0.344478 -0.899607
v 1.495425 0.289539 -0.791819
v 1.528710 0.299620 -0.832860
v 1.522310 0.289539 -0.885311
v 1.543957 0.344478 -0.828475
vn 0.1472 0.2730 -0.9507
vn 0.1749 0.8641 -0.4719
vn 0.5078 0.2730 -0.8171
vn 0.2423 0.5089 -0.8260
vn 0.3823 0.5089 -0.7713
vn 0.1354 0.9283 -0.3464
vn 0.3823 0.3329 -0.8620
vn -0.4584 0.3329 -0.8240
vn -0.0201 0.8948 -0.4460
vn -0.8378 0.2855 -0.4654
vn -0.9398 0.2855 -0.1878
vn -0.4644 0.8691 -0.1706
vn -0.9574 0.2761 0.0843
vn -0.8618 0.2761 0.4254
vn -0.4825 0.8654 0.1352
vn -0.7786 0.5110 0.3641
vn -0.8309 0.5110 0.2203
vn -0.3486 0.9287 0.1266
vn -0.9154 0.3688 0.1615
vn -0.6880 0.3688 0.6250
vn -0.4677 0.8536 0.2294
vn -0.4182 0.3635 0.8324
vn 0.0974 0.3635 0.9265
vn -0.0934 0.8539 0.5120
vn 0.5305 0.4135 0.7400
vn 0.8404 0.4135 -0.3505
vn 0.3438 0.9340 0.0977
vn 0.7899 0.5129 -0.3361
vn 0.8376 0.5129 -0.1882
vn 0.3521 0.9291 -0.1134
vn 0.7405 0.5083 0.4397
vn 0.6533 0.5083 0.5611
vn 0.3023 0.9282 0.2171
vn 0.5678 0.2834 0.7728
vn 0.7828 0.2834 0.5540
vn 0.3539 0.8682 0.3477
vn 0.7669 0.4557 0.4519
vn 0.3520 0.9171 0.1870
vn 0.8038 0.4557 0.3825
vn 0.7395 0.2798 -0.6122
vn 0.4327 0.8669 -0.2477
vn 0.9023 0.2798 -0.3279
vn 0.5091 0.5190 -0.6866
vn 0.6303 0.5190 -0.5774
vn 0.2456 0.9303 -0.2725
vn 0.7671 0.3612 -0.5302
vn 0.3565 0.3612 -0.8617
vn 0.3267 0.8541 -0.4047
vn 0.3688 0.4536 -0.8113
vn 0.4362 0.4536 -0.7771
vn 0.1806 0.9167 -0.3565
vn 0.7865 0.3600 0.5017
vn 0.9329 0.3600 -0.0073
vn 0.4997 0.8542 0.1437
vn 0.1472 -0.2730 -0.9507
vn 0.5078 -0.2730 -0.8171
vn 0.1749 -0.8641 -0.4719
vn 0.2423 -0.5089 -0.8260
vn 0.1354 -0.9283 -0.3464
vn 0.3823 -0.5089 -0.7713
vn 0.3823 -0.3329 -0.8620
vn -0.0201 -0.8948 -0.4460
vn -0.4584 -0.3329 -0.8240
vn -0.8378 -0.2855 -0.4654
vn -0.4644 -0.8691 -0.1706
vn -0.9398 -0.2855 -0.1878
vn -0.9574 -0.2761 0.0843
vn -0.4825 -0.8654 0.1352
vn -0.8618 -0.2761 0.4254
vn -0.7786 -0.5110 0.3641
vn -0.3486 -0.9287 0.1266
vn -0.8309 -0.5110 0.2203
vn -0.9154 -0.3688 0.1615
vn -0.4677 -0.8536 0.2294
vn -0.6880 -0.3688 0.6250
vn -0.4182 -0.3635 0.8324
vn -0.0934 -0.8539 0.5120
vn 0.0974 -0.3635 0.9265
vn 0.5305 -0.4135 0.7400
vn 0.3438 -0.9340 0.0977
vn 0.8404 -0.4135 -0.3505
vn 0.7899 -0.5129 -0.3361
vn 0.3521 -0.9291 -0.1134
vn 0.8376 -0.5129 -0.1882
vn 0.7405 -0.5083 0.4397
vn 0.3023 -0.9282 0.2171
vn 0.6533 -0.5083 0.5611
vn 0.5678 -0.2834 0.7728
vn 0.3539 -0.8682 0.3477
vn 0.7828 -0.2834 0.5540
vn 0.7669 -0.4557 0.4519
vn 0.8038 -0.4557 0.3825
vn 0.3520 -0.9171 0.1870
vn 0.7395 -0.2798 -0.6122
vn 0.9023 -0.2798 -0.3279
vn 0.4327 -0.8669 -0.2477
vn 0.5091 -0.5190 -0.6866
vn 0.2456 -0.9303 -0.2725
vn 0.6303 -0.5190 -0.5774
vn 0.7671 -0.3612 -0.5302
vn 0.3267 -0.8541 -0.4047
vn 0.3565 -0.3612 -0.8616
vn 0.3688 -0.4536 -0.8113
vn 0.1806 -0.9167 -0.3565
vn 0.4362 -0.4536 -0.7771
vn 0.7865 -0.3600 0.5017
vn 0.4997 -0.8542 0.1437
vn 0.9329 -0.3600 -0.0073
vn -0.0113 0.9239 -0.3825
vn -0.0273 0.3827 -0.9235
vn 0.2678 0.9238 -0.2735
vn 0.6461 0.3831 -0.6601
vn -0.2914 0.9238 -0.2483
vn -0.7032 0.3830 -0.5991
vn -0.3095 0.9239 -0.2251
vn -0.7471 0.3827 -0.5435
vn -0.3816 0.9239 -0.0288
vn -0.9213 0.3827 -0.0696
vn -0.3111 0.9239 0.2229
vn -0.7510 0.3827 0.5381
vn -0.1976 0.9239 0.3277
vn -0.4772 0.3827 0.7911
vn -0.2786 0.9239 0.2624
vn -0.6725 0.3827 0.6335
vn -0.3820 0.9239 -0.0225
vn -0.9223 0.3827 -0.0544
vn -0.3929 0.9196 -0.0009
vn -0.9140 0.4057 -0.0021
vn -0.2451 0.9155 0.3191
vn -0.5510 0.4265 0.7173
vn 0.1093 0.9167 0.3842
vn 0.2502 0.4115 0.8764
vn 0.2907 0.9229 -0.2524
vn 0.6952 0.3998 -0.5973
vn 0.3808 0.9239 0.0382
vn 0.9193 0.3827 0.0922
vn 0.3632 0.9239 0.1206
vn 0.8768 0.3827 0.2911
vn 0.3066 0.9239 0.2290
vn 0.7403 0.3827 0.5528
vn 0.2121 0.9239 0.3186
vn 0.5120 0.3827 0.7691
vn 0.3236 0.9239 0.2042
vn 0.7814 0.3827 0.4930
vn 0.2194 0.9239 0.3135
vn 0.5297 0.3827 0.7570
vn 0.2848 0.9239 0.2556
vn 0.6875 0.3827 0.6171
vn 0.3733 0.9239 0.0842
vn 0.9012 0.3827 0.2033
vn 0.1991 0.9239 0.3268
vn 0.4807 0.3827 0.7890
vn 0.0260 0.9239 0.3818
vn 0.0628 0.3827 0.9217
vn 0.1847 0.9239 0.3352
vn 0.4459 0.3827 0.8092
vn 0.3384 0.9239 0.1787
vn 0.8169 0.3827 0.4315
vn 0.2836 0.9204 0.2692
vn 0.6641 0.4043 0.6289
vn 0.2564 0.9239 -0.2841
vn 0.6191 0.3827 -0.6858
vn 0.1427 0.9239 -0.3551
vn 0.3445 0.3827 -0.8572
vn 0.1159 0.9239 -0.3647
vn 0.2799 0.3827 -0.8805
vn 0.3577 0.9204 -0.1581
vn 0.8356 0.4053 -0.3709
vn 0.0789 0.9203 -0.3832
vn 0.1852 0.4046 -0.8955
vn 0.2578 0.9239 -0.2828
vn 0.6224 0.3827 -0.6827
vn 0.3740 0.9239 0.0809
vn 0.9030 0.3827 0.1954
vn 0.3840 0.9202 -0.0754
vn 0.8982 0.4044 -0.1724
vn -0.0273 -0.3827 -0.9235
vn -0.0113 -0.9239 -0.3825
vn 0.6461 -0.3831 -0.6601
vn 0.2678 -0.9238 -0.2735
vn -0.7032 -0.3830 -0.5991
vn -0.2914 -0.9238 -0.2483
vn -0.7471 -0.3827 -0.5435
vn -0.3095 -0.9239 -0.2251
vn -0.9213 -0.3827 -0.0696
vn -0.3816 -0.9239 -0.0288
vn -0.7510 -0.3827 0.5381
vn -0.3111 -0.9239 0.2229
vn -0.4772 -0.3827 0.7911
vn -0.1976 -0.9239 0.3277
vn -0.6725 -0.3827 0.6335
vn -0.2786 -0.9239 0.2624
vn -0.9223 -0.3827 -0.0544
vn -0.3820 -0.9239 -0.0225
vn -0.9140 -0.4057 -0.0021
vn -0.3929 -0.9196 -0.0009
vn -0.5510 -0.4265 0.7173
vn -0.2451 -0.9155 0.3191
vn 0.2502 -0.4115 0.8764
vn 0.1093 -0.9167 0.3842
vn 0.6952 -0.3998 -0.5973
vn 0.2907 -0.9229 -0.2524
vn 0.9193 -0.3827 0.0922
vn 0.3808 -0.9239 0.0382
vn 0.8768 -0.3827 0.2911
vn 0.3632 -0.9239 0.1206
vn 0.7403 -0.3827 0.5528
vn 0.3066 -0.9239 0.2290
vn 0.5120 -0.3827 0.7691
vn 0.2121 -0.9239 0.3186
vn 0.7814 -0.3827 0.4930
vn 0.3236 -0.9239 0.2042
vn 0.5297 -0.3827 0.7570
vn 0.2194 -0.9239 0.3135
vn 0.6875 -0.3827 0.6171
vn 0.2848 -0.9239 0.2556
vn 0.9012 -0.3827 0.2033
vn 0.3733 -0.9239 0.0842
vn 0.4807 -0.3827 0.7890
vn 0.1991 -0.9239 0.3268
vn 0.0628 -0.3827 0.9217
vn 0.0260 -0.9239 0.3818
vn 0.4459 -0.3827 0.8092
vn 0.1847 -0.9239 0.3352
vn 0.8169 -0.3827 0.4315
vn 0.3384 -0.9239 0.1787
vn 0.6641 -0.4043 0.6289
vn 0.2836 -0.9204 0.2692
vn 0.6191 -0.3827 -0.6858
vn 0.2564 -0.9239 -0.2841
vn 0.3445 -0.3827 -0.8572
vn 0.1427 -0.9239 -0.3551
vn 0.2799 -0.3827 -0.8805
vn 0.1159 -0.9239 -0.3647
vn 0.8356 -0.4053 -0.3709
vn 0.3577 -0.9204 -0.1581
vn 0.1852 -0.4046 -0.8955
vn 0.0789 -0.9203 -0.3832
vn 0.6224 -0.3827 -0.6827
vn 0.2578 -0.9239 -0.2828
vn 0.9030 -0.3827 0.1954
vn 0.3740 -0.9239 0.0809
vn 0.8982 -0.4044 -0.1724
vn 0.3840 -0.9202 -0.0754
vn 0.4976 -0.0000 -0.8674
vn 0.1877 -0.0000 -0.9822
vn 0.1970 -0.0000 -0.9804
vn 0.5202 -0.0000 -0.8540
vn 0.3650 -0.0000 -0.9310
vn -0.4474 -0.0000 -0.8943
vn -0.8919 -0.0000 -0.4522
vn -0.9725 -0.0000 -0.2329
vn -0.9923 -0.0000 0.1235
vn -0.9120 -0.0000 0.4101
vn -0.8653 -0.0000 0.5013
vn -0.9853 -0.0000 0.1707
vn -0.9793 -0.0000 0.2022
vn -0.7593 -0.0000 0.6507
vn -0.4226 -0.0000 0.9063
vn 0.0754 -0.0000 0.9972
vn 0.6261 -0.0000 0.7798
vn 0.9426 -0.0000 -0.3340
vn 0.8820 -0.0000 -0.4712
vn 0.9912 -0.0000 -0.1324
vn 0.9009 -0.0000 0.4340
vn 0.6992 -0.0000 0.7149
vn 0.6218 -0.0000 0.7832
vn 0.7941 -0.0000 0.6078
vn 0.9316 -0.0000 0.3634
vn 0.8226 -0.0000 0.5686
vn 0.9267 -0.0000 -0.3757
vn 0.7932 -0.0000 -0.6090
vn 0.5209 -0.0000 -0.8536
vn 0.7952 -0.0000 -0.6064
vn 0.8056 -0.0000 -0.5925
vn 0.4093 -0.0000 -0.9124
vn 0.3474 -0.0000 -0.9377
vn 0.5508 -0.0000 -0.8347
vn 0.8586 -0.0000 0.5127
vn 0.9998 -0.0000 0.0217
vn -0.0295 -0.0000 -0.9996
vn -0.0000 1.0000 -0.0000
vn 0.6737 -0.0000 -0.7390
vn 0.6997 -0.0000 -0.7145
vn -0.7612 -0.0000 -0.6485
vn -0.8087 -0.0000 -0.5883
vn -0.9972 -0.0000 -0.0753
vn -0.8128 -0.0000 0.5825
vn -0.5165 -0.0000 0.8563
vn -0.7279 -0.0000 0.6857
vn -0.9983 -0.0000 -0.0589
vn -1.0000 -0.0000 -0.0041
vn -0.6088 -0.0000 0.7933
vn 0.2895 -0.0000 0.9572
vn 0.7496 -0.0000 -0.6619
vn 0.9950 -0.0000 0.0998
vn 0.9491 -0.0000 0.3150
vn 0.8013 -0.0000 0.5983
vn 0.5541 -0.0000 0.8324
vn 0.8457 -0.0000 0.5336
vn 0.5733 -0.0000 0.8193
vn 0.7442 -0.0000 0.6680
vn 0.9755 -0.0000 0.2201
vn 0.5203 -0.0000 0.8540
vn 0.0680 -0.0000 0.9977
vn -0.0000 -0.0000 1.0000
vn 0.8842 -0.0000 0.4670
vn 0.7224 -0.0000 0.6915
vn 0.9774 -0.0000 0.2115
vn 0.6701 -0.0000 -0.7423
vn 0.9794 -0.0000 -0.2021
vn 0.3729 -0.0000 -0.9279
vn 0.3029 -0.0000 -0.9530
vn 0.9166 -0.0000 -0.3999
vn 0.1976 -0.0000 -0.9803
vn -0.0000 -1.0000 -0.0000
vt 0.000000 0.000000
s 0
f 1/1/1 4/1/1 5/1/1 7/1/1
f 2/1/2 6/1/2 5/1/2 4/1/2
f 3/1/3 7/1/3 5/1/3 6/1/3
f 8/1/4 11/1/4 12/1/4 14/1/4
f 9/1/5 13/1/5 12/1/5 11/1/5
f 10/1/6 14/1/6 12/1/6 13/1/6
f 15/1/7 18/1/7 19/1/7 21/1/7
f 16/1/8 20/1/8 19/1/8 18/1/8
f 17/1/9 21/1/9 19/1/9 20/1/9
f 25/1/10 28/1/10 29/1/10 31/1/10
f 26/1/11 30/1/11 29/1/11 28/1/11
f 27/1/12 31/1/12 29/1/12 30/1/12
f 32/1/13 35/1/13 36/1/13 38/1/13
f 33/1/14 37/1/14 36/1/14 35/1/14
f 34/1/15 38/1/15 36/1/15 37/1/15
f 45/1/16 48/1/16 49/1/16 51/1/16
f 46/1/17 50/1/17 49/1/17 48/1/17
f 47/1/18 51/1/18 49/1/18 50/1/18
f 55/1/19 58/1/19 59/1/19 61/1/19
f 56/1/20 60/1/20 59/1/20 58/1/20
f 57/1/21 61/1/21 59/1/21 60/1/21
f 62/1/22 65/1/22 66/1/22 68/1/22
f 63/1/23 67/1/23 66/1/23 65/1/23
f 64/1/24 68/1/24 66/1/24 67/1/24
f 69/1/25 72/1/25 73/1/25 75/1/25
f 70/1/26 74/1/26 73/1/26 72/1/26
f 71/1/27 75/1/27 73/1/27 74/1/27
f 76/1/28 79/1/28 80/1/28 82/1/28
f 77/1/29 81/1/29 80/1/29 79/1/29
f 78/1/30 82/1/30 80/1/30 81/1/30
f 104/1/31 107/1/31 108/1/31 110/1/31
f 105/1/32 109/1/32 108/1/32 107/1/32
f 106/1/33 110/1/33 108/1/33 109/1/33
f 117/1/34 120/1/34 121/1/34 123/1/34
f 118/1/35 122/1/35 121/1/35 120/1/35
f 119/1/36 123/1/36 121/1/36 122/1/36
f 124/1/37 127/1/37 128/1/37 130/1/37
f 125/1/38 129/1/38 128/1/38 127/1/38
f 126/1/39 130/1/39 128/1/39 129/1/39
f 131/1/40 134/1/40 135/1/40 137/1/40
f 132/1/41 136/1/41 135/1/41 134/1/41
f 133/1/42 137/1/42 135/1/42 136/1/42
f 144/1/43 147/1/43 148/1/43 150/1/43
f 145/1/44 149/1/44 148/1/44 147/1/44
f 146/1/45 150/1/45 148/1/45 149/1/45
f 151/1/46 154/1/46 155/1/46 157/1/46
f 152/1/47 156/1/47 155/1/47 154/1/47
f 153/1/48 157/1/48 155/1/48 156/1/48
f 158/1/49 161/1/49 162/1/49 164/1/49
f 159/1/50 163/1/50 162/1/50 161/1/50
f 160/1/51 164/1/51 162/1/51 163/1/51
f 171/1/52 174/1/52 175/1/52 177/1/52
f 172/1/53 176/1/53 175/1/53 174/1/53
f 173/1/54 177/1/54 175/1/54 176/1/54
f 178/1/55 181/1/55 182/1/55 184/1/55
f 179/1/56 183/1/56 182/1/56 181/1/56
f 180/1/57 184/1/57 182/1/57 183/1/57
f 185/1/58 188/1/58 189/1/58 191/1/58
f 186/1/59 190/1/59 189/1/59 188/1/59
f 187/1/60 191/1/60 189/1/60 190/1/60
f 192/1/61 195/1/61 196/1/61 198/1/61
f 193/1/62 197/1/62 196/1/62 195/1/62
f 194/1/63 198/1/63 196/1/63 197/1/63
f 202/1/64 205/1/64 206/1/64 208/1/64
f 203/1/65 207/1/65 206/1/65 205/1/65
f 204/1/66 208/1/66 206/1/66 207/1/66
f 209/1/67 212/1/67 213/1/67 215/1/67
f 210/1/68 214/1/68 213/1/68 212/1/68
f 211/1/69 215/1/69 213/1/69 214/1/69
f 222/1/70 225/1/70 226/1/70 228/1/70
f 223/1/71 227/1/71 226/1/71 225/1/71
f 224/1/72 228/1/72 226/1/72 227/1/72
f 232/1/73 235/1/73 236/1/73 238/1/73
f 233/1/74 237/1/74 236/1/74 235/1/74
f 234/1/75 238/1/75 236/1/75 237/1/75
f 239/1/76 242/1/76 243/1/76 245/1/76
f 240/1/77 244/1/77 243/1/77 242/1/77
f 241/1/78 245/1/78 243/1/78 244/1/78
f 246/1/79 249/1/79 250/1/79 252/1/79
f 247/1/80 251/1/80 250/1/80 249/1/80
f 248/1/81 252/1/81 250/1/81 251/1/81
f 253/1/82 256/1/82 257/1/82 259/1/82
f 254/1/83 258/1/83 257/1/83 256/1/83
f 255/1/84 259/1/84 257/1/84 258/1/84
f 281/1/85 284/1/85 285/1/85 287/1/85
f 282/1/86 286/1/86 285/1/86 284/1/86
f 283/1/87 287/1/87 285/1/87 286/1/87
f 294/1/88 297/1/88 298/1/88 300/1/88
f 295/1/89 299/1/89 298/1/89 297/1/89
f 296/1/90 300/1/90 298/1/90 299/1/90
f 301/1/91 304/1/91 305/1/91 307/1/91
f 302/1/92 306/1/92 305/1/92 304/1/92
f 303/1/93 307/1/93 305/1/93 306/1/93
f 308/1/94 311/1/94 312/1/94 314/1/94
f 309/1/95 313/1/95 312/1/95 311/1/95
f 310/1/96 314/1/96 312/1/96 313/1/96
f 321/1/97 324/1/97 325/1/97 327/1/97
f 322/1/98 326/1/98 325/1/98 324/1/98
f 323/1/99 327/1/99 325/1/99 326/1/99
f 328/1/100 331/1/100 332/1/100 334/1/100
f 329/1/101 333/1/101 332/1/101 331/1/101
f 330/1/102 334/1/102 332/1/102 333/1/102
f 335/1/103 338/1/103 339/1/103 341/1/103
f 336/1/104 340/1/104 339/1/104 338/1/104
f 337/1/105 341/1/105 339/1/105 340/1/105
f 348/1/106 351/1/106 352/1/106 354/1/106
f 349/1/107 353/1/107 352/1/107 351/1/107
f 350/1/108 354/1/108 352/1/108 353/1/108
f 10/1/109 2/1/109 4/1/109 14/1/109
f 14/1/110 4/1/110 1/1/110 8/1/110
f 17/1/111 10/1/111 13/1/111 21/1/111
f 21/1/112 13/1/112 9/1/112 15/1/112
f 23/1/113 17/1/113 20/1/113 24/1/113
f 24/1/114 20/1/114 16/1/114 22/1/114
f 27/1/115 23/1/115 24/1/115 31/1/115
f 31/1/116 24/1/116 22/1/116 25/1/116
f 34/1/117 27/1/117 30/1/117 38/1/117
f 38/1/118 30/1/118 26/1/118 32/1/118
f 40/1/119 34/1/119 37/1/119 41/1/119
f 41/1/120 37/1/120 33/1/120 39/1/120
f 43/1/121 40/1/121 41/1/121 44/1/121
f 44/1/122 41/1/122 39/1/122 42/1/122
f 47/1/123 43/1/123 44/1/123 51/1/123
f 51/1/124 44/1/124 42/1/124 45/1/124
f 53/1/125 47/1/125 50/1/125 54/1/125
f 54/1/126 50/1/126 46/1/126 52/1/126
f 57/1/127 53/1/127 54/1/127 61/1/127
f 61/1/128 54/1/128 52/1/128 55/1/128
f 64/1/129 57/1/129 60/1/129 68/1/129
f 68/1/130 60/1/130 56/1/130 62/1/130
f 71/1/131 64/1/131 67/1/131 75/1/131
f 75/1/132 67/1/132 63/1/132 69/1/132
f 78/1/133 71/1/133 74/1/133 82/1/133
f 82/1/134 74/1/134 70/1/134 76/1/134
f 84/1/135 78/1/135 81/1/135 85/1/135
f 85/1/136 81/1/136 77/1/136 83/1/136
f 87/1/137 84/1/137 85/1/137 88/1/137
f 88/1/138 85/1/138 83/1/138 86/1/138
f 90/1/139 87/1/139 88/1/139 91/1/139
f 91/1/140 88/1/140 86/1/140 89/1/140
f 93/1/141 90/1/141 91/1/141 94/1/141
f 94/1/142 91/1/142 89/1/142 92/1/142
f 96/1/143 93/1/143 94/1/143 97/1/143
f 97/1/144 94/1/144 92/1/144 95/1/144
f 99/1/145 96/1/145 97/1/145 100/1/145
f 100/1/146 97/1/146 95/1/146 98/1/146
f 102/1/147 99/1/147 100/1/147 103/1/147
f 103/1/148 100/1/148 98/1/148 101/1/148
f 106/1/149 102/1/149 103/1/149 110/1/149
f 110/1/150 103/1/150 101/1/150 104/1/150
f 112/1/151 106/1/151 109/1/151 113/1/151
f 113/1/152 109/1/152 105/1/152 111/1/152
f 115/1/153 112/1/153 113/1/153 116/1/153
f 116/1/154 113/1/154 111/1/154 114/1/154
f 119/1/155 115/1/155 116/1/155 123/1/155
f 123/1/156 116/1/156 114/1/156 117/1/156
f 169/1/157 119/1/157 122/1/157 170/1/157
f 170/1/158 122/1/158 118/1/158 168/1/158
f 173/1/159 125/1/159 127/1/159 177/1/159
f 177/1/160 127/1/160 124/1/160 171/1/160
f 139/1/161 132/1/161 134/1/161 140/1/161
f 140/1/162 134/1/162 131/1/162 138/1/162
f 166/1/163 139/1/163 140/1/163 167/1/163
f 167/1/164 140/1/164 138/1/164 165/1/164
f 146/1/165 141/1/165 143/1/165 150/1/165
f 150/1/166 143/1/166 142/1/166 144/1/166
f 153/1/167 146/1/167 149/1/167 157/1/167
f 157/1/168 149/1/168 145/1/168 151/1/168
f 160/1/169 153/1/169 156/1/169 164/1/169
f 164/1/170 156/1/170 152/1/170 158/1/170
f 2/1/171 160/1/171 163/1/171 6/1/171
f 6/1/172 163/1/172 159/1/172 3/1/172
f 141/1/163 166/1/163 167/1/163 143/1/163
f 143/1/164 167/1/164 165/1/164 142/1/164
f 125/1/173 169/1/173 170/1/173 129/1/173
f 129/1/174 170/1/174 168/1/174 126/1/174
f 132/1/175 173/1/175 176/1/175 136/1/175
f 136/1/176 176/1/176 172/1/176 133/1/176
f 185/1/177 178/1/177 184/1/177 188/1/177
f 188/1/178 184/1/178 180/1/178 186/1/178
f 192/1/179 187/1/179 190/1/179 195/1/179
f 195/1/180 190/1/180 186/1/180 193/1/180
f 200/1/181 194/1/181 197/1/181 201/1/181
f 201/1/182 197/1/182 193/1/182 199/1/182
f 202/1/183 200/1/183 201/1/183 205/1/183
f 205/1/184 201/1/184 199/1/184 203/1/184
f 209/1/185 204/1/185 207/1/185 212/1/185
f 212/1/186 207/1/186 203/1/186 210/1/186
f 217/1/187 211/1/187 214/1/187 218/1/187
f 218/1/188 214/1/188 210/1/188 216/1/188
f 220/1/189 217/1/189 218/1/189 221/1/189
f 221/1/190 218/1/190 216/1/190 219/1/190
f 222/1/191 220/1/191 221/1/191 225/1/191
f 225/1/192 221/1/192 219/1/192 223/1/192
f 230/1/193 224/1/193 227/1/193 231/1/193
f 231/1/194 227/1/194 223/1/194 229/1/194
f 232/1/195 230/1/195 231/1/195 235/1/195
f 235/1/196 231/1/196 229/1/196 233/1/196
f 239/1/197 234/1/197 237/1/197 242/1/197
f 242/1/198 237/1/198 233/1/198 240/1/198
f 246/1/199 241/1/199 244/1/199 249/1/199
f 249/1/200 244/1/200 240/1/200 247/1/200
f 253/1/201 248/1/201 251/1/201 256/1/201
f 256/1/202 251/1/202 247/1/202 254/1/202
f 261/1/203 255/1/203 258/1/203 262/1/203
f 262/1/204 258/1/204 254/1/204 260/1/204
f 264/1/205 261/1/205 262/1/205 265/1/205
f 265/1/206 262/1/206 260/1/206 263/1/206
f 267/1/207 264/1/207 265/1/207 268/1/207
f 268/1/208 265/1/208 263/1/208 266/1/208
f 270/1/209 267/1/209 268/1/209 271/1/209
f 271/1/210 268/1/210 266/1/210 269/1/210
f 273/1/211 270/1/211 271/1/211 274/1/211
f 274/1/212 271/1/212 269/1/212 272/1/212
f 276/1/213 273/1/213 274/1/213 277/1/213
f 277/1/214 274/1/214 272/1/214 275/1/214
f 279/1/215 276/1/215 277/1/215 280/1/215
f 280/1/216 277/1/216 275/1/216 278/1/216
f 281/1/217 279/1/217 280/1/217 284/1/217
f 284/1/218 280/1/218 278/1/218 282/1/218
f 289/1/219 283/1/219 286/1/219 290/1/219
f 290/1/220 286/1/220 282/1/220 288/1/220
f 292/1/221 289/1/221 290/1/221 293/1/221
f 293/1/222 290/1/222 288/1/222 291/1/222
f 294/1/223 292/1/223 293/1/223 297/1/223
f 297/1/224 293/1/224 291/1/224 295/1/224
f 346/1/225 296/1/225 299/1/225 347/1/225
f 347/1/226 299/1/226 295/1/226 345/1/226
f 348/1/227 301/1/227 307/1/227 351/1/227
f 351/1/228 307/1/228 303/1/228 349/1/228
f 316/1/229 308/1/229 314/1/229 317/1/229
f 317/1/230 314/1/230 310/1/230 315/1/230
f 343/1/231 316/1/231 317/1/231 344/1/231
f 344/1/232 317/1/232 315/1/232 342/1/232
f 321/1/233 318/1/233 320/1/233 324/1/233
f 324/1/234 320/1/234 319/1/234 322/1/234
f 328/1/235 323/1/235 326/1/235 331/1/235
f 331/1/236 326/1/236 322/1/236 329/1/236
f 335/1/237 330/1/237 333/1/237 338/1/237
f 338/1/238 333/1/238 329/1/238 336/1/238
f 179/1/239 337/1/239 340/1/239 183/1/239
f 183/1/240 340/1/240 336/1/240 180/1/240
f 318/1/231 343/1/231 344/1/231 320/1/231
f 320/1/232 344/1/232 342/1/232 319/1/232
f 302/1/241 346/1/241 347/1/241 306/1/241
f 306/1/242 347/1/242 345/1/242 303/1/242
f 309/1/243 350/1/243 353/1/243 313/1/243
f 313/1/244 353/1/244 349/1/244 310/1/244
f 3/1/245 179/1/245 181/1/245 7/1/245
f 7/1/246 181/1/246 178/1/246 1/1/246
f 8/1/247 185/1/247 191/1/247 11/1/247
f 11/1/248 191/1/248 187/1/248 9/1/248
f 15/1/249 192/1/249 198/1/249 18/1/249
f 18/1/250 198/1/250 194/1/250 16/1/250
f 25/1/251 202/1/251 208/1/251 28/1/251
f 28/1/252 208/1/252 204/1/252 26/1/252
f 32/1/253 209/1/253 215/1/253 35/1/253
f 35/1/254 215/1/254 211/1/254 33/1/254
f 45/1/255 222/1/255 228/1/255 48/1/255
f 48/1/256 228/1/256 224/1/256 46/1/256
f 55/1/257 232/1/257 238/1/257 58/1/257
f 58/1/258 238/1/258 234/1/258 56/1/258
f 62/1/259 239/1/259 245/1/259 65/1/259
f 65/1/260 245/1/260 241/1/260 63/1/260
f 69/1/261 246/1/261 252/1/261 72/1/261
f 72/1/262 252/1/262 248/1/262 70/1/262
f 76/1/263 253/1/263 259/1/263 79/1/263
f 79/1/264 259/1/264 255/1/264 77/1/264
f 104/1/265 281/1/265 287/1/265 107/1/265
f 107/1/266 287/1/266 283/1/266 105/1/266
f 117/1/267 294/1/267 300/1/267 120/1/267
f 120/1/268 300/1/268 296/1/268 118/1/268
f 126/1/269 302/1/269 304/1/269 130/1/269
f 130/1/270 304/1/270 301/1/270 124/1/270
f 133/1/271 309/1/271 311/1/271 137/1/271
f 137/1/272 311/1/272 308/1/272 131/1/272
f 144/1/273 321/1/273 327/1/273 147/1/273
f 147/1/274 327/1/274 323/1/274 145/1/274
f 151/1/275 328/1/275 334/1/275 154/1/275
f 154/1/276 334/1/276 330/1/276 152/1/276
f 158/1/277 335/1/277 341/1/277 161/1/277
f 161/1/278 341/1/278 337/1/278 159/1/278
f 171/1/279 348/1/279 354/1/279 174/1/279
f 174/1/280 354/1/280 350/1/280 172/1/280
f 8/1/281 1/1/281 178/1/281 185/1/281
f 10/1/282 17/1/282 23/1/282 27/1/282 34/1/282 40/1/282 43/1/282 47/1/282 53/1/282 57/1/282 64/1/282 71/1/282 78/1/282 84/1/282 87/1/282 90/1/282 93/1/282 96/1/282 99/1/282 102/1/282 106/1/282 112/1/282 115/1/282 119/1/282 169/1/282 125/1/282 173/1/282 132/1/282 139/1/282 166/1/282 141/1/282 146/1/282 153/1/282 160/1/282 2/1/282
f 3/1/283 159/1/283 337/1/283 179/1/283
f 15/1/284 9/1/284 187/1/284 192/1/284
f 22/1/285 16/1/285 194/1/285 200/1/285
f 25/1/286 22/1/286 200/1/286 202/1/286
f 32/1/287 26/1/287 204/1/287 209/1/287
f 39/1/288 33/1/288 211/1/288 217/1/288
f 42/1/289 39/1/289 217/1/289 220/1/289
f 45/1/290 42/1/290 220/1/290 222/1/290
f 52/1/291 46/1/291 224/1/291 230/1/291
f 55/1/292 52/1/292 230/1/292 232/1/292
f 62/1/293 56/1/293 234/1/293 239/1/293
f 69/1/294 63/1/294 241/1/294 246/1/294
f 76/1/295 70/1/295 248/1/295 253/1/295
f 83/1/296 77/1/296 255/1/296 261/1/296
f 86/1/297 83/1/297 261/1/297 264/1/297
f 89/1/298 86/1/298 264/1/298 267/1/298
f 92/1/299 89/1/299 267/1/299 270/1/299
f 95/1/300 92/1/300 270/1/300 273/1/300
f 98/1/301 95/1/301 273/1/301 276/1/301
f 101/1/302 98/1/302 276/1/302 279/1/302
f 104/1/303 101/1/303 279/1/303 281/1/303
f 111/1/304 105/1/304 283/1/304 289/1/304
f 114/1/305 111/1/305 289/1/305 292/1/305
f 117/1/306 114/1/306 292/1/306 294/1/306
f 168/1/307 118/1/307 296/1/307 346/1/307
f 171/1/308 124/1/308 301/1/308 348/1/308
f 126/1/309 168/1/309 346/1/309 302/1/309
f 138/1/310 131/1/310 308/1/310 316/1/310
f 133/1/311 172/1/311 350/1/311 309/1/311
f 165/1/312 138/1/312 316/1/312 343/1/312
f 144/1/313 142/1/313 318/1/313 321/1/313
f 142/1/312 165/1/312 343/1/312 318/1/312
f 151/1/314 145/1/314 323/1/314 328/1/314
f 158/1/315 152/1/315 330/1/315 335/1/315
f 186/1/316 180/1/316 336/1/316 329/1/316 322/1/316 319/1/316 342/1/316 315/1/316 310/1/316 349/1/316 303/1/316 345/1/316 295/1/316 291/1/316 288/1/316 282/1/316 278/1/316 275/1/316 272/1/316 269/1/316 266/1/316 263/1/316 260/1/316 254/1/316 247/1/316 240/1/316 233/1/316 229/1/316 223/1/316 219/1/316 216/1/316 210/1/316 203/1/316 199/1/316 193/1/316
