mtllib BotonExit.mtl
o BotonExit
v -0.00000 0.00000 -0.12500
v -1.85000 0.40000 -0.12500
v -1.84148 0.46470 -0.12500
v -1.81651 0.52500 -0.12500
v -1.77678 0.57678 -0.12500
v -1.72500 0.61651 -0.12500
v -1.66470 0.64148 -0.12500
v -1.60000 0.65000 -0.12500
v 1.60000 0.65000 -0.12500
v 1.66470 0.64148 -0.12500
v 1.72500 0.61651 -0.12500
v 1.77678 0.57678 -0.12500
v 1.81651 0.52500 -0.12500
v 1.84148 0.46470 -0.12500
v 1.85000 0.40000 -0.12500
v 1.85000 -0.40000 -0.12500
v 1.84148 -0.46470 -0.12500
v 1.81651 -0.52500 -0.12500
v 1.77678 -0.57678 -0.12500
v 1.72500 -0.61651 -0.12500
v 1.66470 -0.64148 -0.12500
v 1.60000 -0.65000 -0.12500
v -1.60000 -0.65000 -0.12500
v -1.66470 -0.64148 -0.12500
v -1.72500 -0.61651 -0.12500
v -1.77678 -0.57678 -0.12500
v -1.81651 -0.52500 -0.12500
v -1.84148 -0.46470 -0.12500
v -1.85000 -0.40000 -0.12500
v -0.00000 0.00000 0.12500
v -1.85000 0.40000 0.12500
v -1.84148 0.46470 0.12500
v -1.81651 0.52500 0.12500
v -1.77678 0.57678 0.12500
v -1.72500 0.61651 0.12500
v -1.66470 0.64148 0.12500
v -1.60000 0.65000 0.12500
v 1.60000 0.65000 0.12500
v 1.66470 0.64148 0.12500
v 1.72500 0.61651 0.12500
v 1.77678 0.57678 0.12500
v 1.81651 0.52500 0.12500
v 1.84148 0.46470 0.12500
v 1.85000 0.40000 0.12500
v 1.85000 -0.40000 0.12500
v 1.84148 -0.46470 0.12500
v 1.81651 -0.52500 0.12500
v 1.77678 -0.57678 0.12500
v 1.72500 -0.61651 0.12500
v 1.66470 -0.64148 0.12500
v 1.60000 -0.65000 0.12500
v -1.60000 -0.65000 0.12500
v -1.66470 -0.64148 0.12500
v -1.72500 -0.61651 0.12500
v -1.77678 -0.57678 0.12500
v -1.81651 -0.52500 0.12500
v -1.84148 -0.46470 0.12500
v -1.85000 -0.40000 0.12500
v -1.85000 0.40000 -0.12500
v -1.84148 0.46470 -0.12500
v -1.84148 0.46470 0.12500
v -1.85000 0.40000 0.12500
v -1.84148 0.46470 -0.12500
v -1.81651 0.52500 -0.12500
v -1.81651 0.52500 0.12500
v -1.84148 0.46470 0.12500
v -1.81651 0.52500 -0.12500
v -1.77678 0.57678 -0.12500
v -1.77678 0.57678 0.12500
v -1.81651 0.52500 0.12500
v -1.77678 0.57678 -0.12500
v -1.72500 0.61651 -0.12500
v -1.72500 0.61651 0.12500
v -1.77678 0.57678 0.12500
v -1.72500 0.61651 -0.12500
v -1.66470 0.64148 -0.12500
v -1.66470 0.64148 0.12500
v -1.72500 0.61651 0.12500
v -1.66470 0.64148 -0.12500
v -1.60000 0.65000 -0.12500
v -1.60000 0.65000 0.12500
v -1.66470 0.64148 0.12500
v -1.60000 0.65000 -0.12500
v 1.60000 0.65000 -0.12500
v 1.60000 0.65000 0.12500
v -1.60000 0.65000 0.12500
v 1.60000 0.65000 -0.12500
v 1.66470 0.64148 -0.12500
v 1.66470 0.64148 0.12500
v 1.60000 0.65000 0.12500
v 1.66470 0.64148 -0.12500
v 1.72500 0.61651 -0.12500
v 1.72500 0.61651 0.12500
v 1.66470 0.64148 0.12500
v 1.72500 0.61651 -0.12500
v 1.77678 0.57678 -0.12500
v 1.77678 0.57678 0.12500
v 1.72500 0.61651 0.12500
v 1.77678 0.57678 -0.12500
v 1.81651 0.52500 -0.12500
v 1.81651 0.52500 0.12500
v 1.77678 0.57678 0.12500
v 1.81651 0.52500 -0.12500
v 1.84148 0.46470 -0.12500
v 1.84148 0.46470 0.12500
v 1.81651 0.52500 0.12500
v 1.84148 0.46470 -0.12500
v 1.85000 0.40000 -0.12500
v 1.85000 0.40000 0.12500
v 1.84148 0.46470 0.12500
v 1.85000 0.40000 -0.12500
v 1.85000 -0.40000 -0.12500
v 1.85000 -0.40000 0.12500
v 1.85000 0.40000 0.12500
v 1.85000 -0.40000 -0.12500
v 1.84148 -0.46470 -0.12500
v 1.84148 -0.46470 0.12500
v 1.85000 -0.40000 0.12500
v 1.84148 -0.46470 -0.12500
v 1.81651 -0.52500 -0.12500
v 1.81651 -0.52500 0.12500
v 1.84148 -0.46470 0.12500
v 1.81651 -0.52500 -0.12500
v 1.77678 -0.57678 -0.12500
v 1.77678 -0.57678 0.12500
v 1.81651 -0.52500 0.12500
v 1.77678 -0.57678 -0.12500
v 1.72500 -0.61651 -0.12500
v 1.72500 -0.61651 0.12500
v 1.77678 -0.57678 0.12500
v 1.72500 -0.61651 -0.12500
v 1.66470 -0.64148 -0.12500
v 1.66470 -0.64148 0.12500
v 1.72500 -0.61651 0.12500
v 1.66470 -0.64148 -0.12500
v 1.60000 -0.65000 -0.12500
v 1.60000 -0.65000 0.12500
v 1.66470 -0.64148 0.12500
v 1.60000 -0.65000 -0.12500
v -1.60000 -0.65000 -0.12500
v -1.60000 -0.65000 0.12500
v 1.60000 -0.65000 0.12500
v -1.60000 -0.65000 -0.12500
v -1.66470 -0.64148 -0.12500
v -1.66470 -0.64148 0.12500
v -1.60000 -0.65000 0.12500
v -1.66470 -0.64148 -0.12500
v -1.72500 -0.61651 -0.12500
v -1.72500 -0.61651 0.12500
v -1.66470 -0.64148 0.12500
v -1.72500 -0.61651 -0.12500
v -1.77678 -0.57678 -0.12500
v -1.77678 -0.57678 0.12500
v -1.72500 -0.61651 0.12500
v -1.77678 -0.57678 -0.12500
v -1.81651 -0.52500 -0.12500
v -1.81651 -0.52500 0.12500
v -1.77678 -0.57678 0.12500
v -1.81651 -0.52500 -0.12500
v -1.84148 -0.46470 -0.12500
v -1.84148 -0.46470 0.12500
v -1.81651 -0.52500 0.12500
v -1.84148 -0.46470 -0.12500
v -1.85000 -0.40000 -0.12500
v -1.85000 -0.40000 0.12500
v -1.84148 -0.46470 0.12500
v -1.85000 -0.40000 -0.12500
v -1.85000 0.40000 -0.12500
v -1.85000 0.40000 0.12500
v -1.85000 -0.40000 0.12500
v 0.65000 0.25000 -0.22500
v 0.65000 0.35000 -0.22500
v 0.55000 0.35000 -0.22500
v 0.55000 0.25000 -0.22500
v 0.55000 0.35000 -0.22500
v 0.55000 0.25000 -0.22500
v 0.55000 0.25000 -0.12500
v 0.55000 0.35000 -0.12500
v 0.55000 0.35000 -0.22500
v 0.65000 0.35000 -0.22500
v 0.65000 0.35000 -0.12500
v 0.55000 0.35000 -0.12500
v 0.65000 0.25000 -0.22500
v 0.55000 0.25000 -0.22500
v 0.55000 0.25000 -0.12500
v 0.65000 0.25000 -0.12500
v -0.65000 0.25000 -0.22500
v -0.65000 0.35000 -0.22500
v -0.75000 0.35000 -0.22500
v -0.75000 0.25000 -0.22500
v -0.75000 0.35000 -0.22500
v -0.65000 0.35000 -0.22500
v -0.65000 0.35000 -0.12500
v -0.75000 0.35000 -0.12500
v -0.65000 0.25000 -0.22500
v -0.75000 0.25000 -0.22500
v -0.75000 0.25000 -0.12500
v -0.65000 0.25000 -0.12500
v 0.65000 -0.35000 -0.22500
v 0.65000 -0.25000 -0.22500
v 0.55000 -0.25000 -0.22500
v 0.55000 -0.35000 -0.22500
v 0.55000 -0.25000 -0.22500
v 0.55000 -0.35000 -0.22500
v 0.55000 -0.35000 -0.12500
v 0.55000 -0.25000 -0.12500
v 0.55000 -0.25000 -0.22500
v 0.65000 -0.25000 -0.22500
v 0.65000 -0.25000 -0.12500
v 0.55000 -0.25000 -0.12500
v 0.65000 -0.35000 -0.22500
v 0.55000 -0.35000 -0.22500
v 0.55000 -0.35000 -0.12500
v 0.65000 -0.35000 -0.12500
v 0.15000 0.05000 -0.22500
v 0.15000 0.15000 -0.22500
v 0.05000 0.15000 -0.22500
v 0.05000 0.05000 -0.22500
v 0.15000 0.05000 -0.22500
v 0.15000 0.15000 -0.22500
v 0.15000 0.15000 -0.12500
v 0.15000 0.05000 -0.12500
v 0.05000 0.15000 -0.22500
v 0.05000 0.05000 -0.22500
v 0.05000 0.05000 -0.12500
v 0.05000 0.15000 -0.12500
v 0.05000 0.15000 -0.22500
v 0.15000 0.15000 -0.22500
v 0.15000 0.15000 -0.12500
v 0.05000 0.15000 -0.12500
v 0.15000 0.05000 -0.22500
v 0.05000 0.05000 -0.22500
v 0.05000 0.05000 -0.12500
v 0.15000 0.05000 -0.12500
v -0.85000 0.25000 -0.22500
v -0.85000 0.35000 -0.22500
v -0.95000 0.35000 -0.22500
v -0.95000 0.25000 -0.22500
v -0.95000 0.35000 -0.22500
v -0.85000 0.35000 -0.22500
v -0.85000 0.35000 -0.12500
v -0.95000 0.35000 -0.12500
v -0.85000 0.25000 -0.22500
v -0.95000 0.25000 -0.22500
v -0.95000 0.25000 -0.12500
v -0.85000 0.25000 -0.12500
v 1.05000 0.05000 -0.22500
v 1.05000 0.15000 -0.22500
v 0.95000 0.15000 -0.22500
v 0.95000 0.05000 -0.22500
v 1.05000 0.05000 -0.22500
v 1.05000 0.15000 -0.22500
v 1.05000 0.15000 -0.12500
v 1.05000 0.05000 -0.12500
v 0.95000 0.15000 -0.22500
v 0.95000 0.05000 -0.22500
v 0.95000 0.05000 -0.12500
v 0.95000 0.15000 -0.12500
v 0.25000 -0.05000 -0.22500
v 0.25000 0.05000 -0.22500
v 0.15000 0.05000 -0.22500
v 0.15000 -0.05000 -0.22500
v 0.25000 -0.05000 -0.22500
v 0.25000 0.05000 -0.22500
v 0.25000 0.05000 -0.12500
v 0.25000 -0.05000 -0.12500
v 0.15000 0.05000 -0.22500
v 0.15000 -0.05000 -0.22500
v 0.15000 -0.05000 -0.12500
v 0.15000 0.05000 -0.12500
v 0.15000 0.05000 -0.22500
v 0.25000 0.05000 -0.22500
v 0.25000 0.05000 -0.12500
v 0.15000 0.05000 -0.12500
v 0.25000 -0.05000 -0.22500
v 0.15000 -0.05000 -0.22500
v 0.15000 -0.05000 -0.12500
v 0.25000 -0.05000 -0.12500
v 0.05000 0.25000 -0.22500
v 0.05000 0.35000 -0.22500
v -0.05000 0.35000 -0.22500
v -0.05000 0.25000 -0.22500
v 0.05000 0.25000 -0.22500
v 0.05000 0.35000 -0.22500
v 0.05000 0.35000 -0.12500
v 0.05000 0.25000 -0.12500
v -0.05000 0.35000 -0.22500
v -0.05000 0.25000 -0.22500
v -0.05000 0.25000 -0.12500
v -0.05000 0.35000 -0.12500
v -0.05000 0.35000 -0.22500
v 0.05000 0.35000 -0.22500
v 0.05000 0.35000 -0.12500
v -0.05000 0.35000 -0.12500
v 0.05000 -0.35000 -0.22500
v 0.05000 -0.25000 -0.22500
v -0.05000 -0.25000 -0.22500
v -0.05000 -0.35000 -0.22500
v 0.05000 -0.35000 -0.22500
v 0.05000 -0.25000 -0.22500
v 0.05000 -0.25000 -0.12500
v 0.05000 -0.35000 -0.12500
v -0.05000 -0.25000 -0.22500
v -0.05000 -0.35000 -0.22500
v -0.05000 -0.35000 -0.12500
v -0.05000 -0.25000 -0.12500
v 0.05000 -0.35000 -0.22500
v -0.05000 -0.35000 -0.22500
v -0.05000 -0.35000 -0.12500
v 0.05000 -0.35000 -0.12500
v 1.05000 -0.25000 -0.22500
v 1.05000 -0.15000 -0.22500
v 0.95000 -0.15000 -0.22500
v 0.95000 -0.25000 -0.22500
v 1.05000 -0.25000 -0.22500
v 1.05000 -0.15000 -0.22500
v 1.05000 -0.15000 -0.12500
v 1.05000 -0.25000 -0.12500
v 0.95000 -0.15000 -0.22500
v 0.95000 -0.25000 -0.22500
v 0.95000 -0.25000 -0.12500
v 0.95000 -0.15000 -0.12500
v 0.95000 0.25000 -0.22500
v 0.95000 0.35000 -0.22500
v 0.85000 0.35000 -0.22500
v 0.85000 0.25000 -0.22500
v 0.85000 0.35000 -0.22500
v 0.95000 0.35000 -0.22500
v 0.95000 0.35000 -0.12500
v 0.85000 0.35000 -0.12500
v 0.95000 0.25000 -0.22500
v 0.85000 0.25000 -0.22500
v 0.85000 0.25000 -0.12500
v 0.95000 0.25000 -0.12500
v 0.95000 -0.35000 -0.22500
v 0.95000 -0.25000 -0.22500
v 0.85000 -0.25000 -0.22500
v 0.85000 -0.35000 -0.22500
v 0.85000 -0.25000 -0.22500
v 0.95000 -0.25000 -0.22500
v 0.95000 -0.25000 -0.12500
v 0.85000 -0.25000 -0.12500
v 0.95000 -0.35000 -0.22500
v 0.85000 -0.35000 -0.22500
v 0.85000 -0.35000 -0.12500
v 0.95000 -0.35000 -0.12500
v -0.25000 0.05000 -0.22500
v -0.25000 0.15000 -0.22500
v -0.35000 0.15000 -0.22500
v -0.35000 0.05000 -0.22500
v -0.25000 0.05000 -0.22500
v -0.25000 0.15000 -0.22500
v -0.25000 0.15000 -0.12500
v -0.25000 0.05000 -0.12500
v -0.35000 0.15000 -0.22500
v -0.35000 0.05000 -0.22500
v -0.35000 0.05000 -0.12500
v -0.35000 0.15000 -0.12500
v 0.95000 -0.05000 -0.22500
v 0.95000 0.05000 -0.22500
v 0.85000 0.05000 -0.22500
v 0.85000 -0.05000 -0.22500
v 0.85000 0.05000 -0.22500
v 0.95000 0.05000 -0.22500
v 0.95000 0.05000 -0.12500
v 0.85000 0.05000 -0.12500
v 0.95000 -0.05000 -0.22500
v 0.85000 -0.05000 -0.22500
v 0.85000 -0.05000 -0.12500
v 0.95000 -0.05000 -0.12500
v -0.25000 -0.25000 -0.22500
v -0.25000 -0.15000 -0.22500
v -0.35000 -0.15000 -0.22500
v -0.35000 -0.25000 -0.22500
v -0.25000 -0.25000 -0.22500
v -0.25000 -0.15000 -0.22500
v -0.25000 -0.15000 -0.12500
v -0.25000 -0.25000 -0.12500
v -0.35000 -0.15000 -0.22500
v -0.35000 -0.25000 -0.22500
v -0.35000 -0.25000 -0.12500
v -0.35000 -0.15000 -0.12500
v 0.35000 -0.15000 -0.22500
v 0.35000 -0.05000 -0.22500
v 0.25000 -0.05000 -0.22500
v 0.25000 -0.15000 -0.22500
v 0.35000 -0.15000 -0.22500
v 0.35000 -0.05000 -0.22500
v 0.35000 -0.05000 -0.12500
v 0.35000 -0.15000 -0.12500
v 0.25000 -0.05000 -0.22500
v 0.25000 -0.15000 -0.22500
v 0.25000 -0.15000 -0.12500
v 0.25000 -0.05000 -0.12500
v 0.25000 -0.05000 -0.22500
v 0.35000 -0.05000 -0.22500
v 0.35000 -0.05000 -0.12500
v 0.25000 -0.05000 -0.12500
v 0.35000 -0.15000 -0.22500
v 0.25000 -0.15000 -0.22500
v 0.25000 -0.15000 -0.12500
v 0.35000 -0.15000 -0.12500
v -0.75000 -0.15000 -0.22500
v -0.75000 -0.05000 -0.22500
v -0.85000 -0.05000 -0.22500
v -0.85000 -0.15000 -0.22500
v -0.75000 -0.15000 -0.22500
v -0.75000 -0.05000 -0.22500
v -0.75000 -0.05000 -0.12500
v -0.75000 -0.15000 -0.12500
v -0.85000 -0.05000 -0.22500
v -0.85000 -0.15000 -0.22500
v -0.85000 -0.15000 -0.12500
v -0.85000 -0.05000 -0.12500
v -0.75000 0.15000 -0.22500
v -0.75000 0.25000 -0.22500
v -0.85000 0.25000 -0.22500
v -0.85000 0.15000 -0.22500
v -0.75000 0.15000 -0.22500
v -0.75000 0.25000 -0.22500
v -0.75000 0.25000 -0.12500
v -0.75000 0.15000 -0.12500
v -0.85000 0.25000 -0.22500
v -0.85000 0.15000 -0.22500
v -0.85000 0.15000 -0.12500
v -0.85000 0.25000 -0.12500
v 0.45000 -0.25000 -0.22500
v 0.45000 -0.15000 -0.22500
v 0.35000 -0.15000 -0.22500
v 0.35000 -0.25000 -0.22500
v 0.45000 -0.25000 -0.22500
v 0.45000 -0.15000 -0.22500
v 0.45000 -0.15000 -0.12500
v 0.45000 -0.25000 -0.12500
v 0.35000 -0.15000 -0.22500
v 0.35000 -0.25000 -0.22500
v 0.35000 -0.25000 -0.12500
v 0.35000 -0.15000 -0.12500
v 0.35000 -0.15000 -0.22500
v 0.45000 -0.15000 -0.22500
v 0.45000 -0.15000 -0.12500
v 0.35000 -0.15000 -0.12500
v -0.15000 0.25000 -0.22500
v -0.15000 0.35000 -0.22500
v -0.25000 0.35000 -0.22500
v -0.25000 0.25000 -0.22500
v -0.15000 0.25000 -0.22500
v -0.15000 0.35000 -0.22500
v -0.15000 0.35000 -0.12500
v -0.15000 0.25000 -0.12500
v -0.25000 0.35000 -0.22500
v -0.15000 0.35000 -0.22500
v -0.15000 0.35000 -0.12500
v -0.25000 0.35000 -0.12500
v -0.15000 0.25000 -0.22500
v -0.25000 0.25000 -0.22500
v -0.25000 0.25000 -0.12500
v -0.15000 0.25000 -0.12500
v 0.75000 0.25000 -0.22500
v 0.75000 0.35000 -0.22500
v 0.65000 0.35000 -0.22500
v 0.65000 0.25000 -0.22500
v 0.65000 0.35000 -0.22500
v 0.75000 0.35000 -0.22500
v 0.75000 0.35000 -0.12500
v 0.65000 0.35000 -0.12500
v 0.75000 0.25000 -0.22500
v 0.65000 0.25000 -0.22500
v 0.65000 0.25000 -0.12500
v 0.75000 0.25000 -0.12500
v -0.35000 0.25000 -0.22500
v -0.35000 0.35000 -0.22500
v -0.45000 0.35000 -0.22500
v -0.45000 0.25000 -0.22500
v -0.45000 0.35000 -0.22500
v -0.45000 0.25000 -0.22500
v -0.45000 0.25000 -0.12500
v -0.45000 0.35000 -0.12500
v -0.45000 0.35000 -0.22500
v -0.35000 0.35000 -0.22500
v -0.35000 0.35000 -0.12500
v -0.45000 0.35000 -0.12500
v -0.35000 0.25000 -0.22500
v -0.45000 0.25000 -0.22500
v -0.45000 0.25000 -0.12500
v -0.35000 0.25000 -0.12500
v -0.35000 -0.35000 -0.22500
v -0.35000 -0.25000 -0.22500
v -0.45000 -0.25000 -0.22500
v -0.45000 -0.35000 -0.22500
v -0.45000 -0.25000 -0.22500
v -0.45000 -0.35000 -0.22500
v -0.45000 -0.35000 -0.12500
v -0.45000 -0.25000 -0.12500
v -0.45000 -0.25000 -0.22500
v -0.35000 -0.25000 -0.22500
v -0.35000 -0.25000 -0.12500
v -0.45000 -0.25000 -0.12500
v -0.35000 -0.35000 -0.22500
v -0.45000 -0.35000 -0.22500
v -0.45000 -0.35000 -0.12500
v -0.35000 -0.35000 -0.12500
v -0.15000 -0.35000 -0.22500
v -0.15000 -0.25000 -0.22500
v -0.25000 -0.25000 -0.22500
v -0.25000 -0.35000 -0.22500
v -0.15000 -0.35000 -0.22500
v -0.15000 -0.25000 -0.22500
v -0.15000 -0.25000 -0.12500
v -0.15000 -0.35000 -0.12500
v -0.25000 -0.25000 -0.22500
v -0.15000 -0.25000 -0.22500
v -0.15000 -0.25000 -0.12500
v -0.25000 -0.25000 -0.12500
v -0.15000 -0.35000 -0.22500
v -0.25000 -0.35000 -0.22500
v -0.25000 -0.35000 -0.12500
v -0.15000 -0.35000 -0.12500
v 0.75000 -0.05000 -0.22500
v 0.75000 0.05000 -0.22500
v 0.65000 0.05000 -0.22500
v 0.65000 -0.05000 -0.22500
v 0.65000 0.05000 -0.22500
v 0.65000 -0.05000 -0.22500
v 0.65000 -0.05000 -0.12500
v 0.65000 0.05000 -0.12500
v 0.65000 0.05000 -0.22500
v 0.75000 0.05000 -0.22500
v 0.75000 0.05000 -0.12500
v 0.65000 0.05000 -0.12500
v 0.75000 -0.05000 -0.22500
v 0.65000 -0.05000 -0.22500
v 0.65000 -0.05000 -0.12500
v 0.75000 -0.05000 -0.12500
v 0.75000 -0.35000 -0.22500
v 0.75000 -0.25000 -0.22500
v 0.65000 -0.25000 -0.22500
v 0.65000 -0.35000 -0.22500
v 0.65000 -0.25000 -0.22500
v 0.75000 -0.25000 -0.22500
v 0.75000 -0.25000 -0.12500
v 0.65000 -0.25000 -0.12500
v 0.75000 -0.35000 -0.22500
v 0.65000 -0.35000 -0.22500
v 0.65000 -0.35000 -0.12500
v 0.75000 -0.35000 -0.12500
v 0.15000 -0.15000 -0.22500
v 0.15000 -0.05000 -0.22500
v 0.05000 -0.05000 -0.22500
v 0.05000 -0.15000 -0.22500
v 0.15000 -0.15000 -0.22500
v 0.15000 -0.05000 -0.22500
v 0.15000 -0.05000 -0.12500
v 0.15000 -0.15000 -0.12500
v 0.05000 -0.05000 -0.22500
v 0.05000 -0.15000 -0.22500
v 0.05000 -0.15000 -0.12500
v 0.05000 -0.05000 -0.12500
v 0.05000 -0.05000 -0.22500
v 0.15000 -0.05000 -0.22500
v 0.15000 -0.05000 -0.12500
v 0.05000 -0.05000 -0.12500
v 0.15000 -0.15000 -0.22500
v 0.05000 -0.15000 -0.22500
v 0.05000 -0.15000 -0.12500
v 0.15000 -0.15000 -0.12500
v 1.05000 0.15000 -0.22500
v 1.05000 0.25000 -0.22500
v 0.95000 0.25000 -0.22500
v 0.95000 0.15000 -0.22500
v 1.05000 0.15000 -0.22500
v 1.05000 0.25000 -0.22500
v 1.05000 0.25000 -0.12500
v 1.05000 0.15000 -0.12500
v 0.95000 0.25000 -0.22500
v 0.95000 0.15000 -0.22500
v 0.95000 0.15000 -0.12500
v 0.95000 0.25000 -0.12500
v 0.05000 -0.25000 -0.22500
v 0.05000 -0.15000 -0.22500
v -0.05000 -0.15000 -0.22500
v -0.05000 -0.25000 -0.22500
v 0.05000 -0.25000 -0.22500
v 0.05000 -0.15000 -0.22500
v 0.05000 -0.15000 -0.12500
v 0.05000 -0.25000 -0.12500
v -0.05000 -0.15000 -0.22500
v -0.05000 -0.25000 -0.22500
v -0.05000 -0.25000 -0.12500
v -0.05000 -0.15000 -0.12500
v -0.05000 -0.15000 -0.22500
v 0.05000 -0.15000 -0.22500
v 0.05000 -0.15000 -0.12500
v -0.05000 -0.15000 -0.12500
v -0.25000 -0.15000 -0.22500
v -0.25000 -0.05000 -0.22500
v -0.35000 -0.05000 -0.22500
v -0.35000 -0.15000 -0.22500
v -0.25000 -0.15000 -0.22500
v -0.25000 -0.05000 -0.22500
v -0.25000 -0.05000 -0.12500
v -0.25000 -0.15000 -0.12500
v -0.35000 -0.05000 -0.22500
v -0.35000 -0.15000 -0.22500
v -0.35000 -0.15000 -0.12500
v -0.35000 -0.05000 -0.12500
v 1.05000 -0.15000 -0.22500
v 1.05000 -0.05000 -0.22500
v 0.95000 -0.05000 -0.22500
v 0.95000 -0.15000 -0.22500
v 1.05000 -0.15000 -0.22500
v 1.05000 -0.05000 -0.22500
v 1.05000 -0.05000 -0.12500
v 1.05000 -0.15000 -0.12500
v 0.95000 -0.05000 -0.22500
v 0.95000 -0.15000 -0.22500
v 0.95000 -0.15000 -0.12500
v 0.95000 -0.05000 -0.12500
v -0.25000 0.15000 -0.22500
v -0.25000 0.25000 -0.22500
v -0.35000 0.25000 -0.22500
v -0.35000 0.15000 -0.22500
v -0.25000 0.15000 -0.22500
v -0.25000 0.25000 -0.22500
v -0.25000 0.25000 -0.12500
v -0.25000 0.15000 -0.12500
v -0.35000 0.25000 -0.22500
v -0.35000 0.15000 -0.22500
v -0.35000 0.15000 -0.12500
v -0.35000 0.25000 -0.12500
v -0.55000 0.25000 -0.22500
v -0.55000 0.35000 -0.22500
v -0.65000 0.35000 -0.22500
v -0.65000 0.25000 -0.22500
v -0.55000 0.25000 -0.22500
v -0.55000 0.35000 -0.22500
v -0.55000 0.35000 -0.12500
v -0.55000 0.25000 -0.12500
v -0.65000 0.35000 -0.22500
v -0.55000 0.35000 -0.22500
v -0.55000 0.35000 -0.12500
v -0.65000 0.35000 -0.12500
v -0.55000 0.25000 -0.22500
v -0.65000 0.25000 -0.22500
v -0.65000 0.25000 -0.12500
v -0.55000 0.25000 -0.12500
v 0.45000 0.15000 -0.22500
v 0.45000 0.25000 -0.22500
v 0.35000 0.25000 -0.22500
v 0.35000 0.15000 -0.22500
v 0.45000 0.15000 -0.22500
v 0.45000 0.25000 -0.22500
v 0.45000 0.25000 -0.12500
v 0.45000 0.15000 -0.12500
v 0.35000 0.25000 -0.22500
v 0.35000 0.15000 -0.22500
v 0.35000 0.15000 -0.12500
v 0.35000 0.25000 -0.12500
v 0.45000 0.15000 -0.22500
v 0.35000 0.15000 -0.22500
v 0.35000 0.15000 -0.12500
v 0.45000 0.15000 -0.12500
v -0.75000 0.25000 -0.22500
v -0.75000 0.35000 -0.22500
v -0.85000 0.35000 -0.22500
v -0.85000 0.25000 -0.22500
v -0.85000 0.35000 -0.22500
v -0.75000 0.35000 -0.22500
v -0.75000 0.35000 -0.12500
v -0.85000 0.35000 -0.12500
v -0.75000 -0.05000 -0.22500
v -0.75000 0.05000 -0.22500
v -0.85000 0.05000 -0.22500
v -0.85000 -0.05000 -0.22500
v -0.75000 -0.05000 -0.22500
v -0.75000 0.05000 -0.22500
v -0.75000 0.05000 -0.12500
v -0.75000 -0.05000 -0.12500
v -0.85000 0.05000 -0.22500
v -0.85000 -0.05000 -0.22500
v -0.85000 -0.05000 -0.12500
v -0.85000 0.05000 -0.12500
v -0.95000 0.25000 -0.22500
v -0.95000 0.35000 -0.22500
v -1.05000 0.35000 -0.22500
v -1.05000 0.25000 -0.22500
v -1.05000 0.35000 -0.22500
v -1.05000 0.25000 -0.22500
v -1.05000 0.25000 -0.12500
v -1.05000 0.35000 -0.12500
v -1.05000 0.35000 -0.22500
v -0.95000 0.35000 -0.22500
v -0.95000 0.35000 -0.12500
v -1.05000 0.35000 -0.12500
v -0.95000 0.25000 -0.22500
v -1.05000 0.25000 -0.22500
v -1.05000 0.25000 -0.12500
v -0.95000 0.25000 -0.12500
v -0.75000 -0.35000 -0.22500
v -0.75000 -0.25000 -0.22500
v -0.85000 -0.25000 -0.22500
v -0.85000 -0.35000 -0.22500
v -0.75000 -0.35000 -0.22500
v -0.75000 -0.25000 -0.22500
v -0.75000 -0.25000 -0.12500
v -0.75000 -0.35000 -0.12500
v -0.85000 -0.25000 -0.22500
v -0.85000 -0.35000 -0.22500
v -0.85000 -0.35000 -0.12500
v -0.85000 -0.25000 -0.12500
v -0.75000 -0.35000 -0.22500
v -0.85000 -0.35000 -0.22500
v -0.85000 -0.35000 -0.12500
v -0.75000 -0.35000 -0.12500
v 1.05000 0.25000 -0.22500
v 1.05000 0.35000 -0.22500
v 0.95000 0.35000 -0.22500
v 0.95000 0.25000 -0.22500
v 1.05000 0.25000 -0.22500
v 1.05000 0.35000 -0.22500
v 1.05000 0.35000 -0.12500
v 1.05000 0.25000 -0.12500
v 0.95000 0.35000 -0.22500
v 1.05000 0.35000 -0.22500
v 1.05000 0.35000 -0.12500
v 0.95000 0.35000 -0.12500
v 1.05000 -0.05000 -0.22500
v 1.05000 0.05000 -0.22500
v 0.95000 0.05000 -0.22500
v 0.95000 -0.05000 -0.22500
v 1.05000 -0.05000 -0.22500
v 1.05000 0.05000 -0.22500
v 1.05000 0.05000 -0.12500
v 1.05000 -0.05000 -0.12500
v 0.85000 0.25000 -0.22500
v 0.85000 0.35000 -0.22500
v 0.75000 0.35000 -0.22500
v 0.75000 0.25000 -0.22500
v 0.75000 0.35000 -0.22500
v 0.85000 0.35000 -0.22500
v 0.85000 0.35000 -0.12500
v 0.75000 0.35000 -0.12500
v 0.85000 0.25000 -0.22500
v 0.75000 0.25000 -0.22500
v 0.75000 0.25000 -0.12500
v 0.85000 0.25000 -0.12500
v 0.05000 0.15000 -0.22500
v 0.05000 0.25000 -0.22500
v -0.05000 0.25000 -0.22500
v -0.05000 0.15000 -0.22500
v 0.05000 0.15000 -0.22500
v 0.05000 0.25000 -0.22500
v 0.05000 0.25000 -0.12500
v 0.05000 0.15000 -0.12500
v -0.05000 0.25000 -0.22500
v -0.05000 0.15000 -0.22500
v -0.05000 0.15000 -0.12500
v -0.05000 0.25000 -0.12500
v 0.05000 0.15000 -0.22500
v -0.05000 0.15000 -0.22500
v -0.05000 0.15000 -0.12500
v 0.05000 0.15000 -0.12500
v -0.25000 0.25000 -0.22500
v -0.25000 0.35000 -0.22500
v -0.35000 0.35000 -0.22500
v -0.35000 0.25000 -0.22500
v -0.35000 0.35000 -0.22500
v -0.25000 0.35000 -0.22500
v -0.25000 0.35000 -0.12500
v -0.35000 0.35000 -0.12500
v 1.05000 -0.35000 -0.22500
v 1.05000 -0.25000 -0.22500
v 0.95000 -0.25000 -0.22500
v 0.95000 -0.35000 -0.22500
v 1.05000 -0.35000 -0.22500
v 1.05000 -0.25000 -0.22500
v 1.05000 -0.25000 -0.12500
v 1.05000 -0.35000 -0.12500
v 1.05000 -0.35000 -0.22500
v 0.95000 -0.35000 -0.22500
v 0.95000 -0.35000 -0.12500
v 1.05000 -0.35000 -0.12500
v 0.85000 -0.05000 -0.22500
v 0.85000 0.05000 -0.22500
v 0.75000 0.05000 -0.22500
v 0.75000 -0.05000 -0.22500
v 0.75000 0.05000 -0.22500
v 0.85000 0.05000 -0.22500
v 0.85000 0.05000 -0.12500
v 0.75000 0.05000 -0.12500
v 0.85000 -0.05000 -0.22500
v 0.75000 -0.05000 -0.22500
v 0.75000 -0.05000 -0.12500
v 0.85000 -0.05000 -0.12500
v -0.25000 -0.05000 -0.22500
v -0.25000 0.05000 -0.22500
v -0.35000 0.05000 -0.22500
v -0.35000 -0.05000 -0.22500
v -0.25000 -0.05000 -0.22500
v -0.25000 0.05000 -0.22500
v -0.25000 0.05000 -0.12500
v -0.25000 -0.05000 -0.12500
v -0.35000 0.05000 -0.22500
v -0.35000 -0.05000 -0.22500
v -0.35000 -0.05000 -0.12500
v -0.35000 0.05000 -0.12500
v 0.85000 -0.35000 -0.22500
v 0.85000 -0.25000 -0.22500
v 0.75000 -0.25000 -0.22500
v 0.75000 -0.35000 -0.22500
v 0.75000 -0.25000 -0.22500
v 0.85000 -0.25000 -0.22500
v 0.85000 -0.25000 -0.12500
v 0.75000 -0.25000 -0.12500
v 0.85000 -0.35000 -0.22500
v 0.75000 -0.35000 -0.22500
v 0.75000 -0.35000 -0.12500
v 0.85000 -0.35000 -0.12500
v -0.25000 -0.35000 -0.22500
v -0.25000 -0.25000 -0.22500
v -0.35000 -0.25000 -0.22500
v -0.35000 -0.35000 -0.22500
v -0.25000 -0.35000 -0.22500
v -0.35000 -0.35000 -0.22500
v -0.35000 -0.35000 -0.12500
v -0.25000 -0.35000 -0.12500
v 0.35000 0.05000 -0.22500
v 0.35000 0.15000 -0.22500
v 0.25000 0.15000 -0.22500
v 0.25000 0.05000 -0.22500
v 0.35000 0.05000 -0.22500
v 0.35000 0.15000 -0.22500
v 0.35000 0.15000 -0.12500
v 0.35000 0.05000 -0.12500
v 0.25000 0.15000 -0.22500
v 0.25000 0.05000 -0.22500
v 0.25000 0.05000 -0.12500
v 0.25000 0.15000 -0.12500
v 0.25000 0.15000 -0.22500
v 0.35000 0.15000 -0.22500
v 0.35000 0.15000 -0.12500
v 0.25000 0.15000 -0.12500
v 0.35000 0.05000 -0.22500
v 0.25000 0.05000 -0.22500
v 0.25000 0.05000 -0.12500
v 0.35000 0.05000 -0.12500
v 0.45000 0.25000 -0.22500
v 0.45000 0.35000 -0.22500
v 0.35000 0.35000 -0.22500
v 0.35000 0.25000 -0.22500
v 0.45000 0.25000 -0.22500
v 0.45000 0.35000 -0.22500
v 0.45000 0.35000 -0.12500
v 0.45000 0.25000 -0.12500
v 0.35000 0.35000 -0.22500
v 0.35000 0.25000 -0.22500
v 0.35000 0.25000 -0.12500
v 0.35000 0.35000 -0.12500
v 0.35000 0.35000 -0.22500
v 0.45000 0.35000 -0.22500
v 0.45000 0.35000 -0.12500
v 0.35000 0.35000 -0.12500
v 0.45000 -0.35000 -0.22500
v 0.45000 -0.25000 -0.22500
v 0.35000 -0.25000 -0.22500
v 0.35000 -0.35000 -0.22500
v 0.45000 -0.35000 -0.22500
v 0.45000 -0.25000 -0.22500
v 0.45000 -0.25000 -0.12500
v 0.45000 -0.35000 -0.12500
v 0.35000 -0.25000 -0.22500
v 0.35000 -0.35000 -0.22500
v 0.35000 -0.35000 -0.12500
v 0.35000 -0.25000 -0.12500
v 0.45000 -0.35000 -0.22500
v 0.35000 -0.35000 -0.22500
v 0.35000 -0.35000 -0.12500
v 0.45000 -0.35000 -0.12500
v -0.75000 0.05000 -0.22500
v -0.75000 0.15000 -0.22500
v -0.85000 0.15000 -0.22500
v -0.85000 0.05000 -0.22500
v -0.75000 0.05000 -0.22500
v -0.75000 0.15000 -0.22500
v -0.75000 0.15000 -0.12500
v -0.75000 0.05000 -0.12500
v -0.85000 0.15000 -0.22500
v -0.85000 0.05000 -0.22500
v -0.85000 0.05000 -0.12500
v -0.85000 0.15000 -0.12500
v -0.75000 -0.25000 -0.22500
v -0.75000 -0.15000 -0.22500
v -0.85000 -0.15000 -0.22500
v -0.85000 -0.25000 -0.22500
v -0.75000 -0.25000 -0.22500
v -0.75000 -0.15000 -0.22500
v -0.75000 -0.15000 -0.12500
v -0.75000 -0.25000 -0.12500
v -0.85000 -0.15000 -0.22500
v -0.85000 -0.25000 -0.22500
v -0.85000 -0.25000 -0.12500
v -0.85000 -0.15000 -0.12500
vn -0.00000 0.00000 -1.00000
vn -0.00000 0.00000 -1.00000
vn -0.00000 0.00000 -1.00000
vn -0.00000 0.00000 -1.00000
vn -0.00000 0.00000 -1.00000
vn -0.00000 0.00000 -1.00000
vn -0.00000 0.00000 -1.00000
vn -0.00000 0.00000 -1.00000
vn -0.00000 0.00000 -1.00000
vn -0.00000 0.00000 -1.00000
vn -0.00000 0.00000 -1.00000
vn -0.00000 0.00000 -1.00000
vn -0.00000 0.00000 -1.00000
vn -0.00000 0.00000 -1.00000
vn -0.00000 0.00000 -1.00000
vn -0.00000 0.00000 -1.00000
vn -0.00000 0.00000 -1.00000
vn -0.00000 0.00000 -1.00000
vn -0.00000 0.00000 -1.00000
vn -0.00000 0.00000 -1.00000
vn -0.00000 0.00000 -1.00000
vn -0.00000 0.00000 -1.00000
vn -0.00000 0.00000 -1.00000
vn -0.00000 0.00000 -1.00000
vn -0.00000 0.00000 -1.00000
vn -0.00000 0.00000 -1.00000
vn -0.00000 0.00000 -1.00000
vn -0.00000 0.00000 -1.00000
vn -0.00000 0.00000 -1.00000
vn -0.00000 0.00000 1.00000
vn -0.00000 0.00000 1.00000
vn -0.00000 0.00000 1.00000
vn -0.00000 0.00000 1.00000
vn -0.00000 0.00000 1.00000
vn -0.00000 0.00000 1.00000
vn -0.00000 0.00000 1.00000
vn -0.00000 0.00000 1.00000
vn -0.00000 0.00000 1.00000
vn -0.00000 0.00000 1.00000
vn -0.00000 0.00000 1.00000
vn -0.00000 0.00000 1.00000
vn -0.00000 0.00000 1.00000
vn -0.00000 0.00000 1.00000
vn -0.00000 0.00000 1.00000
vn -0.00000 0.00000 1.00000
vn -0.00000 0.00000 1.00000
vn -0.00000 0.00000 1.00000
vn -0.00000 0.00000 1.00000
vn -0.00000 0.00000 1.00000
vn -0.00000 0.00000 1.00000
vn -0.00000 0.00000 1.00000
vn -0.00000 0.00000 1.00000
vn -0.00000 0.00000 1.00000
vn -0.00000 0.00000 1.00000
vn -0.00000 0.00000 1.00000
vn -0.00000 0.00000 1.00000
vn -0.00000 0.00000 1.00000
vn -0.00000 0.00000 1.00000
vn -1.00000 0.00000 0.00000
vn -0.96593 0.25882 0.00000
vn -0.96593 0.25882 0.00000
vn -1.00000 0.00000 0.00000
vn -0.96593 0.25882 0.00000
vn -0.86603 0.50000 0.00000
vn -0.86603 0.50000 0.00000
vn -0.96593 0.25882 0.00000
vn -0.86603 0.50000 0.00000
vn -0.70711 0.70711 0.00000
vn -0.70711 0.70711 0.00000
vn -0.86603 0.50000 0.00000
vn -0.70711 0.70711 0.00000
vn -0.50000 0.86603 0.00000
vn -0.50000 0.86603 0.00000
vn -0.70711 0.70711 0.00000
vn -0.50000 0.86603 0.00000
vn -0.25882 0.96593 0.00000
vn -0.25882 0.96593 0.00000
vn -0.50000 0.86603 0.00000
vn -0.25882 0.96593 0.00000
vn -0.00000 1.00000 0.00000
vn -0.00000 1.00000 0.00000
vn -0.25882 0.96593 0.00000
vn -0.00000 1.00000 0.00000
vn -0.00000 1.00000 0.00000
vn -0.00000 1.00000 0.00000
vn -0.00000 1.00000 0.00000
vn -0.00000 1.00000 0.00000
vn 0.25882 0.96593 0.00000
vn 0.25882 0.96593 0.00000
vn -0.00000 1.00000 0.00000
vn 0.25882 0.96593 0.00000
vn 0.50000 0.86603 0.00000
vn 0.50000 0.86603 0.00000
vn 0.25882 0.96593 0.00000
vn 0.50000 0.86603 0.00000
vn 0.70711 0.70711 0.00000
vn 0.70711 0.70711 0.00000
vn 0.50000 0.86603 0.00000
vn 0.70711 0.70711 0.00000
vn 0.86603 0.50000 0.00000
vn 0.86603 0.50000 0.00000
vn 0.70711 0.70711 0.00000
vn 0.86603 0.50000 0.00000
vn 0.96593 0.25882 0.00000
vn 0.96593 0.25882 0.00000
vn 0.86603 0.50000 0.00000
vn 0.96593 0.25882 0.00000
vn 1.00000 0.00000 0.00000
vn 1.00000 0.00000 0.00000
vn 0.96593 0.25882 0.00000
vn 1.00000 0.00000 0.00000
vn 1.00000 0.00000 0.00000
vn 1.00000 0.00000 0.00000
vn 1.00000 0.00000 0.00000
vn 1.00000 0.00000 0.00000
vn 0.96593 -0.25882 0.00000
vn 0.96593 -0.25882 0.00000
vn 1.00000 0.00000 0.00000
vn 0.96593 -0.25882 0.00000
vn 0.86603 -0.50000 0.00000
vn 0.86603 -0.50000 0.00000
vn 0.96593 -0.25882 0.00000
vn 0.86603 -0.50000 0.00000
vn 0.70711 -0.70711 0.00000
vn 0.70711 -0.70711 0.00000
vn 0.86603 -0.50000 0.00000
vn 0.70711 -0.70711 0.00000
vn 0.50000 -0.86603 0.00000
vn 0.50000 -0.86603 0.00000
vn 0.70711 -0.70711 0.00000
vn 0.50000 -0.86603 0.00000
vn 0.25882 -0.96593 0.00000
vn 0.25882 -0.96593 0.00000
vn 0.50000 -0.86603 0.00000
vn 0.25882 -0.96593 0.00000
vn 0.00000 -1.00000 0.00000
vn 0.00000 -1.00000 0.00000
vn 0.25882 -0.96593 0.00000
vn 0.00000 -1.00000 0.00000
vn 0.00000 -1.00000 0.00000
vn 0.00000 -1.00000 0.00000
vn 0.00000 -1.00000 0.00000
vn 0.00000 -1.00000 0.00000
vn -0.25882 -0.96593 0.00000
vn -0.25882 -0.96593 0.00000
vn 0.00000 -1.00000 0.00000
vn -0.25882 -0.96593 0.00000
vn -0.50000 -0.86603 0.00000
vn -0.50000 -0.86603 0.00000
vn -0.25882 -0.96593 0.00000
vn -0.50000 -0.86603 0.00000
vn -0.70711 -0.70711 0.00000
vn -0.70711 -0.70711 0.00000
vn -0.50000 -0.86603 0.00000
vn -0.70711 -0.70711 0.00000
vn -0.86603 -0.50000 0.00000
vn -0.86603 -0.50000 0.00000
vn -0.70711 -0.70711 0.00000
vn -0.86603 -0.50000 0.00000
vn -0.96593 -0.25882 0.00000
vn -0.96593 -0.25882 0.00000
vn -0.86603 -0.50000 0.00000
vn -0.96593 -0.25882 0.00000
vn -1.00000 -0.00000 0.00000
vn -1.00000 -0.00000 0.00000
vn -0.96593 -0.25882 0.00000
vn -1.00000 -0.00000 0.00000
vn -1.00000 0.00000 0.00000
vn -1.00000 0.00000 0.00000
vn -1.00000 -0.00000 0.00000
vn -0.00000 0.00000 -1.00000
vn -0.00000 0.00000 -1.00000
vn -0.00000 0.00000 -1.00000
vn -0.00000 0.00000 -1.00000
vn -1.00000 0.00000 0.00000
vn -1.00000 0.00000 0.00000
vn -1.00000 0.00000 0.00000
vn -1.00000 0.00000 0.00000
vn -0.00000 1.00000 0.00000
vn -0.00000 1.00000 0.00000
vn -0.00000 1.00000 0.00000
vn -0.00000 1.00000 0.00000
vn -0.00000 -1.00000 0.00000
vn -0.00000 -1.00000 0.00000
vn -0.00000 -1.00000 0.00000
vn -0.00000 -1.00000 0.00000
vn -0.00000 0.00000 -1.00000
vn -0.00000 0.00000 -1.00000
vn -0.00000 0.00000 -1.00000
vn -0.00000 0.00000 -1.00000
vn -0.00000 1.00000 0.00000
vn -0.00000 1.00000 0.00000
vn -0.00000 1.00000 0.00000
vn -0.00000 1.00000 0.00000
vn -0.00000 -1.00000 0.00000
vn -0.00000 -1.00000 0.00000
vn -0.00000 -1.00000 0.00000
vn -0.00000 -1.00000 0.00000
vn -0.00000 0.00000 -1.00000
vn -0.00000 0.00000 -1.00000
vn -0.00000 0.00000 -1.00000
vn -0.00000 0.00000 -1.00000
vn -1.00000 0.00000 0.00000
vn -1.00000 0.00000 0.00000
vn -1.00000 0.00000 0.00000
vn -1.00000 0.00000 0.00000
vn -0.00000 1.00000 0.00000
vn -0.00000 1.00000 0.00000
vn -0.00000 1.00000 0.00000
vn -0.00000 1.00000 0.00000
vn -0.00000 -1.00000 0.00000
vn -0.00000 -1.00000 0.00000
vn -0.00000 -1.00000 0.00000
vn -0.00000 -1.00000 0.00000
vn -0.00000 0.00000 -1.00000
vn -0.00000 0.00000 -1.00000
vn -0.00000 0.00000 -1.00000
vn -0.00000 0.00000 -1.00000
vn 1.00000 0.00000 0.00000
vn 1.00000 0.00000 0.00000
vn 1.00000 0.00000 0.00000
vn 1.00000 0.00000 0.00000
vn -1.00000 0.00000 0.00000
vn -1.00000 0.00000 0.00000
vn -1.00000 0.00000 0.00000
vn -1.00000 0.00000 0.00000
vn -0.00000 1.00000 0.00000
vn -0.00000 1.00000 0.00000
vn -0.00000 1.00000 0.00000
vn -0.00000 1.00000 0.00000
vn -0.00000 -1.00000 0.00000
vn -0.00000 -1.00000 0.00000
vn -0.00000 -1.00000 0.00000
vn -0.00000 -1.00000 0.00000
vn -0.00000 0.00000 -1.00000
vn -0.00000 0.00000 -1.00000
vn -0.00000 0.00000 -1.00000
vn -0.00000 0.00000 -1.00000
vn -0.00000 1.00000 0.00000
vn -0.00000 1.00000 0.00000
vn -0.00000 1.00000 0.00000
vn -0.00000 1.00000 0.00000
vn -0.00000 -1.00000 0.00000
vn -0.00000 -1.00000 0.00000
vn -0.00000 -1.00000 0.00000
vn -0.00000 -1.00000 0.00000
vn -0.00000 0.00000 -1.00000
vn -0.00000 0.00000 -1.00000
vn -0.00000 0.00000 -1.00000
vn -0.00000 0.00000 -1.00000
vn 1.00000 0.00000 0.00000
vn 1.00000 0.00000 0.00000
vn 1.00000 0.00000 0.00000
vn 1.00000 0.00000 0.00000
vn -1.00000 0.00000 0.00000
vn -1.00000 0.00000 0.00000
vn -1.00000 0.00000 0.00000
vn -1.00000 0.00000 0.00000
vn -0.00000 0.00000 -1.00000
vn -0.00000 0.00000 -1.00000
vn -0.00000 0.00000 -1.00000
vn -0.00000 0.00000 -1.00000
vn 1.00000 0.00000 0.00000
vn 1.00000 0.00000 0.00000
vn 1.00000 0.00000 0.00000
vn 1.00000 0.00000 0.00000
vn -1.00000 0.00000 0.00000
vn -1.00000 0.00000 0.00000
vn -1.00000 0.00000 0.00000
vn -1.00000 0.00000 0.00000
vn -0.00000 1.00000 0.00000
vn -0.00000 1.00000 0.00000
vn -0.00000 1.00000 0.00000
vn -0.00000 1.00000 0.00000
vn -0.00000 -1.00000 0.00000
vn -0.00000 -1.00000 0.00000
vn -0.00000 -1.00000 0.00000
vn -0.00000 -1.00000 0.00000
vn -0.00000 0.00000 -1.00000
vn -0.00000 0.00000 -1.00000
vn -0.00000 0.00000 -1.00000
vn -0.00000 0.00000 -1.00000
vn 1.00000 0.00000 0.00000
vn 1.00000 0.00000 0.00000
vn 1.00000 0.00000 0.00000
vn 1.00000 0.00000 0.00000
vn -1.00000 0.00000 0.00000
vn -1.00000 0.00000 0.00000
vn -1.00000 0.00000 0.00000
vn -1.00000 0.00000 0.00000
vn -0.00000 1.00000 0.00000
vn -0.00000 1.00000 0.00000
vn -0.00000 1.00000 0.00000
vn -0.00000 1.00000 0.00000
vn -0.00000 0.00000 -1.00000
vn -0.00000 0.00000 -1.00000
vn -0.00000 0.00000 -1.00000
vn -0.00000 0.00000 -1.00000
vn 1.00000 0.00000 0.00000
vn 1.00000 0.00000 0.00000
vn 1.00000 0.00000 0.00000
vn 1.00000 0.00000 0.00000
vn -1.00000 0.00000 0.00000
vn -1.00000 0.00000 0.00000
vn -1.00000 0.00000 0.00000
vn -1.00000 0.00000 0.00000
vn -0.00000 -1.00000 0.00000
vn -0.00000 -1.00000 0.00000
vn -0.00000 -1.00000 0.00000
vn -0.00000 -1.00000 0.00000
vn -0.00000 0.00000 -1.00000
vn -0.00000 0.00000 -1.00000
vn -0.00000 0.00000 -1.00000
vn -0.00000 0.00000 -1.00000
vn 1.00000 0.00000 0.00000
vn 1.00000 0.00000 0.00000
vn 1.00000 0.00000 0.00000
vn 1.00000 0.00000 0.00000
vn -1.00000 0.00000 0.00000
vn -1.00000 0.00000 0.00000
vn -1.00000 0.00000 0.00000
vn -1.00000 0.00000 0.00000
vn -0.00000 0.00000 -1.00000
vn -0.00000 0.00000 -1.00000
vn -0.00000 0.00000 -1.00000
vn -0.00000 0.00000 -1.00000
vn -0.00000 1.00000 0.00000
vn -0.00000 1.00000 0.00000
vn -0.00000 1.00000 0.00000
vn -0.00000 1.00000 0.00000
vn -0.00000 -1.00000 0.00000
vn -0.00000 -1.00000 0.00000
vn -0.00000 -1.00000 0.00000
vn -0.00000 -1.00000 0.00000
vn -0.00000 0.00000 -1.00000
vn -0.00000 0.00000 -1.00000
vn -0.00000 0.00000 -1.00000
vn -0.00000 0.00000 -1.00000
vn -0.00000 1.00000 0.00000
vn -0.00000 1.00000 0.00000
vn -0.00000 1.00000 0.00000
vn -0.00000 1.00000 0.00000
vn -0.00000 -1.00000 0.00000
vn -0.00000 -1.00000 0.00000
vn -0.00000 -1.00000 0.00000
vn -0.00000 -1.00000 0.00000
vn -0.00000 0.00000 -1.00000
vn -0.00000 0.00000 -1.00000
vn -0.00000 0.00000 -1.00000
vn -0.00000 0.00000 -1.00000
vn 1.00000 0.00000 0.00000
vn 1.00000 0.00000 0.00000
vn 1.00000 0.00000 0.00000
vn 1.00000 0.00000 0.00000
vn -1.00000 0.00000 0.00000
vn -1.00000 0.00000 0.00000
vn -1.00000 0.00000 0.00000
vn -1.00000 0.00000 0.00000
vn -0.00000 0.00000 -1.00000
vn -0.00000 0.00000 -1.00000
vn -0.00000 0.00000 -1.00000
vn -0.00000 0.00000 -1.00000
vn -0.00000 1.00000 0.00000
vn -0.00000 1.00000 0.00000
vn -0.00000 1.00000 0.00000
vn -0.00000 1.00000 0.00000
vn -0.00000 -1.00000 0.00000
vn -0.00000 -1.00000 0.00000
vn -0.00000 -1.00000 0.00000
vn -0.00000 -1.00000 0.00000
vn -0.00000 0.00000 -1.00000
vn -0.00000 0.00000 -1.00000
vn -0.00000 0.00000 -1.00000
vn -0.00000 0.00000 -1.00000
vn 1.00000 0.00000 0.00000
vn 1.00000 0.00000 0.00000
vn 1.00000 0.00000 0.00000
vn 1.00000 0.00000 0.00000
vn -1.00000 0.00000 0.00000
vn -1.00000 0.00000 0.00000
vn -1.00000 0.00000 0.00000
vn -1.00000 0.00000 0.00000
vn -0.00000 0.00000 -1.00000
vn -0.00000 0.00000 -1.00000
vn -0.00000 0.00000 -1.00000
vn -0.00000 0.00000 -1.00000
vn 1.00000 0.00000 0.00000
vn 1.00000 0.00000 0.00000
vn 1.00000 0.00000 0.00000
vn 1.00000 0.00000 0.00000
vn -1.00000 0.00000 0.00000
vn -1.00000 0.00000 0.00000
vn -1.00000 0.00000 0.00000
vn -1.00000 0.00000 0.00000
vn -0.00000 1.00000 0.00000
vn -0.00000 1.00000 0.00000
vn -0.00000 1.00000 0.00000
vn -0.00000 1.00000 0.00000
vn -0.00000 -1.00000 0.00000
vn -0.00000 -1.00000 0.00000
vn -0.00000 -1.00000 0.00000
vn -0.00000 -1.00000 0.00000
vn -0.00000 0.00000 -1.00000
vn -0.00000 0.00000 -1.00000
vn -0.00000 0.00000 -1.00000
vn -0.00000 0.00000 -1.00000
vn 1.00000 0.00000 0.00000
vn 1.00000 0.00000 0.00000
vn 1.00000 0.00000 0.00000
vn 1.00000 0.00000 0.00000
vn -1.00000 0.00000 0.00000
vn -1.00000 0.00000 0.00000
vn -1.00000 0.00000 0.00000
vn -1.00000 0.00000 0.00000
vn -0.00000 0.00000 -1.00000
vn -0.00000 0.00000 -1.00000
vn -0.00000 0.00000 -1.00000
vn -0.00000 0.00000 -1.00000
vn 1.00000 0.00000 0.00000
vn 1.00000 0.00000 0.00000
vn 1.00000 0.00000 0.00000
vn 1.00000 0.00000 0.00000
vn -1.00000 0.00000 0.00000
vn -1.00000 0.00000 0.00000
vn -1.00000 0.00000 0.00000
vn -1.00000 0.00000 0.00000
vn -0.00000 0.00000 -1.00000
vn -0.00000 0.00000 -1.00000
vn -0.00000 0.00000 -1.00000
vn -0.00000 0.00000 -1.00000
vn 1.00000 0.00000 0.00000
vn 1.00000 0.00000 0.00000
vn 1.00000 0.00000 0.00000
vn 1.00000 0.00000 0.00000
vn -1.00000 0.00000 0.00000
vn -1.00000 0.00000 0.00000
vn -1.00000 0.00000 0.00000
vn -1.00000 0.00000 0.00000
vn -0.00000 1.00000 0.00000
vn -0.00000 1.00000 0.00000
vn -0.00000 1.00000 0.00000
vn -0.00000 1.00000 0.00000
vn -0.00000 0.00000 -1.00000
vn -0.00000 0.00000 -1.00000
vn -0.00000 0.00000 -1.00000
vn -0.00000 0.00000 -1.00000
vn 1.00000 0.00000 0.00000
vn 1.00000 0.00000 0.00000
vn 1.00000 0.00000 0.00000
vn 1.00000 0.00000 0.00000
vn -0.00000 1.00000 0.00000
vn -0.00000 1.00000 0.00000
vn -0.00000 1.00000 0.00000
vn -0.00000 1.00000 0.00000
vn -0.00000 -1.00000 0.00000
vn -0.00000 -1.00000 0.00000
vn -0.00000 -1.00000 0.00000
vn -0.00000 -1.00000 0.00000
vn -0.00000 0.00000 -1.00000
vn -0.00000 0.00000 -1.00000
vn -0.00000 0.00000 -1.00000
vn -0.00000 0.00000 -1.00000
vn -0.00000 1.00000 0.00000
vn -0.00000 1.00000 0.00000
vn -0.00000 1.00000 0.00000
vn -0.00000 1.00000 0.00000
vn -0.00000 -1.00000 0.00000
vn -0.00000 -1.00000 0.00000
vn -0.00000 -1.00000 0.00000
vn -0.00000 -1.00000 0.00000
vn -0.00000 0.00000 -1.00000
vn -0.00000 0.00000 -1.00000
vn -0.00000 0.00000 -1.00000
vn -0.00000 0.00000 -1.00000
vn -1.00000 0.00000 0.00000
vn -1.00000 0.00000 0.00000
vn -1.00000 0.00000 0.00000
vn -1.00000 0.00000 0.00000
vn -0.00000 1.00000 0.00000
vn -0.00000 1.00000 0.00000
vn -0.00000 1.00000 0.00000
vn -0.00000 1.00000 0.00000
vn -0.00000 -1.00000 0.00000
vn -0.00000 -1.00000 0.00000
vn -0.00000 -1.00000 0.00000
vn -0.00000 -1.00000 0.00000
vn -0.00000 0.00000 -1.00000
vn -0.00000 0.00000 -1.00000
vn -0.00000 0.00000 -1.00000
vn -0.00000 0.00000 -1.00000
vn -1.00000 0.00000 0.00000
vn -1.00000 0.00000 0.00000
vn -1.00000 0.00000 0.00000
vn -1.00000 0.00000 0.00000
vn -0.00000 1.00000 0.00000
vn -0.00000 1.00000 0.00000
vn -0.00000 1.00000 0.00000
vn -0.00000 1.00000 0.00000
vn -0.00000 -1.00000 0.00000
vn -0.00000 -1.00000 0.00000
vn -0.00000 -1.00000 0.00000
vn -0.00000 -1.00000 0.00000
vn -0.00000 0.00000 -1.00000
vn -0.00000 0.00000 -1.00000
vn -0.00000 0.00000 -1.00000
vn -0.00000 0.00000 -1.00000
vn 1.00000 0.00000 0.00000
vn 1.00000 0.00000 0.00000
vn 1.00000 0.00000 0.00000
vn 1.00000 0.00000 0.00000
vn -0.00000 1.00000 0.00000
vn -0.00000 1.00000 0.00000
vn -0.00000 1.00000 0.00000
vn -0.00000 1.00000 0.00000
vn -0.00000 -1.00000 0.00000
vn -0.00000 -1.00000 0.00000
vn -0.00000 -1.00000 0.00000
vn -0.00000 -1.00000 0.00000
vn -0.00000 0.00000 -1.00000
vn -0.00000 0.00000 -1.00000
vn -0.00000 0.00000 -1.00000
vn -0.00000 0.00000 -1.00000
vn -1.00000 0.00000 0.00000
vn -1.00000 0.00000 0.00000
vn -1.00000 0.00000 0.00000
vn -1.00000 0.00000 0.00000
vn -0.00000 1.00000 0.00000
vn -0.00000 1.00000 0.00000
vn -0.00000 1.00000 0.00000
vn -0.00000 1.00000 0.00000
vn -0.00000 -1.00000 0.00000
vn -0.00000 -1.00000 0.00000
vn -0.00000 -1.00000 0.00000
vn -0.00000 -1.00000 0.00000
vn -0.00000 0.00000 -1.00000
vn -0.00000 0.00000 -1.00000
vn -0.00000 0.00000 -1.00000
vn -0.00000 0.00000 -1.00000
vn -0.00000 1.00000 0.00000
vn -0.00000 1.00000 0.00000
vn -0.00000 1.00000 0.00000
vn -0.00000 1.00000 0.00000
vn -0.00000 -1.00000 0.00000
vn -0.00000 -1.00000 0.00000
vn -0.00000 -1.00000 0.00000
vn -0.00000 -1.00000 0.00000
vn -0.00000 0.00000 -1.00000
vn -0.00000 0.00000 -1.00000
vn -0.00000 0.00000 -1.00000
vn -0.00000 0.00000 -1.00000
vn 1.00000 0.00000 0.00000
vn 1.00000 0.00000 0.00000
vn 1.00000 0.00000 0.00000
vn 1.00000 0.00000 0.00000
vn -1.00000 0.00000 0.00000
vn -1.00000 0.00000 0.00000
vn -1.00000 0.00000 0.00000
vn -1.00000 0.00000 0.00000
vn -0.00000 1.00000 0.00000
vn -0.00000 1.00000 0.00000
vn -0.00000 1.00000 0.00000
vn -0.00000 1.00000 0.00000
vn -0.00000 -1.00000 0.00000
vn -0.00000 -1.00000 0.00000
vn -0.00000 -1.00000 0.00000
vn -0.00000 -1.00000 0.00000
vn -0.00000 0.00000 -1.00000
vn -0.00000 0.00000 -1.00000
vn -0.00000 0.00000 -1.00000
vn -0.00000 0.00000 -1.00000
vn 1.00000 0.00000 0.00000
vn 1.00000 0.00000 0.00000
vn 1.00000 0.00000 0.00000
vn 1.00000 0.00000 0.00000
vn -1.00000 0.00000 0.00000
vn -1.00000 0.00000 0.00000
vn -1.00000 0.00000 0.00000
vn -1.00000 0.00000 0.00000
vn -0.00000 0.00000 -1.00000
vn -0.00000 0.00000 -1.00000
vn -0.00000 0.00000 -1.00000
vn -0.00000 0.00000 -1.00000
vn 1.00000 0.00000 0.00000
vn 1.00000 0.00000 0.00000
vn 1.00000 0.00000 0.00000
vn 1.00000 0.00000 0.00000
vn -1.00000 0.00000 0.00000
vn -1.00000 0.00000 0.00000
vn -1.00000 0.00000 0.00000
vn -1.00000 0.00000 0.00000
vn -0.00000 1.00000 0.00000
vn -0.00000 1.00000 0.00000
vn -0.00000 1.00000 0.00000
vn -0.00000 1.00000 0.00000
vn -0.00000 0.00000 -1.00000
vn -0.00000 0.00000 -1.00000
vn -0.00000 0.00000 -1.00000
vn -0.00000 0.00000 -1.00000
vn 1.00000 0.00000 0.00000
vn 1.00000 0.00000 0.00000
vn 1.00000 0.00000 0.00000
vn 1.00000 0.00000 0.00000
vn -1.00000 0.00000 0.00000
vn -1.00000 0.00000 0.00000
vn -1.00000 0.00000 0.00000
vn -1.00000 0.00000 0.00000
vn -0.00000 0.00000 -1.00000
vn -0.00000 0.00000 -1.00000
vn -0.00000 0.00000 -1.00000
vn -0.00000 0.00000 -1.00000
vn 1.00000 0.00000 0.00000
vn 1.00000 0.00000 0.00000
vn 1.00000 0.00000 0.00000
vn 1.00000 0.00000 0.00000
vn -1.00000 0.00000 0.00000
vn -1.00000 0.00000 0.00000
vn -1.00000 0.00000 0.00000
vn -1.00000 0.00000 0.00000
vn -0.00000 0.00000 -1.00000
vn -0.00000 0.00000 -1.00000
vn -0.00000 0.00000 -1.00000
vn -0.00000 0.00000 -1.00000
vn 1.00000 0.00000 0.00000
vn 1.00000 0.00000 0.00000
vn 1.00000 0.00000 0.00000
vn 1.00000 0.00000 0.00000
vn -1.00000 0.00000 0.00000
vn -1.00000 0.00000 0.00000
vn -1.00000 0.00000 0.00000
vn -1.00000 0.00000 0.00000
vn -0.00000 0.00000 -1.00000
vn -0.00000 0.00000 -1.00000
vn -0.00000 0.00000 -1.00000
vn -0.00000 0.00000 -1.00000
vn 1.00000 0.00000 0.00000
vn 1.00000 0.00000 0.00000
vn 1.00000 0.00000 0.00000
vn 1.00000 0.00000 0.00000
vn -0.00000 1.00000 0.00000
vn -0.00000 1.00000 0.00000
vn -0.00000 1.00000 0.00000
vn -0.00000 1.00000 0.00000
vn -0.00000 -1.00000 0.00000
vn -0.00000 -1.00000 0.00000
vn -0.00000 -1.00000 0.00000
vn -0.00000 -1.00000 0.00000
vn -0.00000 0.00000 -1.00000
vn -0.00000 0.00000 -1.00000
vn -0.00000 0.00000 -1.00000
vn -0.00000 0.00000 -1.00000
vn 1.00000 0.00000 0.00000
vn 1.00000 0.00000 0.00000
vn 1.00000 0.00000 0.00000
vn 1.00000 0.00000 0.00000
vn -1.00000 0.00000 0.00000
vn -1.00000 0.00000 0.00000
vn -1.00000 0.00000 0.00000
vn -1.00000 0.00000 0.00000
vn -0.00000 -1.00000 0.00000
vn -0.00000 -1.00000 0.00000
vn -0.00000 -1.00000 0.00000
vn -0.00000 -1.00000 0.00000
vn -0.00000 0.00000 -1.00000
vn -0.00000 0.00000 -1.00000
vn -0.00000 0.00000 -1.00000
vn -0.00000 0.00000 -1.00000
vn -0.00000 1.00000 0.00000
vn -0.00000 1.00000 0.00000
vn -0.00000 1.00000 0.00000
vn -0.00000 1.00000 0.00000
vn -0.00000 0.00000 -1.00000
vn -0.00000 0.00000 -1.00000
vn -0.00000 0.00000 -1.00000
vn -0.00000 0.00000 -1.00000
vn 1.00000 0.00000 0.00000
vn 1.00000 0.00000 0.00000
vn 1.00000 0.00000 0.00000
vn 1.00000 0.00000 0.00000
vn -1.00000 0.00000 0.00000
vn -1.00000 0.00000 0.00000
vn -1.00000 0.00000 0.00000
vn -1.00000 0.00000 0.00000
vn -0.00000 0.00000 -1.00000
vn -0.00000 0.00000 -1.00000
vn -0.00000 0.00000 -1.00000
vn -0.00000 0.00000 -1.00000
vn -1.00000 0.00000 0.00000
vn -1.00000 0.00000 0.00000
vn -1.00000 0.00000 0.00000
vn -1.00000 0.00000 0.00000
vn -0.00000 1.00000 0.00000
vn -0.00000 1.00000 0.00000
vn -0.00000 1.00000 0.00000
vn -0.00000 1.00000 0.00000
vn -0.00000 -1.00000 0.00000
vn -0.00000 -1.00000 0.00000
vn -0.00000 -1.00000 0.00000
vn -0.00000 -1.00000 0.00000
vn -0.00000 0.00000 -1.00000
vn -0.00000 0.00000 -1.00000
vn -0.00000 0.00000 -1.00000
vn -0.00000 0.00000 -1.00000
vn 1.00000 0.00000 0.00000
vn 1.00000 0.00000 0.00000
vn 1.00000 0.00000 0.00000
vn 1.00000 0.00000 0.00000
vn -1.00000 0.00000 0.00000
vn -1.00000 0.00000 0.00000
vn -1.00000 0.00000 0.00000
vn -1.00000 0.00000 0.00000
vn -0.00000 -1.00000 0.00000
vn -0.00000 -1.00000 0.00000
vn -0.00000 -1.00000 0.00000
vn -0.00000 -1.00000 0.00000
vn -0.00000 0.00000 -1.00000
vn -0.00000 0.00000 -1.00000
vn -0.00000 0.00000 -1.00000
vn -0.00000 0.00000 -1.00000
vn 1.00000 0.00000 0.00000
vn 1.00000 0.00000 0.00000
vn 1.00000 0.00000 0.00000
vn 1.00000 0.00000 0.00000
vn -0.00000 1.00000 0.00000
vn -0.00000 1.00000 0.00000
vn -0.00000 1.00000 0.00000
vn -0.00000 1.00000 0.00000
vn -0.00000 0.00000 -1.00000
vn -0.00000 0.00000 -1.00000
vn -0.00000 0.00000 -1.00000
vn -0.00000 0.00000 -1.00000
vn 1.00000 0.00000 0.00000
vn 1.00000 0.00000 0.00000
vn 1.00000 0.00000 0.00000
vn 1.00000 0.00000 0.00000
vn -0.00000 0.00000 -1.00000
vn -0.00000 0.00000 -1.00000
vn -0.00000 0.00000 -1.00000
vn -0.00000 0.00000 -1.00000
vn -0.00000 1.00000 0.00000
vn -0.00000 1.00000 0.00000
vn -0.00000 1.00000 0.00000
vn -0.00000 1.00000 0.00000
vn -0.00000 -1.00000 0.00000
vn -0.00000 -1.00000 0.00000
vn -0.00000 -1.00000 0.00000
vn -0.00000 -1.00000 0.00000
vn -0.00000 0.00000 -1.00000
vn -0.00000 0.00000 -1.00000
vn -0.00000 0.00000 -1.00000
vn -0.00000 0.00000 -1.00000
vn 1.00000 0.00000 0.00000
vn 1.00000 0.00000 0.00000
vn 1.00000 0.00000 0.00000
vn 1.00000 0.00000 0.00000
vn -1.00000 0.00000 0.00000
vn -1.00000 0.00000 0.00000
vn -1.00000 0.00000 0.00000
vn -1.00000 0.00000 0.00000
vn -0.00000 -1.00000 0.00000
vn -0.00000 -1.00000 0.00000
vn -0.00000 -1.00000 0.00000
vn -0.00000 -1.00000 0.00000
vn -0.00000 0.00000 -1.00000
vn -0.00000 0.00000 -1.00000
vn -0.00000 0.00000 -1.00000
vn -0.00000 0.00000 -1.00000
vn -0.00000 1.00000 0.00000
vn -0.00000 1.00000 0.00000
vn -0.00000 1.00000 0.00000
vn -0.00000 1.00000 0.00000
vn -0.00000 0.00000 -1.00000
vn -0.00000 0.00000 -1.00000
vn -0.00000 0.00000 -1.00000
vn -0.00000 0.00000 -1.00000
vn 1.00000 0.00000 0.00000
vn 1.00000 0.00000 0.00000
vn 1.00000 0.00000 0.00000
vn 1.00000 0.00000 0.00000
vn -0.00000 -1.00000 0.00000
vn -0.00000 -1.00000 0.00000
vn -0.00000 -1.00000 0.00000
vn -0.00000 -1.00000 0.00000
vn -0.00000 0.00000 -1.00000
vn -0.00000 0.00000 -1.00000
vn -0.00000 0.00000 -1.00000
vn -0.00000 0.00000 -1.00000
vn -0.00000 1.00000 0.00000
vn -0.00000 1.00000 0.00000
vn -0.00000 1.00000 0.00000
vn -0.00000 1.00000 0.00000
vn -0.00000 -1.00000 0.00000
vn -0.00000 -1.00000 0.00000
vn -0.00000 -1.00000 0.00000
vn -0.00000 -1.00000 0.00000
vn -0.00000 0.00000 -1.00000
vn -0.00000 0.00000 -1.00000
vn -0.00000 0.00000 -1.00000
vn -0.00000 0.00000 -1.00000
vn 1.00000 0.00000 0.00000
vn 1.00000 0.00000 0.00000
vn 1.00000 0.00000 0.00000
vn 1.00000 0.00000 0.00000
vn -1.00000 0.00000 0.00000
vn -1.00000 0.00000 0.00000
vn -1.00000 0.00000 0.00000
vn -1.00000 0.00000 0.00000
vn -0.00000 0.00000 -1.00000
vn -0.00000 0.00000 -1.00000
vn -0.00000 0.00000 -1.00000
vn -0.00000 0.00000 -1.00000
vn -0.00000 1.00000 0.00000
vn -0.00000 1.00000 0.00000
vn -0.00000 1.00000 0.00000
vn -0.00000 1.00000 0.00000
vn -0.00000 -1.00000 0.00000
vn -0.00000 -1.00000 0.00000
vn -0.00000 -1.00000 0.00000
vn -0.00000 -1.00000 0.00000
vn -0.00000 0.00000 -1.00000
vn -0.00000 0.00000 -1.00000
vn -0.00000 0.00000 -1.00000
vn -0.00000 0.00000 -1.00000
vn -0.00000 -1.00000 0.00000
vn -0.00000 -1.00000 0.00000
vn -0.00000 -1.00000 0.00000
vn -0.00000 -1.00000 0.00000
vn -0.00000 0.00000 -1.00000
vn -0.00000 0.00000 -1.00000
vn -0.00000 0.00000 -1.00000
vn -0.00000 0.00000 -1.00000
vn 1.00000 0.00000 0.00000
vn 1.00000 0.00000 0.00000
vn 1.00000 0.00000 0.00000
vn 1.00000 0.00000 0.00000
vn -1.00000 0.00000 0.00000
vn -1.00000 0.00000 0.00000
vn -1.00000 0.00000 0.00000
vn -1.00000 0.00000 0.00000
vn -0.00000 1.00000 0.00000
vn -0.00000 1.00000 0.00000
vn -0.00000 1.00000 0.00000
vn -0.00000 1.00000 0.00000
vn -0.00000 -1.00000 0.00000
vn -0.00000 -1.00000 0.00000
vn -0.00000 -1.00000 0.00000
vn -0.00000 -1.00000 0.00000
vn -0.00000 0.00000 -1.00000
vn -0.00000 0.00000 -1.00000
vn -0.00000 0.00000 -1.00000
vn -0.00000 0.00000 -1.00000
vn 1.00000 0.00000 0.00000
vn 1.00000 0.00000 0.00000
vn 1.00000 0.00000 0.00000
vn 1.00000 0.00000 0.00000
vn -1.00000 0.00000 0.00000
vn -1.00000 0.00000 0.00000
vn -1.00000 0.00000 0.00000
vn -1.00000 0.00000 0.00000
vn -0.00000 1.00000 0.00000
vn -0.00000 1.00000 0.00000
vn -0.00000 1.00000 0.00000
vn -0.00000 1.00000 0.00000
vn -0.00000 0.00000 -1.00000
vn -0.00000 0.00000 -1.00000
vn -0.00000 0.00000 -1.00000
vn -0.00000 0.00000 -1.00000
vn 1.00000 0.00000 0.00000
vn 1.00000 0.00000 0.00000
vn 1.00000 0.00000 0.00000
vn 1.00000 0.00000 0.00000
vn -1.00000 0.00000 0.00000
vn -1.00000 0.00000 0.00000
vn -1.00000 0.00000 0.00000
vn -1.00000 0.00000 0.00000
vn -0.00000 -1.00000 0.00000
vn -0.00000 -1.00000 0.00000
vn -0.00000 -1.00000 0.00000
vn -0.00000 -1.00000 0.00000
vn -0.00000 0.00000 -1.00000
vn -0.00000 0.00000 -1.00000
vn -0.00000 0.00000 -1.00000
vn -0.00000 0.00000 -1.00000
vn 1.00000 0.00000 0.00000
vn 1.00000 0.00000 0.00000
vn 1.00000 0.00000 0.00000
vn 1.00000 0.00000 0.00000
vn -1.00000 0.00000 0.00000
vn -1.00000 0.00000 0.00000
vn -1.00000 0.00000 0.00000
vn -1.00000 0.00000 0.00000
vn -0.00000 0.00000 -1.00000
vn -0.00000 0.00000 -1.00000
vn -0.00000 0.00000 -1.00000
vn -0.00000 0.00000 -1.00000
vn 1.00000 0.00000 0.00000
vn 1.00000 0.00000 0.00000
vn 1.00000 0.00000 0.00000
vn 1.00000 0.00000 0.00000
vn -1.00000 0.00000 0.00000
vn -1.00000 0.00000 0.00000
vn -1.00000 0.00000 0.00000
vn -1.00000 0.00000 0.00000
usemtl PlacaBotonExit
s off
f 1//1 2//2 3//3
f 1//1 3//3 4//4
f 1//1 4//4 5//5
f 1//1 5//5 6//6
f 1//1 6//6 7//7
f 1//1 7//7 8//8
f 1//1 8//8 9//9
f 1//1 9//9 10//10
f 1//1 10//10 11//11
f 1//1 11//11 12//12
f 1//1 12//12 13//13
f 1//1 13//13 14//14
f 1//1 14//14 15//15
f 1//1 15//15 16//16
f 1//1 16//16 17//17
f 1//1 17//17 18//18
f 1//1 18//18 19//19
f 1//1 19//19 20//20
f 1//1 20//20 21//21
f 1//1 21//21 22//22
f 1//1 22//22 23//23
f 1//1 23//23 24//24
f 1//1 24//24 25//25
f 1//1 25//25 26//26
f 1//1 26//26 27//27
f 1//1 27//27 28//28
f 1//1 28//28 29//29
f 1//1 29//29 2//2
f 30//30 32//32 31//31
f 30//30 33//33 32//32
f 30//30 34//34 33//33
f 30//30 35//35 34//34
f 30//30 36//36 35//35
f 30//30 37//37 36//36
f 30//30 38//38 37//37
f 30//30 39//39 38//38
f 30//30 40//40 39//39
f 30//30 41//41 40//40
f 30//30 42//42 41//41
f 30//30 43//43 42//42
f 30//30 44//44 43//43
f 30//30 45//45 44//44
f 30//30 46//46 45//45
f 30//30 47//47 46//46
f 30//30 48//48 47//47
f 30//30 49//49 48//48
f 30//30 50//50 49//49
f 30//30 51//51 50//50
f 30//30 52//52 51//51
f 30//30 53//53 52//52
f 30//30 54//54 53//53
f 30//30 55//55 54//54
f 30//30 56//56 55//55
f 30//30 57//57 56//56
f 30//30 58//58 57//57
f 30//30 31//31 58//58
f 59//59 61//61 60//60
f 59//59 62//62 61//61
f 63//63 65//65 64//64
f 63//63 66//66 65//65
f 67//67 69//69 68//68
f 67//67 70//70 69//69
f 71//71 73//73 72//72
f 71//71 74//74 73//73
f 75//75 77//77 76//76
f 75//75 78//78 77//77
f 79//79 81//81 80//80
f 79//79 82//82 81//81
f 83//83 85//85 84//84
f 83//83 86//86 85//85
f 87//87 89//89 88//88
f 87//87 90//90 89//89
f 91//91 93//93 92//92
f 91//91 94//94 93//93
f 95//95 97//97 96//96
f 95//95 98//98 97//97
f 99//99 101//101 100//100
f 99//99 102//102 101//101
f 103//103 105//105 104//104
f 103//103 106//106 105//105
f 107//107 109//109 108//108
f 107//107 110//110 109//109
f 111//111 113//113 112//112
f 111//111 114//114 113//113
f 115//115 117//117 116//116
f 115//115 118//118 117//117
f 119//119 121//121 120//120
f 119//119 122//122 121//121
f 123//123 125//125 124//124
f 123//123 126//126 125//125
f 127//127 129//129 128//128
f 127//127 130//130 129//129
f 131//131 133//133 132//132
f 131//131 134//134 133//133
f 135//135 137//137 136//136
f 135//135 138//138 137//137
f 139//139 141//141 140//140
f 139//139 142//142 141//141
f 143//143 145//145 144//144
f 143//143 146//146 145//145
f 147//147 149//149 148//148
f 147//147 150//150 149//149
f 151//151 153//153 152//152
f 151//151 154//154 153//153
f 155//155 157//157 156//156
f 155//155 158//158 157//157
f 159//159 161//161 160//160
f 159//159 162//162 161//161
f 163//163 165//165 164//164
f 163//163 166//166 165//165
f 167//167 169//169 168//168
f 167//167 170//170 169//169
usemtl Letras
s off
f 171//171 173//173 172//172
f 171//171 174//174 173//173
f 175//175 176//176 177//177
f 175//175 177//177 178//178
f 179//179 181//181 180//180
f 179//179 182//182 181//181
f 183//183 185//185 184//184
f 183//183 186//186 185//185
f 187//187 189//189 188//188
f 187//187 190//190 189//189
f 191//191 193//193 192//192
f 191//191 194//194 193//193
f 195//195 197//197 196//196
f 195//195 198//198 197//197
f 199//199 201//201 200//200
f 199//199 202//202 201//201
f 203//203 204//204 205//205
f 203//203 205//205 206//206
f 207//207 209//209 208//208
f 207//207 210//210 209//209
f 211//211 213//213 212//212
f 211//211 214//214 213//213
f 215//215 217//217 216//216
f 215//215 218//218 217//217
f 219//219 220//220 221//221
f 219//219 221//221 222//222
f 223//223 224//224 225//225
f 223//223 225//225 226//226
f 227//227 229//229 228//228
f 227//227 230//230 229//229
f 231//231 233//233 232//232
f 231//231 234//234 233//233
f 235//235 237//237 236//236
f 235//235 238//238 237//237
f 239//239 241//241 240//240
f 239//239 242//242 241//241
f 243//243 245//245 244//244
f 243//243 246//246 245//245
f 247//247 249//249 248//248
f 247//247 250//250 249//249
f 251//251 252//252 253//253
f 251//251 253//253 254//254
f 255//255 256//256 257//257
f 255//255 257//257 258//258
f 259//259 261//261 260//260
f 259//259 262//262 261//261
f 263//263 264//264 265//265
f 263//263 265//265 266//266
f 267//267 268//268 269//269
f 267//267 269//269 270//270
f 271//271 273//273 272//272
f 271//271 274//274 273//273
f 275//275 277//277 276//276
f 275//275 278//278 277//277
f 279//279 281//281 280//280
f 279//279 282//282 281//281
f 283//283 284//284 285//285
f 283//283 285//285 286//286
f 287//287 288//288 289//289
f 287//287 289//289 290//290
f 291//291 293//293 292//292
f 291//291 294//294 293//293
f 295//295 297//297 296//296
f 295//295 298//298 297//297
f 299//299 300//300 301//301
f 299//299 301//301 302//302
f 303//303 304//304 305//305
f 303//303 305//305 306//306
f 307//307 309//309 308//308
f 307//307 310//310 309//309
f 311//311 313//313 312//312
f 311//311 314//314 313//313
f 315//315 316//316 317//317
f 315//315 317//317 318//318
f 319//319 320//320 321//321
f 319//319 321//321 322//322
f 323//323 325//325 324//324
f 323//323 326//326 325//325
f 327//327 329//329 328//328
f 327//327 330//330 329//329
f 331//331 333//333 332//332
f 331//331 334//334 333//333
f 335//335 337//337 336//336
f 335//335 338//338 337//337
f 339//339 341//341 340//340
f 339//339 342//342 341//341
f 343//343 345//345 344//344
f 343//343 346//346 345//345
f 347//347 349//349 348//348
f 347//347 350//350 349//349
f 351//351 352//352 353//353
f 351//351 353//353 354//354
f 355//355 356//356 357//357
f 355//355 357//357 358//358
f 359//359 361//361 360//360
f 359//359 362//362 361//361
f 363//363 365//365 364//364
f 363//363 366//366 365//365
f 367//367 369//369 368//368
f 367//367 370//370 369//369
f 371//371 373//373 372//372
f 371//371 374//374 373//373
f 375//375 376//376 377//377
f 375//375 377//377 378//378
f 379//379 380//380 381//381
f 379//379 381//381 382//382
f 383//383 385//385 384//384
f 383//383 386//386 385//385
f 387//387 388//388 389//389
f 387//387 389//389 390//390
f 391//391 392//392 393//393
f 391//391 393//393 394//394
f 395//395 397//397 396//396
f 395//395 398//398 397//397
f 399//399 401//401 400//400
f 399//399 402//402 401//401
f 403//403 405//405 404//404
f 403//403 406//406 405//405
f 407//407 408//408 409//409
f 407//407 409//409 410//410
f 411//411 412//412 413//413
f 411//411 413//413 414//414
f 415//415 417//417 416//416
f 415//415 418//418 417//417
f 419//419 420//420 421//421
f 419//419 421//421 422//422
f 423//423 424//424 425//425
f 423//423 425//425 426//426
f 427//427 429//429 428//428
f 427//427 430//430 429//429
f 431//431 432//432 433//433
f 431//431 433//433 434//434
f 435//435 436//436 437//437
f 435//435 437//437 438//438
f 439//439 441//441 440//440
f 439//439 442//442 441//441
f 443//443 445//445 444//444
f 443//443 446//446 445//445
f 447//447 448//448 449//449
f 447//447 449//449 450//450
f 451//451 453//453 452//452
f 451//451 454//454 453//453
f 455//455 457//457 456//456
f 455//455 458//458 457//457
f 459//459 461//461 460//460
f 459//459 462//462 461//461
f 463//463 465//465 464//464
f 463//463 466//466 465//465
f 467//467 469//469 468//468
f 467//467 470//470 469//469
f 471//471 473//473 472//472
f 471//471 474//474 473//473
f 475//475 476//476 477//477
f 475//475 477//477 478//478
f 479//479 481//481 480//480
f 479//479 482//482 481//481
f 483//483 485//485 484//484
f 483//483 486//486 485//485
f 487//487 489//489 488//488
f 487//487 490//490 489//489
f 491//491 492//492 493//493
f 491//491 493//493 494//494
f 495//495 497//497 496//496
f 495//495 498//498 497//497
f 499//499 501//501 500//500
f 499//499 502//502 501//501
f 503//503 505//505 504//504
f 503//503 506//506 505//505
f 507//507 508//508 509//509
f 507//507 509//509 510//510
f 511//511 513//513 512//512
f 511//511 514//514 513//513
f 515//515 517//517 516//516
f 515//515 518//518 517//517
f 519//519 521//521 520//520
f 519//519 522//522 521//521
f 523//523 524//524 525//525
f 523//523 525//525 526//526
f 527//527 529//529 528//528
f 527//527 530//530 529//529
f 531//531 533//533 532//532
f 531//531 534//534 533//533
f 535//535 537//537 536//536
f 535//535 538//538 537//537
f 539//539 541//541 540//540
f 539//539 542//542 541//541
f 543//543 545//545 544//544
f 543//543 546//546 545//545
f 547//547 549//549 548//548
f 547//547 550//550 549//549
f 551//551 552//552 553//553
f 551//551 553//553 554//554
f 555//555 556//556 557//557
f 555//555 557//557 558//558
f 559//559 561//561 560//560
f 559//559 562//562 561//561
f 563//563 565//565 564//564
f 563//563 566//566 565//565
f 567//567 569//569 568//568
f 567//567 570//570 569//569
f 571//571 572//572 573//573
f 571//571 573//573 574//574
f 575//575 576//576 577//577
f 575//575 577//577 578//578
f 579//579 581//581 580//580
f 579//579 582//582 581//581
f 583//583 584//584 585//585
f 583//583 585//585 586//586
f 587//587 588//588 589//589
f 587//587 589//589 590//590
f 591//591 593//593 592//592
f 591//591 594//594 593//593
f 595//595 597//597 596//596
f 595//595 598//598 597//597
f 599//599 600//600 601//601
f 599//599 601//601 602//602
f 603//603 604//604 605//605
f 603//603 605//605 606//606
f 607//607 609//609 608//608
f 607//607 610//610 609//609
f 611//611 612//612 613//613
f 611//611 613//613 614//614
f 615//615 616//616 617//617
f 615//615 617//617 618//618
f 619//619 621//621 620//620
f 619//619 622//622 621//621
f 623//623 624//624 625//625
f 623//623 625//625 626//626
f 627//627 628//628 629//629
f 627//627 629//629 630//630
f 631//631 633//633 632//632
f 631//631 634//634 633//633
f 635//635 636//636 637//637
f 635//635 637//637 638//638
f 639//639 641//641 640//640
f 639//639 642//642 641//641
f 643//643 645//645 644//644
f 643//643 646//646 645//645
f 647//647 649//649 648//648
f 647//647 650//650 649//649
f 651//651 652//652 653//653
f 651//651 653//653 654//654
f 655//655 656//656 657//657
f 655//655 657//657 658//658
f 659//659 661//661 660//660
f 659//659 662//662 661//661
f 663//663 665//665 664//664
f 663//663 666//666 665//665
f 667//667 669//669 668//668
f 667//667 670//670 669//669
f 671//671 673//673 672//672
f 671//671 674//674 673//673
f 675//675 676//676 677//677
f 675//675 677//677 678//678
f 679//679 680//680 681//681
f 679//679 681//681 682//682
f 683//683 685//685 684//684
f 683//683 686//686 685//685
f 687//687 688//688 689//689
f 687//687 689//689 690//690
f 691//691 693//693 692//692
f 691//691 694//694 693//693
f 695//695 697//697 696//696
f 695//695 698//698 697//697
f 699//699 701//701 700//700
f 699//699 702//702 701//701
f 703//703 704//704 705//705
f 703//703 705//705 706//706
f 707//707 708//708 709//709
f 707//707 709//709 710//710
f 711//711 713//713 712//712
f 711//711 714//714 713//713
f 715//715 717//717 716//716
f 715//715 718//718 717//717
f 719//719 720//720 721//721
f 719//719 721//721 722//722
f 723//723 725//725 724//724
f 723//723 726//726 725//725
f 727//727 729//729 728//728
f 727//727 730//730 729//729
f 731//731 732//732 733//733
f 731//731 733//733 734//734
f 735//735 737//737 736//736
f 735//735 738//738 737//737
f 739//739 741//741 740//740
f 739//739 742//742 741//741
f 743//743 745//745 744//744
f 743//743 746//746 745//745
f 747//747 749//749 748//748
f 747//747 750//750 749//749
f 751//751 752//752 753//753
f 751//751 753//753 754//754
f 755//755 756//756 757//757
f 755//755 757//757 758//758
f 759//759 761//761 760//760
f 759//759 762//762 761//761
f 763//763 765//765 764//764
f 763//763 766//766 765//765
f 767//767 769//769 768//768
f 767//767 770//770 769//769
f 771//771 773//773 772//772
f 771//771 774//774 773//773
f 775//775 776//776 777//777
f 775//775 777//777 778//778
f 779//779 781//781 780//780
f 779//779 782//782 781//781
f 783//783 785//785 784//784
f 783//783 786//786 785//785
f 787//787 789//789 788//788
f 787//787 790//790 789//789
f 791//791 793//793 792//792
f 791//791 794//794 793//793
f 795//795 797//797 796//796
f 795//795 798//798 797//797
f 799//799 800//800 801//801
f 799//799 801//801 802//802
f 803//803 804//804 805//805
f 803//803 805//805 806//806
f 807//807 809//809 808//808
f 807//807 810//810 809//809
f 811//811 813//813 812//812
f 811//811 814//814 813//813
f 815//815 817//817 816//816
f 815//815 818//818 817//817
f 819//819 821//821 820//820
f 819//819 822//822 821//821
f 823//823 825//825 824//824
f 823//823 826//826 825//825
f 827//827 829//829 828//828
f 827//827 830//830 829//829
f 831//831 832//832 833//833
f 831//831 833//833 834//834
f 835//835 836//836 837//837
f 835//835 837//837 838//838
f 839//839 841//841 840//840
f 839//839 842//842 841//841
f 843//843 845//845 844//844
f 843//843 846//846 845//845
f 847//847 849//849 848//848
f 847//847 850//850 849//849
f 851//851 852//852 853//853
f 851//851 853//853 854//854
f 855//855 856//856 857//857
f 855//855 857//857 858//858
f 859//859 861//861 860//860
f 859//859 862//862 861//861
f 863//863 865//865 864//864
f 863//863 866//866 865//865
f 867//867 868//868 869//869
f 867//867 869//869 870//870
f 871//871 872//872 873//873
f 871//871 873//873 874//874
f 875//875 877//877 876//876
f 875//875 878//878 877//877
f 879//879 881//881 880//880
f 879//879 882//882 881//881
f 883//883 884//884 885//885
f 883//883 885//885 886//886
f 887//887 888//888 889//889
f 887//887 889//889 890//890
f 891//891 893//893 892//892
f 891//891 894//894 893//893
f 895//895 896//896 897//897
f 895//895 897//897 898//898
f 899//899 900//900 901//901
f 899//899 901//901 902//902
